{
 "accessors": [
  {
   "bufferView": 0,
   "componentType": 5126,
   "type": "VEC3",
   "count": 212,
   "min": [
    -1.97000003,
    0,
    -1.16999996
   ],
   "max": [
    0.800000012,
    0.5,
    1.16999996
   ]
  },
  {
   "bufferView": 1,
   "componentType": 5126,
   "type": "VEC3",
   "count": 212
  },
  {
   "bufferView": 2,
   "componentType": 5126,
   "type": "VEC2",
   "count": 212
  },
  {
   "bufferView": 3,
   "componentType": 5125,
   "type": "SCALAR",
   "count": 318
  }
 ],
 "asset": {
  "generator": "Traktor",
  "version": "2.0"
 },
 "bufferViews": [
  {
   "buffer": 0,
   "byteLength": 2544
  },
  {
   "buffer": 0,
   "byteLength": 2544,
   "byteOffset": 2544
  },
  {
   "buffer": 0,
   "byteLength": 1696,
   "byteOffset": 5088
  },
  {
   "buffer": 0,
   "byteLength": 1272,
   "byteOffset": 6784
  }
 ],
 "buffers": [
  {
   "uri": "data:application/octet-stream;base64,",
   "byteLength": 8056
  }
 ],
 "meshes": [
  {
   "primitives": [
    {
     "indices": 3,
     "material": 0,
     "attributes": {
      "POSITION": 0,
      "NORMAL": 1,
      "TEXCOORD_0": 2
     }
    }
   ]
  }
 ],
 "materials": [
  {
   "name": "Cem_OpenGraveMat",
   "pbrMetallicRoughness": {
    "metallicFactor": 0,
    "roughnessFactor": 0.800000012,
    "baseColorTexture": {
     "index": 0,
     "texCoord": 0
    }
   },
   "normalTexture": {
    "index": 1,
    "texCoord": 0
   }
  }
 ],
 "nodes": [
  {
   "mesh": 0
  }
 ],
 "scene": 0,
 "scenes": [
  {
   "nodes": [
    0
   ]
  }
 ],
 "textures": [
  {
   "name": "diffuse"
  },
  {
   "name": "normal"
  }
 ]
}