{
  "accessors": [
    {
      "bufferView": 0,
      "componentType": 5126,
      "type": "MAT4",
      "count": 79
    },
    {
      "bufferView": 1,
      "componentType": 5126,
      "type": "SCALAR",
      "count": 131,
      "min": [0],
      "max": [4.33333349]
    },
    {
      "bufferView": 2,
      "componentType": 5126,
      "type": "VEC3",
      "count": 131
    },
    {
      "bufferView": 3,
      "componentType": 5126,
      "type": "VEC3",
      "count": 131
    },
    {
      "bufferView": 4,
      "componentType": 5126,
      "type": "VEC3",
      "count": 131
    },
    {
      "bufferView": 5,
      "componentType": 5126,
      "type": "VEC3",
      "count": 131
    },
    {
      "bufferView": 6,
      "componentType": 5126,
      "type": "VEC3",
      "count": 131
    },
    {
      "bufferView": 7,
      "componentType": 5126,
      "type": "VEC3",
      "count": 131
    },
    {
      "bufferView": 8,
      "componentType": 5126,
      "type": "VEC3",
      "count": 131
    },
    {
      "bufferView": 9,
      "componentType": 5126,
      "type": "VEC3",
      "count": 131
    },
    {
      "bufferView": 10,
      "componentType": 5126,
      "type": "VEC3",
      "count": 131
    },
    {
      "bufferView": 11,
      "componentType": 5126,
      "type": "VEC3",
      "count": 131
    },
    {
      "bufferView": 12,
      "componentType": 5126,
      "type": "VEC3",
      "count": 131
    },
    {
      "bufferView": 13,
      "componentType": 5126,
      "type": "VEC3",
      "count": 131
    },
    {
      "bufferView": 14,
      "componentType": 5126,
      "type": "VEC3",
      "count": 131
    },
    {
      "bufferView": 15,
      "componentType": 5126,
      "type": "VEC3",
      "count": 131
    },
    {
      "bufferView": 16,
      "componentType": 5126,
      "type": "VEC3",
      "count": 131
    },
    {
      "bufferView": 17,
      "componentType": 5126,
      "type": "VEC3",
      "count": 131
    },
    {
      "bufferView": 18,
      "componentType": 5126,
      "type": "VEC3",
      "count": 131
    },
    {
      "bufferView": 19,
      "componentType": 5126,
      "type": "VEC3",
      "count": 131
    },
    {
      "bufferView": 20,
      "componentType": 5126,
      "type": "VEC3",
      "count": 131
    },
    {
      "bufferView": 21,
      "componentType": 5126,
      "type": "VEC3",
      "count": 131
    },
    {
      "bufferView": 22,
      "componentType": 5126,
      "type": "VEC3",
      "count": 131
    },
    {
      "bufferView": 23,
      "componentType": 5126,
      "type": "VEC3",
      "count": 131
    },
    {
      "bufferView": 24,
      "componentType": 5126,
      "type": "VEC3",
      "count": 131
    },
    {
      "bufferView": 25,
      "componentType": 5126,
      "type": "VEC3",
      "count": 131
    },
    {
      "bufferView": 26,
      "componentType": 5126,
      "type": "VEC3",
      "count": 131
    },
    {
      "bufferView": 27,
      "componentType": 5126,
      "type": "VEC3",
      "count": 131
    },
    {
      "bufferView": 28,
      "componentType": 5126,
      "type": "VEC3",
      "count": 131
    },
    {
      "bufferView": 29,
      "componentType": 5126,
      "type": "VEC3",
      "count": 131
    },
    {
      "bufferView": 30,
      "componentType": 5126,
      "type": "VEC3",
      "count": 131
    },
    {
      "bufferView": 31,
      "componentType": 5126,
      "type": "VEC3",
      "count": 131
    },
    {
      "bufferView": 32,
      "componentType": 5126,
      "type": "VEC3",
      "count": 131
    },
    {
      "bufferView": 33,
      "componentType": 5126,
      "type": "VEC3",
      "count": 131
    },
    {
      "bufferView": 34,
      "componentType": 5126,
      "type": "VEC3",
      "count": 131
    },
    {
      "bufferView": 35,
      "componentType": 5126,
      "type": "VEC3",
      "count": 131
    },
    {
      "bufferView": 36,
      "componentType": 5126,
      "type": "VEC3",
      "count": 131
    },
    {
      "bufferView": 37,
      "componentType": 5126,
      "type": "VEC3",
      "count": 131
    },
    {
      "bufferView": 38,
      "componentType": 5126,
      "type": "VEC3",
      "count": 131
    },
    {
      "bufferView": 39,
      "componentType": 5126,
      "type": "VEC3",
      "count": 131
    },
    {
      "bufferView": 40,
      "componentType": 5126,
      "type": "VEC3",
      "count": 131
    },
    {
      "bufferView": 41,
      "componentType": 5126,
      "type": "VEC3",
      "count": 131
    },
    {
      "bufferView": 42,
      "componentType": 5126,
      "type": "VEC3",
      "count": 131
    },
    {
      "bufferView": 43,
      "componentType": 5126,
      "type": "VEC3",
      "count": 131
    },
    {
      "bufferView": 44,
      "componentType": 5126,
      "type": "VEC3",
      "count": 131
    },
    {
      "bufferView": 45,
      "componentType": 5126,
      "type": "VEC3",
      "count": 131
    },
    {
      "bufferView": 46,
      "componentType": 5126,
      "type": "VEC3",
      "count": 131
    },
    {
      "bufferView": 47,
      "componentType": 5126,
      "type": "VEC3",
      "count": 131
    },
    {
      "bufferView": 48,
      "componentType": 5126,
      "type": "VEC3",
      "count": 131
    },
    {
      "bufferView": 49,
      "componentType": 5126,
      "type": "VEC3",
      "count": 131
    },
    {
      "bufferView": 50,
      "componentType": 5126,
      "type": "VEC3",
      "count": 131
    },
    {
      "bufferView": 51,
      "componentType": 5126,
      "type": "VEC3",
      "count": 131
    },
    {
      "bufferView": 52,
      "componentType": 5126,
      "type": "VEC3",
      "count": 131
    },
    {
      "bufferView": 53,
      "componentType": 5126,
      "type": "VEC3",
      "count": 131
    },
    {
      "bufferView": 54,
      "componentType": 5126,
      "type": "VEC3",
      "count": 131
    },
    {
      "bufferView": 55,
      "componentType": 5126,
      "type": "VEC3",
      "count": 131
    },
    {
      "bufferView": 56,
      "componentType": 5126,
      "type": "VEC3",
      "count": 131
    },
    {
      "bufferView": 57,
      "componentType": 5126,
      "type": "VEC3",
      "count": 131
    },
    {
      "bufferView": 58,
      "componentType": 5126,
      "type": "VEC3",
      "count": 131
    },
    {
      "bufferView": 59,
      "componentType": 5126,
      "type": "VEC3",
      "count": 131
    },
    {
      "bufferView": 60,
      "componentType": 5126,
      "type": "VEC3",
      "count": 131
    },
    {
      "bufferView": 61,
      "componentType": 5126,
      "type": "VEC3",
      "count": 131
    },
    {
      "bufferView": 62,
      "componentType": 5126,
      "type": "VEC3",
      "count": 131
    },
    {
      "bufferView": 63,
      "componentType": 5126,
      "type": "VEC3",
      "count": 131
    },
    {
      "bufferView": 64,
      "componentType": 5126,
      "type": "VEC3",
      "count": 131
    },
    {
      "bufferView": 65,
      "componentType": 5126,
      "type": "VEC3",
      "count": 131
    },
    {
      "bufferView": 66,
      "componentType": 5126,
      "type": "VEC3",
      "count": 131
    },
    {
      "bufferView": 67,
      "componentType": 5126,
      "type": "VEC3",
      "count": 131
    },
    {
      "bufferView": 68,
      "componentType": 5126,
      "type": "VEC3",
      "count": 131
    },
    {
      "bufferView": 69,
      "componentType": 5126,
      "type": "VEC3",
      "count": 131
    },
    {
      "bufferView": 70,
      "componentType": 5126,
      "type": "VEC3",
      "count": 131
    },
    {
      "bufferView": 71,
      "componentType": 5126,
      "type": "VEC3",
      "count": 131
    },
    {
      "bufferView": 72,
      "componentType": 5126,
      "type": "VEC3",
      "count": 131
    },
    {
      "bufferView": 73,
      "componentType": 5126,
      "type": "VEC3",
      "count": 131
    },
    {
      "bufferView": 74,
      "componentType": 5126,
      "type": "VEC3",
      "count": 131
    },
    {
      "bufferView": 75,
      "componentType": 5126,
      "type": "VEC3",
      "count": 131
    },
    {
      "bufferView": 76,
      "componentType": 5126,
      "type": "VEC3",
      "count": 131
    },
    {
      "bufferView": 77,
      "componentType": 5126,
      "type": "VEC3",
      "count": 131
    },
    {
      "bufferView": 78,
      "componentType": 5126,
      "type": "VEC3",
      "count": 131
    },
    {
      "bufferView": 79,
      "componentType": 5126,
      "type": "VEC3",
      "count": 131
    },
    {
      "bufferView": 80,
      "componentType": 5126,
      "type": "VEC3",
      "count": 131
    },
    {
      "bufferView": 81,
      "componentType": 5126,
      "type": "VEC4",
      "count": 131
    },
    {
      "bufferView": 82,
      "componentType": 5126,
      "type": "VEC4",
      "count": 131
    },
    {
      "bufferView": 83,
      "componentType": 5126,
      "type": "VEC4",
      "count": 131
    },
    {
      "bufferView": 84,
      "componentType": 5126,
      "type": "VEC4",
      "count": 131
    },
    {
      "bufferView": 85,
      "componentType": 5126,
      "type": "VEC4",
      "count": 131
    },
    {
      "bufferView": 86,
      "componentType": 5126,
      "type": "VEC4",
      "count": 131
    },
    {
      "bufferView": 87,
      "componentType": 5126,
      "type": "VEC4",
      "count": 131
    },
    {
      "bufferView": 88,
      "componentType": 5126,
      "type": "VEC4",
      "count": 131
    },
    {
      "bufferView": 89,
      "componentType": 5126,
      "type": "VEC4",
      "count": 131
    },
    {
      "bufferView": 90,
      "componentType": 5126,
      "type": "VEC4",
      "count": 131
    },
    {
      "bufferView": 91,
      "componentType": 5126,
      "type": "VEC4",
      "count": 131
    },
    {
      "bufferView": 92,
      "componentType": 5126,
      "type": "VEC4",
      "count": 131
    },
    {
      "bufferView": 93,
      "componentType": 5126,
      "type": "VEC4",
      "count": 131
    },
    {
      "bufferView": 94,
      "componentType": 5126,
      "type": "VEC4",
      "count": 131
    },
    {
      "bufferView": 95,
      "componentType": 5126,
      "type": "VEC4",
      "count": 131
    },
    {
      "bufferView": 96,
      "componentType": 5126,
      "type": "VEC4",
      "count": 131
    },
    {
      "bufferView": 97,
      "componentType": 5126,
      "type": "VEC4",
      "count": 131
    },
    {
      "bufferView": 98,
      "componentType": 5126,
      "type": "VEC4",
      "count": 131
    },
    {
      "bufferView": 99,
      "componentType": 5126,
      "type": "VEC4",
      "count": 131
    },
    {
      "bufferView": 100,
      "componentType": 5126,
      "type": "VEC4",
      "count": 131
    },
    {
      "bufferView": 101,
      "componentType": 5126,
      "type": "VEC4",
      "count": 131
    },
    {
      "bufferView": 102,
      "componentType": 5126,
      "type": "VEC4",
      "count": 131
    },
    {
      "bufferView": 103,
      "componentType": 5126,
      "type": "VEC4",
      "count": 131
    },
    {
      "bufferView": 104,
      "componentType": 5126,
      "type": "VEC4",
      "count": 131
    },
    {
      "bufferView": 105,
      "componentType": 5126,
      "type": "VEC4",
      "count": 131
    },
    {
      "bufferView": 106,
      "componentType": 5126,
      "type": "VEC4",
      "count": 131
    },
    {
      "bufferView": 107,
      "componentType": 5126,
      "type": "VEC4",
      "count": 131
    },
    {
      "bufferView": 108,
      "componentType": 5126,
      "type": "VEC4",
      "count": 131
    },
    {
      "bufferView": 109,
      "componentType": 5126,
      "type": "VEC4",
      "count": 131
    },
    {
      "bufferView": 110,
      "componentType": 5126,
      "type": "VEC4",
      "count": 131
    },
    {
      "bufferView": 111,
      "componentType": 5126,
      "type": "VEC4",
      "count": 131
    },
    {
      "bufferView": 112,
      "componentType": 5126,
      "type": "VEC4",
      "count": 131
    },
    {
      "bufferView": 113,
      "componentType": 5126,
      "type": "VEC4",
      "count": 131
    },
    {
      "bufferView": 114,
      "componentType": 5126,
      "type": "VEC4",
      "count": 131
    },
    {
      "bufferView": 115,
      "componentType": 5126,
      "type": "VEC4",
      "count": 131
    },
    {
      "bufferView": 116,
      "componentType": 5126,
      "type": "VEC4",
      "count": 131
    },
    {
      "bufferView": 117,
      "componentType": 5126,
      "type": "VEC4",
      "count": 131
    },
    {
      "bufferView": 118,
      "componentType": 5126,
      "type": "VEC4",
      "count": 131
    },
    {
      "bufferView": 119,
      "componentType": 5126,
      "type": "VEC4",
      "count": 131
    },
    {
      "bufferView": 120,
      "componentType": 5126,
      "type": "VEC4",
      "count": 131
    },
    {
      "bufferView": 121,
      "componentType": 5126,
      "type": "VEC4",
      "count": 131
    },
    {
      "bufferView": 122,
      "componentType": 5126,
      "type": "VEC4",
      "count": 131
    },
    {
      "bufferView": 123,
      "componentType": 5126,
      "type": "VEC4",
      "count": 131
    },
    {
      "bufferView": 124,
      "componentType": 5126,
      "type": "VEC4",
      "count": 131
    },
    {
      "bufferView": 125,
      "componentType": 5126,
      "type": "VEC4",
      "count": 131
    },
    {
      "bufferView": 126,
      "componentType": 5126,
      "type": "VEC4",
      "count": 131
    },
    {
      "bufferView": 127,
      "componentType": 5126,
      "type": "VEC4",
      "count": 131
    },
    {
      "bufferView": 128,
      "componentType": 5126,
      "type": "VEC4",
      "count": 131
    },
    {
      "bufferView": 129,
      "componentType": 5126,
      "type": "VEC4",
      "count": 131
    },
    {
      "bufferView": 130,
      "componentType": 5126,
      "type": "VEC4",
      "count": 131
    },
    {
      "bufferView": 131,
      "componentType": 5126,
      "type": "VEC4",
      "count": 131
    },
    {
      "bufferView": 132,
      "componentType": 5126,
      "type": "VEC4",
      "count": 131
    },
    {
      "bufferView": 133,
      "componentType": 5126,
      "type": "VEC4",
      "count": 131
    },
    {
      "bufferView": 134,
      "componentType": 5126,
      "type": "VEC4",
      "count": 131
    },
    {
      "bufferView": 135,
      "componentType": 5126,
      "type": "VEC4",
      "count": 131
    },
    {
      "bufferView": 136,
      "componentType": 5126,
      "type": "VEC4",
      "count": 131
    },
    {
      "bufferView": 137,
      "componentType": 5126,
      "type": "VEC4",
      "count": 131
    },
    {
      "bufferView": 138,
      "componentType": 5126,
      "type": "VEC4",
      "count": 131
    },
    {
      "bufferView": 139,
      "componentType": 5126,
      "type": "VEC4",
      "count": 131
    },
    {
      "bufferView": 140,
      "componentType": 5126,
      "type": "VEC4",
      "count": 131
    },
    {
      "bufferView": 141,
      "componentType": 5126,
      "type": "VEC4",
      "count": 131
    },
    {
      "bufferView": 142,
      "componentType": 5126,
      "type": "VEC4",
      "count": 131
    },
    {
      "bufferView": 143,
      "componentType": 5126,
      "type": "VEC4",
      "count": 131
    },
    {
      "bufferView": 144,
      "componentType": 5126,
      "type": "VEC4",
      "count": 131
    },
    {
      "bufferView": 145,
      "componentType": 5126,
      "type": "VEC4",
      "count": 131
    },
    {
      "bufferView": 146,
      "componentType": 5126,
      "type": "VEC4",
      "count": 131
    },
    {
      "bufferView": 147,
      "componentType": 5126,
      "type": "VEC4",
      "count": 131
    },
    {
      "bufferView": 148,
      "componentType": 5126,
      "type": "VEC4",
      "count": 131
    },
    {
      "bufferView": 149,
      "componentType": 5126,
      "type": "VEC4",
      "count": 131
    },
    {
      "bufferView": 150,
      "componentType": 5126,
      "type": "VEC4",
      "count": 131
    },
    {
      "bufferView": 151,
      "componentType": 5126,
      "type": "VEC4",
      "count": 131
    },
    {
      "bufferView": 152,
      "componentType": 5126,
      "type": "VEC4",
      "count": 131
    },
    {
      "bufferView": 153,
      "componentType": 5126,
      "type": "VEC4",
      "count": 131
    },
    {
      "bufferView": 154,
      "componentType": 5126,
      "type": "VEC4",
      "count": 131
    },
    {
      "bufferView": 155,
      "componentType": 5126,
      "type": "VEC4",
      "count": 131
    },
    {
      "bufferView": 156,
      "componentType": 5126,
      "type": "VEC4",
      "count": 131
    },
    {
      "bufferView": 157,
      "componentType": 5126,
      "type": "VEC4",
      "count": 131
    },
    {
      "bufferView": 158,
      "componentType": 5126,
      "type": "VEC4",
      "count": 131
    },
    {
      "bufferView": 159,
      "componentType": 5126,
      "type": "VEC4",
      "count": 131
    }
  ],
  "asset": {
    "generator": "Traktor",
    "version": "2.0"
  },
  "bufferViews": [
    {
      "buffer": 0,
      "byteLength": 5056
    },
    {
      "buffer": 0,
      "byteLength": 524,
      "byteOffset": 5056
    },
    {
      "buffer": 0,
      "byteLength": 1572,
      "byteOffset": 5580
    },
    {
      "buffer": 0,
      "byteLength": 1572,
      "byteOffset": 7152
    },
    {
      "buffer": 0,
      "byteLength": 1572,
      "byteOffset": 8724
    },
    {
      "buffer": 0,
      "byteLength": 1572,
      "byteOffset": 10296
    },
    {
      "buffer": 0,
      "byteLength": 1572,
      "byteOffset": 11868
    },
    {
      "buffer": 0,
      "byteLength": 1572,
      "byteOffset": 13440
    },
    {
      "buffer": 0,
      "byteLength": 1572,
      "byteOffset": 15012
    },
    {
      "buffer": 0,
      "byteLength": 1572,
      "byteOffset": 16584
    },
    {
      "buffer": 0,
      "byteLength": 1572,
      "byteOffset": 18156
    },
    {
      "buffer": 0,
      "byteLength": 1572,
      "byteOffset": 19728
    },
    {
      "buffer": 0,
      "byteLength": 1572,
      "byteOffset": 21300
    },
    {
      "buffer": 0,
      "byteLength": 1572,
      "byteOffset": 22872
    },
    {
      "buffer": 0,
      "byteLength": 1572,
      "byteOffset": 24444
    },
    {
      "buffer": 0,
      "byteLength": 1572,
      "byteOffset": 26016
    },
    {
      "buffer": 0,
      "byteLength": 1572,
      "byteOffset": 27588
    },
    {
      "buffer": 0,
      "byteLength": 1572,
      "byteOffset": 29160
    },
    {
      "buffer": 0,
      "byteLength": 1572,
      "byteOffset": 30732
    },
    {
      "buffer": 0,
      "byteLength": 1572,
      "byteOffset": 32304
    },
    {
      "buffer": 0,
      "byteLength": 1572,
      "byteOffset": 33876
    },
    {
      "buffer": 0,
      "byteLength": 1572,
      "byteOffset": 35448
    },
    {
      "buffer": 0,
      "byteLength": 1572,
      "byteOffset": 37020
    },
    {
      "buffer": 0,
      "byteLength": 1572,
      "byteOffset": 38592
    },
    {
      "buffer": 0,
      "byteLength": 1572,
      "byteOffset": 40164
    },
    {
      "buffer": 0,
      "byteLength": 1572,
      "byteOffset": 41736
    },
    {
      "buffer": 0,
      "byteLength": 1572,
      "byteOffset": 43308
    },
    {
      "buffer": 0,
      "byteLength": 1572,
      "byteOffset": 44880
    },
    {
      "buffer": 0,
      "byteLength": 1572,
      "byteOffset": 46452
    },
    {
      "buffer": 0,
      "byteLength": 1572,
      "byteOffset": 48024
    },
    {
      "buffer": 0,
      "byteLength": 1572,
      "byteOffset": 49596
    },
    {
      "buffer": 0,
      "byteLength": 1572,
      "byteOffset": 51168
    },
    {
      "buffer": 0,
      "byteLength": 1572,
      "byteOffset": 52740
    },
    {
      "buffer": 0,
      "byteLength": 1572,
      "byteOffset": 54312
    },
    {
      "buffer": 0,
      "byteLength": 1572,
      "byteOffset": 55884
    },
    {
      "buffer": 0,
      "byteLength": 1572,
      "byteOffset": 57456
    },
    {
      "buffer": 0,
      "byteLength": 1572,
      "byteOffset": 59028
    },
    {
      "buffer": 0,
      "byteLength": 1572,
      "byteOffset": 60600
    },
    {
      "buffer": 0,
      "byteLength": 1572,
      "byteOffset": 62172
    },
    {
      "buffer": 0,
      "byteLength": 1572,
      "byteOffset": 63744
    },
    {
      "buffer": 0,
      "byteLength": 1572,
      "byteOffset": 65316
    },
    {
      "buffer": 0,
      "byteLength": 1572,
      "byteOffset": 66888
    },
    {
      "buffer": 0,
      "byteLength": 1572,
      "byteOffset": 68460
    },
    {
      "buffer": 0,
      "byteLength": 1572,
      "byteOffset": 70032
    },
    {
      "buffer": 0,
      "byteLength": 1572,
      "byteOffset": 71604
    },
    {
      "buffer": 0,
      "byteLength": 1572,
      "byteOffset": 73176
    },
    {
      "buffer": 0,
      "byteLength": 1572,
      "byteOffset": 74748
    },
    {
      "buffer": 0,
      "byteLength": 1572,
      "byteOffset": 76320
    },
    {
      "buffer": 0,
      "byteLength": 1572,
      "byteOffset": 77892
    },
    {
      "buffer": 0,
      "byteLength": 1572,
      "byteOffset": 79464
    },
    {
      "buffer": 0,
      "byteLength": 1572,
      "byteOffset": 81036
    },
    {
      "buffer": 0,
      "byteLength": 1572,
      "byteOffset": 82608
    },
    {
      "buffer": 0,
      "byteLength": 1572,
      "byteOffset": 84180
    },
    {
      "buffer": 0,
      "byteLength": 1572,
      "byteOffset": 85752
    },
    {
      "buffer": 0,
      "byteLength": 1572,
      "byteOffset": 87324
    },
    {
      "buffer": 0,
      "byteLength": 1572,
      "byteOffset": 88896
    },
    {
      "buffer": 0,
      "byteLength": 1572,
      "byteOffset": 90468
    },
    {
      "buffer": 0,
      "byteLength": 1572,
      "byteOffset": 92040
    },
    {
      "buffer": 0,
      "byteLength": 1572,
      "byteOffset": 93612
    },
    {
      "buffer": 0,
      "byteLength": 1572,
      "byteOffset": 95184
    },
    {
      "buffer": 0,
      "byteLength": 1572,
      "byteOffset": 96756
    },
    {
      "buffer": 0,
      "byteLength": 1572,
      "byteOffset": 98328
    },
    {
      "buffer": 0,
      "byteLength": 1572,
      "byteOffset": 99900
    },
    {
      "buffer": 0,
      "byteLength": 1572,
      "byteOffset": 101472
    },
    {
      "buffer": 0,
      "byteLength": 1572,
      "byteOffset": 103044
    },
    {
      "buffer": 0,
      "byteLength": 1572,
      "byteOffset": 104616
    },
    {
      "buffer": 0,
      "byteLength": 1572,
      "byteOffset": 106188
    },
    {
      "buffer": 0,
      "byteLength": 1572,
      "byteOffset": 107760
    },
    {
      "buffer": 0,
      "byteLength": 1572,
      "byteOffset": 109332
    },
    {
      "buffer": 0,
      "byteLength": 1572,
      "byteOffset": 110904
    },
    {
      "buffer": 0,
      "byteLength": 1572,
      "byteOffset": 112476
    },
    {
      "buffer": 0,
      "byteLength": 1572,
      "byteOffset": 114048
    },
    {
      "buffer": 0,
      "byteLength": 1572,
      "byteOffset": 115620
    },
    {
      "buffer": 0,
      "byteLength": 1572,
      "byteOffset": 117192
    },
    {
      "buffer": 0,
      "byteLength": 1572,
      "byteOffset": 118764
    },
    {
      "buffer": 0,
      "byteLength": 1572,
      "byteOffset": 120336
    },
    {
      "buffer": 0,
      "byteLength": 1572,
      "byteOffset": 121908
    },
    {
      "buffer": 0,
      "byteLength": 1572,
      "byteOffset": 123480
    },
    {
      "buffer": 0,
      "byteLength": 1572,
      "byteOffset": 125052
    },
    {
      "buffer": 0,
      "byteLength": 1572,
      "byteOffset": 126624
    },
    {
      "buffer": 0,
      "byteLength": 1572,
      "byteOffset": 128196
    },
    {
      "buffer": 0,
      "byteLength": 2096,
      "byteOffset": 129768
    },
    {
      "buffer": 0,
      "byteLength": 2096,
      "byteOffset": 131864
    },
    {
      "buffer": 0,
      "byteLength": 2096,
      "byteOffset": 133960
    },
    {
      "buffer": 0,
      "byteLength": 2096,
      "byteOffset": 136056
    },
    {
      "buffer": 0,
      "byteLength": 2096,
      "byteOffset": 138152
    },
    {
      "buffer": 0,
      "byteLength": 2096,
      "byteOffset": 140248
    },
    {
      "buffer": 0,
      "byteLength": 2096,
      "byteOffset": 142344
    },
    {
      "buffer": 0,
      "byteLength": 2096,
      "byteOffset": 144440
    },
    {
      "buffer": 0,
      "byteLength": 2096,
      "byteOffset": 146536
    },
    {
      "buffer": 0,
      "byteLength": 2096,
      "byteOffset": 148632
    },
    {
      "buffer": 0,
      "byteLength": 2096,
      "byteOffset": 150728
    },
    {
      "buffer": 0,
      "byteLength": 2096,
      "byteOffset": 152824
    },
    {
      "buffer": 0,
      "byteLength": 2096,
      "byteOffset": 154920
    },
    {
      "buffer": 0,
      "byteLength": 2096,
      "byteOffset": 157016
    },
    {
      "buffer": 0,
      "byteLength": 2096,
      "byteOffset": 159112
    },
    {
      "buffer": 0,
      "byteLength": 2096,
      "byteOffset": 161208
    },
    {
      "buffer": 0,
      "byteLength": 2096,
      "byteOffset": 163304
    },
    {
      "buffer": 0,
      "byteLength": 2096,
      "byteOffset": 165400
    },
    {
      "buffer": 0,
      "byteLength": 2096,
      "byteOffset": 167496
    },
    {
      "buffer": 0,
      "byteLength": 2096,
      "byteOffset": 169592
    },
    {
      "buffer": 0,
      "byteLength": 2096,
      "byteOffset": 171688
    },
    {
      "buffer": 0,
      "byteLength": 2096,
      "byteOffset": 173784
    },
    {
      "buffer": 0,
      "byteLength": 2096,
      "byteOffset": 175880
    },
    {
      "buffer": 0,
      "byteLength": 2096,
      "byteOffset": 177976
    },
    {
      "buffer": 0,
      "byteLength": 2096,
      "byteOffset": 180072
    },
    {
      "buffer": 0,
      "byteLength": 2096,
      "byteOffset": 182168
    },
    {
      "buffer": 0,
      "byteLength": 2096,
      "byteOffset": 184264
    },
    {
      "buffer": 0,
      "byteLength": 2096,
      "byteOffset": 186360
    },
    {
      "buffer": 0,
      "byteLength": 2096,
      "byteOffset": 188456
    },
    {
      "buffer": 0,
      "byteLength": 2096,
      "byteOffset": 190552
    },
    {
      "buffer": 0,
      "byteLength": 2096,
      "byteOffset": 192648
    },
    {
      "buffer": 0,
      "byteLength": 2096,
      "byteOffset": 194744
    },
    {
      "buffer": 0,
      "byteLength": 2096,
      "byteOffset": 196840
    },
    {
      "buffer": 0,
      "byteLength": 2096,
      "byteOffset": 198936
    },
    {
      "buffer": 0,
      "byteLength": 2096,
      "byteOffset": 201032
    },
    {
      "buffer": 0,
      "byteLength": 2096,
      "byteOffset": 203128
    },
    {
      "buffer": 0,
      "byteLength": 2096,
      "byteOffset": 205224
    },
    {
      "buffer": 0,
      "byteLength": 2096,
      "byteOffset": 207320
    },
    {
      "buffer": 0,
      "byteLength": 2096,
      "byteOffset": 209416
    },
    {
      "buffer": 0,
      "byteLength": 2096,
      "byteOffset": 211512
    },
    {
      "buffer": 0,
      "byteLength": 2096,
      "byteOffset": 213608
    },
    {
      "buffer": 0,
      "byteLength": 2096,
      "byteOffset": 215704
    },
    {
      "buffer": 0,
      "byteLength": 2096,
      "byteOffset": 217800
    },
    {
      "buffer": 0,
      "byteLength": 2096,
      "byteOffset": 219896
    },
    {
      "buffer": 0,
      "byteLength": 2096,
      "byteOffset": 221992
    },
    {
      "buffer": 0,
      "byteLength": 2096,
      "byteOffset": 224088
    },
    {
      "buffer": 0,
      "byteLength": 2096,
      "byteOffset": 226184
    },
    {
      "buffer": 0,
      "byteLength": 2096,
      "byteOffset": 228280
    },
    {
      "buffer": 0,
      "byteLength": 2096,
      "byteOffset": 230376
    },
    {
      "buffer": 0,
      "byteLength": 2096,
      "byteOffset": 232472
    },
    {
      "buffer": 0,
      "byteLength": 2096,
      "byteOffset": 234568
    },
    {
      "buffer": 0,
      "byteLength": 2096,
      "byteOffset": 236664
    },
    {
      "buffer": 0,
      "byteLength": 2096,
      "byteOffset": 238760
    },
    {
      "buffer": 0,
      "byteLength": 2096,
      "byteOffset": 240856
    },
    {
      "buffer": 0,
      "byteLength": 2096,
      "byteOffset": 242952
    },
    {
      "buffer": 0,
      "byteLength": 2096,
      "byteOffset": 245048
    },
    {
      "buffer": 0,
      "byteLength": 2096,
      "byteOffset": 247144
    },
    {
      "buffer": 0,
      "byteLength": 2096,
      "byteOffset": 249240
    },
    {
      "buffer": 0,
      "byteLength": 2096,
      "byteOffset": 251336
    },
    {
      "buffer": 0,
      "byteLength": 2096,
      "byteOffset": 253432
    },
    {
      "buffer": 0,
      "byteLength": 2096,
      "byteOffset": 255528
    },
    {
      "buffer": 0,
      "byteLength": 2096,
      "byteOffset": 257624
    },
    {
      "buffer": 0,
      "byteLength": 2096,
      "byteOffset": 259720
    },
    {
      "buffer": 0,
      "byteLength": 2096,
      "byteOffset": 261816
    },
    {
      "buffer": 0,
      "byteLength": 2096,
      "byteOffset": 263912
    },
    {
      "buffer": 0,
      "byteLength": 2096,
      "byteOffset": 266008
    },
    {
      "buffer": 0,
      "byteLength": 2096,
      "byteOffset": 268104
    },
    {
      "buffer": 0,
      "byteLength": 2096,
      "byteOffset": 270200
    },
    {
      "buffer": 0,
      "byteLength": 2096,
      "byteOffset": 272296
    },
    {
      "buffer": 0,
      "byteLength": 2096,
      "byteOffset": 274392
    },
    {
      "buffer": 0,
      "byteLength": 2096,
      "byteOffset": 276488
    },
    {
      "buffer": 0,
      "byteLength": 2096,
      "byteOffset": 278584
    },
    {
      "buffer": 0,
      "byteLength": 2096,
      "byteOffset": 280680
    },
    {
      "buffer": 0,
      "byteLength": 2096,
      "byteOffset": 282776
    },
    {
      "buffer": 0,
      "byteLength": 2096,
      "byteOffset": 284872
    },
    {
      "buffer": 0,
      "byteLength": 2096,
      "byteOffset": 286968
    },
    {
      "buffer": 0,
      "byteLength": 2096,
      "byteOffset": 289064
    },
    {
      "buffer": 0,
      "byteLength": 2096,
      "byteOffset": 291160
    },
    {
      "buffer": 0,
      "byteLength": 2096,
      "byteOffset": 293256
    }
  ],
  "buffers": [
    {
      "uri": "data:application/octet-stream;base64,",
      "byteLength": 295352
    }
  ],
  "materials": [
    {
      "name": "Ch10_body",
      "pbrMetallicRoughness": {
        "metallicFactor": 0
      }
    },
    {
      "name": "Ch10_body1",
      "pbrMetallicRoughness": {
        "metallicFactor": 0
      }
    }
  ],
  "nodes": [
    {
      "children": [ 1 ],
      "name": "Armature",
      "translation": [0, 0, 0],
      "rotation": [0, -2.18556941e-08, 1, 0]
    },
    {
      "children": [ 2, 67, 73 ],
      "name": "Hips",
      "translation": [2.9905128e-05, -1.05156255, 0.0239868369],
      "rotation": [0.707106888, -5.33850759e-08, 5.33850759e-08, 0.707106709]
    },
    {
      "children": [ 3 ],
      "name": "Spine",
      "translation": [-8.64019967e-10, -0.0136082526, 0.088360548],
      "rotation": [0.0763296336, -4.82556572e-09, -3.69394626e-10, 0.997082651]
    },
    {
      "children": [ 4 ],
      "name": "Spine1",
      "translation": [-1.8189894e-12, -5.96046448e-08, 0.104302406],
      "rotation": [6.33299351e-08, 8.36086755e-12, 0, 1]
    },
    {
      "children": [ 5, 9, 38 ],
      "name": "Spine2",
      "translation": [0, 2.98023224e-08, 0.11920321],
      "rotation": [-7.45058237e-09, -1.30029347e-11, 0, 1]
    },
    {
      "children": [ 6 ],
      "name": "Neck",
      "translation": [3.63797881e-12, -4.47034836e-08, 0.134103179],
      "rotation": [-0.0763297081, 4.77391771e-09, -3.65450281e-10, 0.997082651]
    },
    {
      "children": [ 7 ],
      "name": "Head",
      "translation": [1.99543138e-09, 0.0321745388, 0.063911438],
      "rotation": [1.16719177e-08, -7.69644576e-16, -1.06581436e-14, 1]
    },
    {
      "children": [ 8 ],
      "name": "HeadTop_End",
      "translation": [6.18274498e-09, 0.0995823592, 0.197810054],
      "rotation": [1.16719177e-08, -4.61974395e-15, 3.55271453e-15, 1]
    },
    {
      "name": "HeadTop_End_end",
      "translation": [0, 5.96046448e-08, 0.221462369],
      "rotation": [1.16719177e-08, 2.48568213e-15, -3.55271453e-15, 1]
    },
    {
      "children": [ 10 ],
      "name": "LeftShoulder",
      "translation": [-0.0632232428, -0.00258044899, 0.118947268],
      "rotation": [-0.546072543, -0.569422841, 0.443912774, 0.424857497]
    },
    {
      "children": [ 11 ],
      "name": "LeftArm",
      "translation": [-2.98023224e-08, 1.1920929e-07, 0.128637284],
      "rotation": [0.0689527392, 0.0125176283, -0.000865352107, 0.99754101]
    },
    {
      "children": [ 12 ],
      "name": "LeftForeArm",
      "translation": [7.4505806e-08, -4.76837158e-07, 0.269189626],
      "rotation": [0.067483604, 0.0427317433, -0.00289290957, 0.996800721]
    },
    {
      "children": [ 13, 18, 23, 28, 33 ],
      "name": "LeftHand",
      "translation": [2.98023224e-08, 0, 0.247895181],
      "rotation": [-0.0594611093, 0.00996035151, 0.128401309, 0.989888012]
    },
    {
      "children": [ 14 ],
      "name": "LeftHandThumb1",
      "translation": [0.0286892653, 0.0160660744, 0.0340679884],
      "rotation": [-0.166567042, 0.276903957, 0.048802942, 0.945091486]
    },
    {
      "children": [ 15 ],
      "name": "LeftHandThumb2",
      "translation": [0.00461474061, 2.38418579e-07, 0.0375959426],
      "rotation": [-0.0712218806, -2.98782048e-08, -7.46955067e-08, 0.997460544]
    },
    {
      "children": [ 16 ],
      "name": "LeftHandThumb3",
      "translation": [0.000288069248, -2.38418579e-07, 0.0314140618],
      "rotation": [0.0553091057, 0, -1.26854104e-07, 0.998469293]
    },
    {
      "children": [ 17 ],
      "name": "LeftHandThumb4",
      "translation": [-0.00490266085, 2.38418579e-07, 0.0231275409],
      "rotation": [-2.60770321e-08, 1.1920929e-07, 2.42143869e-07, 1]
    },
    {
      "name": "LeftHandThumb4_end",
      "translation": [-2.98023224e-08, -2.38418579e-07, 0.0236411765],
      "rotation": [-5.96046448e-08, -7.4505806e-09, -3.7252903e-08, 1]
    },
    {
      "children": [ 19 ],
      "name": "LeftHandIndex1",
      "translation": [0.0353969634, -0.00134837627, 0.102416992],
      "rotation": [-0.088914603, 0.0609484166, 0.00545115024, 0.994157851]
    },
    {
      "children": [ 20 ],
      "name": "LeftHandIndex2",
      "translation": [-3.90708447e-05, 4.76837158e-07, 0.0302302241],
      "rotation": [0.00189929653, -1.37836011e-07, -2.60770861e-07, 0.999998212]
    },
    {
      "children": [ 21 ],
      "name": "LeftHandIndex3",
      "translation": [-4.64618206e-05, -2.38418579e-07, 0.0278807878],
      "rotation": [-0.0305503309, 1.00629833e-07, 2.2362185e-08, 0.999533236]
    },
    {
      "children": [ 22 ],
      "name": "LeftHandIndex4",
      "translation": [8.55326653e-05, -1.1920929e-07, 0.0246534944],
      "rotation": [5.12227505e-09, -1.49011647e-08, -5.21540748e-08, 1]
    },
    {
      "name": "LeftHandIndex4_end",
      "translation": [-5.96046448e-08, -1.1920929e-07, 0.0246539712],
      "rotation": [-1.8626455e-08, -1.8626455e-08, -3.72529101e-08, 1]
    },
    {
      "children": [ 24 ],
      "name": "LeftHandMiddle1",
      "translation": [0.0107248425, -0.00167453289, 0.101249278],
      "rotation": [-0.0259222575, -0.029077759, -0.000754389097, 0.999240696]
    },
    {
      "children": [ 25 ],
      "name": "LeftHandMiddle2",
      "translation": [-0.000179737806, -1.1920929e-07, 0.0339902639],
      "rotation": [-0.0860288963, -1.34726321e-07, -1.04696262e-07, 0.996292651]
    },
    {
      "children": [ 26 ],
      "name": "LeftHandMiddle3",
      "translation": [0.000123128295, 4.76837158e-07, 0.0330115557],
      "rotation": [0.017330138, 7.56813545e-09, 1.19227224e-07, 0.999849856]
    },
    {
      "children": [ 27 ],
      "name": "LeftHandMiddle4",
      "translation": [5.66244125e-05, -4.76837158e-07, 0.0295072794],
      "rotation": [-5.03496356e-09, -2.77068519e-08, -6.33299493e-08, 1]
    },
    {
      "name": "LeftHandMiddle4_end",
      "translation": [-4.47034836e-08, 1.1920929e-07, 0.0295074582],
      "rotation": [-5.16593079e-09, -3.28291279e-08, 1.8626455e-08, 1]
    },
    {
      "children": [ 29 ],
      "name": "LeftHandRing1",
      "translation": [-0.012615785, -0.00243961811, 0.102273703],
      "rotation": [-0.0993158519, -0.0619589873, -0.00619628606, 0.993105769]
    },
    {
      "children": [ 30 ],
      "name": "LeftHandRing2",
      "translation": [1.26957893e-05, 0, 0.0297679007],
      "rotation": [-0.0253047757, -2.9159736e-07, -5.03075306e-08, 0.999679804]
    },
    {
      "children": [ 31 ],
      "name": "LeftHandRing3",
      "translation": [6.70552254e-05, -1.1920929e-07, 0.0270346701],
      "rotation": [0.0724312738, 2.03563005e-07, 5.04238642e-08, 0.997373402]
    },
    {
      "children": [ 32 ],
      "name": "LeftHandRing4",
      "translation": [-7.9870224e-05, 1.1920929e-07, 0.0236565471],
      "rotation": [-5.36325388e-07, -1.95577741e-08, 0, 1]
    },
    {
      "name": "LeftHandRing4_end",
      "translation": [2.98023224e-08, 1.1920929e-07, 0.0236564875],
      "rotation": [8.75443362e-08, -2.23517489e-08, -9.31322752e-09, 1]
    },
    {
      "children": [ 34 ],
      "name": "LeftHandPinky1",
      "translation": [-0.0335059017, -0.00291371346, 0.0900521278],
      "rotation": [-0.131833613, -0.157146975, -0.0211722329, 0.97850728]
    },
    {
      "children": [ 35 ],
      "name": "LeftHandPinky2",
      "translation": [-9.03010368e-06, 1.1920929e-07, 0.0280027092],
      "rotation": [-0.0196049195, -5.21640935e-08, -2.83642265e-07, 0.999807835]
    },
    {
      "children": [ 36 ],
      "name": "LeftHandPinky3",
      "translation": [5.81517816e-06, -1.1920929e-07, 0.0230672061],
      "rotation": [0.073787339, 1.23270624e-07, 1.90976067e-07, 0.997274041]
    },
    {
      "children": [ 37 ],
      "name": "LeftHandPinky4",
      "translation": [3.06591392e-06, 0, 0.01927495],
      "rotation": [-2.12574378e-07, -4.47034836e-08, -4.65661287e-08, 1]
    },
    {
      "name": "LeftHandPinky4_end",
      "translation": [-3.7252903e-09, 1.1920929e-07, 0.0192750096],
      "rotation": [9.96515368e-08, 2.98023295e-08, -4.1909523e-08, 1]
    },
    {
      "children": [ 39 ],
      "name": "RightShoulder",
      "translation": [0.0632232428, -0.00209930539, 0.118873239],
      "rotation": [-0.548502326, 0.567590415, -0.441922486, 0.426252216]
    },
    {
      "children": [ 40 ],
      "name": "RightArm",
      "translation": [-7.4505806e-08, -2.38418579e-07, 0.128637299],
      "rotation": [0.0697313845, -0.00760006718, 0.000531436584, 0.997536719]
    },
    {
      "children": [ 41 ],
      "name": "RightForeArm",
      "translation": [1.49011612e-08, 5.96046448e-07, 0.26919058],
      "rotation": [0.0658698007, -0.0525884517, 0.00347639434, 0.996435404]
    },
    {
      "children": [ 42, 47, 52, 57, 62 ],
      "name": "RightHand",
      "translation": [-2.98023224e-08, -7.15255737e-07, 0.248212099],
      "rotation": [-0.059222769, 0.024899438, -0.113532595, 0.991455019]
    },
    {
      "children": [ 43 ],
      "name": "RightHandThumb1",
      "translation": [-0.0268985406, 0.0162484646, 0.0319622755],
      "rotation": [-0.176946372, -0.290613472, -0.0547790378, 0.938740134]
    },
    {
      "children": [ 44 ],
      "name": "RightHandThumb2",
      "translation": [-0.00330746174, 3.57627869e-07, 0.0357063562],
      "rotation": [-0.0830508396, -3.58867595e-07, -3.81296815e-07, 0.996545315]
    },
    {
      "children": [ 45 ],
      "name": "RightHandThumb3",
      "translation": [0.000880748034, 0, 0.0313338935],
      "rotation": [0.110466599, 1.04950459e-07, 2.36138519e-07, 0.993879855]
    },
    {
      "children": [ 46 ],
      "name": "RightHandThumb4",
      "translation": [0.00242677331, -3.57627869e-07, 0.024946034],
      "rotation": [1.86264515e-08, -2.23517418e-08, -7.07805157e-08, 1]
    },
    {
      "name": "RightHandThumb4_end",
      "translation": [2.98023224e-08, 2.38418579e-07, 0.025064446],
      "rotation": [-3.7252903e-09, -4.47034836e-08, -2.98023224e-08, 1]
    },
    {
      "children": [ 48 ],
      "name": "RightHandIndex1",
      "translation": [-0.034656994, -0.00131690502, 0.10104239],
      "rotation": [-0.089587234, -0.0843143538, -0.0076113292, 0.992374599]
    },
    {
      "children": [ 49 ],
      "name": "RightHandIndex2",
      "translation": [-4.44054604e-06, -2.38418579e-07, 0.0309367478],
      "rotation": [-0.0086850794, 6.70577762e-08, 3.53915972e-08, 0.99996227]
    },
    {
      "children": [ 50 ],
      "name": "RightHandIndex3",
      "translation": [-2.50190496e-05, 2.38418579e-07, 0.0282652378],
      "rotation": [0.0239327252, -1.26696207e-07, -2.552556e-07, 0.9997136]
    },
    {
      "children": [ 51 ],
      "name": "RightHandIndex4",
      "translation": [2.94446945e-05, -2.38418579e-07, 0.0247485936],
      "rotation": [9.26665962e-08, -1.86264515e-08, -5.58793545e-08, 1]
    },
    {
      "name": "RightHandIndex4_end",
      "translation": [4.47034836e-08, 1.1920929e-07, 0.0247488022],
      "rotation": [1.3038516e-08, -3.7252903e-09, -4.28408384e-08, 1]
    },
    {
      "children": [ 53 ],
      "name": "RightHandMiddle1",
      "translation": [-0.0114343017, -0.0030964613, 0.10146457],
      "rotation": [-0.0551486611, 0.0206408128, 0.00114035374, 0.998264134]
    },
    {
      "children": [ 54 ],
      "name": "RightHandMiddle2",
      "translation": [1.59069896e-05, -1.1920929e-07, 0.034091413],
      "rotation": [-0.0395874903, 1.36079763e-07, 1.52856742e-07, 0.999216139]
    },
    {
      "children": [ 55 ],
      "name": "RightHandMiddle3",
      "translation": [-5.9530139e-06, -1.1920929e-07, 0.0324571133],
      "rotation": [-0.0103519941, -1.359804e-07, -5.21568708e-08, 0.999946415]
    },
    {
      "children": [ 56 ],
      "name": "RightHandMiddle4",
      "translation": [-9.97632742e-06, -2.38418579e-07, 0.0293760598],
      "rotation": [-2.94239726e-08, 1.81607902e-08, 4.47034836e-08, 1]
    },
    {
      "name": "RightHandMiddle4_end",
      "translation": [-2.98023224e-08, 2.38418579e-07, 0.0293757617],
      "rotation": [2.29338184e-08, 2.04890966e-08, 1.86264515e-08, 1]
    },
    {
      "children": [ 58 ],
      "name": "RightHandRing1",
      "translation": [0.0124700665, 0.000201821327, 0.10300535],
      "rotation": [-0.0211268906, 0.0410370491, 0.000867964351, 0.998933852]
    },
    {
      "children": [ 59 ],
      "name": "RightHandRing2",
      "translation": [3.52412462e-06, -3.57627869e-07, 0.0289298892],
      "rotation": [-0.114403769, 2.66243802e-07, 2.60618918e-07, 0.99343437]
    },
    {
      "children": [ 60 ],
      "name": "RightHandRing3",
      "translation": [-5.66989183e-06, 5.96046448e-07, 0.0279845595],
      "rotation": [0.103956565, -1.82597276e-07, -8.05300715e-08, 0.994581819]
    },
    {
      "children": [ 61 ],
      "name": "RightHandRing4",
      "translation": [2.11596489e-06, -2.38418579e-07, 0.0221160054],
      "rotation": [1.19965989e-07, 1.95577741e-08, -1.22003257e-07, 1]
    },
    {
      "name": "RightHandRing4_end",
      "translation": [-2.23517418e-08, -2.38418579e-07, 0.0221163034],
      "rotation": [1.07684173e-08, -4.19095159e-08, 4.47034836e-08, 1]
    },
    {
      "children": [ 63 ],
      "name": "RightHandPinky1",
      "translation": [0.0336210579, -0.00168693066, 0.0936501622],
      "rotation": [-0.069166109, 0.155024216, 0.0108813439, 0.985426426]
    },
    {
      "children": [ 64 ],
      "name": "RightHandPinky2",
      "translation": [-6.11059368e-05, 3.57627869e-07, 0.0279043019],
      "rotation": [-0.0882541388, 4.48786075e-08, 1.6408741e-07, 0.996098042]
    },
    {
      "children": [ 65 ],
      "name": "RightHandPinky3",
      "translation": [8.75256956e-05, -4.76837158e-07, 0.0223195553],
      "rotation": [0.0657745823, 1.49334998e-08, -7.21008035e-08, 0.997834504]
    },
    {
      "children": [ 66 ],
      "name": "RightHandPinky4",
      "translation": [-2.65240669e-05, -1.1920929e-07, 0.0183984041],
      "rotation": [-4.62168828e-08, 1.34110451e-07, 1.67638063e-08, 1]
    },
    {
      "name": "RightHandPinky4_end",
      "translation": [-5.58793545e-08, 1.1920929e-07, 0.0183984339],
      "rotation": [-3.6903657e-08, -6.70552254e-08, -9.54605639e-09, 1]
    },
    {
      "children": [ 68 ],
      "name": "LeftUpLeg",
      "translation": [-0.0937393308, -0.00525529683, -0.0491061211],
      "rotation": [-0.000612176664, -0.999173999, 0.0166848078, 0.0370497331]
    },
    {
      "children": [ 69 ],
      "name": "LeftLeg",
      "translation": [-1.10268593e-06, 4.75365669e-05, 0.432868958],
      "rotation": [-0.00200952264, 0.0130985668, 2.13397016e-05, 0.999912202]
    },
    {
      "children": [ 70 ],
      "name": "LeftFoot",
      "translation": [-2.5331974e-07, 1.02445483e-07, 0.457151562],
      "rotation": [-0.442171663, 0.00492788386, -0.00999763049, 0.896861196]
    },
    {
      "children": [ 71 ],
      "name": "LeftToeBase",
      "translation": [5.36441803e-07, -1.50501728e-05, 0.181698978],
      "rotation": [-0.315685034, 0.0249464586, -0.0747283846, 0.945587814]
    },
    {
      "children": [ 72 ],
      "name": "LeftToe_End",
      "translation": [3.12924385e-07, -4.26732004e-06, 0.0689975023],
      "rotation": [-5.16884029e-08, -7.26431608e-08, -1.6746344e-07, 1]
    },
    {
      "name": "LeftToe_End_end",
      "translation": [3.42726707e-07, -1.66706741e-07, 0.0689945668],
      "rotation": [-6.00703061e-08, -3.7252903e-09, -3.89991328e-09, 1]
    },
    {
      "children": [ 74 ],
      "name": "RightUpLeg",
      "translation": [0.0937393382, -0.00541342981, -0.0491061211],
      "rotation": [-0.000707476982, 0.999128103, -0.0192524251, 0.0370400362]
    },
    {
      "children": [ 75 ],
      "name": "RightLeg",
      "translation": [8.94069672e-08, 5.73061407e-05, 0.432947874],
      "rotation": [-0.00421584258, -0.0131066106, -4.8401871e-05, 0.999905229]
    },
    {
      "children": [ 76 ],
      "name": "RightFoot",
      "translation": [-1.49011612e-07, 7.91624188e-08, 0.457148224],
      "rotation": [-0.445792049, -0.00501806661, 0.0100781182, 0.895065784]
    },
    {
      "children": [ 77 ],
      "name": "RightToeBase",
      "translation": [-5.96046448e-07, -3.92645597e-06, 0.183353424],
      "rotation": [-0.312143952, -0.0251511205, 0.0762809142, 0.946633399]
    },
    {
      "children": [ 78 ],
      "name": "RightToe_End",
      "translation": [-3.27825546e-07, -1.39605254e-06, 0.0686338395],
      "rotation": [-2.57045031e-07, 8.94069672e-08, 2.39582732e-07, 1]
    },
    {
      "name": "RightToe_End_end",
      "translation": [-3.57627869e-07, 2.12341547e-07, 0.0686332136],
      "rotation": [2.84053385e-08, -3.7252903e-09, 1.05355866e-08, 1]
    }
  ],
  "scene": 0,
  "scenes": [
    {
      "nodes": [ 0 ]
    }
  ],
  "skins": [
    {
      "skeleton": 0,
      "inverseBindMatrices": 0,
      "joints": [ 0, 1, 2, 3, 4, 5, 6, 7, 8, 9, 10, 11, 12, 13, 14, 15, 16, 17, 18, 19, 20, 21, 22, 23, 24, 25, 26, 27, 28, 29, 30, 31, 32, 33, 34, 35, 36, 37, 38, 39, 40, 41, 42, 43, 44, 45, 46, 47, 48, 49, 50, 51, 52, 53, 54, 55, 56, 57, 58, 59, 60, 61, 62, 63, 64, 65, 66, 67, 68, 69, 70, 71, 72, 73, 74, 75, 76, 77, 78 ]
    }
  ],
  "animations": [
    {
      "name": "mixamo.com",
      "samplers": [
        {
          "interpolation": "LINEAR",
          "input": 1,
          "output": 2
        },
        {
          "interpolation": "LINEAR",
          "input": 1,
          "output": 81
        },
        {
          "interpolation": "LINEAR",
          "input": 1,
          "output": 3
        },
        {
          "interpolation": "LINEAR",
          "input": 1,
          "output": 82
        },
        {
          "interpolation": "LINEAR",
          "input": 1,
          "output": 4
        },
        {
          "interpolation": "LINEAR",
          "input": 1,
          "output": 83
        },
        {
          "interpolation": "LINEAR",
          "input": 1,
          "output": 5
        },
        {
          "interpolation": "LINEAR",
          "input": 1,
          "output": 84
        },
        {
          "interpolation": "LINEAR",
          "input": 1,
          "output": 6
        },
        {
          "interpolation": "LINEAR",
          "input": 1,
          "output": 85
        },
        {
          "interpolation": "LINEAR",
          "input": 1,
          "output": 7
        },
        {
          "interpolation": "LINEAR",
          "input": 1,
          "output": 86
        },
        {
          "interpolation": "LINEAR",
          "input": 1,
          "output": 8
        },
        {
          "interpolation": "LINEAR",
          "input": 1,
          "output": 87
        },
        {
          "interpolation": "LINEAR",
          "input": 1,
          "output": 9
        },
        {
          "interpolation": "LINEAR",
          "input": 1,
          "output": 88
        },
        {
          "interpolation": "LINEAR",
          "input": 1,
          "output": 10
        },
        {
          "interpolation": "LINEAR",
          "input": 1,
          "output": 89
        },
        {
          "interpolation": "LINEAR",
          "input": 1,
          "output": 11
        },
        {
          "interpolation": "LINEAR",
          "input": 1,
          "output": 90
        },
        {
          "interpolation": "LINEAR",
          "input": 1,
          "output": 12
        },
        {
          "interpolation": "LINEAR",
          "input": 1,
          "output": 91
        },
        {
          "interpolation": "LINEAR",
          "input": 1,
          "output": 13
        },
        {
          "interpolation": "LINEAR",
          "input": 1,
          "output": 92
        },
        {
          "interpolation": "LINEAR",
          "input": 1,
          "output": 14
        },
        {
          "interpolation": "LINEAR",
          "input": 1,
          "output": 93
        },
        {
          "interpolation": "LINEAR",
          "input": 1,
          "output": 15
        },
        {
          "interpolation": "LINEAR",
          "input": 1,
          "output": 94
        },
        {
          "interpolation": "LINEAR",
          "input": 1,
          "output": 16
        },
        {
          "interpolation": "LINEAR",
          "input": 1,
          "output": 95
        },
        {
          "interpolation": "LINEAR",
          "input": 1,
          "output": 17
        },
        {
          "interpolation": "LINEAR",
          "input": 1,
          "output": 96
        },
        {
          "interpolation": "LINEAR",
          "input": 1,
          "output": 18
        },
        {
          "interpolation": "LINEAR",
          "input": 1,
          "output": 97
        },
        {
          "interpolation": "LINEAR",
          "input": 1,
          "output": 19
        },
        {
          "interpolation": "LINEAR",
          "input": 1,
          "output": 98
        },
        {
          "interpolation": "LINEAR",
          "input": 1,
          "output": 20
        },
        {
          "interpolation": "LINEAR",
          "input": 1,
          "output": 99
        },
        {
          "interpolation": "LINEAR",
          "input": 1,
          "output": 21
        },
        {
          "interpolation": "LINEAR",
          "input": 1,
          "output": 100
        },
        {
          "interpolation": "LINEAR",
          "input": 1,
          "output": 22
        },
        {
          "interpolation": "LINEAR",
          "input": 1,
          "output": 101
        },
        {
          "interpolation": "LINEAR",
          "input": 1,
          "output": 23
        },
        {
          "interpolation": "LINEAR",
          "input": 1,
          "output": 102
        },
        {
          "interpolation": "LINEAR",
          "input": 1,
          "output": 24
        },
        {
          "interpolation": "LINEAR",
          "input": 1,
          "output": 103
        },
        {
          "interpolation": "LINEAR",
          "input": 1,
          "output": 25
        },
        {
          "interpolation": "LINEAR",
          "input": 1,
          "output": 104
        },
        {
          "interpolation": "LINEAR",
          "input": 1,
          "output": 26
        },
        {
          "interpolation": "LINEAR",
          "input": 1,
          "output": 105
        },
        {
          "interpolation": "LINEAR",
          "input": 1,
          "output": 27
        },
        {
          "interpolation": "LINEAR",
          "input": 1,
          "output": 106
        },
        {
          "interpolation": "LINEAR",
          "input": 1,
          "output": 28
        },
        {
          "interpolation": "LINEAR",
          "input": 1,
          "output": 107
        },
        {
          "interpolation": "LINEAR",
          "input": 1,
          "output": 29
        },
        {
          "interpolation": "LINEAR",
          "input": 1,
          "output": 108
        },
        {
          "interpolation": "LINEAR",
          "input": 1,
          "output": 30
        },
        {
          "interpolation": "LINEAR",
          "input": 1,
          "output": 109
        },
        {
          "interpolation": "LINEAR",
          "input": 1,
          "output": 31
        },
        {
          "interpolation": "LINEAR",
          "input": 1,
          "output": 110
        },
        {
          "interpolation": "LINEAR",
          "input": 1,
          "output": 32
        },
        {
          "interpolation": "LINEAR",
          "input": 1,
          "output": 111
        },
        {
          "interpolation": "LINEAR",
          "input": 1,
          "output": 33
        },
        {
          "interpolation": "LINEAR",
          "input": 1,
          "output": 112
        },
        {
          "interpolation": "LINEAR",
          "input": 1,
          "output": 34
        },
        {
          "interpolation": "LINEAR",
          "input": 1,
          "output": 113
        },
        {
          "interpolation": "LINEAR",
          "input": 1,
          "output": 35
        },
        {
          "interpolation": "LINEAR",
          "input": 1,
          "output": 114
        },
        {
          "interpolation": "LINEAR",
          "input": 1,
          "output": 36
        },
        {
          "interpolation": "LINEAR",
          "input": 1,
          "output": 115
        },
        {
          "interpolation": "LINEAR",
          "input": 1,
          "output": 37
        },
        {
          "interpolation": "LINEAR",
          "input": 1,
          "output": 116
        },
        {
          "interpolation": "LINEAR",
          "input": 1,
          "output": 38
        },
        {
          "interpolation": "LINEAR",
          "input": 1,
          "output": 117
        },
        {
          "interpolation": "LINEAR",
          "input": 1,
          "output": 39
        },
        {
          "interpolation": "LINEAR",
          "input": 1,
          "output": 118
        },
        {
          "interpolation": "LINEAR",
          "input": 1,
          "output": 40
        },
        {
          "interpolation": "LINEAR",
          "input": 1,
          "output": 119
        },
        {
          "interpolation": "LINEAR",
          "input": 1,
          "output": 41
        },
        {
          "interpolation": "LINEAR",
          "input": 1,
          "output": 120
        },
        {
          "interpolation": "LINEAR",
          "input": 1,
          "output": 42
        },
        {
          "interpolation": "LINEAR",
          "input": 1,
          "output": 121
        },
        {
          "interpolation": "LINEAR",
          "input": 1,
          "output": 43
        },
        {
          "interpolation": "LINEAR",
          "input": 1,
          "output": 122
        },
        {
          "interpolation": "LINEAR",
          "input": 1,
          "output": 44
        },
        {
          "interpolation": "LINEAR",
          "input": 1,
          "output": 123
        },
        {
          "interpolation": "LINEAR",
          "input": 1,
          "output": 45
        },
        {
          "interpolation": "LINEAR",
          "input": 1,
          "output": 124
        },
        {
          "interpolation": "LINEAR",
          "input": 1,
          "output": 46
        },
        {
          "interpolation": "LINEAR",
          "input": 1,
          "output": 125
        },
        {
          "interpolation": "LINEAR",
          "input": 1,
          "output": 47
        },
        {
          "interpolation": "LINEAR",
          "input": 1,
          "output": 126
        },
        {
          "interpolation": "LINEAR",
          "input": 1,
          "output": 48
        },
        {
          "interpolation": "LINEAR",
          "input": 1,
          "output": 127
        },
        {
          "interpolation": "LINEAR",
          "input": 1,
          "output": 49
        },
        {
          "interpolation": "LINEAR",
          "input": 1,
          "output": 128
        },
        {
          "interpolation": "LINEAR",
          "input": 1,
          "output": 50
        },
        {
          "interpolation": "LINEAR",
          "input": 1,
          "output": 129
        },
        {
          "interpolation": "LINEAR",
          "input": 1,
          "output": 51
        },
        {
          "interpolation": "LINEAR",
          "input": 1,
          "output": 130
        },
        {
          "interpolation": "LINEAR",
          "input": 1,
          "output": 52
        },
        {
          "interpolation": "LINEAR",
          "input": 1,
          "output": 131
        },
        {
          "interpolation": "LINEAR",
          "input": 1,
          "output": 53
        },
        {
          "interpolation": "LINEAR",
          "input": 1,
          "output": 132
        },
        {
          "interpolation": "LINEAR",
          "input": 1,
          "output": 54
        },
        {
          "interpolation": "LINEAR",
          "input": 1,
          "output": 133
        },
        {
          "interpolation": "LINEAR",
          "input": 1,
          "output": 55
        },
        {
          "interpolation": "LINEAR",
          "input": 1,
          "output": 134
        },
        {
          "interpolation": "LINEAR",
          "input": 1,
          "output": 56
        },
        {
          "interpolation": "LINEAR",
          "input": 1,
          "output": 135
        },
        {
          "interpolation": "LINEAR",
          "input": 1,
          "output": 57
        },
        {
          "interpolation": "LINEAR",
          "input": 1,
          "output": 136
        },
        {
          "interpolation": "LINEAR",
          "input": 1,
          "output": 58
        },
        {
          "interpolation": "LINEAR",
          "input": 1,
          "output": 137
        },
        {
          "interpolation": "LINEAR",
          "input": 1,
          "output": 59
        },
        {
          "interpolation": "LINEAR",
          "input": 1,
          "output": 138
        },
        {
          "interpolation": "LINEAR",
          "input": 1,
          "output": 60
        },
        {
          "interpolation": "LINEAR",
          "input": 1,
          "output": 139
        },
        {
          "interpolation": "LINEAR",
          "input": 1,
          "output": 61
        },
        {
          "interpolation": "LINEAR",
          "input": 1,
          "output": 140
        },
        {
          "interpolation": "LINEAR",
          "input": 1,
          "output": 62
        },
        {
          "interpolation": "LINEAR",
          "input": 1,
          "output": 141
        },
        {
          "interpolation": "LINEAR",
          "input": 1,
          "output": 63
        },
        {
          "interpolation": "LINEAR",
          "input": 1,
          "output": 142
        },
        {
          "interpolation": "LINEAR",
          "input": 1,
          "output": 64
        },
        {
          "interpolation": "LINEAR",
          "input": 1,
          "output": 143
        },
        {
          "interpolation": "LINEAR",
          "input": 1,
          "output": 65
        },
        {
          "interpolation": "LINEAR",
          "input": 1,
          "output": 144
        },
        {
          "interpolation": "LINEAR",
          "input": 1,
          "output": 66
        },
        {
          "interpolation": "LINEAR",
          "input": 1,
          "output": 145
        },
        {
          "interpolation": "LINEAR",
          "input": 1,
          "output": 67
        },
        {
          "interpolation": "LINEAR",
          "input": 1,
          "output": 146
        },
        {
          "interpolation": "LINEAR",
          "input": 1,
          "output": 68
        },
        {
          "interpolation": "LINEAR",
          "input": 1,
          "output": 147
        },
        {
          "interpolation": "LINEAR",
          "input": 1,
          "output": 69
        },
        {
          "interpolation": "LINEAR",
          "input": 1,
          "output": 148
        },
        {
          "interpolation": "LINEAR",
          "input": 1,
          "output": 70
        },
        {
          "interpolation": "LINEAR",
          "input": 1,
          "output": 149
        },
        {
          "interpolation": "LINEAR",
          "input": 1,
          "output": 71
        },
        {
          "interpolation": "LINEAR",
          "input": 1,
          "output": 150
        },
        {
          "interpolation": "LINEAR",
          "input": 1,
          "output": 72
        },
        {
          "interpolation": "LINEAR",
          "input": 1,
          "output": 151
        },
        {
          "interpolation": "LINEAR",
          "input": 1,
          "output": 73
        },
        {
          "interpolation": "LINEAR",
          "input": 1,
          "output": 152
        },
        {
          "interpolation": "LINEAR",
          "input": 1,
          "output": 74
        },
        {
          "interpolation": "LINEAR",
          "input": 1,
          "output": 153
        },
        {
          "interpolation": "LINEAR",
          "input": 1,
          "output": 75
        },
        {
          "interpolation": "LINEAR",
          "input": 1,
          "output": 154
        },
        {
          "interpolation": "LINEAR",
          "input": 1,
          "output": 76
        },
        {
          "interpolation": "LINEAR",
          "input": 1,
          "output": 155
        },
        {
          "interpolation": "LINEAR",
          "input": 1,
          "output": 77
        },
        {
          "interpolation": "LINEAR",
          "input": 1,
          "output": 156
        },
        {
          "interpolation": "LINEAR",
          "input": 1,
          "output": 78
        },
        {
          "interpolation": "LINEAR",
          "input": 1,
          "output": 157
        },
        {
          "interpolation": "LINEAR",
          "input": 1,
          "output": 79
        },
        {
          "interpolation": "LINEAR",
          "input": 1,
          "output": 158
        },
        {
          "interpolation": "LINEAR",
          "input": 1,
          "output": 80
        },
        {
          "interpolation": "LINEAR",
          "input": 1,
          "output": 159
        }
      ],
      "channels": [
        {
          "sampler": 0,
          "target": {
            "node": 0,
            "path": "translation"
          }
        },
        {
          "sampler": 1,
          "target": {
            "node": 0,
            "path": "rotation"
          }
        },
        {
          "sampler": 2,
          "target": {
            "node": 1,
            "path": "translation"
          }
        },
        {
          "sampler": 3,
          "target": {
            "node": 1,
            "path": "rotation"
          }
        },
        {
          "sampler": 4,
          "target": {
            "node": 2,
            "path": "translation"
          }
        },
        {
          "sampler": 5,
          "target": {
            "node": 2,
            "path": "rotation"
          }
        },
        {
          "sampler": 6,
          "target": {
            "node": 3,
            "path": "translation"
          }
        },
        {
          "sampler": 7,
          "target": {
            "node": 3,
            "path": "rotation"
          }
        },
        {
          "sampler": 8,
          "target": {
            "node": 4,
            "path": "translation"
          }
        },
        {
          "sampler": 9,
          "target": {
            "node": 4,
            "path": "rotation"
          }
        },
        {
          "sampler": 10,
          "target": {
            "node": 5,
            "path": "translation"
          }
        },
        {
          "sampler": 11,
          "target": {
            "node": 5,
            "path": "rotation"
          }
        },
        {
          "sampler": 12,
          "target": {
            "node": 6,
            "path": "translation"
          }
        },
        {
          "sampler": 13,
          "target": {
            "node": 6,
            "path": "rotation"
          }
        },
        {
          "sampler": 14,
          "target": {
            "node": 7,
            "path": "translation"
          }
        },
        {
          "sampler": 15,
          "target": {
            "node": 7,
            "path": "rotation"
          }
        },
        {
          "sampler": 16,
          "target": {
            "node": 8,
            "path": "translation"
          }
        },
        {
          "sampler": 17,
          "target": {
            "node": 8,
            "path": "rotation"
          }
        },
        {
          "sampler": 18,
          "target": {
            "node": 9,
            "path": "translation"
          }
        },
        {
          "sampler": 19,
          "target": {
            "node": 9,
            "path": "rotation"
          }
        },
        {
          "sampler": 20,
          "target": {
            "node": 10,
            "path": "translation"
          }
        },
        {
          "sampler": 21,
          "target": {
            "node": 10,
            "path": "rotation"
          }
        },
        {
          "sampler": 22,
          "target": {
            "node": 11,
            "path": "translation"
          }
        },
        {
          "sampler": 23,
          "target": {
            "node": 11,
            "path": "rotation"
          }
        },
        {
          "sampler": 24,
          "target": {
            "node": 12,
            "path": "translation"
          }
        },
        {
          "sampler": 25,
          "target": {
            "node": 12,
            "path": "rotation"
          }
        },
        {
          "sampler": 26,
          "target": {
            "node": 13,
            "path": "translation"
          }
        },
        {
          "sampler": 27,
          "target": {
            "node": 13,
            "path": "rotation"
          }
        },
        {
          "sampler": 28,
          "target": {
            "node": 14,
            "path": "translation"
          }
        },
        {
          "sampler": 29,
          "target": {
            "node": 14,
            "path": "rotation"
          }
        },
        {
          "sampler": 30,
          "target": {
            "node": 15,
            "path": "translation"
          }
        },
        {
          "sampler": 31,
          "target": {
            "node": 15,
            "path": "rotation"
          }
        },
        {
          "sampler": 32,
          "target": {
            "node": 16,
            "path": "translation"
          }
        },
        {
          "sampler": 33,
          "target": {
            "node": 16,
            "path": "rotation"
          }
        },
        {
          "sampler": 34,
          "target": {
            "node": 17,
            "path": "translation"
          }
        },
        {
          "sampler": 35,
          "target": {
            "node": 17,
            "path": "rotation"
          }
        },
        {
          "sampler": 36,
          "target": {
            "node": 18,
            "path": "translation"
          }
        },
        {
          "sampler": 37,
          "target": {
            "node": 18,
            "path": "rotation"
          }
        },
        {
          "sampler": 38,
          "target": {
            "node": 19,
            "path": "translation"
          }
        },
        {
          "sampler": 39,
          "target": {
            "node": 19,
            "path": "rotation"
          }
        },
        {
          "sampler": 40,
          "target": {
            "node": 20,
            "path": "translation"
          }
        },
        {
          "sampler": 41,
          "target": {
            "node": 20,
            "path": "rotation"
          }
        },
        {
          "sampler": 42,
          "target": {
            "node": 21,
            "path": "translation"
          }
        },
        {
          "sampler": 43,
          "target": {
            "node": 21,
            "path": "rotation"
          }
        },
        {
          "sampler": 44,
          "target": {
            "node": 22,
            "path": "translation"
          }
        },
        {
          "sampler": 45,
          "target": {
            "node": 22,
            "path": "rotation"
          }
        },
        {
          "sampler": 46,
          "target": {
            "node": 23,
            "path": "translation"
          }
        },
        {
          "sampler": 47,
          "target": {
            "node": 23,
            "path": "rotation"
          }
        },
        {
          "sampler": 48,
          "target": {
            "node": 24,
            "path": "translation"
          }
        },
        {
          "sampler": 49,
          "target": {
            "node": 24,
            "path": "rotation"
          }
        },
        {
          "sampler": 50,
          "target": {
            "node": 25,
            "path": "translation"
          }
        },
        {
          "sampler": 51,
          "target": {
            "node": 25,
            "path": "rotation"
          }
        },
        {
          "sampler": 52,
          "target": {
            "node": 26,
            "path": "translation"
          }
        },
        {
          "sampler": 53,
          "target": {
            "node": 26,
            "path": "rotation"
          }
        },
        {
          "sampler": 54,
          "target": {
            "node": 27,
            "path": "translation"
          }
        },
        {
          "sampler": 55,
          "target": {
            "node": 27,
            "path": "rotation"
          }
        },
        {
          "sampler": 56,
          "target": {
            "node": 28,
            "path": "translation"
          }
        },
        {
          "sampler": 57,
          "target": {
            "node": 28,
            "path": "rotation"
          }
        },
        {
          "sampler": 58,
          "target": {
            "node": 29,
            "path": "translation"
          }
        },
        {
          "sampler": 59,
          "target": {
            "node": 29,
            "path": "rotation"
          }
        },
        {
          "sampler": 60,
          "target": {
            "node": 30,
            "path": "translation"
          }
        },
        {
          "sampler": 61,
          "target": {
            "node": 30,
            "path": "rotation"
          }
        },
        {
          "sampler": 62,
          "target": {
            "node": 31,
            "path": "translation"
          }
        },
        {
          "sampler": 63,
          "target": {
            "node": 31,
            "path": "rotation"
          }
        },
        {
          "sampler": 64,
          "target": {
            "node": 32,
            "path": "translation"
          }
        },
        {
          "sampler": 65,
          "target": {
            "node": 32,
            "path": "rotation"
          }
        },
        {
          "sampler": 66,
          "target": {
            "node": 33,
            "path": "translation"
          }
        },
        {
          "sampler": 67,
          "target": {
            "node": 33,
            "path": "rotation"
          }
        },
        {
          "sampler": 68,
          "target": {
            "node": 34,
            "path": "translation"
          }
        },
        {
          "sampler": 69,
          "target": {
            "node": 34,
            "path": "rotation"
          }
        },
        {
          "sampler": 70,
          "target": {
            "node": 35,
            "path": "translation"
          }
        },
        {
          "sampler": 71,
          "target": {
            "node": 35,
            "path": "rotation"
          }
        },
        {
          "sampler": 72,
          "target": {
            "node": 36,
            "path": "translation"
          }
        },
        {
          "sampler": 73,
          "target": {
            "node": 36,
            "path": "rotation"
          }
        },
        {
          "sampler": 74,
          "target": {
            "node": 37,
            "path": "translation"
          }
        },
        {
          "sampler": 75,
          "target": {
            "node": 37,
            "path": "rotation"
          }
        },
        {
          "sampler": 76,
          "target": {
            "node": 38,
            "path": "translation"
          }
        },
        {
          "sampler": 77,
          "target": {
            "node": 38,
            "path": "rotation"
          }
        },
        {
          "sampler": 78,
          "target": {
            "node": 39,
            "path": "translation"
          }
        },
        {
          "sampler": 79,
          "target": {
            "node": 39,
            "path": "rotation"
          }
        },
        {
          "sampler": 80,
          "target": {
            "node": 40,
            "path": "translation"
          }
        },
        {
          "sampler": 81,
          "target": {
            "node": 40,
            "path": "rotation"
          }
        },
        {
          "sampler": 82,
          "target": {
            "node": 41,
            "path": "translation"
          }
        },
        {
          "sampler": 83,
          "target": {
            "node": 41,
            "path": "rotation"
          }
        },
        {
          "sampler": 84,
          "target": {
            "node": 42,
            "path": "translation"
          }
        },
        {
          "sampler": 85,
          "target": {
            "node": 42,
            "path": "rotation"
          }
        },
        {
          "sampler": 86,
          "target": {
            "node": 43,
            "path": "translation"
          }
        },
        {
          "sampler": 87,
          "target": {
            "node": 43,
            "path": "rotation"
          }
        },
        {
          "sampler": 88,
          "target": {
            "node": 44,
            "path": "translation"
          }
        },
        {
          "sampler": 89,
          "target": {
            "node": 44,
            "path": "rotation"
          }
        },
        {
          "sampler": 90,
          "target": {
            "node": 45,
            "path": "translation"
          }
        },
        {
          "sampler": 91,
          "target": {
            "node": 45,
            "path": "rotation"
          }
        },
        {
          "sampler": 92,
          "target": {
            "node": 46,
            "path": "translation"
          }
        },
        {
          "sampler": 93,
          "target": {
            "node": 46,
            "path": "rotation"
          }
        },
        {
          "sampler": 94,
          "target": {
            "node": 47,
            "path": "translation"
          }
        },
        {
          "sampler": 95,
          "target": {
            "node": 47,
            "path": "rotation"
          }
        },
        {
          "sampler": 96,
          "target": {
            "node": 48,
            "path": "translation"
          }
        },
        {
          "sampler": 97,
          "target": {
            "node": 48,
            "path": "rotation"
          }
        },
        {
          "sampler": 98,
          "target": {
            "node": 49,
            "path": "translation"
          }
        },
        {
          "sampler": 99,
          "target": {
            "node": 49,
            "path": "rotation"
          }
        },
        {
          "sampler": 100,
          "target": {
            "node": 50,
            "path": "translation"
          }
        },
        {
          "sampler": 101,
          "target": {
            "node": 50,
            "path": "rotation"
          }
        },
        {
          "sampler": 102,
          "target": {
            "node": 51,
            "path": "translation"
          }
        },
        {
          "sampler": 103,
          "target": {
            "node": 51,
            "path": "rotation"
          }
        },
        {
          "sampler": 104,
          "target": {
            "node": 52,
            "path": "translation"
          }
        },
        {
          "sampler": 105,
          "target": {
            "node": 52,
            "path": "rotation"
          }
        },
        {
          "sampler": 106,
          "target": {
            "node": 53,
            "path": "translation"
          }
        },
        {
          "sampler": 107,
          "target": {
            "node": 53,
            "path": "rotation"
          }
        },
        {
          "sampler": 108,
          "target": {
            "node": 54,
            "path": "translation"
          }
        },
        {
          "sampler": 109,
          "target": {
            "node": 54,
            "path": "rotation"
          }
        },
        {
          "sampler": 110,
          "target": {
            "node": 55,
            "path": "translation"
          }
        },
        {
          "sampler": 111,
          "target": {
            "node": 55,
            "path": "rotation"
          }
        },
        {
          "sampler": 112,
          "target": {
            "node": 56,
            "path": "translation"
          }
        },
        {
          "sampler": 113,
          "target": {
            "node": 56,
            "path": "rotation"
          }
        },
        {
          "sampler": 114,
          "target": {
            "node": 57,
            "path": "translation"
          }
        },
        {
          "sampler": 115,
          "target": {
            "node": 57,
            "path": "rotation"
          }
        },
        {
          "sampler": 116,
          "target": {
            "node": 58,
            "path": "translation"
          }
        },
        {
          "sampler": 117,
          "target": {
            "node": 58,
            "path": "rotation"
          }
        },
        {
          "sampler": 118,
          "target": {
            "node": 59,
            "path": "translation"
          }
        },
        {
          "sampler": 119,
          "target": {
            "node": 59,
            "path": "rotation"
          }
        },
        {
          "sampler": 120,
          "target": {
            "node": 60,
            "path": "translation"
          }
        },
        {
          "sampler": 121,
          "target": {
            "node": 60,
            "path": "rotation"
          }
        },
        {
          "sampler": 122,
          "target": {
            "node": 61,
            "path": "translation"
          }
        },
        {
          "sampler": 123,
          "target": {
            "node": 61,
            "path": "rotation"
          }
        },
        {
          "sampler": 124,
          "target": {
            "node": 62,
            "path": "translation"
          }
        },
        {
          "sampler": 125,
          "target": {
            "node": 62,
            "path": "rotation"
          }
        },
        {
          "sampler": 126,
          "target": {
            "node": 63,
            "path": "translation"
          }
        },
        {
          "sampler": 127,
          "target": {
            "node": 63,
            "path": "rotation"
          }
        },
        {
          "sampler": 128,
          "target": {
            "node": 64,
            "path": "translation"
          }
        },
        {
          "sampler": 129,
          "target": {
            "node": 64,
            "path": "rotation"
          }
        },
        {
          "sampler": 130,
          "target": {
            "node": 65,
            "path": "translation"
          }
        },
        {
          "sampler": 131,
          "target": {
            "node": 65,
            "path": "rotation"
          }
        },
        {
          "sampler": 132,
          "target": {
            "node": 66,
            "path": "translation"
          }
        },
        {
          "sampler": 133,
          "target": {
            "node": 66,
            "path": "rotation"
          }
        },
        {
          "sampler": 134,
          "target": {
            "node": 67,
            "path": "translation"
          }
        },
        {
          "sampler": 135,
          "target": {
            "node": 67,
            "path": "rotation"
          }
        },
        {
          "sampler": 136,
          "target": {
            "node": 68,
            "path": "translation"
          }
        },
        {
          "sampler": 137,
          "target": {
            "node": 68,
            "path": "rotation"
          }
        },
        {
          "sampler": 138,
          "target": {
            "node": 69,
            "path": "translation"
          }
        },
        {
          "sampler": 139,
          "target": {
            "node": 69,
            "path": "rotation"
          }
        },
        {
          "sampler": 140,
          "target": {
            "node": 70,
            "path": "translation"
          }
        },
        {
          "sampler": 141,
          "target": {
            "node": 70,
            "path": "rotation"
          }
        },
        {
          "sampler": 142,
          "target": {
            "node": 71,
            "path": "translation"
          }
        },
        {
          "sampler": 143,
          "target": {
            "node": 71,
            "path": "rotation"
          }
        },
        {
          "sampler": 144,
          "target": {
            "node": 72,
            "path": "translation"
          }
        },
        {
          "sampler": 145,
          "target": {
            "node": 72,
            "path": "rotation"
          }
        },
        {
          "sampler": 146,
          "target": {
            "node": 73,
            "path": "translation"
          }
        },
        {
          "sampler": 147,
          "target": {
            "node": 73,
            "path": "rotation"
          }
        },
        {
          "sampler": 148,
          "target": {
            "node": 74,
            "path": "translation"
          }
        },
        {
          "sampler": 149,
          "target": {
            "node": 74,
            "path": "rotation"
          }
        },
        {
          "sampler": 150,
          "target": {
            "node": 75,
            "path": "translation"
          }
        },
        {
          "sampler": 151,
          "target": {
            "node": 75,
            "path": "rotation"
          }
        },
        {
          "sampler": 152,
          "target": {
            "node": 76,
            "path": "translation"
          }
        },
        {
          "sampler": 153,
          "target": {
            "node": 76,
            "path": "rotation"
          }
        },
        {
          "sampler": 154,
          "target": {
            "node": 77,
            "path": "translation"
          }
        },
        {
          "sampler": 155,
          "target": {
            "node": 77,
            "path": "rotation"
          }
        },
        {
          "sampler": 156,
          "target": {
            "node": 78,
            "path": "translation"
          }
        },
        {
          "sampler": 157,
          "target": {
            "node": 78,
            "path": "rotation"
          }
        }
      ]
    }
  ]
}
