{
  "accessors": [
    {
      "bufferView": 0,
      "componentType": 5126,
      "type": "VEC3",
      "count": 48,
      "min": [-0.109999999, 0, -0.0920000002],
      "max": [0.109999999, 0.0549999997, 0.0799999982]
    },
    {
      "bufferView": 1,
      "componentType": 5126,
      "type": "VEC3",
      "count": 48
    },
    {
      "bufferView": 2,
      "componentType": 5125,
      "type": "SCALAR",
      "count": 72
    }
  ],
  "asset": {
    "generator": "Traktor",
    "version": "2.0"
  },
  "bufferViews": [
    {
      "buffer": 0,
      "byteLength": 576
    },
    {
      "buffer": 0,
      "byteLength": 576,
      "byteOffset": 576
    },
    {
      "buffer": 0,
      "byteLength": 288,
      "byteOffset": 1152
    }
  ],
  "buffers": [
    {
      "uri": "data:application/octet-stream;base64,",
      "byteLength": 1440
    }
  ],
  "meshes": [
    {
      "primitives": [
        {
          "indices": 2,
          "material": 0,
          "attributes": {
            "POSITION": 0,
            "NORMAL": 1
          }
        }
      ]
    }
  ],
  "materials": [
    {
      "name": "Leather",
      "pbrMetallicRoughness": {
        "metallicFactor": 0,
        "roughnessFactor": 0.800000012,
        "baseColorFactor": [0.25, 0.0799999982, 0.0500000007, 1]
      }
    }
  ],
  "nodes": [
    {
      "mesh": 0
    }
  ],
  "scene": 0,
  "scenes": [
    {
      "nodes": [ 0 ]
    }
  ]
}
