{
  "accessors": [
    {
      "bufferView": 0,
      "componentType": 5126,
      "type": "VEC3",
      "count": 568,
      "min": [-0.0467999987, -0.00179999997, -0.00800000038],
      "max": [0.0467999987, 0.118000001, 0.00800000038]
    },
    {
      "bufferView": 1,
      "componentType": 5126,
      "type": "VEC3",
      "count": 568
    },
    {
      "bufferView": 2,
      "componentType": 5125,
      "type": "SCALAR",
      "count": 792
    }
  ],
  "asset": {
    "generator": "Traktor",
    "version": "2.0"
  },
  "bufferViews": [
    {
      "buffer": 0,
      "byteLength": 6816
    },
    {
      "buffer": 0,
      "byteLength": 6816,
      "byteOffset": 6816
    },
    {
      "buffer": 0,
      "byteLength": 3168,
      "byteOffset": 13632
    }
  ],
  "buffers": [
    {
      "uri": "data:application/octet-stream;base64,",
      "byteLength": 16800
    }
  ],
  "meshes": [
    {
      "primitives": [
        {
          "indices": 2,
          "material": 0,
          "attributes": {
            "POSITION": 0,
            "NORMAL": 1
          }
        }
      ]
    }
  ],
  "materials": [
    {
      "name": "Silver",
      "pbrMetallicRoughness": {
        "roughnessFactor": 0.300000012,
        "baseColorFactor": [0.620000005, 0.629999995, 0.660000026, 1]
      }
    }
  ],
  "nodes": [
    {
      "mesh": 0
    }
  ],
  "scene": 0,
  "scenes": [
    {
      "nodes": [ 0 ]
    }
  ]
}
