{
  "accessors": [
    {
      "bufferView": 0,
      "componentType": 5126,
      "type": "VEC3",
      "count": 1184,
      "min": [-0.0680000037, 0, -0.0260000005],
      "max": [0.0680000037, 0.150999993, 0.0260000005]
    },
    {
      "bufferView": 1,
      "componentType": 5126,
      "type": "VEC3",
      "count": 1184
    },
    {
      "bufferView": 2,
      "componentType": 5125,
      "type": "SCALAR",
      "count": 1728
    }
  ],
  "asset": {
    "generator": "Traktor",
    "version": "2.0"
  },
  "bufferViews": [
    {
      "buffer": 0,
      "byteLength": 14208
    },
    {
      "buffer": 0,
      "byteLength": 14208,
      "byteOffset": 14208
    },
    {
      "buffer": 0,
      "byteLength": 6912,
      "byteOffset": 28416
    }
  ],
  "buffers": [
    {
      "uri": "data:application/octet-stream;base64,",
      "byteLength": 35328
    }
  ],
  "meshes": [
    {
      "primitives": [
        {
          "indices": 2,
          "material": 0,
          "attributes": {
            "POSITION": 0,
            "NORMAL": 1
          }
        }
      ]
    }
  ],
  "materials": [
    {
      "name": "Gold",
      "pbrMetallicRoughness": {
        "roughnessFactor": 0.300000012,
        "baseColorFactor": [0.829999983, 0.600000024, 0.180000007, 1]
      }
    }
  ],
  "nodes": [
    {
      "mesh": 0
    }
  ],
  "scene": 0,
  "scenes": [
    {
      "nodes": [ 0 ]
    }
  ]
}
