{
  "accessors": [
    {
      "bufferView": 0,
      "componentType": 5126,
      "type": "VEC3",
      "count": 548,
      "min": [-0.129999995, -0.119999997, -0.0320000015],
      "max": [0.129999995, 0.942600012, 0.0320000015]
    },
    {
      "bufferView": 1,
      "componentType": 5126,
      "type": "VEC3",
      "count": 548
    },
    {
      "bufferView": 2,
      "componentType": 5125,
      "type": "SCALAR",
      "count": 36
    },
    {
      "bufferView": 3,
      "componentType": 5125,
      "type": "SCALAR",
      "count": 540
    },
    {
      "bufferView": 4,
      "componentType": 5125,
      "type": "SCALAR",
      "count": 180
    }
  ],
  "asset": {
    "generator": "Traktor",
    "version": "2.0"
  },
  "bufferViews": [
    {
      "buffer": 0,
      "byteLength": 6576
    },
    {
      "buffer": 0,
      "byteLength": 6576,
      "byteOffset": 6576
    },
    {
      "buffer": 0,
      "byteLength": 144,
      "byteOffset": 13152
    },
    {
      "buffer": 0,
      "byteLength": 2160,
      "byteOffset": 13296
    },
    {
      "buffer": 0,
      "byteLength": 720,
      "byteOffset": 15456
    }
  ],
  "buffers": [
    {
      "uri": "data:application/octet-stream;base64,",
      "byteLength": 16176
    }
  ],
  "meshes": [
    {
      "primitives": [
        {
          "indices": 2,
          "material": 0,
          "attributes": {
            "POSITION": 0,
            "NORMAL": 1
          }
        },
        {
          "indices": 3,
          "material": 1,
          "attributes": {
            "POSITION": 0,
            "NORMAL": 1
          }
        },
        {
          "indices": 4,
          "material": 2,
          "attributes": {
            "POSITION": 0,
            "NORMAL": 1
          }
        }
      ]
    }
  ],
  "materials": [
    {
      "name": "Steel",
      "pbrMetallicRoughness": {
        "roughnessFactor": 0.25,
        "baseColorFactor": [0.550000012, 0.569999993, 0.600000024, 1]
      }
    },
    {
      "name": "Gold",
      "pbrMetallicRoughness": {
        "roughnessFactor": 0.300000012,
        "baseColorFactor": [0.829999983, 0.600000024, 0.180000007, 1]
      }
    },
    {
      "name": "Leather",
      "pbrMetallicRoughness": {
        "metallicFactor": 0,
        "roughnessFactor": 0.800000012,
        "baseColorFactor": [0.25, 0.0799999982, 0.0500000007, 1]
      }
    }
  ],
  "nodes": [
    {
      "mesh": 0
    }
  ],
  "scene": 0,
  "scenes": [
    {
      "nodes": [ 0 ]
    }
  ]
}
