# Cave_Mouth -- generated by tools/gen_cave_mouth.py; do not edit by hand.
v -1.6000 0.0000 0.0000
v -1.6038 0.4487 -0.0132
v -1.5838 0.9018 -0.0635
v -1.4598 1.2850 -0.0046
v -1.3930 1.7090 0.0338
v -1.2661 2.0644 -0.0683
v -1.1239 2.3882 -0.0118
v -0.9733 2.6954 -0.0527
v -0.7991 2.9413 0.0598
v -0.6169 3.1650 -0.0250
v -0.4145 3.2874 -0.0188
v -0.2073 3.3456 -0.0308
v -0.0000 3.4305 -0.0122
v 0.2065 3.3329 -0.0004
v 0.4163 3.3014 0.0243
v 0.6033 3.0950 -0.0717
v 0.8096 2.9799 0.0028
v 0.9894 2.7399 0.0487
v 1.1501 2.4440 0.0680
v 1.2672 2.0663 -0.0546
v 1.3706 1.6816 -0.0265
v 1.4741 1.2975 -0.0115
v 1.5299 0.8711 0.0462
v 1.5429 0.4317 -0.0404
v 1.6000 0.0000 0.0000
v -2.6134 -0.3000 0.3249
v -2.3786 0.2758 0.7773
v -2.5440 0.9109 0.7706
v -2.3164 1.4262 0.3294
v -2.2313 2.0097 0.3178
v -2.0283 2.4947 0.4988
v -1.7619 2.8725 0.3930
v -1.5475 3.3250 0.6306
v -1.2730 3.6634 0.8175
v -0.9330 3.7621 0.5787
v -0.6346 3.9686 0.3086
v -0.3327 4.2423 0.3263
v -0.0000 4.0379 0.7098
v 0.3289 4.1949 0.2864
v 0.6613 4.1357 0.4708
v 0.9249 3.7290 0.2844
v 1.2592 3.6236 0.4268
v 1.4643 3.1464 0.6737
v 1.7666 2.8802 0.3922
v 1.9696 2.4225 0.3098
v 2.1776 1.9613 0.6691
v 2.4208 1.4905 0.5372
v 2.5716 0.9208 0.3765
v 2.4963 0.2894 0.6666
v 2.6658 -0.3000 0.5856
v -3.2717 -0.7000 -0.0157
v -3.2648 0.0426 0.4323
v -3.3433 0.7892 0.2404
v -3.1820 1.5005 0.4822
v -3.0665 2.2391 0.0599
v -2.7621 2.8363 0.2748
v -2.3008 3.1873 0.0914
v -2.0533 3.7917 -0.0875
v -1.6770 4.1791 0.4436
v -1.3200 4.6324 0.0465
v -0.9133 4.9878 0.3041
v -0.4349 4.8523 0.3125
v -0.0000 4.9143 0.3486
v 0.4543 5.0690 0.4553
v 0.8921 4.8722 0.3543
v 1.3056 4.5820 0.4196
v 1.7292 4.3090 0.1760
v 2.0567 3.7980 0.0306
v 2.2920 3.1752 0.0198
v 2.6757 2.7476 0.1899
v 2.9294 2.1390 0.1269
v 2.9886 1.4093 0.4642
v 3.2241 0.7611 0.2463
v 3.2688 0.0427 -0.1911
v 3.2226 -0.7000 -0.0424
v -4.4589 -1.2000 -0.9048
v -4.2166 -0.2863 -1.3225
v -4.0765 0.5868 -1.1496
v -4.2480 1.5453 -1.0526
v -3.9499 2.3842 -1.4203
v -3.4770 3.0492 -0.7445
v -3.1773 3.8294 -1.4849
v -2.6492 4.3057 -1.3659
v -2.1192 4.6835 -1.0413
v -1.6340 5.1114 -1.3491
v -1.1177 5.4586 -1.4971
v -0.5614 5.6112 -0.9036
v -0.0000 5.9372 -1.4957
v 0.5674 5.6710 -1.0314
v 1.1409 5.5716 -0.9188
v 1.6466 5.1508 -1.4565
v 2.1730 4.8025 -0.9270
v 2.7104 4.4052 -1.2463
v 3.2157 3.8756 -1.0167
v 3.3245 2.9156 -1.1802
v 3.7844 2.2843 -1.3779
v 4.1607 1.5136 -0.9110
v 4.3353 0.6240 -1.0562
v 4.1881 -0.2863 -1.2394
v 4.2480 -1.2000 -0.7720
v -5.5314 -1.8000 -2.9045
v -5.4835 -0.7036 -2.8407
v -5.1062 0.3662 -2.8955
v -4.8803 1.3837 -2.5425
v -4.8593 2.4938 -2.5400
v -4.1923 3.2426 -2.9387
v -3.9805 4.3155 -2.5923
v -3.2254 4.7726 -2.4530
v -2.6972 5.4690 -2.3991
v -2.0667 5.9613 -2.9622
v -1.3585 6.1371 -2.6612
v -0.7152 6.6237 -2.7538
v -0.0000 6.5578 -2.2390
v 0.7015 6.4975 -2.3585
v 1.4234 6.4301 -2.9230
v 2.1103 6.0870 -2.8001
v 2.6004 5.2726 -2.4004
v 3.2818 4.8560 -2.8994
v 3.7273 4.0410 -2.4910
v 4.3499 3.3645 -2.7142
v 4.8332 2.4804 -2.8664
v 5.0363 1.4280 -2.9803
v 5.1393 0.3686 -2.6615
v 5.4726 -0.7036 -2.9633
v 5.3007 -1.8000 -2.5530
v -6.4266 -2.4000 -4.5013
v -6.3263 -1.1339 -4.2056
v -6.1503 0.1100 -4.1593
v -6.0000 1.3314 -4.3508
v -5.5748 2.4642 -4.3235
v -5.1689 3.5681 -4.4871
v -4.5312 4.4645 -4.0239
v -3.9598 5.3821 -4.5282
v -3.2004 6.0011 -4.3073
v -2.3999 6.4295 -4.4769
v -1.6994 7.1502 -3.8982
v -0.8190 7.0754 -4.4153
v -0.0000 7.4622 -4.5004
v 0.8116 7.0119 -4.1580
v 1.6403 6.9014 -4.1234
v 2.4393 6.5352 -4.1393
v 3.2904 6.1699 -4.1151
v 3.9979 5.4339 -4.1915
v 4.5235 4.4570 -4.0643
v 5.1081 3.5261 -4.3102
v 5.3612 2.3698 -3.8511
v 6.1160 1.3571 -4.4200
v 6.0050 0.1074 -4.2856
v 6.2391 -1.1339 -4.1037
v 6.3185 -2.4000 -4.5038
v -7.4406 5.9405 -6.0109
v -7.4003 6.0882 -6.0777
v -7.2149 5.8714 -5.9999
v -6.8779 5.5504 -5.8846
v -6.4109 5.9029 -6.0661
v -5.9702 5.7892 -6.0394
v -5.1920 5.2870 -5.8490
v -4.4382 5.8474 -6.1123
v -3.6805 6.0216 -6.1966
v -2.8683 5.7415 -6.0760
v -1.9170 5.5341 -5.9753
v -0.9701 5.8069 -6.0815
v -0.0000 5.7550 -6.0438
v 0.9551 5.8733 -6.0832
v 1.8923 5.2748 -5.8062
v 2.8026 5.8405 -6.0628
v 3.7251 5.4016 -5.8513
v 4.5255 5.9869 -6.0728
v 5.1543 5.6639 -5.8969
v 5.8645 5.6547 -5.8858
v 6.3351 6.1735 -6.1431
v 6.7461 5.7432 -5.9584
v 7.0363 5.8589 -6.0305
v 7.3541 5.8031 -6.0274
v 7.4388 5.7919 -6.0289
v -1.5200 0.6335 -0.6000
v -1.4602 1.0377 -0.6000
v -1.5517 1.5077 -0.6000
v -1.3820 1.8371 -0.6000
v -1.3865 2.3166 -0.6000
v -1.2288 2.6161 -0.6000
v -1.0814 2.9072 -0.6000
v -0.8952 3.0866 -0.6000
v -0.7514 3.3701 -0.6000
v -0.5907 3.6321 -0.6000
v -0.4080 3.8353 -0.6000
v -0.2009 3.8418 -0.6000
v -0.0000 3.8356 -0.6000
v 0.2010 3.8439 -0.6000
v 0.3846 3.6514 -0.6000
v 0.5701 3.5276 -0.6000
v 0.7664 3.4248 -0.6000
v 0.9229 3.1625 -0.6000
v 1.0369 2.8138 -0.6000
v 1.2109 2.5872 -0.6000
v 1.3607 2.2853 -0.6000
v 1.3806 1.8359 -0.6000
v 1.3728 1.4069 -0.6000
v 1.5742 1.0692 -0.6000
v 1.5200 0.6335 -0.6000
v -1.4400 0.9254 -1.2000
v -1.4466 1.3211 -1.2000
v -1.3373 1.6699 -1.2000
v -1.3288 2.0691 -1.2000
v -1.2877 2.4702 -1.2000
v -1.1668 2.7856 -1.2000
v -1.0162 3.0368 -1.2000
v -0.8385 3.1960 -1.2000
v -0.7507 3.6271 -1.2000
v -0.5600 3.7344 -1.2000
v -0.3599 3.7163 -1.2000
v -0.1924 3.9613 -1.2000
v -0.0000 3.8152 -1.2000
v 0.1860 3.8602 -1.2000
v 0.3865 3.9225 -1.2000
v 0.5526 3.6972 -1.2000
v 0.7000 3.4444 -1.2000
v 0.9096 3.3884 -1.2000
v 1.0505 3.1080 -1.2000
v 1.0911 2.6650 -1.2000
v 1.1825 2.3439 -1.2000
v 1.2618 2.0114 -1.2000
v 1.3887 1.6986 -1.2000
v 1.4333 1.3175 -1.2000
v 1.4400 0.9254 -1.2000
v -1.3600 1.1657 -1.8000
v -1.3521 1.5306 -1.8000
v -1.2320 1.8424 -1.8000
v -1.2295 2.2097 -1.8000
v -1.1289 2.5018 -1.8000
v -1.0443 2.8084 -1.8000
v -0.9981 3.2118 -1.8000
v -0.8200 3.3564 -1.8000
v -0.6973 3.6417 -1.8000
v -0.5312 3.7948 -1.8000
v -0.3434 3.7933 -1.8000
v -0.1822 4.0035 -1.8000
v -0.0000 4.0517 -1.8000
v 0.1711 3.8298 -1.8000
v 0.3399 3.7660 -1.8000
v 0.5171 3.7251 -1.8000
v 0.6952 3.6340 -1.8000
v 0.8239 3.3667 -1.8000
v 0.9779 3.1704 -1.8000
v 1.0426 2.8057 -1.8000
v 1.2471 2.6417 -1.8000
v 1.3133 2.2809 -1.8000
v 1.2325 1.8427 -1.8000
v 1.2418 1.5009 -1.8000
v 1.3600 1.1657 -1.8000
v 0.0017 2.8657 -1.8000
usemtl CaveRock
f 2 27 1
f 27 26 1
f 3 28 2
f 28 27 2
f 4 29 3
f 29 28 3
f 5 30 29
f 5 29 4
f 6 31 30
f 6 30 5
f 7 32 31
f 7 31 6
f 8 33 32
f 8 32 7
f 9 34 33
f 9 33 8
f 10 35 9
f 35 34 9
f 11 36 10
f 36 35 10
f 12 37 36
f 12 36 11
f 13 38 37
f 13 37 12
f 14 39 13
f 39 38 13
f 15 40 39
f 15 39 14
f 16 41 15
f 41 40 15
f 17 42 41
f 17 41 16
f 18 43 17
f 43 42 17
f 19 44 18
f 44 43 18
f 20 45 19
f 45 44 19
f 21 46 45
f 21 45 20
f 22 47 46
f 22 46 21
f 23 48 47
f 23 47 22
f 24 49 48
f 24 48 23
f 25 50 49
f 25 49 24
f 27 52 26
f 52 51 26
f 28 53 52
f 28 52 27
f 29 54 28
f 54 53 28
f 30 55 54
f 30 54 29
f 31 56 30
f 56 55 30
f 32 57 31
f 57 56 31
f 33 58 57
f 33 57 32
f 34 59 33
f 59 58 33
f 35 60 59
f 35 59 34
f 36 61 60
f 36 60 35
f 37 62 36
f 62 61 36
f 38 63 37
f 63 62 37
f 39 64 63
f 39 63 38
f 40 65 39
f 65 64 39
f 41 66 40
f 66 65 40
f 42 67 66
f 42 66 41
f 43 68 42
f 68 67 42
f 44 69 68
f 44 68 43
f 45 70 69
f 45 69 44
f 46 71 45
f 71 70 45
f 47 72 71
f 47 71 46
f 48 73 72
f 48 72 47
f 49 74 73
f 49 73 48
f 50 75 74
f 50 74 49
f 52 77 51
f 77 76 51
f 53 78 52
f 78 77 52
f 54 79 53
f 79 78 53
f 55 80 79
f 55 79 54
f 56 81 55
f 81 80 55
f 57 82 81
f 57 81 56
f 58 83 82
f 58 82 57
f 59 84 58
f 84 83 58
f 60 85 84
f 60 84 59
f 61 86 60
f 86 85 60
f 62 87 61
f 87 86 61
f 63 88 87
f 63 87 62
f 64 89 63
f 89 88 63
f 65 90 64
f 90 89 64
f 66 91 90
f 66 90 65
f 67 92 66
f 92 91 66
f 68 93 92
f 68 92 67
f 69 94 68
f 94 93 68
f 70 95 69
f 95 94 69
f 71 96 95
f 71 95 70
f 72 97 71
f 97 96 71
f 73 98 97
f 73 97 72
f 74 99 98
f 74 98 73
f 75 100 99
f 75 99 74
f 77 102 76
f 102 101 76
f 78 103 77
f 103 102 77
f 79 104 78
f 104 103 78
f 80 105 104
f 80 104 79
f 81 106 80
f 106 105 80
f 82 107 106
f 82 106 81
f 83 108 82
f 108 107 82
f 84 109 83
f 109 108 83
f 85 110 109
f 85 109 84
f 86 111 85
f 111 110 85
f 87 112 86
f 112 111 86
f 88 113 112
f 88 112 87
f 89 114 88
f 114 113 88
f 90 115 114
f 90 114 89
f 91 116 115
f 91 115 90
f 92 117 91
f 117 116 91
f 93 118 117
f 93 117 92
f 94 119 93
f 119 118 93
f 95 120 119
f 95 119 94
f 96 121 120
f 96 120 95
f 97 122 96
f 122 121 96
f 98 123 122
f 98 122 97
f 99 124 123
f 99 123 98
f 100 125 99
f 125 124 99
f 102 127 101
f 127 126 101
f 103 128 102
f 128 127 102
f 104 129 103
f 129 128 103
f 105 130 104
f 130 129 104
f 106 131 130
f 106 130 105
f 107 132 106
f 132 131 106
f 108 133 132
f 108 132 107
f 109 134 108
f 134 133 108
f 110 135 134
f 110 134 109
f 111 136 110
f 136 135 110
f 112 137 136
f 112 136 111
f 113 138 112
f 138 137 112
f 114 139 113
f 139 138 113
f 115 140 139
f 115 139 114
f 116 141 115
f 141 140 115
f 117 142 116
f 142 141 116
f 118 143 142
f 118 142 117
f 119 144 118
f 144 143 118
f 120 145 144
f 120 144 119
f 121 146 145
f 121 145 120
f 122 147 146
f 122 146 121
f 123 148 122
f 148 147 122
f 124 149 148
f 124 148 123
f 125 150 149
f 125 149 124
f 151 152 127
f 127 151 126
f 128 153 152
f 128 152 127
f 129 154 153
f 129 153 128
f 130 155 154
f 130 154 129
f 131 156 155
f 131 155 130
f 132 157 131
f 157 156 131
f 133 158 157
f 133 157 132
f 134 159 133
f 159 158 133
f 135 160 134
f 160 159 134
f 136 161 135
f 161 160 135
f 137 162 161
f 137 161 136
f 138 163 137
f 163 162 137
f 139 164 163
f 139 163 138
f 140 165 164
f 140 164 139
f 141 166 165
f 141 165 140
f 142 167 166
f 142 166 141
f 143 168 167
f 143 167 142
f 144 169 143
f 169 168 143
f 145 170 144
f 170 169 144
f 146 171 145
f 171 170 145
f 147 172 146
f 172 171 146
f 148 173 147
f 173 172 147
f 149 174 148
f 174 173 148
f 150 175 149
f 175 174 149
f 1 176 2
f 176 177 2
f 2 177 3
f 177 178 3
f 3 178 4
f 178 179 4
f 4 179 5
f 179 180 5
f 5 180 6
f 180 181 6
f 6 181 7
f 181 182 7
f 7 182 8
f 182 183 8
f 8 183 9
f 183 184 9
f 9 184 10
f 184 185 10
f 10 185 11
f 185 186 11
f 11 186 12
f 186 187 12
f 12 187 13
f 187 188 13
f 13 188 189
f 13 189 14
f 14 189 190
f 14 190 15
f 15 190 191
f 15 191 16
f 16 191 192
f 16 192 17
f 17 192 193
f 17 193 18
f 18 193 194
f 18 194 19
f 19 194 195
f 19 195 20
f 20 195 196
f 20 196 21
f 21 196 197
f 21 197 22
f 22 197 198
f 22 198 23
f 23 198 199
f 23 199 24
f 24 199 200
f 24 200 25
f 25 200 176
f 25 176 1
usemtl CaveVoid
f 176 201 177
f 201 202 177
f 177 202 178
f 202 203 178
f 178 203 179
f 203 204 179
f 179 204 180
f 204 205 180
f 180 205 181
f 205 206 181
f 181 206 182
f 206 207 182
f 182 207 183
f 207 208 183
f 183 208 184
f 208 209 184
f 184 209 185
f 209 210 185
f 185 210 186
f 210 211 186
f 186 211 187
f 211 212 187
f 187 212 213
f 187 213 188
f 188 213 214
f 188 214 189
f 189 214 215
f 189 215 190
f 190 215 216
f 190 216 191
f 191 216 217
f 191 217 192
f 192 217 218
f 192 218 193
f 193 218 219
f 193 219 194
f 194 219 220
f 194 220 195
f 195 220 221
f 195 221 196
f 196 221 222
f 196 222 197
f 197 222 223
f 197 223 198
f 198 223 224
f 198 224 199
f 199 224 225
f 199 225 200
f 200 225 201
f 200 201 176
f 201 226 202
f 226 227 202
f 202 227 203
f 227 228 203
f 203 228 204
f 228 229 204
f 204 229 205
f 229 230 205
f 205 230 206
f 230 231 206
f 206 231 207
f 231 232 207
f 207 232 208
f 232 233 208
f 208 233 209
f 233 234 209
f 209 234 210
f 234 235 210
f 210 235 211
f 235 236 211
f 211 236 212
f 236 237 212
f 212 237 238
f 212 238 213
f 213 238 239
f 213 239 214
f 214 239 240
f 214 240 215
f 215 240 216
f 240 241 216
f 216 241 242
f 216 242 217
f 217 242 243
f 217 243 218
f 218 243 244
f 218 244 219
f 219 244 245
f 219 245 220
f 220 245 246
f 220 246 221
f 221 246 247
f 221 247 222
f 222 247 248
f 222 248 223
f 223 248 249
f 223 249 224
f 224 249 250
f 224 250 225
f 225 250 226
f 225 226 201
f 251 250 249
f 251 249 248
f 251 248 247
f 251 247 246
f 251 246 245
f 251 245 244
f 251 244 243
f 251 243 242
f 251 242 241
f 251 241 240
f 251 240 239
f 251 239 238
f 251 238 237
f 251 237 236
f 251 236 235
f 251 235 234
f 251 234 233
f 251 233 232
f 251 232 231
f 251 231 230
f 251 230 229
f 251 229 228
f 251 228 227
f 251 227 226
f 251 226 250
