# Tunnel_Collapse_Collision - generated by tools/gen_cave_kit.py, do not edit
o Tunnel_Collapse_Collision
v 4.000000 0.101318 -1.934672
v 4.000000 -0.069438 -1.505445
v 4.000000 -0.099328 -0.999929
v 4.000000 -0.091209 -0.499980
v 4.000000 -0.087622 0.000000
v 4.000000 -0.091209 0.499980
v 4.000000 -0.099328 0.999929
v 4.000000 -0.069438 1.505445
v 4.000000 0.101318 1.934672
v 4.000000 0.607997 -2.336538
v 4.000000 0.342985 -2.192959
v 4.000000 0.342985 2.192959
v 4.000000 0.607997 2.336538
v 4.000000 0.998976 -2.451794
v 4.000000 0.998976 2.451794
v 4.000000 1.500235 -2.504796
v 4.000000 1.500235 2.504796
v 4.000000 1.999903 -2.493615
v 4.000000 1.999903 2.493615
v 4.000000 2.501784 -2.427373
v 4.000000 2.501784 2.427373
v 4.000000 2.882664 -2.326525
v 4.000000 3.140114 -2.193808
v 4.000000 3.140114 2.193808
v 4.000000 2.882664 2.326525
v 4.000000 3.421503 -1.938023
v 4.000000 3.662922 -1.582112
v 4.000000 3.662922 1.582112
v 4.000000 3.421503 1.938023
v 4.000000 3.789063 -1.327630
v 4.000000 3.918724 -1.002389
v 4.000000 4.050795 -0.501186
v 4.000000 4.094719 0.000000
v 4.000000 4.050795 0.501186
v 4.000000 3.918724 1.002389
v 4.000000 3.789063 1.327630
v 3.500000 0.101387 -1.934777
v 3.500000 -0.069443 -1.505420
v 3.500000 -0.099328 -0.999930
v 3.500000 -0.091209 -0.499981
v 3.500000 -0.087622 0.000000
v 3.500000 -0.091209 0.499981
v 3.500000 -0.099328 0.999928
v 3.500000 -0.069432 1.505478
v 3.500000 0.101350 1.934720
v 3.500000 0.607656 -2.336397
v 3.500000 0.342671 -2.192725
v 3.500000 0.343046 2.193005
v 3.500000 0.607964 2.336524
v 3.500000 0.999014 -2.451800
v 3.500000 0.998687 2.451740
v 3.500000 1.500165 -2.504792
v 3.500000 1.500060 2.504786
v 3.500000 2.000038 -2.493602
v 3.500000 2.000165 2.493590
v 3.500000 2.501924 -2.427348
v 3.500000 2.502044 2.427326
v 3.500000 2.882620 -2.326542
v 3.500000 3.139971 -2.193904
v 3.500000 3.139654 2.194119
v 3.500000 2.882473 2.326598
v 3.500000 3.421348 -1.938204
v 3.500000 3.663244 -1.581527
v 3.500000 3.662625 1.582652
v 3.500000 3.421495 1.938032
v 3.500000 3.789330 -1.327035
v 3.500000 3.918674 -1.002533
v 3.500000 4.050815 -0.501071
v 3.500000 4.094719 0.000000
v 3.500000 4.050844 0.500909
v 3.500000 3.918852 1.002021
v 3.500000 3.788790 1.328238
v 2.999602 0.099922 -1.930940
v 2.999877 -0.069521 -1.505745
v 2.999982 -0.100099 -0.999898
v 3.000004 -0.091924 -0.499978
v 3.000014 -0.089504 0.000002
v 3.000006 -0.091989 0.499983
v 2.999973 -0.098109 0.999939
v 2.999885 -0.068284 1.505581
v 2.999663 0.103721 1.933634
v 2.999398 0.611480 -2.342386
v 2.998246 0.346806 -2.192277
v 2.999601 0.346005 2.191554
v 2.999746 0.610293 2.334669
v 2.999402 0.997777 -2.449754
v 2.999751 0.999315 2.434986
v 2.999873 1.499866 -2.495449
v 3.000158 1.500041 2.475484
v 3.000007 1.999941 -2.484636
v 3.000102 1.999953 2.459353
v 3.000025 2.501972 -2.426317
v 2.998406 2.503167 2.407676
v 3.000497 2.885980 -2.328350
v 3.000544 3.143632 -2.196986
v 2.997160 3.120193 2.195248
v 2.997531 2.859148 2.316998
v 3.000547 3.422611 -1.940870
v 3.000312 3.664708 -1.577791
v 2.999936 3.665368 1.589014
v 2.998801 3.426172 1.938482
v 3.000000 3.783871 -1.322673
v 2.999815 3.913849 -1.002041
v 3.000210 4.057438 -0.501746
v 3.000476 4.111270 -0.000014
v 3.000351 4.065058 0.501350
v 3.000238 3.929211 1.001982
v 3.000034 3.793523 1.331286
v 2.499896 0.097542 -1.919975
v 2.499994 -0.067340 -1.505371
v 2.499987 -0.096402 -0.999955
v 2.499967 -0.088768 -0.499973
v 2.499979 -0.086941 -0.000009
v 2.499992 -0.090942 0.499992
v 2.500021 -0.097987 0.999920
v 2.500252 -0.067870 1.505520
v 2.499925 0.103650 1.929508
v 2.499892 0.642788 -2.309276
v 2.498002 0.379933 -2.168255
v 2.496859 0.363958 2.201673
v 2.498074 0.635739 2.319827
v 2.499996 0.999989 -2.406298
v 2.496854 0.997848 2.401829
v 2.500909 1.502975 -2.446438
v 2.502633 1.500197 2.396238
v 2.500913 2.000013 -2.498685
v 2.501906 1.998033 2.385743
v 2.500037 2.500875 -2.421631
v 2.499483 2.501191 2.349290
v 2.497860 2.873779 -2.327013
v 2.497532 3.134147 -2.195907
v 2.496961 3.059305 2.169517
v 2.499826 2.797363 2.271517
v 2.498699 3.412656 -1.932505
v 2.500140 3.669036 -1.595360
v 2.500251 3.652732 1.591703
v 2.499621 3.397159 1.898963
v 2.500182 3.797416 -1.334706
v 2.499576 3.919540 -0.998993
v 2.499958 4.053228 -0.500188
v 2.499934 4.115288 -0.000392
v 2.500237 4.084141 0.501579
v 2.500012 3.948527 1.004961
v 2.500009 3.796434 1.335130
v 2.000213 0.102058 -1.924053
v 1.999622 -0.064048 -1.506307
v 1.998748 -0.082102 -0.999773
v 1.999593 -0.085128 -0.499871
v 1.999934 -0.083018 -0.000211
v 1.999864 -0.089498 0.499980
v 1.999762 -0.094581 0.999849
v 1.998851 -0.068099 1.506925
v 1.998704 0.096847 1.919784
v 2.000320 0.622465 -2.316638
v 2.004721 0.358069 -2.175906
v 1.994228 0.423528 2.195631
v 1.999957 0.695705 2.274559
v 1.999578 1.001328 -2.387986
v 1.999475 0.999260 2.328591
v 2.000165 1.512129 -2.437180
v 2.003526 1.502233 2.291973
v 2.003250 2.000427 -2.547791
v 2.000125 2.000183 2.352835
v 1.999394 2.496780 -2.425632
v 1.785780 2.742454 2.246607
v 1.969257 2.553752 2.320042
v 2.000016 2.848093 -2.297099
v 1.999993 3.098100 -2.176196
v 1.971533 2.958434 2.159221
v 2.119843 2.757275 2.247793
v 2.007118 3.430430 -1.946119
v 2.000124 3.658013 -1.614422
v 2.000218 3.635570 1.605137
v 2.000036 3.392347 1.879191
v 1.999821 3.808971 -1.358407
v 2.000230 3.963609 -1.001132
v 2.002588 4.089801 -0.503577
v 2.002289 4.149589 -0.000210
v 2.003234 4.121107 0.505440
v 2.002337 3.982266 1.005314
v 2.000926 3.818609 1.365910
v 1.502259 0.090907 -1.951924
v 1.502041 -0.068374 -1.500875
v 1.512710 0.007478 -1.005383
v 1.502482 -0.009946 -0.496607
v 1.500283 -0.077326 -0.000802
v 1.497697 -0.069303 0.500879
v 1.494270 -0.073933 1.000956
v 1.496310 -0.041629 1.508667
v 1.497227 0.114384 1.888144
v 1.504088 0.547631 -2.389598
v 1.502096 0.282796 -2.217586
v 1.517324 0.535172 2.139764
v 1.699907 0.734481 2.258594
v 1.506320 0.999163 -2.511582
v 1.325240 0.998830 2.278890
v 1.587707 0.996840 2.316466
v 1.500491 1.499693 -2.552433
v 1.251372 1.251283 2.249673
v 1.455315 1.450238 2.262830
v 1.493207 2.007779 -2.603160
v 1.499917 2.000009 2.351371
v 1.498072 2.509653 -2.452283
v 1.499411 2.732587 2.252384
v 1.500551 2.479252 2.300896
v 1.500292 2.817149 -2.284414
v 1.498488 3.072555 -2.146736
v 1.505472 3.016066 2.196431
v 1.466579 3.430972 -1.951954
v 1.496196 3.695616 -1.649828
v 1.504161 3.675221 1.664701
v 1.502187 3.411058 1.911104
v 1.499428 3.842464 -1.373915
v 1.496058 3.991355 -1.008518
v 1.499327 4.089987 -0.501818
v 1.497916 4.134175 -0.001166
v 1.496951 4.136766 0.502813
v 1.504225 4.037211 1.011638
v 1.501753 3.859628 1.409521
v 0.999646 0.104830 -1.971501
v 1.001758 -0.077840 -1.503116
v 0.995828 -0.031936 -1.000243
v 1.000438 -0.028092 -0.500288
v 1.000687 -0.085320 -0.002471
v 1.025620 0.066789 0.472211
v 1.044162 0.143566 0.989515
v 0.996862 0.011794 1.487184
v 0.998794 0.125279 1.867764
v 1.005643 0.505708 -2.433629
v 1.001533 0.259895 -2.226471
v 0.997877 0.549794 2.002574
v 0.998387 1.001617 -2.593761
v 1.052902 1.029982 2.197649
v 0.909772 1.219396 2.231503
v 0.996531 1.500731 -2.632422
v 1.245266 1.251259 2.248672
v 1.044493 1.453391 2.292313
v 0.998739 1.992273 -2.546983
v 1.009141 1.984125 2.467775
v 1.003183 2.540601 -2.386834
v 0.845106 2.713144 -2.228959
v 0.999749 2.713353 2.241110
v 1.000872 2.473298 2.357483
v 1.179995 2.774452 -2.264744
v 0.971796 3.030950 -2.053272
v 0.783632 3.237728 -1.739733
v 0.992088 3.012985 2.199053
v 1.119524 3.310299 -1.807046
v 0.974923 3.482951 -1.577272
v 0.996001 3.663310 1.655695
v 0.994043 3.421015 1.931524
v 0.997136 3.801697 -1.316352
v 0.999084 3.935567 -1.005524
v 1.004094 4.002291 -0.500963
v 0.997811 4.066321 -0.003591
v 0.998089 4.059014 0.499903
v 0.996659 4.058548 1.013374
v 0.999225 3.858453 1.397485
v 0.500593 0.098476 -1.991610
v 0.501797 -0.110135 -1.509920
v 0.495255 -0.111295 -0.994952
v 0.494642 -0.014789 -0.498583
v 0.494159 0.003758 0.003575
v 0.494226 0.066819 0.495050
v 0.483561 0.112982 0.994050
v 0.508676 0.027723 1.491707
v 0.500503 0.114759 1.862264
v 0.497444 0.495090 -2.443889
v 0.499974 0.265005 -2.230613
v 0.536905 0.471878 2.147310
v 0.382153 0.679289 2.330343
v 0.375423 1.159070 -2.856303
v 0.548658 0.974766 -2.744187
v 0.714180 0.876649 2.243872
v 0.524072 1.026887 2.341656
v 0.402009 1.535198 -2.913902
v 0.711394 1.507335 -2.771991
v 0.482574 1.507939 2.406458
v 0.318939 1.818884 -2.816587
v 0.501100 1.990751 -2.652484
v 0.493358 1.993191 2.408647
v 0.499681 2.398233 -2.331793
v 0.506336 2.649241 -2.159919
v 0.500068 2.706800 2.233340
v 0.500214 2.457133 2.340568
v 0.499569 2.974683 -1.937476
v 0.498379 3.222503 -1.723949
v 0.499954 2.999769 2.128722
v 0.506670 3.555472 -1.467257
v 0.343176 3.731076 -1.215615
v 0.497351 3.653870 1.647689
v 0.501527 3.417551 1.905047
v 0.678792 3.754109 -1.256885
v 0.508086 3.818977 -1.023516
v 0.492137 4.036152 -0.513145
v 0.499217 4.030975 0.002689
v 0.499867 3.995165 0.499109
v 0.499664 4.026535 0.998093
v 0.503326 3.875865 1.413344
v -0.008217 0.091832 -1.977578
v -0.033770 -0.060391 -1.514931
v -0.008307 -0.061678 -0.972758
v 0.011790 0.195911 -0.522781
v 0.021251 0.200316 0.005539
v -0.066982 0.114116 0.497395
v 0.022692 0.078766 1.002328
v 0.031748 0.075612 1.520086
v 0.114745 0.139495 1.833102
v -0.006188 0.521887 -2.402465
v 0.001384 0.232232 -2.244012
v -0.223049 0.273825 0.639079
v -0.196057 0.308432 1.003153
v -0.171782 0.324432 1.496448
v -0.035521 0.316424 1.996513
v 0.008758 0.592673 2.384653
v 0.162088 1.189503 -2.796136
v 0.028931 1.044964 -2.590533
v 0.002372 0.999684 2.513313
v 0.135256 1.503020 -2.798819
v -0.034538 1.501515 -2.613624
v -0.019971 1.495632 2.589409
v 0.193320 1.795996 -2.791210
v 0.023110 1.980422 -2.653906
v -0.223682 2.221556 2.239928
v -0.031538 2.030156 2.367715
v -0.001022 2.389427 -2.343094
v -0.005206 2.654743 -2.156716
v -0.048014 2.546838 2.242815
v 0.099711 2.397230 2.333693
v 0.017330 3.092407 -1.964222
v 0.178114 3.252498 -1.752408
v 0.006786 2.997475 2.067897
v -0.156750 3.260647 -1.759092
v 0.004153 3.444470 -1.577869
v -0.002655 3.738735 -1.167939
v -0.003196 3.668973 1.642541
v -0.012823 3.446674 1.932873
v -0.000548 3.813314 -0.910779
v -0.004558 3.979188 -0.511799
v -0.000406 4.018458 0.000020
v 0.005149 4.051712 0.509271
v -0.005478 4.006037 0.999233
v -0.001226 3.841901 1.389573
v -0.337307 0.145043 -1.863444
v -0.361582 0.151386 -1.513078
v -0.445129 0.080363 -1.002445
v -0.496723 0.099334 -0.432532
v -0.485042 0.233068 -0.020744
v -0.284395 0.248446 0.289357
v -0.501360 0.592958 -2.336335
v -0.598554 0.354666 -2.008175
v -0.444429 0.494417 -1.502987
v -0.576029 0.503159 -1.017658
v -0.708497 0.495014 -0.638953
v -0.633472 0.282886 0.165782
v -0.489851 0.466750 0.483623
v -0.312202 0.579584 0.980978
v -0.512465 0.591972 1.533634
v -0.432788 0.323513 1.953353
v -0.489903 0.510655 2.461498
v -0.500661 0.975685 -2.549093
v -0.746044 0.780835 -1.820845
v -0.579476 0.904794 -1.509004
v -0.653756 0.856891 -0.991536
v -0.732440 0.774663 -0.721760
v -0.734602 1.202652 0.202500
v -0.753529 1.040343 0.503604
v -0.696470 1.031140 0.926397
v -0.671843 0.804632 1.397712
v -0.498702 0.997974 2.502802
v -0.492404 1.501655 -2.500598
v -0.691957 1.494864 0.142084
v -0.701799 1.457363 0.495040
v -0.748116 1.253182 0.752146
v -0.499478 1.499264 2.463060
v -0.517601 2.005251 -2.583198
v -0.677637 1.824347 0.140689
v -0.681953 1.812265 0.334360
v -0.501071 2.199247 2.208643
v -0.502941 1.937753 2.301325
v -0.504495 2.415830 -2.383515
v -0.500956 2.645373 -2.195502
v -0.501039 2.505085 2.142057
v -0.488406 3.077355 -1.946303
v -0.614924 3.222182 -1.724595
v -0.500959 2.989498 1.903656
v -0.282998 3.256835 -1.756696
v -0.470936 3.416080 -1.562285
v -0.498801 3.667998 -1.102479
v -0.501852 3.615303 1.571607
v -0.506345 3.345278 1.851012
v -0.504942 3.753973 -0.842427
v -0.498120 3.871842 -0.487463
v -0.501123 3.984877 0.007962
v -0.494659 4.046339 0.508731
v -0.499204 3.888248 0.999021
v -0.497719 3.759101 1.295856
v -0.772358 0.230256 -0.289716
v -0.788734 0.205727 -0.222509
v -1.102448 0.207036 2.184756
v -1.100439 0.197156 2.280180
v -0.830660 0.683727 -2.295221
v -0.864662 0.665235 -2.190194
v -0.863891 0.439648 -0.448435
v -0.838067 0.492484 -0.012428
v -0.842661 0.650368 0.328873
v -0.968096 0.643164 1.608287
v -0.954651 0.341573 1.985306
v -0.963271 0.403495 2.479748
v -1.005117 0.928836 -2.447570
v -1.005739 0.901264 -1.994954
v -0.942541 1.221757 -1.548950
v -0.854480 1.093325 -1.001018
v -0.835400 0.964827 -0.533382
v -0.807815 1.017876 0.020864
v -0.796576 0.872812 0.332563
v -0.923694 1.091886 0.981175
v -0.982692 0.832993 1.203823
v -0.973685 1.029891 2.613454
v -1.000931 1.501119 -2.481768
v -1.189232 1.319255 -1.409317
v -1.074442 1.520247 -1.034672
v -0.881851 1.496416 -0.501259
v -0.792999 1.499425 -0.101510
v -0.793657 1.588124 0.647756
v -0.958213 1.512611 1.028167
v -1.170625 1.432077 1.351281
v -0.989035 1.484685 2.382925
v -1.049185 2.060272 -2.395624
v -1.240695 2.245739 -2.246950
v -1.111418 1.922274 -0.938335
v -1.019604 2.120205 -0.477536
v -0.920416 1.999804 -0.010443
v -0.844311 2.014049 0.511052
v -1.087501 2.037467 0.931837
v -0.805859 2.219124 2.243012
v -0.983873 2.028912 2.302707
v -0.900692 2.307119 -2.278914
v -1.043877 2.488056 -2.175423
v -1.245219 2.253822 -0.275197
v -1.208249 2.299939 -0.003612
v -1.306469 2.472066 0.679195
v -1.190968 2.520961 0.963476
v -1.247637 2.740422 1.269635
v -0.982265 2.499649 2.174446
v -1.142707 2.317629 2.257246
v -0.999066 2.988801 -1.937899
v -0.999244 3.227179 -1.731172
v -1.118183 2.991800 0.580582
v -0.964964 2.933042 1.038064
v -1.152052 3.018090 1.462618
v -1.021683 3.077714 1.928977
v -0.999529 3.446130 -1.498238
v -0.999988 3.660462 -1.104110
v -1.196484 3.497057 0.675107
v -1.093242 3.492431 1.014242
v -0.976677 3.507691 1.579083
v -0.830293 3.303968 1.803266
v -0.999727 3.822487 -0.862487
v -0.999534 3.926009 -0.501796
v -0.999300 4.025576 -0.008440
v -1.079148 4.074845 0.706301
v -0.907328 3.868278 1.015779
v -0.794877 3.767058 1.271521
v -1.677432 0.208032 1.664256
v -1.505459 0.164609 2.005829
v -1.505810 0.183825 2.284032
v -1.503343 0.459136 1.582056
v -1.360482 0.313335 1.868408
v -1.494137 0.425568 2.576018
v -1.459294 0.968410 -2.509593
v -1.459493 1.176056 -2.043342
v -1.277184 1.251964 -1.744483
v -1.494718 0.996054 1.598798
v -1.702508 1.181233 1.812500
v -1.506728 1.008037 2.582319
v -1.486335 1.520891 -2.556987
v -1.622172 1.281718 -1.778255
v -1.479475 1.475703 -1.521511
v -1.268652 1.705553 -1.233846
v -1.251218 1.748070 1.249407
v -1.433458 1.588848 1.548323
v -1.694164 1.322732 1.819615
v -1.500793 1.499257 2.456231
v -1.462289 2.034139 -2.339386
v -1.258591 2.245616 -2.246607
v -1.616740 2.040131 -1.375671
v -1.326842 2.116511 -1.128877
v -1.265226 2.243835 -0.612516
v -1.314091 2.006453 1.144037
v -1.593704 1.970501 1.294725
v -1.499529 2.000738 2.354834
v -1.602230 2.339759 -2.275518
v -1.457059 2.506912 -2.173576
v -1.749357 2.250686 -1.250898
v -1.608151 2.366462 -1.025716
v -1.464502 2.398571 -0.464890
v -1.515975 2.519254 -0.000699
v -1.356039 2.645918 0.378843
v -1.337320 2.399529 1.100910
v -1.513645 2.555574 1.477822
v -1.589981 2.675412 2.202696
v -1.506733 2.323435 2.300048
v -1.506735 3.033082 -1.884164
v -1.341931 3.227552 -1.729459
v -1.553551 3.011340 0.033619
v -1.326566 3.000256 0.372089
v -1.398080 2.875403 1.578399
v -1.528351 3.020863 1.801537
v -1.677605 3.259539 -1.757406
v -1.500848 3.422642 -1.555217
v -1.497028 3.696916 -1.167754
v -1.685732 3.487603 0.168954
v -1.382843 3.512399 0.398710
v -1.501251 3.826226 -0.909969
v -1.501267 3.970294 -0.498118
v -1.491550 4.109856 0.189179
v -1.415430 3.843193 0.434739
v -1.941184 0.165510 1.553766
v -1.849937 0.162130 2.022125
v -1.773091 0.242192 2.257877
v -2.187367 0.609438 -2.261872
v -2.191902 0.603027 -2.242521
v -1.959137 0.504439 1.581435
v -2.211773 0.432115 1.941309
v -2.013505 0.436569 2.437167
v -2.010799 0.945759 -2.332746
v -2.012919 0.964871 -2.167858
v -1.836554 0.828198 1.726662
v -2.029737 1.060564 1.943408
v -2.071117 1.073009 2.497494
v -2.369942 1.560294 -2.580606
v -2.091976 1.432274 -1.911587
v -1.845360 1.641188 -1.723886
v -1.993905 1.697224 1.727788
v -2.047201 1.407432 2.050708
v -2.117854 1.421812 2.438221
v -2.038401 1.901765 -2.557476
v -2.236012 1.848494 -1.805958
v -2.000968 2.037979 -1.628772
v -2.018540 1.987558 1.554330
v -2.112869 2.233725 2.223632
v -1.955671 2.054487 2.370407
v -2.027228 2.468835 -2.442104
v -2.055784 2.676731 -2.222900
v -2.045408 2.451841 -1.343918
v -1.940173 2.575459 -0.999089
v -1.839645 2.687749 -0.498221
v -1.808731 2.702905 -0.197517
v -1.989528 2.402921 1.673169
v -1.998999 2.435081 2.093470
v -1.778117 2.256388 2.246216
v -2.000257 3.103611 -2.025655
v -2.267206 2.935561 -1.481552
v -2.224073 2.772972 -0.979059
v -1.993860 2.917145 -0.531279
v -1.975067 3.009843 -0.161407
v -1.792116 3.275865 -1.776491
v -2.009260 3.435011 -1.561869
v -2.038574 3.748363 -1.185823
v -2.012199 3.476498 0.064626
v -2.023582 3.874989 -0.911468
v -2.003820 4.066280 -0.535097
v -2.106023 4.209874 0.238408
v -2.594383 0.223304 -2.265019
v -2.591298 0.212751 -2.217312
v -2.284726 0.305872 -2.393210
v -2.351799 0.342866 -2.091851
v -2.475158 0.592336 2.175443
v -2.397021 0.649494 2.387982
v -2.253794 1.360817 -2.127046
v -2.326804 1.171536 -2.211143
v -2.564739 0.964387 2.180781
v -2.413391 0.903398 2.428577
v -2.376866 1.517467 -2.321762
v -2.417778 1.496784 -2.201284
v -2.271471 1.733412 1.740211
v -2.435214 1.422031 1.924600
v -2.404916 1.548556 2.346639
v -2.319165 1.993399 -2.300619
v -2.408934 2.004320 -2.077819
v -2.278736 2.191748 -1.718874
v -2.364797 1.988480 1.662563
v -2.545946 2.237603 1.984463
v -2.432478 1.872194 2.501688
v -2.290844 2.301028 -2.278919
v -2.320911 2.482895 -1.994764
v -2.290281 2.497050 -1.608401
v -2.347710 2.336024 1.689443
v -2.363260 2.422704 1.925433
v -2.314484 2.820370 -1.792041
v -2.270469 2.950037 -1.469980
v -2.461761 2.999068 -1.017690
v -2.420387 3.131003 -0.499456
v -2.407965 3.131281 -0.196208
v -2.295489 3.327299 -1.358586
v -2.373962 3.516805 -0.982572
v -2.582191 3.514311 -0.534988
v -2.497356 3.516774 0.008790
v -2.266656 3.764144 -0.787410
v -2.378814 3.885984 -0.535614
v -2.441768 3.924030 -0.081243
v -2.762893 0.227911 -2.265332
v -2.768234 0.216523 -2.217793
v -2.815019 0.276740 -2.292830
v -2.837813 0.266391 -2.221583
vt -0.990881 -0.496839
vt -1.006249 -0.367334
vt -1.008940 -0.237069
vt -1.008209 -0.113138
vt -1.007886 0.011391
vt -1.008209 0.136852
vt -1.008940 0.262895
vt -1.006249 0.385388
vt -0.990881 0.470497
vt -0.945280 -0.663174
vt -0.969131 -0.592828
vt -0.969131 0.503652
vt -0.945280 0.505095
vt -0.910092 -0.742815
vt -0.910092 0.483081
vt -0.864979 -0.821230
vt -0.864979 0.431168
vt -0.820009 -0.883391
vt -0.820009 0.363416
vt -0.774839 -0.932075
vt -0.774839 0.281611
vt -0.740560 -0.956378
vt -0.717390 -0.956667
vt -0.717390 0.140237
vt -0.740560 0.206885
vt -0.692065 -0.929301
vt -0.670337 -0.871708
vt -0.670337 -0.080652
vt -0.692065 0.039710
vt -0.658984 -0.824486
vt -0.647315 -0.760031
vt -0.635428 -0.651900
vt -0.631475 -0.532314
vt -0.635428 -0.401307
vt -0.647315 -0.258837
vt -0.658984 -0.160671
vt -0.865875 -0.496874
vt -0.881250 -0.367328
vt -0.883940 -0.237070
vt -0.883209 -0.113138
vt -0.882886 0.011391
vt -0.883209 0.136852
vt -0.883940 0.262895
vt -0.881249 0.385396
vt -0.865878 0.470505
vt -0.820311 -0.663094
vt -0.844160 -0.592728
vt -0.844126 0.503655
vt -0.820283 0.505096
vt -0.785089 -0.742822
vt -0.785118 0.483106
vt -0.739985 -0.821220
vt -0.739995 0.431189
vt -0.694997 -0.883405
vt -0.694985 0.363376
vt -0.649827 -0.932087
vt -0.649816 0.281566
vt -0.615564 -0.956376
vt -0.592403 -0.956672
vt -0.592431 0.140375
vt -0.615577 0.206928
vt -0.567079 -0.929326
vt -0.545308 -0.871603
vt -0.545364 -0.080478
vt -0.567065 0.039714
vt -0.533960 -0.824372
vt -0.522319 -0.760061
vt -0.510427 -0.651874
vt -0.506475 -0.532314
vt -0.510424 -0.401382
vt -0.522303 -0.258946
vt -0.534009 -0.160483
vt -0.740908 -0.495725
vt -0.756226 -0.367398
vt -0.759004 -0.236962
vt -0.758274 -0.113044
vt -0.758059 0.011636
vt -0.758281 0.136954
vt -0.758823 0.262739
vt -0.756117 0.385272
vt -0.740581 0.469925
vt -0.694816 -0.665089
vt -0.718349 -0.593154
vt -0.718760 0.502908
vt -0.695010 0.504329
vt -0.660051 -0.742150
vt -0.659999 0.478835
vt -0.614980 -0.818845
vt -0.615036 0.423866
vt -0.570007 -0.881151
vt -0.570030 0.354844
vt -0.524829 -0.931836
vt -0.524316 0.276507
vt -0.490386 -0.957265
vt -0.467209 -0.957919
vt -0.468473 0.143187
vt -0.492060 0.207560
vt -0.442102 -0.930157
vt -0.420254 -0.870860
vt -0.420101 -0.079244
vt -0.441345 0.039218
vt -0.409452 -0.822572
vt -0.397707 -0.759311
vt -0.384883 -0.652903
vt -0.380105 -0.534469
vt -0.384232 -0.403120
vt -0.396430 -0.260302
vt -0.408591 -0.160337
vt -0.616195 -0.492674
vt -0.631059 -0.367589
vt -0.633673 -0.237456
vt -0.632981 -0.113453
vt -0.632819 0.011300
vt -0.633183 0.136821
vt -0.633824 0.262718
vt -0.631171 0.385203
vt -0.615653 0.468902
vt -0.567122 -0.660881
vt -0.590307 -0.591455
vt -0.591459 0.503104
vt -0.567302 0.497311
vt -0.535000 -0.731573
vt -0.534407 0.470737
vt -0.489959 -0.806996
vt -0.490640 0.404034
vt -0.445227 -0.884673
vt -0.445654 0.336691
vt -0.399930 -0.930521
vt -0.399764 0.262168
vt -0.365825 -0.955344
vt -0.342310 -0.956416
vt -0.348903 0.144670
vt -0.373194 0.204222
vt -0.317536 -0.926772
vt -0.294822 -0.875815
vt -0.296317 -0.076930
vt -0.319161 0.033110
vt -0.283278 -0.827340
vt -0.272135 -0.759288
vt -0.260199 -0.651967
vt -0.254608 -0.535086
vt -0.257486 -0.405543
vt -0.269636 -0.262068
vt -0.283323 -0.159754
vt -0.490868 -0.494281
vt -0.505670 -0.368251
vt -0.507076 -0.239270
vt -0.507560 -0.113901
vt -0.507455 0.010740
vt -0.508021 0.136630
vt -0.508453 0.262258
vt -0.505842 0.385584
vt -0.490960 0.467356
vt -0.444058 -0.660080
vt -0.468954 -0.590525
vt -0.460439 0.493849
vt -0.437376 0.478198
vt -0.409775 -0.727169
vt -0.409935 0.452244
vt -0.363950 -0.805872
vt -0.365681 0.377703
vt -0.320774 -0.897003
vt -0.320015 0.328185
vt -0.275138 -0.930989
vt -0.199624 0.205133
vt -0.262476 0.248023
vt -0.243676 -0.944527
vt -0.221169 -0.946802
vt -0.226624 0.155209
vt -0.281806 0.203502
vt -0.193041 -0.932486
vt -0.170810 -0.879147
vt -0.172853 -0.071340
vt -0.194698 0.028793
vt -0.157148 -0.834768
vt -0.143333 -0.765552
vt -0.132565 -0.657568
vt -0.127109 -0.539499
vt -0.129909 -0.409384
vt -0.142180 -0.266366
vt -0.156557 -0.154942
vt -0.367383 -0.499799
vt -0.381664 -0.366330
vt -0.377504 -0.252318
vt -0.376515 -0.122859
vt -0.382030 0.009852
vt -0.380662 0.134229
vt -0.380221 0.259850
vt -0.377824 0.382579
vt -0.364012 0.457166
vt -0.326735 -0.668592
vt -0.350072 -0.591160
vt -0.331166 0.465369
vt -0.358873 0.469166
vt -0.286655 -0.757787
vt -0.241415 0.439875
vt -0.307211 0.449527
vt -0.240150 -0.833068
vt -0.200228 0.399752
vt -0.233307 0.377177
vt -0.192602 -0.911801
vt -0.194978 0.327842
vt -0.148649 -0.939326
vt -0.128920 0.207860
vt -0.152005 0.252921
vt -0.121530 -0.937333
vt -0.098092 -0.936116
vt -0.104922 0.157019
vt -0.057857 -0.934015
vt -0.041444 -0.892887
vt -0.045270 -0.061604
vt -0.068552 0.034338
vt -0.029035 -0.842999
vt -0.014793 -0.771006
vt -0.006733 -0.657153
vt -0.002403 -0.537734
vt -0.001929 -0.412076
vt -0.012707 -0.271928
vt -0.028072 -0.149371
vt -0.240477 -0.506503
vt -0.257445 -0.365660
vt -0.251831 -0.245909
vt -0.252638 -0.121420
vt -0.257850 0.010474
vt -0.250394 0.109370
vt -0.248120 0.228715
vt -0.248154 0.370263
vt -0.238423 0.450655
vt -0.205897 -0.674149
vt -0.226993 -0.590404
vt -0.199988 0.429170
vt -0.159451 -0.778651
vt -0.170527 0.415515
vt -0.117697 0.399354
vt -0.114067 -0.853200
vt -0.198703 0.399504
vt -0.130318 0.384138
vt -0.070380 -0.895741
vt -0.073714 0.359008
vt -0.022142 -0.926987
vt 0.032906 -0.909948
vt -0.005735 0.207542
vt -0.027621 0.267842
vt -0.045298 -0.926865
vt 0.029837 -0.907342
vt 0.095488 -0.855838
vt 0.023147 0.158075
vt 0.018046 -0.882100
vt 0.069735 -0.847102
vt 0.080698 -0.062306
vt 0.059381 0.038149
vt 0.092869 -0.823309
vt 0.104430 -0.763005
vt 0.109183 -0.645538
vt 0.116516 -0.529519
vt 0.115789 -0.402696
vt 0.116105 -0.274268
vt 0.097455 -0.152228
vt -0.116286 -0.510704
vt -0.135361 -0.363163
vt -0.133830 -0.234269
vt -0.124992 -0.122723
vt -0.123201 0.000405
vt -0.117543 0.115076
vt -0.110722 0.233825
vt -0.124674 0.369323
vt -0.114797 0.450647
vt -0.079803 -0.675334
vt -0.101143 -0.592104
vt -0.091757 0.475483
vt -0.034402 0.494278
vt 0.010461 -0.864755
vt -0.049436 -0.812766
vt -0.099647 0.447004
vt -0.038598 0.451919
vt 0.037666 -0.928051
vt -0.042188 -0.888951
vt 0.015071 0.405583
vt 0.083965 -0.940602
vt 0.053892 -0.921919
vt 0.056048 0.343047
vt 0.090921 -0.894718
vt 0.111848 -0.884381
vt 0.118595 0.206451
vt 0.096089 0.265715
vt 0.142829 -0.871078
vt 0.165430 -0.849913
vt 0.144991 0.142210
vt 0.193325 -0.829026
vt 0.250003 -0.788944
vt 0.204511 -0.063081
vt 0.182198 0.031980
vt 0.168172 -0.802255
vt 0.216686 -0.752346
vt 0.240219 -0.652986
vt 0.237983 -0.523354
vt 0.234598 -0.394594
vt 0.237472 -0.273926
vt 0.222996 -0.150526
vt 0.010319 -0.506333
vt 0.003007 -0.370882
vt -0.003474 -0.235171
vt 0.014685 -0.156164
vt 0.012716 -0.024656
vt 0.027016 0.109514
vt 0.001416 0.240342
vt -0.001132 0.370192
vt -0.016132 0.440141
vt 0.048517 -0.668462
vt 0.020555 -0.591193
vt 0.080406 0.124173
vt 0.076773 0.210692
vt 0.072144 0.331936
vt 0.037358 0.457993
vt 0.051151 0.519116
vt 0.066533 -0.853669
vt 0.086814 -0.783479
vt 0.089379 0.498369
vt 0.101458 -0.895097
vt 0.143771 -0.848603
vt 0.139600 0.452920
vt 0.113310 -0.931282
vt 0.172460 -0.920931
vt 0.255861 0.271180
vt 0.190598 0.328008
vt 0.215304 -0.896399
vt 0.240228 -0.884295
vt 0.241219 0.229615
vt 0.190823 0.271783
vt 0.273984 -0.893068
vt 0.248196 -0.860927
vt 0.268076 0.127302
vt 0.332646 -0.863657
vt 0.308964 -0.842248
vt 0.337150 -0.778020
vt 0.331007 -0.066331
vt 0.313406 0.035151
vt 0.343335 -0.723426
vt 0.359266 -0.645244
vt 0.361763 -0.522395
vt 0.363367 -0.399405
vt 0.361913 -0.270977
vt 0.346078 -0.152054
vt 0.097381 -0.484717
vt 0.104020 -0.397950
vt 0.118515 -0.261059
vt 0.133121 -0.121047
vt 0.142237 -0.035485
vt 0.093459 0.040041
vt 0.178706 -0.661168
vt 0.181558 -0.548150
vt 0.155605 -0.440021
vt 0.189292 -0.319825
vt 0.221675 -0.224090
vt 0.183828 0.004670
vt 0.164470 0.060228
vt 0.130213 0.169899
vt 0.181394 0.306452
vt 0.137313 0.446282
vt 0.168435 0.548989
vt 0.212977 -0.764112
vt 0.256786 -0.556720
vt 0.226300 -0.494874
vt 0.240559 -0.359280
vt 0.252830 -0.281146
vt 0.291889 -0.105720
vt 0.282013 -0.009344
vt 0.266920 0.097551
vt 0.240378 0.244826
vt 0.214493 0.495964
vt 0.258250 -0.820364
vt 0.307527 -0.158811
vt 0.306612 -0.065697
vt 0.299815 0.025123
vt 0.259803 0.420861
vt 0.309873 -0.906482
vt 0.333600 -0.201993
vt 0.333592 -0.152004
vt 0.323200 0.266259
vt 0.300133 0.323423
vt 0.343548 -0.909937
vt 0.363323 -0.892774
vt 0.350717 0.209853
vt 0.399064 -0.886632
vt 0.443727 -0.850032
vt 0.394295 0.087279
vt 0.363865 -0.862563
vt 0.425181 -0.834662
vt 0.454820 -0.752459
vt 0.450840 -0.077088
vt 0.427661 0.027867
vt 0.464093 -0.698623
vt 0.472996 -0.625205
vt 0.483920 -0.516044
vt 0.487835 -0.398841
vt 0.474743 -0.255717
vt 0.462749 -0.164719
vt 0.213813 -0.102362
vt 0.215699 -0.082372
vt 0.294245 0.519274
vt 0.292854 0.544415
vt 0.269200 -0.662690
vt 0.276037 -0.634029
vt 0.255541 -0.169263
vt 0.253840 -0.067130
vt 0.269198 -0.002330
vt 0.299909 0.318460
vt 0.269404 0.451922
vt 0.277132 0.567482
vt 0.334874 -0.732641
vt 0.332548 -0.615903
vt 0.345593 -0.546066
vt 0.312019 -0.392387
vt 0.295684 -0.258773
vt 0.293563 -0.127108
vt 0.277697 -0.030325
vt 0.329193 0.103349
vt 0.320642 0.192667
vt 0.336111 0.519478
vt 0.385333 -0.815588
vt 0.416041 -0.523832
vt 0.405433 -0.456300
vt 0.355140 -0.319849
vt 0.333198 -0.220303
vt 0.341345 -0.044517
vt 0.375688 0.060402
vt 0.421543 0.151650
vt 0.380880 0.402722
vt 0.447721 -0.866741
vt 0.512290 -0.853684
vt 0.450859 -0.484480
vt 0.445719 -0.395011
vt 0.410086 -0.262585
vt 0.392342 -0.134064
vt 0.455247 -0.031911
vt 0.401186 0.272267
vt 0.428570 0.311918
vt 0.432814 -0.869654
vt 0.484894 -0.867303
vt 0.514149 -0.361796
vt 0.509057 -0.299895
vt 0.549103 -0.151570
vt 0.524629 -0.086856
vt 0.558547 -0.038846
vt 0.470535 0.218657
vt 0.494263 0.263020
vt 0.518759 -0.873019
vt 0.540257 -0.852326
vt 0.548808 -0.243789
vt 0.505215 -0.121779
vt 0.559641 -0.026697
vt 0.532415 0.082141
vt 0.560034 -0.822556
vt 0.579438 -0.751888
vt 0.613856 -0.285841
vt 0.587629 -0.200455
vt 0.559861 -0.061229
vt 0.504930 0.021301
vt 0.593956 -0.712545
vt 0.603224 -0.635830
vt 0.612127 -0.525435
vt 0.636523 -0.353155
vt 0.574977 -0.248931
vt 0.537754 -0.171837
vt 0.438081 0.389020
vt 0.391179 0.480058
vt 0.392997 0.547111
vt 0.417158 0.335826
vt 0.368321 0.426368
vt 0.411835 0.588681
vt 0.451980 -0.753291
vt 0.470718 -0.663723
vt 0.431973 -0.598876
vt 0.463324 0.270212
vt 0.531938 0.299565
vt 0.467405 0.514535
vt 0.508464 -0.836962
vt 0.520898 -0.611187
vt 0.502682 -0.572219
vt 0.470663 -0.530184
vt 0.470131 0.085103
vt 0.501361 0.180530
vt 0.542587 0.282949
vt 0.510132 0.419154
vt 0.548645 -0.849285
vt 0.516753 -0.853582
vt 0.587797 -0.609135
vt 0.522196 -0.557366
vt 0.518252 -0.444827
vt 0.509103 0.025170
vt 0.575771 0.067516
vt 0.554949 0.328613
vt 0.611136 -0.873048
vt 0.589887 -0.869293
vt 0.639901 -0.605314
vt 0.615019 -0.564069
vt 0.581997 -0.428037
vt 0.605727 -0.327678
vt 0.577142 -0.249259
vt 0.550288 -0.036711
vt 0.608413 0.037231
vt 0.638282 0.202870
vt 0.585792 0.272965
vt 0.649661 -0.865342
vt 0.625962 -0.851947
vt 0.659408 -0.383070
vt 0.601664 -0.297011
vt 0.608306 0.020797
vt 0.653965 0.057672
vt 0.712760 -0.863092
vt 0.683250 -0.833748
vt 0.706980 -0.772538
vt 0.735317 -0.411150
vt 0.661827 -0.356935
vt 0.719673 -0.724902
vt 0.732643 -0.640668
vt 0.742774 -0.486986
vt 0.699745 -0.390930
vt 0.500192 0.366925
vt 0.477076 0.484454
vt 0.465070 0.532984
vt 0.601691 -0.644695
vt 0.602248 -0.639024
vt 0.535184 0.329782
vt 0.591834 0.429152
vt 0.542667 0.552538
vt 0.587818 -0.706135
vt 0.590068 -0.667398
vt 0.533676 0.324000
vt 0.602885 0.347979
vt 0.614350 0.484882
vt 0.732912 -0.847990
vt 0.651899 -0.664092
vt 0.609047 -0.644326
vt 0.651226 0.211308
vt 0.638469 0.329711
vt 0.657427 0.424720
vt 0.680759 -0.886598
vt 0.725367 -0.691794
vt 0.683660 -0.672130
vt 0.683515 0.130200
vt 0.729253 0.265524
vt 0.673822 0.325518
vt 0.729002 -0.931475
vt 0.754852 -0.903700
vt 0.732018 -0.654719
vt 0.716834 -0.584582
vt 0.701809 -0.473963
vt 0.695444 -0.400757
vt 0.713645 0.105913
vt 0.718907 0.206807
vt 0.647604 0.268224
vt 0.779389 -0.909883
vt 0.831002 -0.752011
vt 0.805586 -0.605251
vt 0.761008 -0.512049
vt 0.764653 -0.431631
vt 0.742857 -0.869985
vt 0.811466 -0.837019
vt 0.846996 -0.783743
vt 0.815935 -0.435788
vt 0.854645 -0.731616
vt 0.866920 -0.662391
vt 0.905394 -0.487682
vt 0.668693 -0.595284
vt 0.666972 -0.581986
vt 0.598710 -0.638066
vt 0.618808 -0.567535
vt 0.672100 0.466857
vt 0.657710 0.512561
vt 0.685922 -0.708668
vt 0.687139 -0.705085
vt 0.727980 0.419825
vt 0.684654 0.489702
vt 0.730789 -0.777711
vt 0.739155 -0.744903
vt 0.723875 0.209709
vt 0.736786 0.296286
vt 0.740599 0.385347
vt 0.759197 -0.834297
vt 0.782622 -0.780016
vt 0.766941 -0.714646
vt 0.770162 0.157138
vt 0.837871 0.205227
vt 0.776617 0.382037
vt 0.779803 -0.868863
vt 0.803688 -0.821467
vt 0.797305 -0.726717
vt 0.797170 0.118678
vt 0.808858 0.166407
vt 0.832454 -0.814658
vt 0.833121 -0.751000
vt 0.885356 -0.644301
vt 0.886887 -0.531894
vt 0.883807 -0.456119
vt 0.873329 -0.772195
vt 0.910003 -0.702828
vt 0.961836 -0.590608
vt 0.940849 -0.454983
vt 0.905437 -0.686191
vt 0.944442 -0.639081
vt 0.963605 -0.530435
vt 0.711235 -0.595962
vt 0.711546 -0.582596
vt 0.728661 -0.609184
vt 0.733428 -0.590027
vn 0.00000 0.83504 0.55018
vn 0.00000 0.98181 0.18989
vn 0.00000 0.99992 -0.01265
vn 0.00000 0.99990 -0.01397
vn 0.00000 1.00000 -0.00000
vn 0.00000 0.99990 0.01397
vn 0.00000 0.99992 0.01265
vn 0.00000 0.98181 -0.18989
vn 0.00000 0.83504 -0.55018
vn 0.00000 0.38196 0.92418
vn 0.00000 0.59905 0.80071
vn 0.00000 0.59905 -0.80071
vn 0.00000 0.38196 -0.92418
vn 0.00000 0.18321 0.98307
vn 0.00000 0.18321 -0.98307
vn 0.00000 0.05742 0.99835
vn 0.00000 0.05742 -0.99835
vn 0.00000 -0.09446 0.99553
vn 0.00000 -0.09446 -0.99553
vn 0.00000 -0.17762 0.98410
vn 0.00000 -0.17762 -0.98410
vn 0.00000 -0.35769 0.93384
vn 0.00000 -0.55961 0.82876
vn 0.00000 -0.55961 -0.82876
vn 0.00000 -0.35769 -0.93384
vn 0.00000 -0.75966 0.65032
vn 0.00000 -0.87627 0.48181
vn 0.00000 -0.87627 -0.48181
vn 0.00000 -0.75966 -0.65032
vn 0.00000 -0.91217 0.40981
vn 0.00000 -0.94444 0.32868
vn 0.00000 -0.98487 0.17330
vn 0.00000 -1.00000 -0.00000
vn 0.00000 -0.98487 -0.17330
vn 0.00000 -0.94444 -0.32868
vn 0.00000 -0.91217 -0.40981
vn -0.00000 0.83498 0.55028
vn -0.00000 0.98181 0.18987
vn -0.00000 0.99992 -0.01265
vn -0.00000 0.99990 -0.01397
vn -0.00000 1.00000 -0.00000
vn -0.00000 0.99990 0.01397
vn 0.00000 0.99992 0.01265
vn 0.00000 0.98180 -0.18991
vn 0.00000 0.83501 -0.55023
vn -0.00001 0.38213 0.92411
vn -0.00000 0.59938 0.80047
vn -0.00000 0.59899 -0.80076
vn 0.00000 0.38198 -0.92417
vn -0.00000 0.18320 0.98308
vn 0.00001 0.18335 -0.98305
vn 0.00001 0.05743 0.99835
vn 0.00001 0.05745 -0.99835
vn 0.00001 -0.09448 0.99553
vn 0.00001 -0.09450 -0.99552
vn 0.00001 -0.17766 0.98409
vn 0.00000 -0.17770 -0.98409
vn 0.00000 -0.35766 0.93385
vn 0.00000 -0.55949 0.82884
vn -0.00000 -0.55922 -0.82902
vn -0.00000 -0.35756 -0.93389
vn 0.00000 -0.75957 0.65043
vn 0.00000 -0.87638 0.48161
vn -0.00000 -0.87617 -0.48200
vn -0.00000 -0.75965 -0.65033
vn 0.00000 -0.91224 0.40967
vn 0.00000 -0.94443 0.32872
vn -0.00000 -0.98488 0.17326
vn -0.00001 -1.00000 -0.00000
vn -0.00001 -0.98489 -0.17320
vn -0.00000 -0.94447 -0.32859
vn -0.00000 -0.91210 -0.40996
vn 0.01088 0.83441 0.55104
vn 0.00414 0.98096 0.19419
vn 0.00267 0.99989 -0.01454
vn -0.00196 0.99994 -0.01059
vn -0.00592 0.99998 -0.00084
vn -0.00307 0.99996 0.00808
vn 0.00545 0.99991 0.01193
vn 0.00406 0.98115 -0.19323
vn 0.01013 0.83042 -0.55705
vn 0.02479 0.39548 0.91814
vn 0.04423 0.60448 0.79539
vn 0.01080 0.60490 -0.79623
vn 0.01558 0.37009 -0.92886
vn 0.03968 0.14978 0.98792
vn 0.05034 0.13932 -0.98897
vn 0.04826 0.05077 0.99754
vn 0.11029 0.02856 -0.99349
vn 0.00930 -0.07573 0.99708
vn 0.12951 -0.06012 -0.98975
vn -0.00314 -0.17996 0.98367
vn 0.08547 -0.17230 -0.98133
vn -0.02485 -0.33962 0.94023
vn -0.02397 -0.57051 0.82094
vn 0.07836 -0.51999 -0.85057
vn 0.10577 -0.32695 -0.93910
vn -0.02535 -0.75116 0.65963
vn -0.02839 -0.89114 0.45283
vn 0.00504 -0.87431 -0.48535
vn 0.03508 -0.74705 -0.66384
vn 0.01918 -0.91463 0.40384
vn 0.03016 -0.94119 0.33653
vn -0.02601 -0.97866 0.20381
vn -0.04096 -0.99916 0.00021
vn -0.04527 -0.98271 -0.17955
vn -0.03983 -0.94131 -0.33518
vn -0.01138 -0.90961 -0.41530
vn 0.00280 0.82278 0.56836
vn 0.00074 0.98349 0.18098
vn 0.00228 0.99997 -0.00730
vn 0.01647 0.99978 -0.01333
vn 0.01112 0.99993 0.00476
vn 0.00520 0.99997 0.00517
vn -0.00484 0.99982 0.01828
vn -0.00786 0.98029 -0.19741
vn 0.00333 0.83196 -0.55483
vn 0.07470 0.38684 0.91912
vn 0.08588 0.53077 0.84315
vn 0.06629 0.55053 -0.83218
vn 0.10630 0.30732 -0.94565
vn 0.04806 0.13860 0.98918
vn 0.14760 0.10345 -0.98362
vn 0.03255 0.12028 0.99221
vn 0.20803 0.01361 -0.97803
vn -0.08486 0.00005 0.99639
vn 0.11368 -0.11685 -0.98662
vn -0.01025 -0.25016 0.96815
vn 0.06620 -0.15036 -0.98641
vn 0.08087 -0.29834 0.95103
vn 0.07660 -0.58976 0.80394
vn 0.11196 -0.43987 -0.89106
vn 0.11044 -0.31871 -0.94140
vn 0.07723 -0.73213 0.67677
vn -0.00333 -0.85853 0.51275
vn -0.01874 -0.82926 -0.55855
vn 0.05682 -0.71750 -0.69424
vn -0.11467 -0.91913 0.37690
vn -0.12205 -0.94915 0.29020
vn 0.04340 -0.97993 0.19454
vn 0.00771 -0.99855 0.05325
vn -0.02196 -0.98793 -0.15335
vn 0.00160 -0.92588 -0.37782
vn -0.00766 -0.89860 -0.43870
vn -0.00580 0.82955 0.55840
vn 0.01016 0.98219 0.18760
vn 0.12020 0.99255 -0.02005
vn 0.02118 0.99973 -0.00986
vn 0.00777 0.99967 0.02460
vn 0.02015 0.99979 0.00344
vn 0.03343 0.99923 0.02062
vn 0.03138 0.97962 -0.19840
vn 0.02995 0.83103 -0.55542
vn -0.15660 0.33711 0.92835
vn -0.17566 0.56011 0.80958
vn 0.10140 0.40213 -0.90995
vn 0.07582 0.23854 -0.96817
vn -0.02712 0.06434 0.99756
vn 0.04555 0.06663 -0.99674
vn -0.00146 0.28078 0.95977
vn 0.06554 0.03959 -0.99706
vn -0.13397 -0.01532 0.99087
vn 0.04620 0.06732 -0.99666
vn -0.06675 -0.36011 0.93052
vn -0.05771 -0.33668 -0.93985
vn 0.08186 -0.30587 -0.94855
vn -0.00869 -0.34638 0.93805
vn 0.00405 -0.47151 0.88185
vn 0.00135 -0.34612 -0.93819
vn 0.08066 -0.40302 -0.91163
vn -0.22117 -0.73397 0.64216
vn -0.11080 -0.84904 0.51657
vn 0.02566 -0.76641 -0.64184
vn 0.04937 -0.72838 -0.68339
vn -0.01685 -0.87598 0.48205
vn -0.05847 -0.95588 0.28789
vn -0.16062 -0.96215 0.22013
vn -0.08113 -0.99665 0.01007
vn -0.12088 -0.96562 -0.23013
vn -0.13228 -0.94347 -0.30391
vn -0.10841 -0.82995 -0.54720
vn -0.05204 0.88166 0.46901
vn -0.05353 0.99737 0.04892
vn 0.32766 0.93814 -0.11199
vn 0.22233 0.92808 0.29873
vn -0.01582 0.99950 0.02737
vn 0.10305 0.99404 -0.03562
vn 0.11016 0.99381 -0.01456
vn 0.05403 0.97714 -0.20559
vn 0.07155 0.76579 -0.63910
vn -0.10132 0.48992 0.86586
vn -0.02649 0.65555 0.75469
vn 0.22750 0.50811 -0.83070
vn 0.07308 0.33696 -0.93868
vn -0.32055 0.04760 0.94604
vn 0.30283 0.02494 -0.95272
vn 0.00739 0.07340 -0.99727
vn -0.35056 0.21960 0.91043
vn 0.16381 -0.03265 -0.98595
vn 0.13426 -0.01345 -0.99085
vn 0.18166 -0.17802 0.96711
vn -0.06400 0.00705 -0.99793
vn 0.08428 -0.41379 0.90646
vn 0.07395 -0.14279 -0.98699
vn 0.05144 -0.21810 -0.97457
vn 0.09295 -0.49447 0.86421
vn 0.17976 -0.45494 0.87219
vn -0.11082 -0.29078 -0.95035
vn 0.40935 -0.54446 0.73212
vn 0.02535 -0.84680 0.53131
vn -0.11271 -0.74629 -0.65601
vn -0.17955 -0.69936 -0.69185
vn 0.00470 -0.91044 0.41362
vn 0.14284 -0.94265 0.30169
vn 0.05056 -0.99137 0.12099
vn 0.11038 -0.99251 0.05235
vn 0.08628 -0.99408 -0.06608
vn -0.12016 -0.94189 -0.31371
vn -0.04135 -0.86000 -0.50861
vn 0.01914 0.87185 0.48940
vn -0.04619 0.99404 0.09872
vn -0.33607 0.94165 -0.01889
vn -0.28637 0.93965 0.18723
vn -0.00824 0.99961 0.02684
vn 0.45303 0.77948 -0.43263
vn 0.57279 0.80999 -0.12579
vn 0.03454 0.96800 0.24855
vn 0.01490 0.70614 -0.70791
vn -0.15128 0.53825 0.82909
vn -0.07343 0.79485 0.60235
vn -0.04943 0.60051 -0.79809
vn -0.10868 0.10637 0.98837
vn 0.16954 0.09231 -0.98119
vn -0.08549 0.29222 -0.95252
vn -0.10216 0.02779 0.99438
vn 0.15901 -0.02495 -0.98696
vn -0.23754 0.25073 -0.93846
vn -0.02189 -0.26402 0.96427
vn -0.17405 0.22303 -0.95915
vn 0.14648 -0.48994 0.85936
vn 0.21951 -0.55466 0.80260
vn 0.03630 -0.26204 -0.96437
vn -0.03903 -0.49696 -0.86689
vn 0.19215 -0.55607 0.80862
vn 0.22703 -0.54700 0.80576
vn 0.21557 -0.77434 0.59492
vn 0.13810 -0.18693 -0.97262
vn 0.30798 -0.72785 0.61269
vn 0.34541 -0.50785 0.78916
vn 0.15328 -0.77955 -0.60729
vn 0.16111 -0.79648 -0.58280
vn 0.15200 -0.80914 0.56762
vn 0.04408 -0.95834 0.28219
vn 0.15293 -0.98796 -0.02348
vn 0.14578 -0.95841 0.24534
vn 0.23410 -0.97207 0.01647
vn 0.03819 -0.97312 -0.22711
vn 0.05846 -0.78771 -0.61327
vn -0.02374 0.85022 0.52589
vn -0.02873 0.98211 0.18612
vn 0.09837 0.98931 -0.10769
vn 0.34090 0.93605 -0.08717
vn 0.26592 0.94887 -0.17007
vn -0.31864 0.90552 -0.28019
vn -0.41191 0.89343 -0.17919
vn -0.15778 0.97393 0.16302
vn -0.02125 0.81377 -0.58079
vn 0.04318 0.55066 0.83361
vn 0.00612 0.80252 0.59660
vn -0.16917 0.70513 -0.68860
vn -0.24089 0.39388 -0.88703
vn 0.11592 0.46325 0.87861
vn -0.17183 0.57732 0.79824
vn -0.43682 0.12686 -0.89056
vn -0.35078 0.00585 -0.93644
vn -0.03336 -0.16680 0.98543
vn -0.70344 -0.10761 0.70256
vn -0.49785 0.21054 -0.84132
vn 0.07887 -0.51176 0.85550
vn -0.12070 -0.71789 0.68561
vn -0.18087 -0.16785 -0.96908
vn -0.00457 -0.60311 0.79764
vn 0.13127 -0.51243 0.84864
vn -0.05795 -0.46309 -0.88441
vn -0.06331 -0.26129 -0.96318
vn -0.02462 -0.62196 0.78267
vn -0.07168 -0.69840 0.71211
vn -0.04252 -0.22201 -0.97412
vn -0.04774 -0.62804 0.77671
vn 0.02254 -0.91644 0.39954
vn -0.29720 -0.68591 -0.66423
vn -0.14104 -0.69734 -0.70273
vn 0.24900 -0.83087 0.49765
vn 0.12252 -0.92654 0.35570
vn 0.14807 -0.96191 0.22981
vn 0.03814 -0.98548 -0.16547
vn -0.00298 -0.99580 -0.09151
vn -0.01810 -0.99808 0.05923
vn -0.23146 -0.70795 -0.66726
vn 0.07674 0.92910 0.36179
vn 0.31343 0.93138 0.18519
vn 0.09865 0.91839 -0.38318
vn 0.05877 0.93763 -0.34263
vn 0.41111 0.90493 0.11001
vn 0.67944 0.66283 -0.31468
vn 0.57334 0.81780 -0.04989
vn 0.59758 0.75805 -0.26127
vn 0.41449 0.76630 -0.49091
vn 0.20877 0.21818 0.95332
vn -0.03767 0.75404 0.65574
vn 0.66833 0.74381 0.00881
vn 0.80372 0.56509 -0.18631
vn 0.72694 0.63951 0.25019
vn 0.26789 0.93345 -0.23856
vn -0.24438 0.57378 -0.78170
vn 0.56151 0.36112 0.74451
vn 0.42270 0.49276 0.76060
vn -0.19342 0.03296 -0.98056
vn 0.80309 -0.05110 0.59367
vn 0.50157 0.06803 0.86244
vn 0.21674 0.01905 -0.97604
vn 0.45254 -0.35254 0.81910
vn 0.13817 -0.34784 0.92732
vn 0.24463 -0.15217 -0.95760
vn 0.39239 -0.38337 -0.83610
vn -0.02576 -0.69284 0.72063
vn -0.13953 -0.29761 0.94443
vn 0.35696 -0.28064 -0.89097
vn 0.30605 -0.16969 -0.93677
vn -0.20758 -0.64700 0.73369
vn -0.13668 -0.72151 0.67878
vn 0.50125 -0.19762 -0.84244
vn 0.03852 -0.85156 0.52285
vn 0.06488 -0.58344 0.80956
vn 0.09639 -0.94849 0.30178
vn 0.32635 -0.81195 -0.48397
vn 0.09670 -0.51289 -0.85299
vn 0.14184 -0.94143 0.30592
vn 0.12629 -0.94819 0.29153
vn 0.07656 -0.99706 -0.00286
vn -0.06214 -0.98386 -0.16783
vn 0.13160 -0.99112 0.01932
vn 0.40826 -0.69787 -0.58848
vn 0.60385 0.77580 -0.18306
vn 0.81365 0.52829 0.24264
vn 0.80806 0.58813 0.03388
vn -0.26173 0.87518 -0.40690
vn -0.27063 0.93267 -0.23853
vn 0.70493 0.41173 -0.57754
vn 0.15837 0.40924 0.89858
vn 0.51120 0.72708 -0.45828
vn 0.98447 -0.07643 -0.15805
vn 0.90531 -0.18189 0.38383
vn 0.86653 0.30382 0.39601
vn -0.16630 0.53337 -0.82937
vn 0.63793 0.76317 -0.10301
vn 0.92759 0.06729 -0.36748
vn 0.46598 0.80568 0.36572
vn -0.24945 0.81463 0.52360
vn -0.23032 0.36686 -0.90131
vn 0.00336 0.37646 0.92642
vn 0.74469 0.27877 -0.60640
vn 0.86506 0.47605 -0.15825
vn 0.61551 0.69964 0.36283
vn 0.90384 0.14279 0.40334
vn 0.94446 -0.31625 -0.08936
vn 0.95674 -0.29091 0.00505
vn -0.56217 0.75645 -0.33429
vn 0.16599 0.72753 0.66569
vn 0.10333 -0.13083 -0.98601
vn 0.14124 0.06757 0.98767
vn 0.92036 -0.22403 -0.32054
vn 0.90555 0.24148 0.34880
vn 0.71674 0.60597 0.34509
vn 0.07310 -0.11602 -0.99055
vn 0.21623 -0.01143 0.97627
vn 0.77783 0.36854 -0.50908
vn 0.84179 0.11472 0.52747
vn -0.03843 -0.20102 -0.97883
vn -0.08946 -0.45806 -0.88441
vn 0.08579 -0.63391 0.76864
vn 0.13125 -0.54249 0.82974
vn 0.07848 -0.38728 -0.91861
vn 0.32971 -0.64192 0.69226
vn 0.13929 -0.71080 0.68946
vn -0.02867 -0.21265 -0.97671
vn 0.04537 -0.86087 0.50680
vn 0.02561 -0.63379 0.77308
vn 0.08760 -0.93903 0.33248
vn 0.07587 -0.92149 -0.38092
vn 0.20790 -0.10816 -0.97215
vn -0.11326 -0.94413 0.30950
vn 0.04376 -0.95664 0.28796
vn -0.06078 -0.96465 0.25643
vn -0.12428 -0.97019 -0.20805
vn 0.18606 -0.95507 -0.23069
vn 0.07055 -0.86328 -0.49977
vn 0.74416 0.61677 0.25655
vn 0.56604 0.64387 0.51481
vn -0.09471 0.96539 0.24300
vn -0.10945 0.99280 -0.04862
vn 0.56207 0.60020 0.56907
vn 0.86315 0.48350 0.14557
vn 0.46792 0.42825 0.77308
vn 0.90815 -0.36896 -0.19780
vn 0.94102 -0.33801 0.01493
vn -0.84892 0.38681 0.36015
vn -0.16323 0.80679 0.56785
vn -0.03805 0.49860 -0.86600
vn 0.09742 0.70993 0.69750
vn 0.48060 0.52362 -0.70345
vn 0.51978 0.84449 -0.12910
vn 0.56651 0.81521 -0.12045
vn 0.98273 0.15148 0.10630
vn 0.93840 -0.34114 -0.05505
vn 0.97553 -0.15060 -0.16020
vn 0.70470 -0.10580 0.70157
vn -0.31520 0.83184 0.45683
vn -0.20327 -0.37102 -0.90611
vn -0.06595 0.08284 0.99438
vn 0.33304 0.94250 0.02787
vn 0.91903 0.21527 -0.33020
vn 0.97839 -0.18290 -0.09645
vn 0.87442 -0.14776 -0.46212
vn 0.90794 0.23647 0.34600
vn 0.81636 0.22441 0.53216
vn 0.65882 0.41544 0.62719
vn 0.16316 -0.25604 -0.95280
vn 0.24305 -0.61135 0.75311
vn 0.02992 -0.34744 0.93723
vn 0.63648 0.25239 -0.72883
vn 0.68880 0.72248 -0.05981
vn 0.78156 0.53859 -0.31478
vn 0.97007 0.15588 0.18619
vn 0.75932 0.41858 0.49822
vn -0.11905 -0.25935 -0.95842
vn -0.00720 -0.19382 -0.98101
vn 0.25451 -0.39097 0.88451
vn 0.09628 -0.37617 0.92154
vn 0.48908 0.87184 0.02642
vn 0.62571 0.73989 -0.24708
vn 0.91204 -0.36873 -0.17953
vn 0.60535 -0.77602 0.17706
vn 0.71175 -0.59689 0.37031
vn -0.08966 -0.33845 -0.93670
vn -0.22241 -0.26821 -0.93733
vn -0.03481 -0.57547 0.81708
vn -0.09606 -0.65580 0.74880
vn 0.65838 -0.00613 -0.75266
vn 0.87994 -0.46521 0.09635
vn 0.86940 -0.47649 0.13076
vn 0.18562 -0.76990 -0.61057
vn -0.00428 -0.86449 0.50264
vn -0.02702 -0.83548 0.54885
vn 0.76173 0.37462 -0.52861
vn 0.94865 0.20084 -0.24437
vn 0.41752 -0.30524 -0.85587
vn 0.31102 -0.56760 -0.76230
vn -0.01306 -0.86162 0.50738
vn -0.03804 -0.98720 0.15489
vn -0.03001 -0.94113 0.33672
vn -0.15562 -0.67122 -0.72474
vn -0.02779 -0.95329 -0.30077
vn 0.02238 -0.88764 -0.46000
vn -0.67612 0.70217 0.22323
vn -0.10674 0.98906 0.10181
vn 0.15824 0.96976 -0.18581
vn -0.46364 0.87435 0.14338
vn -0.31176 0.65861 0.68486
vn 0.10398 0.43219 -0.89577
vn 0.03232 0.68202 0.73062
vn 0.04411 0.82203 -0.56773
vn 0.13284 0.86040 -0.49200
vn 0.57346 -0.34833 0.74149
vn 0.66804 -0.25228 0.70006
vn 0.12931 -0.17393 -0.97623
vn -0.22560 -0.33168 0.91602
vn 0.51033 0.35060 -0.78527
vn 0.63609 0.28046 -0.71884
vn 0.63520 0.44222 -0.63321
vn 0.46268 0.17142 0.86980
vn 0.42535 0.66163 0.61751
vn 0.68357 0.07943 0.72555
vn -0.28308 -0.26644 -0.92134
vn -0.13142 -0.29387 0.94677
vn 0.01042 -0.34467 0.93867
vn 0.59489 0.60457 -0.52972
vn 0.73894 0.31248 -0.59693
vn 0.53508 0.82218 -0.19418
vn 0.35832 0.66465 0.65563
vn 0.27047 0.32433 0.90645
vn -0.06127 -0.09219 -0.99386
vn -0.33823 -0.39158 0.85573
vn -0.14170 -0.30866 0.94056
vn 0.25614 0.89686 -0.36061
vn 0.59309 0.63385 -0.49647
vn 0.68153 0.72342 0.11037
vn 0.44113 0.79749 -0.41160
vn 0.88574 -0.32486 -0.33155
vn 0.87183 -0.45892 0.17118
vn 0.71277 -0.48625 0.50549
vn 0.16361 -0.24484 -0.95566
vn 0.16669 -0.32526 -0.93082
vn -0.10029 -0.52427 0.84563
vn 0.02034 -0.69422 0.71947
vn 0.71468 0.21691 -0.66497
vn 0.85434 0.02353 -0.51917
vn 0.26125 -0.60650 0.75094
vn 0.40165 -0.71709 0.56961
vn -0.20702 -0.62124 0.75577
vn -0.24261 -0.68395 0.68801
vn -0.25316 -0.83992 0.48005
vn 0.83018 0.38413 -0.40404
vn 0.56989 0.40063 -0.71744
vn -0.21167 -0.91266 0.34963
vn -0.24885 -0.89310 0.37476
vn -0.32360 -0.94425 0.06064
vn 0.69644 -0.02573 -0.71715
vn 0.70837 -0.10083 0.69861
vn -0.01109 0.90256 -0.43042
vn 0.22097 0.91933 -0.32558
vn -0.55509 -0.74004 -0.37976
vn -0.57795 -0.72184 -0.38067
vn 0.38127 -0.37456 0.84518
vn 0.87171 0.39631 0.28819
vn 0.22829 0.63421 -0.73869
vn -0.14252 0.98870 -0.04646
vn -0.45404 0.86917 -0.19595
vn 0.41728 -0.60296 0.67994
vn -0.06553 -0.33236 0.94087
vn 0.08994 -0.34756 -0.93334
vn 0.77008 -0.50442 0.39056
vn 0.63587 0.56057 -0.53050
vn 0.41442 0.54576 -0.72829
vn 0.10088 0.71413 0.69271
vn -0.08641 0.33627 0.93779
vn 0.64233 0.56133 -0.52184
vn -0.08558 0.09976 0.99132
vn 0.26027 0.07577 -0.96256
vn 0.43154 0.62717 -0.64841
vn 0.46758 0.36016 0.80725
vn -0.00938 -0.82158 -0.57002
vn -0.30929 -0.55008 -0.77573
vn 0.03313 -0.63392 0.77269
vn 0.28741 -0.59624 0.74960
vn 0.70271 0.25507 -0.66419
vn 0.48963 0.84650 -0.20904
vn 0.61691 0.75816 0.21121
vn 0.63176 0.52676 -0.56869
vn 0.27808 -0.53962 0.79466
vn 0.36640 -0.42798 -0.82618
vn 0.23263 -0.38592 -0.89272
vn -0.14789 -0.58915 0.79438
vn 0.98745 0.10441 0.11852
vn 0.46688 0.76189 -0.44893
vn 0.80615 0.33110 -0.49040
vn 0.03087 0.87641 -0.48057
vn -0.21577 -0.63803 0.73916
vn 0.50741 -0.62524 0.59297
vn 0.31784 -0.83727 0.44493
vn 0.28168 0.47925 -0.83125
vn 0.30008 -0.88756 0.34956
vn 0.14389 -0.86859 0.47419
vn 0.41231 -0.85741 -0.30798
vn -0.14533 0.94283 0.29993
vn -0.17628 0.97189 0.15605
vn 0.17664 0.59937 0.78074
vn -0.22580 0.54572 -0.80697
vn 0.70296 0.60439 0.37491
vn 0.40270 0.36449 -0.83963
vn 0.09145 0.52741 -0.84467
vn -0.29763 -0.54493 -0.78388
vn 0.97373 0.14461 0.17587
vn 0.36682 0.09343 -0.92559
vn 0.92354 -0.27287 0.26945
vn 0.97225 -0.13920 0.18800
vn 0.24638 0.41448 0.87607
vn -0.10839 0.66822 0.73602
vn 0.57292 0.72235 -0.38727
vn 0.92464 0.00054 0.38084
vn 0.90695 -0.24794 0.34055
vn 0.50482 0.19889 -0.84000
vn 0.42642 0.23917 0.87233
vn 0.74792 -0.41713 -0.51635
vn 0.44628 -0.02793 -0.89446
vn 0.92694 -0.23061 0.29596
vn 0.91410 -0.15376 0.37520
vn 0.73188 0.41613 -0.53962
vn -0.27564 -0.51444 0.81202
vn 0.19487 -0.67261 -0.71387
vn 0.95555 -0.20618 -0.21074
vn 0.98078 0.12002 0.15383
vn 0.88590 0.43950 0.14840
vn 0.05208 0.98709 -0.15143
vn 0.58414 0.80919 -0.06323
vn 0.70662 -0.35912 0.60970
vn 0.71936 -0.64683 0.25323
vn 0.84830 -0.34749 0.39956
vn 0.29325 0.27060 -0.91694
vn 0.65934 -0.56289 0.49841
vn 0.63145 -0.59723 0.49455
vn 0.82633 -0.37265 -0.42226
vn 0.34956 0.86616 0.35717
vn 0.33348 0.92764 0.16815
vn 0.59620 0.67143 0.44015
vn 0.72374 0.66534 0.18311
usemtl CaveRock
f 194/194/194 193/193/193 196/196/196
f 197/197/197 196/196/196 199/199/199
f 234/234/234 233/233/233 236/236/236
f 241/241/241 240/240/240 244/244/244
f 246/246/246 245/245/245 248/248/248
f 272/272/272 273/273/273 277/277/277
f 290/290/290 289/289/289 293/293/293
f 306/306/306 305/305/305 311/311/311
f 308/308/308 307/307/307 313/313/313
f 320/320/320 319/319/319 322/322/322
f 349/349/349 348/348/348 355/355/355
f 352/352/352 351/351/351 362/362/362
f 353/353/353 352/352/352 363/363/363
f 385/385/385 384/384/384 387/387/387
f 399/399/399 398/398/398 404/404/404
f 403/403/403 402/402/402 410/410/410
f 405/405/405 404/404/404 414/414/414
f 406/406/406 405/405/405 415/415/415
f 413/413/413 412/412/412 421/421/421
f 423/423/423 422/422/422 431/431/431
f 430/430/430 429/429/429 438/438/438
f 433/433/433 432/432/432 440/440/440
f 434/434/434 433/433/433 441/441/441
f 435/435/435 434/434/434 442/442/442
f 436/436/436 437/437/437 446/446/446
f 443/443/443 442/442/442 449/449/449
f 444/444/444 443/443/443 450/450/450
f 451/451/451 450/450/450 456/456/456
f 465/465/465 466/466/466 469/469/469
f 473/473/473 472/472/472 478/478/478
f 480/480/480 479/479/479 487/487/487
f 488/488/488 487/487/487 495/495/495
f 489/489/489 488/488/488 496/496/496
f 491/491/491 490/490/490 500/500/500
f 499/499/499 498/498/498 506/506/506
f 507/507/507 506/506/506 513/513/513
f 525/525/525 524/524/524 529/529/529
f 531/531/531 530/530/530 536/536/536
f 534/534/534 533/533/533 539/539/539
f 549/549/549 548/548/548 556/556/556
f 565/565/565 566/566/566 568/568/568
f 571/571/571 572/572/572 576/576/576
f 576/576/576 575/575/575 580/580/580
f 581/581/581 580/580/580 586/586/586
f 582/582/582 581/581/581 587/587/587
f 584/584/584 583/583/583 589/589/589
f 588/588/588 587/587/587 591/591/591
f 593/593/593 592/592/592 596/596/596
f 594/594/594 593/593/593 597/597/597
f 595/595/595 594/594/594 598/598/598
f 598/598/598 597/597/597 600/600/600
f 3/3/3 2/2/2 38/38/38
f 6/6/6 5/5/5 41/41/41
f 8/8/8 7/7/7 43/43/43
f 9/9/9 8/8/8 44/44/44
f 11/11/11 10/10/10 46/46/46
f 13/13/13 12/12/12 48/48/48
f 22/22/22 23/23/23 59/59/59
f 31/31/31 32/32/32 68/68/68
f 33/33/33 34/34/34 70/70/70
f 34/34/34 35/35/35 71/71/71
f 38/38/38 37/37/37 73/73/73
f 42/42/42 41/41/41 77/77/77
f 43/43/43 42/42/42 78/78/78
f 44/44/44 43/43/43 79/79/79
f 45/45/45 44/44/44 80/80/80
f 49/49/49 48/48/48 84/84/84
f 67/67/67 68/68/68 104/104/104
f 69/69/69 70/70/70 106/106/106
f 70/70/70 71/71/71 107/107/107
f 71/71/71 72/72/72 108/108/108
f 74/74/74 73/73/73 109/109/109
f 76/76/76 75/75/75 111/111/111
f 85/85/85 84/84/84 120/120/120
f 94/94/94 95/95/95 131/131/131
f 98/98/98 99/99/99 135/135/135
f 100/100/100 101/101/101 137/137/137
f 102/102/102 103/103/103 139/139/139
f 105/105/105 106/106/106 142/142/142
f 106/106/106 107/107/107 143/143/143
f 107/107/107 108/108/108 144/144/144
f 116/116/116 115/115/115 151/151/151
f 119/119/119 118/118/118 154/154/154
f 121/121/121 120/120/120 156/156/156
f 130/130/130 131/131/131 168/168/168
f 132/132/132 133/133/133 170/170/170
f 134/134/134 135/135/135 172/172/172
f 138/138/138 139/139/139 176/176/176
f 141/141/141 142/142/142 179/179/179
f 142/142/142 143/143/143 180/180/180
f 148/148/148 147/147/147 184/184/184
f 150/150/150 149/149/149 186/186/186
f 151/151/151 150/150/150 187/187/187
f 152/152/152 151/151/151 188/188/188
f 155/155/155 154/154/154 191/191/191
f 165/165/165 166/166/166 205/205/205
f 167/167/167 168/168/168 207/207/207
f 171/171/171 172/172/172 210/210/210
f 176/176/176 177/177/177 215/215/215
f 178/178/178 179/179/179 217/217/217
f 179/179/179 180/180/180 218/218/218
f 185/185/185 184/184/184 222/222/222
f 192/192/192 191/191/191 229/229/229
f 200/200/200 199/199/199 236/236/236
f 214/214/214 215/215/215 254/254/254
f 215/215/215 216/216/216 255/255/255
f 216/216/216 217/217/217 256/256/256
f 217/217/217 218/218/218 257/257/257
f 218/218/218 219/219/219 258/258/258
f 222/222/222 221/221/221 260/260/260
f 224/224/224 223/223/223 262/262/262
f 225/225/225 224/224/224 263/263/263
f 226/226/226 225/225/225 264/264/264
f 227/227/227 226/226/226 265/265/265
f 228/228/228 227/227/227 266/266/266
f 234/234/234 233/233/233 274/274/274
f 250/250/250 251/251/251 292/292/292
f 253/253/253 254/254/254 295/295/295
f 254/254/254 255/255/255 296/296/296
f 256/256/256 257/257/257 298/298/298
f 257/257/257 258/258/258 299/299/299
f 260/260/260 259/259/259 300/300/300
f 262/262/262 261/261/261 302/302/302
f 264/264/264 263/263/263 304/304/304
f 266/266/266 265/265/265 306/306/306
f 269/269/269 268/268/268 309/309/309
f 273/273/273 272/272/272 316/316/316
f 279/279/279 280/280/280 323/323/323
f 282/282/282 283/283/283 327/327/327
f 284/284/284 285/285/285 329/329/329
f 286/286/286 287/287/287 331/331/331
f 291/291/291 292/292/292 337/337/337
f 295/295/295 296/296/296 340/340/340
f 298/298/298 299/299/299 343/343/343
f 301/301/301 300/300/300 344/344/344
f 303/303/303 302/302/302 346/346/346
f 304/304/304 303/303/303 347/347/347
f 310/310/310 309/309/309 350/350/350
f 313/313/313 312/312/312 357/357/357
f 315/315/315 314/314/314 359/359/359
f 324/324/324 325/325/325 380/380/380
f 326/326/326 327/327/327 382/382/382
f 340/340/340 341/341/341 395/395/395
f 342/342/342 343/343/343 397/397/397
f 360/360/360 359/359/359 408/408/408
f 365/365/365 364/364/364 413/413/413
f 366/366/366 367/367/367 416/416/416
f 374/374/374 373/373/373 425/425/425
f 390/390/390 391/391/391 458/458/458
f 392/392/392 393/393/393 460/460/460
f 393/393/393 394/394/394 461/461/461
f 396/396/396 397/397/397 464/464/464
f 427/427/427 426/426/426 481/481/481
f 429/429/429 430/430/430 486/486/486
f 445/445/445 446/446/446 503/503/503
f 447/447/447 448/448/448 505/505/505
f 451/451/451 452/452/452 509/509/509
f 453/453/453 454/454/454 512/512/512
f 459/459/459 460/460/460 516/516/516
f 461/461/461 462/462/462 518/518/518
f 483/483/483 482/482/482 535/535/535
f 493/493/493 494/494/494 545/545/545
f 502/502/502 503/503/503 552/552/552
f 515/515/515 516/516/516 563/563/563
f 523/523/523 522/522/522 567/567/567
f 536/536/536 535/535/535 577/577/577
f 542/542/542 543/543/543 585/585/585
f 550/550/550 551/551/551 590/590/590
f 557/557/557 556/556/556 594/594/594
f 563/563/563 564/564/564 602/602/602
f 566/566/566 565/565/565 603/603/603
f 1/1/1 11/11/11 47/47/47
f 12/12/12 9/9/9 45/45/45
f 10/10/10 14/14/14 50/50/50
f 14/14/14 16/16/16 52/52/52
f 19/19/19 17/17/17 53/53/53
f 21/21/21 19/19/19 55/55/55
f 25/25/25 21/21/21 57/57/57
f 23/23/23 26/26/26 62/62/62
f 48/48/48 45/45/45 81/81/81
f 50/50/50 52/52/52 88/88/88
f 52/52/52 54/54/54 90/90/90
f 55/55/55 53/53/53 89/89/89
f 57/57/57 55/55/55 91/91/91
f 59/59/59 62/62/62 98/98/98
f 84/84/84 81/81/81 117/117/117
f 87/87/87 85/85/85 121/121/121
f 86/86/86 88/88/88 124/124/124
f 91/91/91 89/89/89 125/125/125
f 90/90/90 92/92/92 128/128/128
f 93/93/93 91/91/91 127/127/127
f 92/92/92 94/94/94 130/130/130
f 95/95/95 98/98/98 134/134/134
f 99/99/99 102/102/102 138/138/138
f 109/109/109 119/119/119 155/155/155
f 120/120/120 117/117/117 153/153/153
f 118/118/118 122/122/122 158/158/158
f 123/123/123 121/121/121 157/157/157
f 125/125/125 123/123/123 159/159/159
f 127/127/127 125/125/125 161/161/161
f 126/126/126 128/128/128 164/164/164
f 129/129/129 127/127/127 163/163/163
f 128/128/128 130/130/130 167/167/167
f 131/131/131 134/134/134 171/171/171
f 135/135/135 138/138/138 175/175/175
f 145/145/145 155/155/155 192/192/192
f 156/156/156 153/153/153 190/190/190
f 154/154/154 158/158/158 195/195/195
f 159/159/159 157/157/157 194/194/194
f 161/161/161 159/159/159 197/197/197
f 162/162/162 164/164/164 203/203/203
f 164/164/164 167/167/167 206/206/206
f 172/172/172 175/175/175 213/213/213
f 196/196/196 193/193/193 231/231/231
f 198/198/198 201/201/201 238/238/238
f 202/202/202 200/200/200 237/237/237
f 203/203/203 206/206/206 244/244/244
f 207/207/207 209/209/209 248/248/248
f 210/210/210 213/213/213 252/252/252
f 219/219/219 211/211/211 250/250/250
f 229/229/229 232/232/232 273/273/273
f 232/232/232 235/235/235 277/277/277
f 239/239/239 237/237/237 278/278/278
f 238/238/238 240/240/240 282/282/282
f 243/243/243 239/239/239 281/281/281
f 241/241/241 245/245/245 286/286/286
f 247/247/247 242/242/242 284/284/284
f 246/246/246 249/249/249 289/289/289
f 251/251/251 247/247/247 288/288/288
f 249/249/249 252/252/252 293/293/293
f 259/259/259 269/269/269 310/310/310
f 268/268/268 273/273/273 317/317/317
f 272/272/272 276/276/276 319/319/319
f 278/278/278 275/275/275 318/318/318
f 276/276/276 279/279/279 322/322/322
f 292/292/292 288/288/288 332/332/332
f 290/290/290 294/294/294 338/338/338
f 311/311/311 305/305/305 349/349/349
f 309/309/309 317/317/317 361/361/361
f 317/317/317 320/320/320 371/371/371
f 321/321/321 318/318/318 370/370/370
f 320/320/320 323/323/323 376/376/376
f 325/325/325 321/321/321 375/375/375
f 327/327/327 330/330/330 384/384/384
f 332/332/332 328/328/328 383/383/383
f 330/330/330 333/333/333 387/387/387
f 343/343/343 336/336/336 390/390/390
f 355/355/355 348/348/348 399/399/399
f 362/362/362 351/351/351 403/403/403
f 367/367/367 356/356/356 406/406/406
f 361/361/361 371/371/371 420/420/420
f 375/375/375 370/370/370 419/419/419
f 377/377/377 372/372/372 424/424/424
f 380/380/380 375/375/375 428/428/428
f 376/376/376 381/381/381 438/438/438
f 383/383/383 379/379/379 436/436/436
f 382/382/382 384/384/384 447/447/447
f 386/386/386 383/383/383 445/445/445
f 385/385/385 388/388/388 453/453/453
f 400/400/400 408/408/408 469/469/469
f 407/407/407 418/418/418 474/474/474
f 419/419/419 409/409/409 470/470/470
f 421/421/421 412/412/412 473/473/473
f 431/431/431 422/422/422 480/480/480
f 440/440/440 432/432/432 489/489/489
f 435/435/435 443/443/443 500/500/500
f 446/446/446 437/437/437 492/492/492
f 449/449/449 442/442/442 499/499/499
f 444/444/444 451/451/451 508/508/508
f 452/452/452 445/445/445 502/502/502
f 455/455/455 449/449/449 507/507/507
f 454/454/454 459/459/459 515/515/515
f 465/465/465 468/468/468 524/524/524
f 470/470/470 467/467/467 521/521/521
f 468/468/468 474/474/474 529/529/529
f 476/476/476 470/470/470 526/526/526
f 478/478/478 472/472/472 528/528/528
f 484/484/484 476/476/476 531/531/531
f 477/477/477 485/485/485 538/538/538
f 487/487/487 479/479/479 534/534/534
f 495/495/495 487/487/487 540/540/540
f 491/491/491 501/501/501 550/550/550
f 506/506/506 498/498/498 549/549/549
f 504/504/504 510/510/510 558/558/558
f 513/513/513 506/506/506 557/557/557
f 517/517/517 513/513/513 561/561/561
f 525/525/525 530/530/530 573/573/573
f 531/531/531 526/526/526 570/570/570
f 533/533/533 528/528/528 572/572/572
f 532/532/532 538/538/538 580/580/580
f 539/539/539 533/533/533 576/576/576
f 538/538/538 544/544/544 586/586/586
f 546/546/546 540/540/540 582/582/582
f 541/541/541 550/550/550 589/589/589
f 545/545/545 553/553/553 591/591/591
f 554/554/554 546/546/546 588/588/588
f 554/554/554 559/559/559 596/596/596
f 561/561/561 557/557/557 595/595/595
f 560/560/560 562/562/562 600/600/600
f 565/565/565 567/567/567 605/605/605
f 197/197/197 194/194/194 196/196/196
f 200/200/200 197/197/197 199/199/199
f 237/237/237 234/234/234 236/236/236
f 245/245/245 241/241/241 244/244/244
f 249/249/249 246/246/246 248/248/248
f 276/276/276 272/272/272 277/277/277
f 294/294/294 290/290/290 293/293/293
f 312/312/312 306/306/306 311/311/311
f 314/314/314 308/308/308 313/313/313
f 323/323/323 320/320/320 322/322/322
f 356/356/356 349/349/349 355/355/355
f 363/363/363 352/352/352 362/362/362
f 364/364/364 353/353/353 363/363/363
f 388/388/388 385/385/385 387/387/387
f 405/405/405 399/399/399 404/404/404
f 411/411/411 403/403/403 410/410/410
f 415/415/415 405/405/405 414/414/414
f 416/416/416 406/406/406 415/415/415
f 422/422/422 413/413/413 421/421/421
f 432/432/432 423/423/423 431/431/431
f 439/439/439 430/430/430 438/438/438
f 441/441/441 433/433/433 440/440/440
f 442/442/442 434/434/434 441/441/441
f 443/443/443 435/435/435 442/442/442
f 445/445/445 436/436/436 446/446/446
f 450/450/450 443/443/443 449/449/449
f 451/451/451 444/444/444 450/450/450
f 457/457/457 451/451/451 456/456/456
f 468/468/468 465/465/465 469/469/469
f 479/479/479 473/473/473 478/478/478
f 488/488/488 480/480/480 487/487/487
f 496/496/496 488/488/488 495/495/495
f 497/497/497 489/489/489 496/496/496
f 501/501/501 491/491/491 500/500/500
f 507/507/507 499/499/499 506/506/506
f 514/514/514 507/507/507 513/513/513
f 530/530/530 525/525/525 529/529/529
f 537/537/537 531/531/531 536/536/536
f 540/540/540 534/534/534 539/539/539
f 557/557/557 549/549/549 556/556/556
f 567/567/567 565/565/565 568/568/568
f 575/575/575 571/571/571 576/576/576
f 581/581/581 576/576/576 580/580/580
f 587/587/587 581/581/581 586/586/586
f 588/588/588 582/582/582 587/587/587
f 590/590/590 584/584/584 589/589/589
f 592/592/592 588/588/588 591/591/591
f 597/597/597 593/593/593 596/596/596
f 598/598/598 594/594/594 597/597/597
f 599/599/599 595/595/595 598/598/598
f 601/601/601 598/598/598 600/600/600
f 39/39/39 3/3/3 38/38/38
f 42/42/42 6/6/6 41/41/41
f 44/44/44 8/8/8 43/43/43
f 45/45/45 9/9/9 44/44/44
f 47/47/47 11/11/11 46/46/46
f 49/49/49 13/13/13 48/48/48
f 58/58/58 22/22/22 59/59/59
f 67/67/67 31/31/31 68/68/68
f 69/69/69 33/33/33 70/70/70
f 70/70/70 34/34/34 71/71/71
f 74/74/74 38/38/38 73/73/73
f 78/78/78 42/42/42 77/77/77
f 79/79/79 43/43/43 78/78/78
f 80/80/80 44/44/44 79/79/79
f 81/81/81 45/45/45 80/80/80
f 85/85/85 49/49/49 84/84/84
f 103/103/103 67/67/67 104/104/104
f 105/105/105 69/69/69 106/106/106
f 106/106/106 70/70/70 107/107/107
f 107/107/107 71/71/71 108/108/108
f 110/110/110 74/74/74 109/109/109
f 112/112/112 76/76/76 111/111/111
f 121/121/121 85/85/85 120/120/120
f 130/130/130 94/94/94 131/131/131
f 134/134/134 98/98/98 135/135/135
f 136/136/136 100/100/100 137/137/137
f 138/138/138 102/102/102 139/139/139
f 141/141/141 105/105/105 142/142/142
f 142/142/142 106/106/106 143/143/143
f 143/143/143 107/107/107 144/144/144
f 152/152/152 116/116/116 151/151/151
f 155/155/155 119/119/119 154/154/154
f 157/157/157 121/121/121 156/156/156
f 167/167/167 130/130/130 168/168/168
f 169/169/169 132/132/132 170/170/170
f 171/171/171 134/134/134 172/172/172
f 175/175/175 138/138/138 176/176/176
f 178/178/178 141/141/141 179/179/179
f 179/179/179 142/142/142 180/180/180
f 185/185/185 148/148/148 184/184/184
f 187/187/187 150/150/150 186/186/186
f 188/188/188 151/151/151 187/187/187
f 189/189/189 152/152/152 188/188/188
f 192/192/192 155/155/155 191/191/191
f 204/204/204 165/165/165 205/205/205
f 206/206/206 167/167/167 207/207/207
f 209/209/209 171/171/171 210/210/210
f 214/214/214 176/176/176 215/215/215
f 216/216/216 178/178/178 217/217/217
f 217/217/217 179/179/179 218/218/218
f 223/223/223 185/185/185 222/222/222
f 230/230/230 192/192/192 229/229/229
f 237/237/237 200/200/200 236/236/236
f 253/253/253 214/214/214 254/254/254
f 254/254/254 215/215/215 255/255/255
f 255/255/255 216/216/216 256/256/256
f 256/256/256 217/217/217 257/257/257
f 257/257/257 218/218/218 258/258/258
f 261/261/261 222/222/222 260/260/260
f 263/263/263 224/224/224 262/262/262
f 264/264/264 225/225/225 263/263/263
f 265/265/265 226/226/226 264/264/264
f 266/266/266 227/227/227 265/265/265
f 267/267/267 228/228/228 266/266/266
f 275/275/275 234/234/234 274/274/274
f 291/291/291 250/250/250 292/292/292
f 294/294/294 253/253/253 295/295/295
f 295/295/295 254/254/254 296/296/296
f 297/297/297 256/256/256 298/298/298
f 298/298/298 257/257/257 299/299/299
f 301/301/301 260/260/260 300/300/300
f 303/303/303 262/262/262 302/302/302
f 305/305/305 264/264/264 304/304/304
f 307/307/307 266/266/266 306/306/306
f 310/310/310 269/269/269 309/309/309
f 317/317/317 273/273/273 316/316/316
f 322/322/322 279/279/279 323/323/323
f 326/326/326 282/282/282 327/327/327
f 328/328/328 284/284/284 329/329/329
f 330/330/330 286/286/286 331/331/331
f 336/336/336 291/291/291 337/337/337
f 339/339/339 295/295/295 340/340/340
f 342/342/342 298/298/298 343/343/343
f 345/345/345 301/301/301 344/344/344
f 347/347/347 303/303/303 346/346/346
f 348/348/348 304/304/304 347/347/347
f 351/351/351 310/310/310 350/350/350
f 358/358/358 313/313/313 357/357/357
f 360/360/360 315/315/315 359/359/359
f 379/379/379 324/324/324 380/380/380
f 381/381/381 326/326/326 382/382/382
f 394/394/394 340/340/340 395/395/395
f 396/396/396 342/342/342 397/397/397
f 409/409/409 360/360/360 408/408/408
f 414/414/414 365/365/365 413/413/413
f 415/415/415 366/366/366 416/416/416
f 426/426/426 374/374/374 425/425/425
f 457/457/457 390/390/390 458/458/458
f 459/459/459 392/392/392 460/460/460
f 460/460/460 393/393/393 461/461/461
f 463/463/463 396/396/396 464/464/464
f 482/482/482 427/427/427 481/481/481
f 485/485/485 429/429/429 486/486/486
f 502/502/502 445/445/445 503/503/503
f 504/504/504 447/447/447 505/505/505
f 508/508/508 451/451/451 509/509/509
f 511/511/511 453/453/453 512/512/512
f 515/515/515 459/459/459 516/516/516
f 517/517/517 461/461/461 518/518/518
f 536/536/536 483/483/483 535/535/535
f 544/544/544 493/493/493 545/545/545
f 551/551/551 502/502/502 552/552/552
f 562/562/562 515/515/515 563/563/563
f 568/568/568 523/523/523 567/567/567
f 578/578/578 536/536/536 577/577/577
f 584/584/584 542/542/542 585/585/585
f 589/589/589 550/550/550 590/590/590
f 595/595/595 557/557/557 594/594/594
f 601/601/601 563/563/563 602/602/602
f 604/604/604 566/566/566 603/603/603
f 37/37/37 1/1/1 47/47/47
f 48/48/48 12/12/12 45/45/45
f 46/46/46 10/10/10 50/50/50
f 50/50/50 14/14/14 52/52/52
f 55/55/55 19/19/19 53/53/53
f 57/57/57 21/21/21 55/55/55
f 61/61/61 25/25/25 57/57/57
f 59/59/59 23/23/23 62/62/62
f 84/84/84 48/48/48 81/81/81
f 86/86/86 50/50/50 88/88/88
f 88/88/88 52/52/52 90/90/90
f 91/91/91 55/55/55 89/89/89
f 93/93/93 57/57/57 91/91/91
f 95/95/95 59/59/59 98/98/98
f 120/120/120 84/84/84 117/117/117
f 123/123/123 87/87/87 121/121/121
f 122/122/122 86/86/86 124/124/124
f 127/127/127 91/91/91 125/125/125
f 126/126/126 90/90/90 128/128/128
f 129/129/129 93/93/93 127/127/127
f 128/128/128 92/92/92 130/130/130
f 131/131/131 95/95/95 134/134/134
f 135/135/135 99/99/99 138/138/138
f 145/145/145 109/109/109 155/155/155
f 156/156/156 120/120/120 153/153/153
f 154/154/154 118/118/118 158/158/158
f 159/159/159 123/123/123 157/157/157
f 161/161/161 125/125/125 159/159/159
f 163/163/163 127/127/127 161/161/161
f 162/162/162 126/126/126 164/164/164
f 166/166/166 129/129/129 163/163/163
f 164/164/164 128/128/128 167/167/167
f 168/168/168 131/131/131 171/171/171
f 172/172/172 135/135/135 175/175/175
f 182/182/182 145/145/145 192/192/192
f 193/193/193 156/156/156 190/190/190
f 191/191/191 154/154/154 195/195/195
f 197/197/197 159/159/159 194/194/194
f 200/200/200 161/161/161 197/197/197
f 201/201/201 162/162/162 203/203/203
f 203/203/203 164/164/164 206/206/206
f 210/210/210 172/172/172 213/213/213
f 233/233/233 196/196/196 231/231/231
f 235/235/235 198/198/198 238/238/238
f 239/239/239 202/202/202 237/237/237
f 240/240/240 203/203/203 244/244/244
f 245/245/245 207/207/207 248/248/248
f 249/249/249 210/210/210 252/252/252
f 258/258/258 219/219/219 250/250/250
f 268/268/268 229/229/229 273/273/273
f 273/273/273 232/232/232 277/277/277
f 281/281/281 239/239/239 278/278/278
f 280/280/280 238/238/238 282/282/282
f 285/285/285 243/243/243 281/281/281
f 283/283/283 241/241/241 286/286/286
f 288/288/288 247/247/247 284/284/284
f 287/287/287 246/246/246 289/289/289
f 292/292/292 251/251/251 288/288/288
f 289/289/289 249/249/249 293/293/293
f 300/300/300 259/259/259 310/310/310
f 309/309/309 268/268/268 317/317/317
f 316/316/316 272/272/272 319/319/319
f 321/321/321 278/278/278 318/318/318
f 319/319/319 276/276/276 322/322/322
f 337/337/337 292/292/292 332/332/332
f 335/335/335 290/290/290 338/338/338
f 356/356/356 311/311/311 349/349/349
f 350/350/350 309/309/309 361/361/361
f 361/361/361 317/317/317 371/371/371
f 375/375/375 321/321/321 370/370/370
f 371/371/371 320/320/320 376/376/376
f 380/380/380 325/325/325 375/375/375
f 382/382/382 327/327/327 384/384/384
f 386/386/386 332/332/332 383/383/383
f 384/384/384 330/330/330 387/387/387
f 397/397/397 343/343/343 390/390/390
f 405/405/405 355/355/355 399/399/399
f 411/411/411 362/362/362 403/403/403
f 416/416/416 367/367/367 406/406/406
f 410/410/410 361/361/361 420/420/420
f 428/428/428 375/375/375 419/419/419
f 433/433/433 377/377/377 424/424/424
f 437/437/437 380/380/380 428/428/428
f 429/429/429 376/376/376 438/438/438
f 445/445/445 383/383/383 436/436/436
f 439/439/439 382/382/382 447/447/447
f 452/452/452 386/386/386 445/445/445
f 448/448/448 385/385/385 453/453/453
f 466/466/466 400/400/400 469/469/469
f 468/468/468 407/407/407 474/474/474
f 476/476/476 419/419/419 470/470/470
f 479/479/479 421/421/421 473/473/473
f 488/488/488 431/431/431 480/480/480
f 497/497/497 440/440/440 489/489/489
f 490/490/490 435/435/435 500/500/500
f 503/503/503 446/446/446 492/492/492
f 507/507/507 449/449/449 499/499/499
f 501/501/501 444/444/444 508/508/508
f 509/509/509 452/452/452 502/502/502
f 514/514/514 455/455/455 507/507/507
f 512/512/512 454/454/454 515/515/515
f 519/519/519 465/465/465 524/524/524
f 526/526/526 470/470/470 521/521/521
f 524/524/524 468/468/468 529/529/529
f 531/531/531 476/476/476 526/526/526
f 533/533/533 478/478/478 528/528/528
f 537/537/537 484/484/484 531/531/531
f 532/532/532 477/477/477 538/538/538
f 540/540/540 487/487/487 534/534/534
f 546/546/546 495/495/495 540/540/540
f 541/541/541 491/491/491 550/550/550
f 557/557/557 506/506/506 549/549/549
f 553/553/553 504/504/504 558/558/558
f 561/561/561 513/513/513 557/557/557
f 564/564/564 517/517/517 561/561/561
f 569/569/569 525/525/525 573/573/573
f 574/574/574 531/531/531 570/570/570
f 576/576/576 533/533/533 572/572/572
f 575/575/575 532/532/532 580/580/580
f 581/581/581 539/539/539 576/576/576
f 580/580/580 538/538/538 586/586/586
f 588/588/588 546/546/546 582/582/582
f 583/583/583 541/541/541 589/589/589
f 587/587/587 545/545/545 591/591/591
f 592/592/592 554/554/554 588/588/588
f 592/592/592 554/554/554 596/596/596
f 599/599/599 561/561/561 595/595/595
f 597/597/597 560/560/560 600/600/600
f 603/603/603 565/565/565 605/605/605
f 170/170/170 165/165/165 169/169/169
f 274/274/274 271/271/271 275/275/275
f 279/279/279 277/277/277 280/280/280
f 313/313/313 306/306/306 312/312/312
f 320/320/320 316/316/316 319/319/319
f 329/329/329 324/324/324 328/328/328
f 333/333/333 331/331/331 334/334/334
f 352/352/352 344/344/344 351/351/351
f 353/353/353 345/345/345 352/352/352
f 354/354/354 346/346/346 353/353/353
f 365/365/365 353/353/353 364/364/364
f 368/368/368 356/356/356 367/367/367
f 369/369/369 357/357/357 368/368/368
f 373/373/373 366/366/366 372/372/372
f 374/374/374 367/367/367 373/373/373
f 378/378/378 372/372/372 377/377/377
f 408/408/408 401/401/401 409/409/409
f 423/423/423 413/413/413 422/422/422
f 424/424/424 414/414/414 423/423/423
f 427/427/427 417/417/417 426/426/426
f 433/433/433 423/423/423 432/432/432
f 435/435/435 425/425/425 434/434/434
f 456/456/456 449/449/449 455/455/455
f 458/458/458 451/451/451 457/457/457
f 463/463/463 455/455/455 462/462/462
f 464/464/464 456/456/456 463/463/463
f 483/483/483 474/474/474 482/482/482
f 491/491/491 481/481/481 490/490/490
f 493/493/493 486/486/486 494/494/494
f 509/509/509 501/501/501 508/508/508
f 510/510/510 505/505/505 511/511/511
f 518/518/518 513/513/513 517/517/517
f 525/525/525 519/519/519 524/524/524
f 526/526/526 520/520/520 525/525/525
f 527/527/527 523/523/523 528/528/528
f 552/552/552 542/542/542 551/551/551
f 555/555/555 546/546/546 554/554/554
f 556/556/556 547/547/547 555/555/555
f 559/559/559 553/553/553 558/558/558
f 572/572/572 567/567/567 571/571/571
f 574/574/574 569/569/569 573/573/573
f 584/584/584 577/577/577 583/583/583
f 585/585/585 578/578/578 584/584/584
f 602/602/602 598/598/598 601/601/601
f 606/606/606 603/603/603 605/605/605
f 38/38/38 1/1/1 37/37/37
f 40/40/40 3/3/3 39/39/39
f 41/41/41 4/4/4 40/40/40
f 43/43/43 6/6/6 42/42/42
f 60/60/60 25/25/25 61/61/61
f 62/62/62 27/27/27 63/63/63
f 64/64/64 29/29/29 65/65/65
f 66/66/66 31/31/31 67/67/67
f 68/68/68 33/33/33 69/69/69
f 71/71/71 36/36/36 72/72/72
f 75/75/75 38/38/38 74/74/74
f 76/76/76 39/39/39 75/75/75
f 77/77/77 40/40/40 76/76/76
f 83/83/83 46/46/46 82/82/82
f 94/94/94 59/59/59 95/95/95
f 96/96/96 61/61/61 97/97/97
f 98/98/98 63/63/63 99/99/99
f 100/100/100 65/65/65 101/101/101
f 102/102/102 67/67/67 103/103/103
f 104/104/104 69/69/69 105/105/105
f 111/111/111 74/74/74 110/110/110
f 113/113/113 76/76/76 112/112/112
f 114/114/114 77/77/77 113/113/113
f 115/115/115 78/78/78 114/114/114
f 116/116/116 79/79/79 115/115/115
f 117/117/117 80/80/80 116/116/116
f 119/119/119 82/82/82 118/118/118
f 132/132/132 97/97/97 133/133/133
f 139/139/139 104/104/104 140/140/140
f 140/140/140 105/105/105 141/141/141
f 146/146/146 109/109/109 145/145/145
f 147/147/147 110/110/110 146/146/146
f 148/148/148 111/111/111 147/147/147
f 149/149/149 112/112/112 148/148/148
f 150/150/150 113/113/113 149/149/149
f 151/151/151 114/114/114 150/150/150
f 153/153/153 116/116/116 152/152/152
f 173/173/173 137/137/137 174/174/174
f 176/176/176 140/140/140 177/177/177
f 177/177/177 141/141/141 178/178/178
f 180/180/180 144/144/144 181/181/181
f 183/183/183 145/145/145 182/182/182
f 184/184/184 146/146/146 183/183/183
f 186/186/186 148/148/148 185/185/185
f 190/190/190 152/152/152 189/189/189
f 194/194/194 156/156/156 193/193/193
f 211/211/211 174/174/174 212/212/212
f 213/213/213 176/176/176 214/214/214
f 215/215/215 178/178/178 216/216/216
f 218/218/218 181/181/181 219/219/219
f 221/221/221 182/182/182 220/220/220
f 222/222/222 183/183/183 221/221/221
f 224/224/224 185/185/185 223/223/223
f 225/225/225 186/186/186 224/224/224
f 226/226/226 187/187/187 225/225/225
f 227/227/227 188/188/188 226/226/226
f 228/228/228 189/189/189 227/227/227
f 242/242/242 205/205/205 243/243/243
f 244/244/244 207/207/207 245/245/245
f 248/248/248 210/210/210 249/249/249
f 250/250/250 212/212/212 251/251/251
f 252/252/252 214/214/214 253/253/253
f 260/260/260 220/220/220 259/259/259
f 262/262/262 222/222/222 261/261/261
f 269/269/269 229/229/229 268/268/268
f 282/282/282 241/241/241 283/283/283
f 284/284/284 243/243/243 285/285/285
f 286/286/286 246/246/246 287/287/287
f 293/293/293 253/253/253 294/294/294
f 296/296/296 256/256/256 297/297/297
f 302/302/302 260/260/260 301/301/301
f 304/304/304 262/262/262 303/303/303
f 306/306/306 264/264/264 305/305/305
f 308/308/308 266/266/266 307/307/307
f 315/315/315 270/270/270 314/314/314
f 334/334/334 290/290/290 335/335/335
f 338/338/338 295/295/295 339/339/339
f 340/340/340 297/297/297 341/341/341
f 341/341/341 298/298/298 342/342/342
f 346/346/346 301/301/301 345/345/345
f 349/349/349 304/304/304 348/348/348
f 357/357/357 311/311/311 356/356/356
f 359/359/359 313/313/313 358/358/358
f 387/387/387 334/334/334 388/388/388
f 388/388/388 335/335/335 389/389/389
f 390/390/390 337/337/337 391/391/391
f 392/392/392 339/339/339 393/393/393
f 393/393/393 340/340/340 394/394/394
f 395/395/395 342/342/342 396/396/396
f 399/399/399 347/347/347 398/398/398
f 403/403/403 350/350/350 402/402/402
f 406/406/406 355/355/355 405/405/405
f 408/408/408 358/358/358 407/407/407
f 412/412/412 362/362/362 411/411/411
f 413/413/413 363/363/363 412/412/412
f 418/418/418 368/368/368 417/417/417
f 434/434/434 377/377/377 433/433/433
f 436/436/436 380/380/380 437/437/437
f 438/438/438 382/382/382 439/439/439
f 447/447/447 385/385/385 448/448/448
f 453/453/453 389/389/389 454/454/454
f 461/461/461 395/395/395 462/462/462
f 462/462/462 396/396/396 463/463/463
f 467/467/467 400/400/400 466/466/466
f 469/469/469 407/407/407 468/468/468
f 472/472/472 410/410/410 471/471/471
f 473/473/473 411/411/411 472/472/472
f 480/480/480 421/421/421 479/479/479
f 489/489/489 431/431/431 488/488/488
f 498/498/498 440/440/440 497/497/497
f 499/499/499 441/441/441 498/498/498
f 500/500/500 444/444/444 501/501/501
f 516/516/516 461/461/461 517/517/517
f 520/520/520 465/465/465 519/519/519
f 521/521/521 466/466/466 520/520/520
f 528/528/528 471/471/471 527/527/527
f 529/529/529 475/475/475 530/530/530
f 534/534/534 478/478/478 533/533/533
f 547/547/547 495/495/495 546/546/546
f 548/548/548 496/496/496 547/547/547
f 549/549/549 497/497/497 548/548/548
f 550/550/550 502/502/502 551/551/551
f 558/558/558 511/511/511 559/559/559
f 559/559/559 512/512/512 560/560/560
f 563/563/563 517/517/517 564/564/564
f 570/570/570 525/525/525 569/569/569
f 573/573/573 531/531/531 574/574/574
f 579/579/579 536/536/536 578/578/578
f 582/582/582 539/539/539 581/581/581
f 586/586/586 545/545/545 587/587/587
f 591/591/591 554/554/554 592/592/592
f 593/593/593 554/554/554 592/592/592
f 594/594/594 555/555/555 593/593/593
f 596/596/596 560/560/560 597/597/597
f 600/600/600 563/563/563 601/601/601
f 605/605/605 568/568/568 606/606/606
f 51/51/51 13/13/13 49/49/49
f 53/53/53 15/15/15 51/51/51
f 52/52/52 18/18/18 54/54/54
f 54/54/54 20/20/20 56/56/56
f 56/56/56 22/22/22 58/58/58
f 65/65/65 24/24/24 60/60/60
f 63/63/63 30/30/30 66/66/66
f 72/72/72 28/28/28 64/64/64
f 73/73/73 47/47/47 83/83/83
f 82/82/82 50/50/50 86/86/86
f 87/87/87 49/49/49 85/85/85
f 89/89/89 51/51/51 87/87/87
f 90/90/90 56/56/56 92/92/92
f 92/92/92 58/58/58 94/94/94
f 97/97/97 57/57/57 93/93/93
f 101/101/101 60/60/60 96/96/96
f 99/99/99 66/66/66 102/102/102
f 108/108/108 64/64/64 100/100/100
f 109/109/109 83/83/83 119/119/119
f 118/118/118 86/86/86 122/122/122
f 125/125/125 87/87/87 123/123/123
f 124/124/124 90/90/90 126/126/126
f 133/133/133 93/93/93 129/129/129
f 137/137/137 96/96/96 132/132/132
f 144/144/144 100/100/100 136/136/136
f 158/158/158 124/124/124 160/160/160
f 160/160/160 126/126/126 162/162/162
f 170/170/170 129/129/129 166/166/166
f 174/174/174 132/132/132 169/169/169
f 181/181/181 136/136/136 173/173/173
f 195/195/195 160/160/160 198/198/198
f 198/198/198 162/162/162 201/201/201
f 202/202/202 161/161/161 200/200/200
f 205/205/205 163/163/163 202/202/202
f 208/208/208 165/165/165 204/204/204
f 207/207/207 171/171/171 209/209/209
f 212/212/212 169/169/169 208/208/208
f 219/219/219 173/173/173 211/211/211
f 220/220/220 192/192/192 230/230/230
f 231/231/231 190/190/190 228/228/228
f 229/229/229 195/195/195 232/232/232
f 232/232/232 198/198/198 235/235/235
f 236/236/236 196/196/196 233/233/233
f 238/238/238 203/203/203 240/240/240
f 243/243/243 202/202/202 239/239/239
f 247/247/247 204/204/204 242/242/242
f 251/251/251 208/208/208 247/247/247
f 259/259/259 230/230/230 269/269/269
f 270/270/270 228/228/228 267/267/267
f 274/274/274 231/231/231 270/270/270
f 278/278/278 234/234/234 275/275/275
f 277/277/277 238/238/238 280/280/280
f 299/299/299 250/250/250 291/291/291
f 314/314/314 267/267/267 308/308/308
f 318/318/318 271/271/271 315/315/315
f 325/325/325 278/278/278 321/321/321
f 323/323/323 282/282/282 326/326/326
f 329/329/329 281/281/281 325/325/325
f 327/327/327 286/286/286 330/330/330
f 332/332/332 284/284/284 328/328/328
f 331/331/331 289/289/289 334/334/334
f 343/343/343 291/291/291 336/336/336
f 344/344/344 310/310/310 351/351/351
f 370/370/370 315/315/315 360/360/360
f 376/376/376 326/326/326 381/381/381
f 383/383/383 324/324/324 379/379/379
f 391/391/391 332/332/332 386/386/386
f 389/389/389 338/338/338 392/392/392
f 398/398/398 354/354/354 404/404/404
f 402/402/402 361/361/361 410/410/410
f 404/404/404 365/365/365 414/414/414
f 407/407/407 369/369/369 418/418/418
f 419/419/419 360/360/360 409/409/409
f 424/424/424 366/366/366 415/415/415
f 417/417/417 374/374/374 426/426/426
f 420/420/420 376/376/376 429/429/429
f 425/425/425 378/378/378 434/434/434
f 458/458/458 386/386/386 452/452/452
f 454/454/454 392/392/392 459/459/459
f 464/464/464 390/390/390 457/457/457
f 470/470/470 401/401/401 467/467/467
f 471/471/471 420/420/420 477/477/477
f 474/474/474 427/427/427 482/482/482
f 484/484/484 419/419/419 476/476/476
f 477/477/477 429/429/429 485/485/485
f 481/481/481 435/435/435 490/490/490
f 492/492/492 428/428/428 484/484/484
f 486/486/486 439/439/439 494/494/494
f 494/494/494 447/447/447 504/504/504
f 505/505/505 453/453/453 511/511/511
f 518/518/518 455/455/455 514/514/514
f 527/527/527 477/477/477 532/532/532
f 530/530/530 483/483/483 536/536/536
f 535/535/535 491/491/491 541/541/541
f 543/543/543 484/484/484 537/537/537
f 538/538/538 493/493/493 544/544/544
f 552/552/552 492/492/492 543/543/543
f 545/545/545 504/504/504 553/553/553
f 560/560/560 515/515/515 562/562/562
f 567/567/567 527/527/527 571/571/571
f 572/572/572 523/523/523 568/568/568
f 571/571/571 532/532/532 575/575/575
f 577/577/577 541/541/541 583/583/583
f 585/585/585 537/537/537 579/579/579
f 590/590/590 542/542/542 584/584/584
f 602/602/602 561/561/561 599/599/599
f 606/606/606 566/566/566 604/604/604
f 170/170/170 166/166/166 165/165/165
f 274/274/274 270/270/270 271/271/271
f 279/279/279 276/276/276 277/277/277
f 313/313/313 307/307/307 306/306/306
f 320/320/320 317/317/317 316/316/316
f 329/329/329 325/325/325 324/324/324
f 333/333/333 330/330/330 331/331/331
f 352/352/352 345/345/345 344/344/344
f 353/353/353 346/346/346 345/345/345
f 354/354/354 347/347/347 346/346/346
f 365/365/365 354/354/354 353/353/353
f 368/368/368 357/357/357 356/356/356
f 369/369/369 358/358/358 357/357/357
f 373/373/373 367/367/367 366/366/366
f 374/374/374 368/368/368 367/367/367
f 378/378/378 373/373/373 372/372/372
f 408/408/408 400/400/400 401/401/401
f 423/423/423 414/414/414 413/413/413
f 424/424/424 415/415/415 414/414/414
f 427/427/427 418/418/418 417/417/417
f 433/433/433 424/424/424 423/423/423
f 435/435/435 426/426/426 425/425/425
f 456/456/456 450/450/450 449/449/449
f 458/458/458 452/452/452 451/451/451
f 463/463/463 456/456/456 455/455/455
f 464/464/464 457/457/457 456/456/456
f 483/483/483 475/475/475 474/474/474
f 491/491/491 482/482/482 481/481/481
f 493/493/493 485/485/485 486/486/486
f 509/509/509 502/502/502 501/501/501
f 510/510/510 504/504/504 505/505/505
f 518/518/518 514/514/514 513/513/513
f 525/525/525 520/520/520 519/519/519
f 526/526/526 521/521/521 520/520/520
f 527/527/527 522/522/522 523/523/523
f 552/552/552 543/543/543 542/542/542
f 555/555/555 547/547/547 546/546/546
f 556/556/556 548/548/548 547/547/547
f 559/559/559 554/554/554 553/553/553
f 572/572/572 568/568/568 567/567/567
f 574/574/574 570/570/570 569/569/569
f 584/584/584 578/578/578 577/577/577
f 585/585/585 579/579/579 578/578/578
f 602/602/602 599/599/599 598/598/598
f 606/606/606 604/604/604 603/603/603
f 38/38/38 2/2/2 1/1/1
f 40/40/40 4/4/4 3/3/3
f 41/41/41 5/5/5 4/4/4
f 43/43/43 7/7/7 6/6/6
f 60/60/60 24/24/24 25/25/25
f 62/62/62 26/26/26 27/27/27
f 64/64/64 28/28/28 29/29/29
f 66/66/66 30/30/30 31/31/31
f 68/68/68 32/32/32 33/33/33
f 71/71/71 35/35/35 36/36/36
f 75/75/75 39/39/39 38/38/38
f 76/76/76 40/40/40 39/39/39
f 77/77/77 41/41/41 40/40/40
f 83/83/83 47/47/47 46/46/46
f 94/94/94 58/58/58 59/59/59
f 96/96/96 60/60/60 61/61/61
f 98/98/98 62/62/62 63/63/63
f 100/100/100 64/64/64 65/65/65
f 102/102/102 66/66/66 67/67/67
f 104/104/104 68/68/68 69/69/69
f 111/111/111 75/75/75 74/74/74
f 113/113/113 77/77/77 76/76/76
f 114/114/114 78/78/78 77/77/77
f 115/115/115 79/79/79 78/78/78
f 116/116/116 80/80/80 79/79/79
f 117/117/117 81/81/81 80/80/80
f 119/119/119 83/83/83 82/82/82
f 132/132/132 96/96/96 97/97/97
f 139/139/139 103/103/103 104/104/104
f 140/140/140 104/104/104 105/105/105
f 146/146/146 110/110/110 109/109/109
f 147/147/147 111/111/111 110/110/110
f 148/148/148 112/112/112 111/111/111
f 149/149/149 113/113/113 112/112/112
f 150/150/150 114/114/114 113/113/113
f 151/151/151 115/115/115 114/114/114
f 153/153/153 117/117/117 116/116/116
f 173/173/173 136/136/136 137/137/137
f 176/176/176 139/139/139 140/140/140
f 177/177/177 140/140/140 141/141/141
f 180/180/180 143/143/143 144/144/144
f 183/183/183 146/146/146 145/145/145
f 184/184/184 147/147/147 146/146/146
f 186/186/186 149/149/149 148/148/148
f 190/190/190 153/153/153 152/152/152
f 194/194/194 157/157/157 156/156/156
f 211/211/211 173/173/173 174/174/174
f 213/213/213 175/175/175 176/176/176
f 215/215/215 177/177/177 178/178/178
f 218/218/218 180/180/180 181/181/181
f 221/221/221 183/183/183 182/182/182
f 222/222/222 184/184/184 183/183/183
f 224/224/224 186/186/186 185/185/185
f 225/225/225 187/187/187 186/186/186
f 226/226/226 188/188/188 187/187/187
f 227/227/227 189/189/189 188/188/188
f 228/228/228 190/190/190 189/189/189
f 242/242/242 204/204/204 205/205/205
f 244/244/244 206/206/206 207/207/207
f 248/248/248 209/209/209 210/210/210
f 250/250/250 211/211/211 212/212/212
f 252/252/252 213/213/213 214/214/214
f 260/260/260 221/221/221 220/220/220
f 262/262/262 223/223/223 222/222/222
f 269/269/269 230/230/230 229/229/229
f 282/282/282 240/240/240 241/241/241
f 284/284/284 242/242/242 243/243/243
f 286/286/286 245/245/245 246/246/246
f 293/293/293 252/252/252 253/253/253
f 296/296/296 255/255/255 256/256/256
f 302/302/302 261/261/261 260/260/260
f 304/304/304 263/263/263 262/262/262
f 306/306/306 265/265/265 264/264/264
f 308/308/308 267/267/267 266/266/266
f 315/315/315 271/271/271 270/270/270
f 334/334/334 289/289/289 290/290/290
f 338/338/338 294/294/294 295/295/295
f 340/340/340 296/296/296 297/297/297
f 341/341/341 297/297/297 298/298/298
f 346/346/346 302/302/302 301/301/301
f 349/349/349 305/305/305 304/304/304
f 357/357/357 312/312/312 311/311/311
f 359/359/359 314/314/314 313/313/313
f 387/387/387 333/333/333 334/334/334
f 388/388/388 334/334/334 335/335/335
f 390/390/390 336/336/336 337/337/337
f 392/392/392 338/338/338 339/339/339
f 393/393/393 339/339/339 340/340/340
f 395/395/395 341/341/341 342/342/342
f 399/399/399 348/348/348 347/347/347
f 403/403/403 351/351/351 350/350/350
f 406/406/406 356/356/356 355/355/355
f 408/408/408 359/359/359 358/358/358
f 412/412/412 363/363/363 362/362/362
f 413/413/413 364/364/364 363/363/363
f 418/418/418 369/369/369 368/368/368
f 434/434/434 378/378/378 377/377/377
f 436/436/436 379/379/379 380/380/380
f 438/438/438 381/381/381 382/382/382
f 447/447/447 384/384/384 385/385/385
f 453/453/453 388/388/388 389/389/389
f 461/461/461 394/394/394 395/395/395
f 462/462/462 395/395/395 396/396/396
f 467/467/467 401/401/401 400/400/400
f 469/469/469 408/408/408 407/407/407
f 472/472/472 411/411/411 410/410/410
f 473/473/473 412/412/412 411/411/411
f 480/480/480 422/422/422 421/421/421
f 489/489/489 432/432/432 431/431/431
f 498/498/498 441/441/441 440/440/440
f 499/499/499 442/442/442 441/441/441
f 500/500/500 443/443/443 444/444/444
f 516/516/516 460/460/460 461/461/461
f 520/520/520 466/466/466 465/465/465
f 521/521/521 467/467/467 466/466/466
f 528/528/528 472/472/472 471/471/471
f 529/529/529 474/474/474 475/475/475
f 534/534/534 479/479/479 478/478/478
f 547/547/547 496/496/496 495/495/495
f 548/548/548 497/497/497 496/496/496
f 549/549/549 498/498/498 497/497/497
f 550/550/550 501/501/501 502/502/502
f 558/558/558 510/510/510 511/511/511
f 559/559/559 511/511/511 512/512/512
f 563/563/563 516/516/516 517/517/517
f 570/570/570 526/526/526 525/525/525
f 573/573/573 530/530/530 531/531/531
f 579/579/579 537/537/537 536/536/536
f 582/582/582 540/540/540 539/539/539
f 586/586/586 544/544/544 545/545/545
f 591/591/591 553/553/553 554/554/554
f 593/593/593 555/555/555 554/554/554
f 594/594/594 556/556/556 555/555/555
f 596/596/596 559/559/559 560/560/560
f 600/600/600 562/562/562 563/563/563
f 605/605/605 567/567/567 568/568/568
f 51/51/51 15/15/15 13/13/13
f 53/53/53 17/17/17 15/15/15
f 52/52/52 16/16/16 18/18/18
f 54/54/54 18/18/18 20/20/20
f 56/56/56 20/20/20 22/22/22
f 65/65/65 29/29/29 24/24/24
f 63/63/63 27/27/27 30/30/30
f 72/72/72 36/36/36 28/28/28
f 73/73/73 37/37/37 47/47/47
f 82/82/82 46/46/46 50/50/50
f 87/87/87 51/51/51 49/49/49
f 89/89/89 53/53/53 51/51/51
f 90/90/90 54/54/54 56/56/56
f 92/92/92 56/56/56 58/58/58
f 97/97/97 61/61/61 57/57/57
f 101/101/101 65/65/65 60/60/60
f 99/99/99 63/63/63 66/66/66
f 108/108/108 72/72/72 64/64/64
f 109/109/109 73/73/73 83/83/83
f 118/118/118 82/82/82 86/86/86
f 125/125/125 89/89/89 87/87/87
f 124/124/124 88/88/88 90/90/90
f 133/133/133 97/97/97 93/93/93
f 137/137/137 101/101/101 96/96/96
f 144/144/144 108/108/108 100/100/100
f 158/158/158 122/122/122 124/124/124
f 160/160/160 124/124/124 126/126/126
f 170/170/170 133/133/133 129/129/129
f 174/174/174 137/137/137 132/132/132
f 181/181/181 144/144/144 136/136/136
f 195/195/195 158/158/158 160/160/160
f 198/198/198 160/160/160 162/162/162
f 202/202/202 163/163/163 161/161/161
f 205/205/205 166/166/166 163/163/163
f 208/208/208 169/169/169 165/165/165
f 207/207/207 168/168/168 171/171/171
f 212/212/212 174/174/174 169/169/169
f 219/219/219 181/181/181 173/173/173
f 220/220/220 182/182/182 192/192/192
f 231/231/231 193/193/193 190/190/190
f 229/229/229 191/191/191 195/195/195
f 232/232/232 195/195/195 198/198/198
f 236/236/236 199/199/199 196/196/196
f 238/238/238 201/201/201 203/203/203
f 243/243/243 205/205/205 202/202/202
f 247/247/247 208/208/208 204/204/204
f 251/251/251 212/212/212 208/208/208
f 259/259/259 220/220/220 230/230/230
f 270/270/270 231/231/231 228/228/228
f 274/274/274 233/233/233 231/231/231
f 278/278/278 237/237/237 234/234/234
f 277/277/277 235/235/235 238/238/238
f 299/299/299 258/258/258 250/250/250
f 314/314/314 270/270/270 267/267/267
f 318/318/318 275/275/275 271/271/271
f 325/325/325 281/281/281 278/278/278
f 323/323/323 280/280/280 282/282/282
f 329/329/329 285/285/285 281/281/281
f 327/327/327 283/283/283 286/286/286
f 332/332/332 288/288/288 284/284/284
f 331/331/331 287/287/287 289/289/289
f 343/343/343 299/299/299 291/291/291
f 344/344/344 300/300/300 310/310/310
f 370/370/370 318/318/318 315/315/315
f 376/376/376 323/323/323 326/326/326
f 383/383/383 328/328/328 324/324/324
f 391/391/391 337/337/337 332/332/332
f 389/389/389 335/335/335 338/338/338
f 398/398/398 347/347/347 354/354/354
f 402/402/402 350/350/350 361/361/361
f 404/404/404 354/354/354 365/365/365
f 407/407/407 358/358/358 369/369/369
f 419/419/419 370/370/370 360/360/360
f 424/424/424 372/372/372 366/366/366
f 417/417/417 368/368/368 374/374/374
f 420/420/420 371/371/371 376/376/376
f 425/425/425 373/373/373 378/378/378
f 458/458/458 391/391/391 386/386/386
f 454/454/454 389/389/389 392/392/392
f 464/464/464 397/397/397 390/390/390
f 470/470/470 409/409/409 401/401/401
f 471/471/471 410/410/410 420/420/420
f 474/474/474 418/418/418 427/427/427
f 484/484/484 428/428/428 419/419/419
f 477/477/477 420/420/420 429/429/429
f 481/481/481 426/426/426 435/435/435
f 492/492/492 437/437/437 428/428/428
f 486/486/486 430/430/430 439/439/439
f 494/494/494 439/439/439 447/447/447
f 505/505/505 448/448/448 453/453/453
f 518/518/518 462/462/462 455/455/455
f 527/527/527 471/471/471 477/477/477
f 530/530/530 475/475/475 483/483/483
f 535/535/535 482/482/482 491/491/491
f 543/543/543 492/492/492 484/484/484
f 538/538/538 485/485/485 493/493/493
f 552/552/552 503/503/503 492/492/492
f 545/545/545 494/494/494 504/504/504
f 560/560/560 512/512/512 515/515/515
f 567/567/567 522/522/522 527/527/527
f 572/572/572 528/528/528 523/523/523
f 571/571/571 527/527/527 532/532/532
f 577/577/577 535/535/535 541/541/541
f 585/585/585 543/543/543 537/537/537
f 590/590/590 551/551/551 542/542/542
f 602/602/602 564/564/564 561/561/561
f 606/606/606 568/568/568 566/566/566
