# Tunnel_Corner_Collision - generated by tools/gen_cave_kit.py, do not edit
o Tunnel_Corner_Collision
v 4.000000 0.101318 -1.934672
v 4.000000 -0.069438 -1.505445
v 4.000000 -0.099328 -0.999929
v 4.000000 -0.091209 -0.499980
v 4.000000 -0.087622 0.000000
v 4.000000 -0.091209 0.499980
v 4.000000 -0.099328 0.999929
v 4.000000 -0.069438 1.505445
v 4.000000 0.101318 1.934672
v 4.000000 0.607997 -2.336538
v 4.000000 0.342985 -2.192959
v 4.000000 0.342985 2.192959
v 4.000000 0.607997 2.336538
v 4.000000 0.998976 -2.451794
v 4.000000 0.998976 2.451794
v 4.000000 1.500235 -2.504796
v 4.000000 1.500235 2.504796
v 4.000000 1.999903 -2.493615
v 4.000000 1.999903 2.493615
v 4.000000 2.501784 -2.427373
v 4.000000 2.501784 2.427373
v 4.000000 2.882664 -2.326525
v 4.000000 3.140114 -2.193808
v 4.000000 3.140114 2.193808
v 4.000000 2.882664 2.326525
v 4.000000 3.421503 -1.938023
v 4.000000 3.662922 -1.582112
v 4.000000 3.662922 1.582112
v 4.000000 3.421503 1.938023
v 4.000000 3.789063 -1.327630
v 4.000000 3.918724 -1.002389
v 4.000000 4.050795 -0.501186
v 4.000000 4.094719 0.000000
v 4.000000 4.050795 0.501186
v 4.000000 3.918724 1.002389
v 4.000000 3.789063 1.327630
v 3.499994 0.097955 -1.929535
v 3.499998 -0.069254 -1.506397
v 3.500000 -0.099328 -0.999924
v 3.500000 -0.091209 -0.499985
v 3.500000 -0.087622 0.000000
v 3.500000 -0.091209 0.499975
v 3.500000 -0.099328 0.999932
v 3.500002 -0.069782 1.503661
v 3.500003 0.116164 1.956616
v 3.499993 0.619572 -2.341279
v 3.499989 0.349175 -2.197553
v 3.499983 0.328211 2.181683
v 3.499968 0.577817 2.323774
v 3.499995 0.995868 -2.451212
v 3.499932 1.013421 2.454435
v 3.499996 1.499148 -2.504734
v 3.499916 1.505094 2.505074
v 3.499996 2.001721 -2.493442
v 3.499920 1.992326 2.494329
v 3.499993 2.504905 -2.426809
v 3.499939 2.488207 2.429796
v 3.499992 2.869135 -2.331631
v 3.499990 3.131661 -2.199464
v 3.499977 3.161755 2.178845
v 3.499972 2.918219 2.312364
v 3.499994 3.423474 -1.935717
v 3.499997 3.665955 -1.576582
v 3.499996 3.656968 1.592887
v 3.499995 3.411443 1.949668
v 3.499999 3.792325 -1.320350
v 3.499998 3.917804 -1.005031
v 3.499999 4.050677 -0.501859
v 3.500000 4.094719 -0.000000
v 3.500000 4.051006 0.499988
v 3.499999 3.920220 0.998081
v 3.499996 3.781970 1.343327
v 2.996682 0.128265 -1.887285
v 2.998251 -0.047896 -1.508795
v 2.999987 -0.101067 -0.999908
v 3.000013 -0.093587 -0.499971
v 3.000015 -0.089726 0.000010
v 3.000001 -0.090279 0.499993
v 2.999972 -0.095592 0.999959
v 3.000493 -0.093670 1.501496
v 3.053408 0.050058 2.065818
v 2.911858 0.175661 2.361840
v 2.996889 0.691254 -2.294621
v 2.991009 0.420184 -2.161366
v 3.242534 0.254067 2.245886
v 3.044931 0.440713 2.539209
v 2.829158 0.650622 2.828984
v 2.996082 0.997208 -2.371439
v 3.150615 0.996211 2.691728
v 2.889792 0.999851 2.890027
v 2.998697 1.499673 -2.416848
v 3.189565 1.499141 2.719662
v 2.906876 1.501082 2.908013
v 2.999611 2.000191 -2.405151
v 3.181761 2.001517 2.715324
v 2.905539 1.999089 2.905828
v 2.954704 2.544943 -2.329746
v 2.760757 2.738526 -2.249113
v 3.128806 2.505104 2.682861
v 2.870408 2.501772 2.870606
v 3.093160 2.812038 -2.286164
v 2.950796 3.003758 -2.189351
v 3.240705 3.244048 2.246773
v 3.034326 3.049021 2.534244
v 2.810457 2.827981 2.811313
v 2.997959 3.387988 -1.894531
v 2.959243 3.661318 -1.479050
v 2.767509 3.747512 -1.244722
v 3.002058 3.723386 1.679875
v 3.053330 3.495468 2.071163
v 2.908839 3.327331 2.354135
v 3.100816 3.767644 -1.286339
v 2.959660 3.853942 -1.049618
v 2.999757 4.034934 -0.502148
v 3.000369 4.108600 -0.000527
v 3.000592 4.085533 0.500994
v 3.000663 3.980200 1.001483
v 3.000911 3.831673 1.427015
v 2.496579 0.172567 -1.828334
v 2.496255 -0.008778 -1.513714
v 2.499822 -0.096288 -1.000573
v 2.499970 -0.092638 -0.499956
v 2.499979 -0.087992 0.000009
v 2.499991 -0.087954 0.500005
v 2.499998 -0.092174 0.999984
v 2.500025 -0.098430 1.500014
v 2.502873 -0.066953 2.003592
v 2.523506 0.086311 2.523892
v 2.362419 0.174091 2.911310
v 2.746321 0.748079 -2.251207
v 2.541248 0.537169 -2.101070
v 2.697874 0.309271 2.697902
v 2.538986 0.440940 3.045156
v 2.323967 0.578264 3.499968
v 2.336538 0.607997 4.000000
v 2.670883 0.998304 -2.285123
v 2.421312 0.998213 -2.220629
v 2.693607 0.995856 3.152653
v 2.454430 1.013391 3.499933
v 2.451794 0.998976 4.000000
v 2.494776 1.539961 -2.278616
v 2.322410 1.398039 -2.222405
v 2.718768 1.499040 3.188897
v 2.505075 1.505104 3.499916
v 2.504796 1.500235 4.000000
v 2.449741 2.028920 -2.315737
v 2.253011 2.214725 -2.256381
v 2.716280 2.001828 3.182529
v 2.494330 1.992314 3.499920
v 2.493615 1.999903 4.000000
v 2.587451 2.405343 -2.280807
v 2.451739 2.544089 -2.219173
v 2.681274 2.504831 3.127237
v 2.429791 2.488232 3.499939
v 2.427373 2.501784 4.000000
v 2.488223 3.019968 -2.062132
v 2.682310 3.160800 2.683615
v 2.530840 3.046700 3.030960
v 2.312628 2.917582 3.499972
v 2.326525 2.882664 4.000000
v 2.497496 3.327716 -1.827924
v 2.495882 3.595363 -1.520399
v 2.499986 3.741577 -1.231495
v 2.720198 3.741538 1.733959
v 2.530881 3.646004 1.986496
v 2.503061 3.394743 2.504252
v 2.348464 3.320566 2.904562
v 2.500015 3.839228 -0.982689
v 2.499657 3.995824 -0.500720
v 2.499853 4.101479 -0.001489
v 2.500393 4.117389 0.500560
v 2.500870 4.044917 1.002732
v 2.533144 3.862802 1.542636
v 2.384528 3.770644 1.818383
v 2.138265 0.220776 -1.776268
v 1.977115 0.094579 -1.554638
v 1.999072 -0.080685 -1.002069
v 2.000081 -0.093302 -0.499921
v 1.999996 -0.086163 -0.000029
v 1.999897 -0.086028 0.500061
v 1.999898 -0.085344 0.999953
v 1.999594 -0.094879 1.499995
v 1.999686 -0.093669 2.000021
v 2.004305 -0.070171 2.503576
v 2.065449 0.049421 3.052977
v 1.956237 0.115900 3.500003
v 1.934672 0.101318 4.000000
v 1.978615 0.436450 -1.931898
v 1.805825 0.266900 -1.729004
v 2.245462 0.254590 3.241702
v 2.181769 0.328322 3.499983
v 2.192959 0.342985 4.000000
v 1.999975 0.999995 -2.120626
v 2.233058 1.730667 -2.251662
v 2.049012 1.546180 -2.160871
v 2.228165 1.876702 -2.276530
v 2.034688 2.029616 -2.243801
v 2.002704 2.496553 -2.081826
v 1.976216 3.038499 -1.870276
v 1.798716 3.225553 -1.746811
v 2.246367 3.243452 3.239129
v 2.178998 3.161539 3.499978
v 2.193808 3.140114 4.000000
v 2.134787 3.275358 -1.773895
v 1.977650 3.468241 -1.564113
v 1.998712 3.725591 -1.187047
v 2.146692 3.691710 2.153128
v 1.998408 3.672057 2.547689
v 2.062944 3.487033 3.048207
v 1.949676 3.411436 3.499996
v 1.938023 3.421503 4.000000
v 1.998517 3.829883 -0.936409
v 2.000215 3.967453 -0.503526
v 2.001002 4.107363 -0.003951
v 2.003139 4.162220 0.501862
v 2.000777 4.100000 1.000602
v 2.005046 3.998086 1.503684
v 1.987714 3.822178 1.990263
v 1.822014 3.784060 2.408148
v 1.498423 0.123339 -1.458672
v 1.498008 -0.053787 -1.005954
v 1.500081 -0.107033 -0.499770
v 1.500030 -0.090661 0.000043
v 1.500027 -0.072875 0.499902
v 1.499997 -0.069524 1.000002
v 1.500164 -0.064276 1.499976
v 1.500058 -0.072564 2.000054
v 1.499779 -0.092415 2.499732
v 1.501410 -0.092935 3.000417
v 1.503666 -0.069781 3.500002
v 1.505445 -0.069438 4.000000
v 1.501796 0.497276 -1.967502
v 1.502328 0.252398 -1.719714
v 1.505062 0.999208 -2.114953
v 1.503149 1.495570 -2.157159
v 1.480828 2.016521 -2.173413
v 1.481006 2.540752 -1.924656
v 1.308137 2.702964 -1.728489
v 1.648423 2.888609 -1.796834
v 1.484123 3.035810 -1.633368
v 1.463548 3.384220 -1.401131
v 1.462389 3.660941 -1.105221
v 1.746142 3.748781 2.741208
v 1.682161 3.715483 3.000020
v 1.592434 3.657220 3.499996
v 1.582112 3.662922 4.000000
v 1.494479 3.798615 -0.830164
v 1.496747 3.912844 -0.509464
v 1.496022 4.059684 -0.010850
v 1.496123 4.157100 0.496327
v 1.504215 4.179758 1.002940
v 1.500003 4.073057 1.500164
v 1.499952 3.966142 1.999722
v 1.552110 3.867163 2.546479
v 1.433187 3.825944 3.000440
v 1.342600 3.782301 3.499997
v 1.327630 3.789063 4.000000
v 0.994251 0.148474 -1.381333
v 0.996749 0.024119 -1.005318
v 0.998224 -0.091587 -0.502107
v 1.000072 -0.101001 0.000194
v 0.999907 -0.078609 0.499912
v 0.999995 -0.074315 1.000127
v 0.999999 -0.059576 1.499992
v 1.000010 -0.062403 2.000068
v 0.999955 -0.083012 2.499894
v 0.999943 -0.094300 2.999949
v 0.999929 -0.099328 3.500000
v 0.999929 -0.099328 4.000000
v 0.972192 0.611156 -1.880186
v 0.980513 0.354437 -1.657642
v 0.972778 0.999331 -1.999529
v 0.987993 1.497961 -2.006297
v 0.993372 1.985555 -1.887532
v 0.839085 2.124788 -1.689639
v 1.169803 2.357796 -1.804438
v 1.025908 2.503772 -1.581984
v 1.039758 2.967144 -1.334927
v 0.883623 3.133647 -1.204868
v 1.227093 3.266158 -1.259720
v 1.063497 3.483079 -0.977639
v 0.894422 3.672928 -0.497888
v 0.774356 3.737391 -0.219828
v 1.248281 3.750740 -0.751521
v 1.137497 3.794768 -0.501575
v 0.962443 3.866447 -0.035531
v 0.998922 4.033986 0.498957
v 0.995283 4.189666 0.997268
v 1.000269 4.121177 1.500581
v 0.997375 4.015935 1.996632
v 1.000855 4.013736 2.500008
v 1.003997 3.979785 3.001729
v 0.998294 3.920147 3.499999
v 1.002389 3.918724 4.000000
v 0.646807 0.215695 -1.291576
v 0.488126 0.136998 -1.029671
v 0.496225 -0.030397 -0.505845
v 0.498950 -0.114170 -0.001239
v 0.500010 -0.092933 0.500258
v 0.500011 -0.073110 1.000070
v 0.499994 -0.059341 1.500001
v 0.499981 -0.065539 2.000026
v 0.500002 -0.078916 2.499981
v 0.499993 -0.087216 2.999991
v 0.499972 -0.091209 3.500000
v 0.499980 -0.091209 4.000000
v 0.730135 0.736935 -1.759941
v 0.503283 0.516908 -1.485208
v 0.300682 0.300606 -1.239691
v 0.669375 0.998996 -1.794632
v 0.395013 0.990551 -1.652980
v 0.660760 1.506333 -1.831403
v 0.374481 1.510706 -1.704651
v 0.711299 1.795084 -1.768738
v 0.504298 1.992163 -1.619958
v 0.550818 2.439596 -1.311640
v 0.406446 2.579349 -1.126999
v 0.731842 2.786159 -1.264989
v 0.500091 3.003353 -1.002582
v 0.280345 3.216936 -0.724558
v 0.593402 3.372446 -0.870392
v 0.465650 3.457133 -0.536449
v 0.471651 3.704831 -0.038111
v 0.307046 3.720488 0.303220
v 0.626265 3.813598 0.106856
v 0.486314 3.854539 0.482953
v 0.496710 4.116294 0.985588
v 0.500930 4.149351 1.504182
v 0.500511 4.087810 1.999625
v 0.502207 4.096814 2.500787
v 0.501242 4.077416 3.000359
v 0.500093 4.050987 3.500000
v 0.501186 4.050795 4.000000
v 0.116353 0.133230 -0.887879
v -0.027292 0.116771 -0.517973
v -0.008928 -0.042056 -0.006703
v -0.000782 -0.089997 0.499650
v 0.000017 -0.080091 1.000077
v -0.000074 -0.073124 1.500013
v -0.000044 -0.076940 2.000009
v -0.000004 -0.083668 2.500003
v 0.000002 -0.086740 2.999999
v -0.000000 -0.087622 3.500000
v -0.000000 -0.087622 4.000000
v 0.200517 0.656035 -1.295973
v -0.040286 0.490512 -1.036907
v -0.220379 0.324244 -0.698783
v 0.095619 0.991080 -1.390286
v -0.170259 0.978581 -1.181957
v 0.109796 1.503804 -1.358243
v -0.192088 1.501484 -1.180441
v 0.122686 2.014904 -1.347381
v -0.116785 2.008433 -1.180350
v 0.245147 2.253768 -1.252957
v 0.023372 2.477193 -0.983271
v -0.195017 2.694281 -0.722829
v 0.145751 2.874458 -0.797989
v -0.052531 3.069295 -0.564544
v -0.223688 3.231774 -0.229232
v 0.099619 3.351399 -0.394731
v -0.046072 3.476264 -0.050280
v -0.042956 3.740287 0.468426
v -0.229487 3.746083 0.769283
v 0.105146 3.807515 0.631553
v -0.046652 3.940971 0.936088
v -0.012312 4.069982 1.504385
v -0.001195 4.063105 1.999640
v -0.001914 4.097633 2.499525
v -0.000500 4.108912 3.000447
v -0.000000 4.094719 3.500000
v -0.000000 4.094719 4.000000
v -0.326863 0.192375 -0.361079
v -0.497330 0.139480 0.011749
v -0.507324 -0.013900 0.494205
v -0.500402 -0.079647 0.998916
v -0.499662 -0.101583 1.499821
v -0.499753 -0.100201 2.000010
v -0.499874 -0.098875 2.500007
v -0.499944 -0.095372 3.000029
v -0.499988 -0.091209 3.500000
v -0.499980 -0.091209 4.000000
v -0.283606 0.677076 -0.786440
v -0.469488 0.497094 -0.512515
v -0.659404 0.301718 -0.147526
v -0.489539 1.001574 -0.915792
v -0.629530 0.861963 -0.681141
v -0.530761 1.498695 -1.093955
v -0.522421 1.995045 -0.918127
v -0.660115 2.129878 -0.688503
v -0.334351 2.364982 -0.824343
v -0.506196 2.523024 -0.617018
v -0.501433 2.881283 -0.361636
v -0.501510 3.133040 -0.157747
v -0.498531 3.365566 0.101166
v -0.497363 3.561142 0.501804
v -0.517028 3.683322 0.966008
v -0.699378 3.719872 1.388279
v -0.373562 3.820393 1.100755
v -0.515018 3.826033 1.535916
v -0.512378 3.944509 1.997333
v -0.503324 3.999489 2.498561
v -0.503509 4.043768 2.999841
v -0.501743 4.050697 3.499999
v -0.501186 4.050795 4.000000
v -0.818172 0.219852 0.194814
v -0.991287 0.149977 0.492295
v -1.005250 0.001863 0.997020
v -1.005354 -0.073247 1.496827
v -1.002012 -0.101983 1.999504
v -1.000421 -0.106267 2.500026
v -0.999934 -0.103614 3.000108
v -0.999927 -0.099328 3.500000
v -0.999929 -0.099328 4.000000
v -0.916667 0.638475 -0.364805
v -1.051605 0.439676 -0.047321
v -1.162217 0.280914 0.308304
v -0.822719 1.190691 -0.814435
v -1.025071 0.982136 -0.509547
v -1.243203 0.758610 -0.243837
v -0.877180 1.508220 -0.890116
v -1.152191 1.505681 -0.741772
v -0.805582 1.797451 -0.782520
v -0.985573 1.971917 -0.491755
v -1.201601 2.183518 -0.205161
v -0.865249 2.505516 -0.350948
v -1.126510 2.508353 -0.156864
v -0.769946 2.769919 -0.259938
v -1.010987 2.991879 -0.015720
v -1.158011 3.150313 0.356824
v -0.838915 3.323196 0.185462
v -0.996955 3.369093 0.513386
v -1.009479 3.549339 0.992304
v -0.959228 3.633420 1.532345
v -1.090007 3.671969 1.998522
v -1.203709 3.733567 2.498811
v -1.245509 3.747922 2.767062
v -0.760163 3.750606 1.722196
v -0.836535 3.781502 2.000883
v -0.953460 3.840835 2.498546
v -1.050543 3.857738 2.959569
v -1.004886 3.917854 3.499998
v -1.002389 3.918724 4.000000
v -1.335879 0.171789 0.641058
v -1.396300 0.114197 0.999985
v -1.530174 0.105674 1.524377
v -1.511803 0.038445 1.997454
v -1.512150 -0.019801 2.497034
v -1.508432 -0.051284 2.998851
v -1.506374 -0.069258 3.499998
v -1.505445 -0.069438 4.000000
v -1.416145 0.619494 0.073494
v -1.551591 0.458753 0.446904
v -1.669930 0.339870 0.997962
v -1.698082 0.306374 1.380321
v -1.359702 1.080705 -0.378742
v -1.548434 0.940235 -0.029937
v -1.742250 0.793382 0.267577
v -1.440322 1.505026 -0.446095
v -1.611618 1.499497 -0.076400
v -1.325644 1.856803 -0.349588
v -1.509743 2.018879 0.005906
v -1.731742 2.201493 0.288335
v -1.420399 2.511796 0.092836
v -1.686093 2.551972 0.450872
v -1.688616 2.674948 1.000107
v -1.724155 2.717492 1.312642
v -1.303945 2.825347 0.197975
v -1.363839 2.988171 0.518801
v -1.588947 3.005483 0.988272
v -1.632456 2.981527 1.490794
v -1.720400 3.188677 1.992902
v -1.747717 3.246959 2.256083
v -1.313552 3.306023 0.667033
v -1.434813 3.445383 0.978984
v -1.406021 3.380830 1.498901
v -1.467570 3.438844 1.994210
v -1.569923 3.490689 2.446311
v -1.478403 3.650502 2.958378
v -1.576808 3.665831 3.499997
v -1.582112 3.662922 4.000000
v -1.286450 3.767872 3.100397
v -1.320353 3.792323 3.499999
v -1.327630 3.789063 4.000000
v -1.762921 0.236498 1.718078
v -1.790533 0.210202 1.999434
v -1.847253 0.158425 2.497339
v -1.892612 0.127671 2.997683
v -1.929410 0.097873 3.499994
v -1.934672 0.101318 4.000000
v -1.841853 0.647984 0.597392
v -1.869294 0.605307 0.999523
v -1.857261 0.494460 1.534282
v -2.002896 0.486609 1.989074
v -2.156996 0.512602 2.496511
v -2.165384 0.403418 2.995990
v -2.197524 0.349136 3.499989
v -2.192959 0.342985 4.000000
v -1.792184 1.131204 0.198142
v -1.916257 0.969876 0.446513
v -2.136640 0.968341 0.984688
v -2.103528 1.009312 1.496153
v -2.203213 1.028712 2.018552
v -2.247240 0.881029 2.339282
v -1.849336 1.497135 0.145699
v -2.164573 1.526221 0.521747
v -2.244150 1.537682 0.992672
v -2.240892 1.500517 1.499823
v -2.257634 1.498780 1.890863
v -1.817789 1.866485 0.187953
v -2.066484 2.021354 0.454279
v -2.186512 1.976834 0.998777
v -2.100637 1.997366 1.499937
v -2.182464 1.991250 1.990055
v -2.237357 2.154887 2.325459
v -1.907687 2.400278 0.589979
v -1.915282 2.460621 1.000787
v -1.884523 2.545823 1.485095
v -1.994578 2.496100 2.002639
v -2.180300 2.511059 2.496342
v -2.235251 2.683188 2.815672
v -1.771748 2.809287 1.647955
v -1.866853 2.931644 1.989450
v -1.953358 3.063120 2.443656
v -2.171512 3.001203 2.981407
v -2.200178 3.130583 3.499990
v -2.193808 3.140114 4.000000
v -1.816394 3.315437 2.586538
v -1.883189 3.377968 2.996927
v -1.935406 3.423739 3.499994
v -1.938023 3.421503 4.000000
v -2.269549 0.722159 2.674503
v -2.296824 0.675833 2.999059
v -2.341311 0.619652 3.499993
v -2.336538 0.607997 4.000000
v -2.254567 1.217485 2.202661
v -2.307663 1.027995 2.501227
v -2.385578 0.998619 3.001070
v -2.451250 0.996071 3.499995
v -2.451794 0.998976 4.000000
v -2.257596 1.738477 0.739859
v -2.263462 1.738718 0.826541
v -2.263837 1.500371 2.141534
v -2.342327 1.499783 2.499515
v -2.433549 1.500095 3.000274
v -2.504741 1.499268 3.499997
v -2.504796 1.500235 4.000000
v -2.258532 1.756149 0.738767
v -2.263859 1.756579 0.826597
v -2.280313 1.817159 2.149456
v -2.338056 1.995274 2.491443
v -2.416273 2.000380 2.999591
v -2.493450 2.001633 3.499996
v -2.493615 1.999903 4.000000
v -2.287736 2.351619 2.661313
v -2.324329 2.510778 2.988478
v -2.426778 2.505073 3.499993
v -2.427373 2.501784 4.000000
v -2.283222 2.808705 3.148529
v -2.332229 2.867525 3.499991
v -2.326525 2.882664 4.000000
vt -0.990881 -0.496839
vt -1.006249 -0.367334
vt -1.008940 -0.237069
vt -1.008209 -0.113138
vt -1.007886 0.011391
vt -1.008209 0.136852
vt -1.008940 0.262895
vt -1.006249 0.385388
vt -0.990881 0.470497
vt -0.945280 -0.663174
vt -0.969131 -0.592828
vt -0.969131 0.503652
vt -0.945280 0.505095
vt -0.910092 -0.742815
vt -0.910092 0.483081
vt -0.864979 -0.821230
vt -0.864979 0.431168
vt -0.820009 -0.883391
vt -0.820009 0.363416
vt -0.774839 -0.932075
vt -0.774839 0.281611
vt -0.740560 -0.956378
vt -0.717390 -0.956667
vt -0.717390 0.140237
vt -0.740560 0.206885
vt -0.692065 -0.929301
vt -0.670337 -0.871708
vt -0.670337 -0.080652
vt -0.692065 0.039710
vt -0.658984 -0.824486
vt -0.647315 -0.760031
vt -0.635428 -0.651900
vt -0.631475 -0.532314
vt -0.635428 -0.401307
vt -0.647315 -0.258837
vt -0.658984 -0.160671
vt -0.866182 -0.495118
vt -0.881232 -0.367596
vt -0.883940 -0.237068
vt -0.883209 -0.113139
vt -0.882886 0.011391
vt -0.883209 0.136851
vt -0.883940 0.262896
vt -0.881281 0.384987
vt -0.864546 0.474053
vt -0.819237 -0.665864
vt -0.843572 -0.594781
vt -0.845457 0.502753
vt -0.822988 0.505827
vt -0.785371 -0.742266
vt -0.783775 0.481864
vt -0.740076 -0.821073
vt -0.739520 0.430606
vt -0.694844 -0.883584
vt -0.695671 0.364580
vt -0.649557 -0.932340
vt -0.651046 0.283982
vt -0.616776 -0.955895
vt -0.593148 -0.956982
vt -0.590436 0.133683
vt -0.612353 0.198723
vt -0.566886 -0.928981
vt -0.545063 -0.870720
vt -0.545872 -0.077184
vt -0.567969 0.043930
vt -0.533690 -0.823090
vt -0.522397 -0.760572
vt -0.510439 -0.652053
vt -0.506475 -0.532314
vt -0.510409 -0.401634
vt -0.522180 -0.260108
vt -0.534622 -0.155824
vt -0.737627 -0.488496
vt -0.753873 -0.370972
vt -0.759093 -0.236838
vt -0.758426 -0.112826
vt -0.758079 0.011667
vt -0.758125 0.136734
vt -0.758596 0.262417
vt -0.758554 0.387551
vt -0.758847 0.509947
vt -0.712155 0.567624
vt -0.687009 -0.663518
vt -0.709936 -0.594965
vt -0.787767 0.528443
vt -0.721569 0.577510
vt -0.648734 0.622665
vt -0.659272 -0.722497
vt -0.697995 0.543425
vt -0.632461 0.592526
vt -0.614704 -0.799170
vt -0.662468 0.485027
vt -0.591622 0.531863
vt -0.569886 -0.861313
vt -0.615304 0.418634
vt -0.546467 0.466575
vt -0.509631 -0.913279
vt -0.443722 -0.918287
vt -0.556742 0.345052
vt -0.492443 0.392421
vt -0.520207 -0.937106
vt -0.467361 -0.937826
vt -0.518212 0.139967
vt -0.484170 0.237188
vt -0.448096 0.335191
vt -0.444571 -0.914071
vt -0.410292 -0.845734
vt -0.354601 -0.798357
vt -0.415410 -0.064071
vt -0.448740 0.063380
vt -0.427750 0.155981
vt -0.436116 -0.811379
vt -0.393060 -0.763417
vt -0.386795 -0.650078
vt -0.380318 -0.534250
vt -0.382450 -0.405871
vt -0.391948 -0.267055
vt -0.405377 -0.141364
vt -0.608614 -0.479517
vt -0.624854 -0.377287
vt -0.633621 -0.237626
vt -0.633330 -0.112946
vt -0.632914 0.011441
vt -0.632914 0.136435
vt -0.633295 0.261979
vt -0.633865 0.387800
vt -0.631744 0.509602
vt -0.623109 0.619753
vt -0.574937 0.705196
vt -0.619253 -0.660052
vt -0.586967 -0.595099
vt -0.646634 0.634270
vt -0.595062 0.703967
vt -0.528948 0.799818
vt -0.529415 0.920960
vt -0.577873 -0.701060
vt -0.515489 -0.684925
vt -0.583775 0.658702
vt -0.522402 0.743242
vt -0.523041 0.870133
vt -0.485098 -0.769849
vt -0.454779 -0.737346
vt -0.544778 0.602349
vt -0.490809 0.679315
vt -0.491178 0.804969
vt -0.429832 -0.842694
vt -0.363927 -0.852009
vt -0.498905 0.535395
vt -0.444274 0.615979
vt -0.443412 0.740013
vt -0.430382 -0.882896
vt -0.383967 -0.885525
vt -0.444884 0.456181
vt -0.383507 0.551515
vt -0.381683 0.674768
vt -0.350259 -0.908129
vt -0.386106 0.260000
vt -0.358507 0.361669
vt -0.315575 0.495707
vt -0.322192 0.625254
vt -0.324880 -0.889584
vt -0.300388 -0.847497
vt -0.288255 -0.794279
vt -0.343311 -0.052910
vt -0.304580 0.022644
vt -0.320238 0.184746
vt -0.288265 0.294467
vt -0.279473 -0.744772
vt -0.265290 -0.644637
vt -0.255830 -0.533564
vt -0.254533 -0.410121
vt -0.261175 -0.275156
vt -0.285634 -0.116505
vt -0.256774 -0.035588
vt -0.514696 -0.472768
vt -0.485767 -0.400955
vt -0.507030 -0.240028
vt -0.508417 -0.112851
vt -0.507754 0.011194
vt -0.507717 0.136199
vt -0.507656 0.261083
vt -0.508438 0.387333
vt -0.508352 0.512182
vt -0.507392 0.635016
vt -0.511914 0.756819
vt -0.478628 0.859934
vt -0.474549 0.986829
vt -0.455373 -0.539713
vt -0.427435 -0.466948
vt -0.538452 0.777329
vt -0.515893 0.832314
vt -0.517371 0.955412
vt -0.409994 -0.660156
vt -0.402504 -0.787902
vt -0.373097 -0.741221
vt -0.388138 -0.813104
vt -0.326006 -0.824800
vt -0.275986 -0.845008
vt -0.220589 -0.862574
vt -0.159379 -0.856025
vt -0.269681 0.388134
vt -0.260211 0.463994
vt -0.265842 0.591785
vt -0.238915 -0.869270
vt -0.182271 -0.841900
vt -0.164375 -0.781089
vt -0.204419 0.058360
vt -0.169117 0.159555
vt -0.201903 0.308737
vt -0.180390 0.431512
vt -0.176570 0.555205
vt -0.154940 -0.731987
vt -0.142983 -0.641650
vt -0.130588 -0.534945
vt -0.126185 -0.415623
vt -0.131194 -0.282849
vt -0.141434 -0.143830
vt -0.152933 0.000683
vt -0.114938 0.110109
vt -0.363505 -0.380702
vt -0.379343 -0.244496
vt -0.384653 -0.111028
vt -0.383167 0.011797
vt -0.381565 0.134449
vt -0.381256 0.259039
vt -0.380826 0.383350
vt -0.381545 0.509447
vt -0.383262 0.636947
vt -0.383717 0.762186
vt -0.382197 0.884072
vt -0.382611 1.009027
vt -0.330694 -0.556521
vt -0.352866 -0.462740
vt -0.286337 -0.658635
vt -0.241186 -0.733714
vt -0.188720 -0.805501
vt -0.141584 -0.811462
vt -0.083767 -0.783507
vt -0.152131 -0.824728
vt -0.097808 -0.802997
vt -0.061307 -0.790231
vt -0.036112 -0.752227
vt -0.099145 0.197960
vt -0.086147 0.266992
vt -0.068959 0.399560
vt -0.065865 0.523820
vt -0.031744 -0.701361
vt -0.022031 -0.636036
vt -0.008634 -0.530471
vt 0.000108 -0.416341
vt 0.000124 -0.292634
vt -0.008426 -0.154456
vt -0.018035 -0.015668
vt -0.039983 0.133889
vt -0.013962 0.252737
vt 0.004757 0.383300
vt 0.009108 0.507422
vt -0.235200 -0.364635
vt -0.247016 -0.254465
vt -0.257799 -0.113621
vt -0.259108 0.013179
vt -0.257051 0.135197
vt -0.256687 0.259693
vt -0.255362 0.382743
vt -0.255619 0.508129
vt -0.257460 0.635765
vt -0.258473 0.762246
vt -0.258922 0.887913
vt -0.258922 1.012913
vt -0.188044 -0.549497
vt -0.213229 -0.460487
vt -0.153255 -0.629795
vt -0.112182 -0.696309
vt -0.069643 -0.730005
vt -0.018540 -0.698632
vt -0.080249 -0.757623
vt -0.031137 -0.720986
vt 0.007103 -0.719460
vt 0.061123 -0.708591
vt -0.012819 -0.739531
vt 0.047603 -0.697210
vt 0.106958 -0.601953
vt 0.142776 -0.540818
vt 0.025496 -0.675476
vt 0.057155 -0.618714
vt 0.107369 -0.511521
vt 0.113328 -0.399679
vt 0.128249 -0.295340
vt 0.120839 -0.160608
vt 0.112090 -0.022914
vt 0.111022 0.103216
vt 0.107181 0.233060
vt 0.103240 0.365381
vt 0.102088 0.490566
vt -0.142289 -0.350934
vt -0.109702 -0.275227
vt -0.126792 -0.122510
vt -0.135013 0.014532
vt -0.133367 0.137146
vt -0.131583 0.259522
vt -0.130339 0.382715
vt -0.130894 0.508527
vt -0.132103 0.635254
vt -0.132848 0.761336
vt -0.133202 0.886857
vt -0.133204 1.011857
vt -0.116209 -0.535787
vt -0.079299 -0.438500
vt -0.048116 -0.349002
vt -0.077434 -0.578527
vt -0.009604 -0.542017
vt -0.029620 -0.653674
vt 0.042343 -0.622555
vt -0.016267 -0.675545
vt 0.053220 -0.663971
vt 0.081859 -0.645057
vt 0.130530 -0.617065
vt 0.067794 -0.678448
vt 0.145279 -0.641081
vt 0.219438 -0.599341
vt 0.155170 -0.656016
vt 0.194729 -0.583540
vt 0.215522 -0.491156
vt 0.258082 -0.407858
vt 0.186658 -0.469054
vt 0.225330 -0.380352
vt 0.246289 -0.288721
vt 0.248209 -0.163370
vt 0.242775 -0.031509
vt 0.243161 0.092611
vt 0.241657 0.220026
vt 0.239566 0.348372
vt 0.239275 0.473397
vt -0.017098 -0.239290
vt 0.017332 -0.144673
vt -0.001553 0.003792
vt -0.007904 0.136612
vt -0.007213 0.260431
vt -0.006563 0.384509
vt -0.006914 0.510004
vt -0.007529 0.635878
vt -0.007807 0.761276
vt -0.007886 0.886391
vt -0.007886 1.011391
vt 0.008914 -0.409278
vt 0.054218 -0.322993
vt 0.084277 -0.216847
vt 0.065293 -0.476412
vt 0.130637 -0.422705
vt 0.107893 -0.535055
vt 0.183155 -0.490303
vt 0.150670 -0.598783
vt 0.209955 -0.556184
vt 0.141552 -0.606229
vt 0.217104 -0.567853
vt 0.291240 -0.530964
vt 0.222264 -0.573177
vt 0.289369 -0.540144
vt 0.346782 -0.477439
vt 0.276721 -0.534365
vt 0.324382 -0.464484
vt 0.347365 -0.369131
vt 0.394519 -0.294670
vt 0.316390 -0.337089
vt 0.366350 -0.278304
vt 0.369376 -0.153001
vt 0.365978 -0.028294
vt 0.369265 0.092189
vt 0.369927 0.215953
vt 0.368525 0.342686
vt 0.368525 0.467686
vt 0.099030 -0.115278
vt 0.136886 -0.015195
vt 0.125580 0.125358
vt 0.117932 0.260083
vt 0.115773 0.388161
vt 0.115920 0.513029
vt 0.116070 0.637855
vt 0.116402 0.762406
vt 0.116788 0.886857
vt 0.116786 1.011857
vt 0.131838 -0.284630
vt 0.162110 -0.192751
vt 0.192006 -0.076105
vt 0.212526 -0.359153
vt 0.234959 -0.282341
vt 0.267573 -0.468319
vt 0.310159 -0.488888
vt 0.356718 -0.449010
vt 0.296436 -0.513533
vt 0.353621 -0.482248
vt 0.384674 -0.464976
vt 0.407351 -0.446732
vt 0.427534 -0.412232
vt 0.444844 -0.337497
vt 0.460756 -0.237330
vt 0.509633 -0.136514
vt 0.437226 -0.221462
vt 0.473097 -0.113405
vt 0.483100 -0.013453
vt 0.485785 0.104707
vt 0.489816 0.224270
vt 0.489998 0.348409
vt 0.489868 0.473397
vt 0.224330 0.020123
vt 0.261320 0.103577
vt 0.251480 0.249013
vt 0.244746 0.383729
vt 0.241325 0.513134
vt 0.240541 0.638821
vt 0.240658 0.763497
vt 0.241042 0.887913
vt 0.241043 1.012913
vt 0.286630 -0.174203
vt 0.302472 -0.068988
vt 0.315837 0.040557
vt 0.312842 -0.358398
vt 0.344660 -0.255064
vt 0.379076 -0.159579
vt 0.355035 -0.418598
vt 0.423559 -0.381181
vt 0.363166 -0.429299
vt 0.423866 -0.379288
vt 0.496917 -0.335148
vt 0.441809 -0.413454
vt 0.507379 -0.365302
vt 0.441779 -0.425074
vt 0.522016 -0.392874
vt 0.573031 -0.320335
vt 0.508816 -0.385650
vt 0.552457 -0.309636
vt 0.571810 -0.213338
vt 0.566815 -0.089258
vt 0.602979 0.022275
vt 0.636948 0.139339
vt 0.648690 0.204535
vt 0.527595 -0.057030
vt 0.549469 0.008625
vt 0.584040 0.125328
vt 0.609832 0.238386
vt 0.603828 0.365679
vt 0.603282 0.490566
vt 0.349431 0.137932
vt 0.359353 0.235151
vt 0.392054 0.367357
vt 0.381411 0.494366
vt 0.376255 0.626833
vt 0.372492 0.756380
vt 0.370360 0.884003
vt 0.370112 1.009027
vt 0.409791 -0.062161
vt 0.429186 0.052088
vt 0.448071 0.205307
vt 0.452094 0.305252
vt 0.437189 -0.235177
vt 0.471730 -0.129715
vt 0.506967 -0.036245
vt 0.495533 -0.307177
vt 0.537859 -0.214035
vt 0.498523 -0.328782
vt 0.559135 -0.260978
vt 0.631070 -0.214110
vt 0.581161 -0.303325
vt 0.651201 -0.219038
vt 0.662899 -0.097717
vt 0.675613 -0.025114
vt 0.580267 -0.317801
vt 0.609895 -0.258762
vt 0.667730 -0.143645
vt 0.676452 -0.014900
vt 0.717081 0.083698
vt 0.729156 0.141916
vt 0.625930 -0.263025
vt 0.668788 -0.203154
vt 0.655780 -0.064783
vt 0.676388 0.051503
vt 0.706643 0.157788
vt 0.698146 0.265029
vt 0.724127 0.398441
vt 0.725191 0.523820
vt 0.660721 0.285276
vt 0.671397 0.381998
vt 0.672923 0.507422
vt 0.462015 0.398775
vt 0.466551 0.472532
vt 0.476071 0.603740
vt 0.484643 0.732824
vt 0.491161 0.862275
vt 0.492787 0.986829
vt 0.518782 0.065110
vt 0.521801 0.171191
vt 0.508817 0.319291
vt 0.544519 0.434009
vt 0.585383 0.557490
vt 0.577654 0.696553
vt 0.580803 0.829610
vt 0.579108 0.955412
vt 0.549854 -0.097521
vt 0.566353 -0.014456
vt 0.621311 0.120288
vt 0.616720 0.242828
vt 0.643387 0.370905
vt 0.641103 0.470287
vt 0.597076 -0.158203
vt 0.678503 -0.067972
vt 0.699429 0.048269
vt 0.695270 0.179889
vt 0.699299 0.277874
vt 0.622431 -0.195655
vt 0.698543 -0.149206
vt 0.724543 -0.007294
vt 0.704922 0.115327
vt 0.724828 0.238651
vt 0.753279 0.301230
vt 0.692947 -0.164541
vt 0.700276 -0.069684
vt 0.700255 0.040317
vt 0.723293 0.176167
vt 0.771070 0.297648
vt 0.800300 0.355104
vt 0.695773 0.046782
vt 0.730561 0.116249
vt 0.764020 0.212708
vt 0.812986 0.355195
vt 0.831797 0.468022
vt 0.831062 0.591785
vt 0.752488 0.215628
vt 0.774814 0.310096
vt 0.791988 0.429912
vt 0.792441 0.555205
vt 0.632381 0.574745
vt 0.635031 0.661906
vt 0.641096 0.794444
vt 0.638854 0.920960
vt 0.673215 0.392392
vt 0.669435 0.491668
vt 0.686270 0.620447
vt 0.702459 0.745510
vt 0.702856 0.870133
vt 0.720862 -0.041037
vt 0.722350 -0.019398
vt 0.700993 0.340335
vt 0.720562 0.429907
vt 0.743396 0.555056
vt 0.761119 0.680094
vt 0.761220 0.804969
vt 0.722686 -0.043608
vt 0.724057 -0.021706
vt 0.733622 0.301133
vt 0.764089 0.363475
vt 0.784103 0.489848
vt 0.803510 0.614787
vt 0.803395 0.740013
vt 0.783580 0.359618
vt 0.807052 0.420718
vt 0.832151 0.549339
vt 0.832004 0.674768
vt 0.823589 0.422001
vt 0.841134 0.502220
vt 0.841071 0.625254
vn 0.00000 0.83504 0.55018
vn 0.00000 0.98181 0.18989
vn 0.00000 0.99992 -0.01265
vn 0.00000 0.99990 -0.01397
vn 0.00000 1.00000 -0.00000
vn 0.00000 0.99990 0.01397
vn 0.00000 0.99992 0.01265
vn 0.00000 0.98181 -0.18989
vn 0.00000 0.83504 -0.55018
vn 0.00000 0.38196 0.92418
vn 0.00000 0.59905 0.80071
vn 0.00000 0.59905 -0.80071
vn 0.00000 0.38196 -0.92418
vn 0.00000 0.18321 0.98307
vn 0.00000 0.18321 -0.98307
vn 0.00000 0.05742 0.99835
vn 0.00000 0.05742 -0.99835
vn 0.00000 -0.09446 0.99553
vn 0.00000 -0.09446 -0.99553
vn 0.00000 -0.17762 0.98410
vn 0.00000 -0.17762 -0.98410
vn 0.00000 -0.35769 0.93384
vn 0.00000 -0.55961 0.82876
vn 0.00000 -0.55961 -0.82876
vn 0.00000 -0.35769 -0.93384
vn 0.00000 -0.75966 0.65032
vn 0.00000 -0.87627 0.48181
vn 0.00000 -0.87627 -0.48181
vn 0.00000 -0.75966 -0.65032
vn 0.00000 -0.91217 0.40981
vn 0.00000 -0.94444 0.32868
vn 0.00000 -0.98487 0.17330
vn 0.00000 -1.00000 -0.00000
vn 0.00000 -0.98487 -0.17330
vn 0.00000 -0.94444 -0.32868
vn 0.00000 -0.91217 -0.40981
vn 0.00305 0.83814 0.54545
vn 0.00114 0.98168 0.19056
vn -0.00008 0.99992 -0.01265
vn -0.00010 0.99990 -0.01397
vn -0.00000 1.00000 -0.00000
vn 0.00012 0.99990 0.01397
vn 0.00014 0.99992 0.01265
vn -0.00217 0.98204 -0.18864
vn -0.00838 0.82127 -0.57048
vn 0.00476 0.37611 0.92656
vn 0.00428 0.59263 0.80546
vn -0.01318 0.61423 -0.78902
vn -0.01719 0.39699 -0.91766
vn 0.00495 0.18463 0.98280
vn -0.02030 0.17668 -0.98406
vn 0.00499 0.05759 0.99833
vn -0.02131 0.05664 -0.99817
vn 0.00499 -0.09476 0.99549
vn -0.02101 -0.09317 -0.99543
vn 0.00500 -0.17851 0.98393
vn -0.01968 -0.17383 -0.98458
vn 0.00486 -0.34859 0.93726
vn 0.00442 -0.55255 0.83347
vn -0.01381 -0.57753 -0.81625
vn -0.01687 -0.38248 -0.92381
vn 0.00359 -0.76081 0.64896
vn 0.00273 -0.87730 0.47993
vn -0.00636 -0.87419 -0.48554
vn -0.00995 -0.75367 -0.65717
vn 0.00245 -0.91297 0.40802
vn 0.00211 -0.94419 0.32939
vn 0.00128 -0.98483 0.17352
vn 0.00004 -1.00000 0.00000
vn -0.00153 -0.98494 -0.17289
vn -0.00340 -0.94484 -0.32752
vn -0.00492 -0.91041 -0.41368
vn 0.11094 0.80677 0.58035
vn 0.05573 0.96419 0.25930
vn 0.00139 0.99997 -0.00824
vn -0.00539 0.99991 -0.01246
vn -0.00684 0.99997 -0.00430
vn -0.00012 0.99999 0.00403
vn 0.01079 0.99982 0.01570
vn -0.02277 0.99733 -0.06941
vn -0.19991 0.88426 -0.42205
vn -0.35798 0.76449 -0.53611
vn 0.15659 0.34332 0.92607
vn 0.18291 0.53172 0.82693
vn -0.54603 0.60098 -0.58367
vn -0.46459 0.49211 -0.73620
vn -0.67906 0.35356 -0.64333
vn 0.17470 0.14940 0.97322
vn -0.53867 0.16760 -0.82568
vn -0.71876 0.13669 -0.68169
vn 0.18190 0.05031 0.98203
vn -0.68075 0.04388 -0.73121
vn -0.70402 0.03396 -0.70936
vn 0.14866 -0.08109 0.98556
vn -0.66680 -0.06737 -0.74219
vn -0.71475 -0.04830 -0.69771
vn 0.17688 -0.18860 0.96599
vn 0.21653 -0.22869 0.94911
vn -0.51550 -0.17551 -0.83872
vn -0.68595 -0.17120 -0.70722
vn 0.14570 -0.29812 0.94334
vn 0.13580 -0.44520 0.88508
vn -0.56944 -0.54920 -0.61166
vn -0.44849 -0.48849 -0.74849
vn -0.64387 -0.34003 -0.68543
vn 0.09382 -0.73162 0.67523
vn 0.06543 -0.89604 0.43913
vn 0.09245 -0.91778 0.38619
vn -0.16392 -0.89698 -0.41057
vn -0.24204 -0.79389 -0.55781
vn -0.32379 -0.72195 -0.61151
vn 0.09241 -0.90458 0.41616
vn 0.11273 -0.92222 0.36987
vn 0.02532 -0.97100 0.23773
vn -0.02988 -0.99866 0.04222
vn -0.07632 -0.98874 -0.12874
vn -0.12291 -0.95343 -0.27545
vn -0.14578 -0.92168 -0.35951
vn 0.16993 0.73740 0.65374
vn 0.09272 0.93726 0.33608
vn 0.01074 0.99931 0.03551
vn 0.01144 0.99981 -0.01604
vn 0.00855 0.99996 -0.00260
vn 0.00731 0.99997 -0.00358
vn 0.00231 0.99978 0.02079
vn -0.00272 1.00000 -0.00152
vn -0.11518 0.98311 -0.14225
vn -0.37087 0.84819 -0.37820
vn -0.53513 0.76543 -0.35744
vn 0.27462 0.29970 0.91365
vn 0.24584 0.43211 0.86767
vn -0.56433 0.60918 -0.55717
vn -0.72733 0.49241 -0.47805
vn -0.91776 0.39677 -0.01719
vn -0.92418 0.38196 -0.00000
vn 0.26944 0.13171 0.95397
vn 0.21532 0.12644 0.96832
vn -0.81123 0.16461 -0.56107
vn -0.98406 0.17670 -0.02030
vn -0.98307 0.18321 -0.00000
vn 0.22185 0.11849 0.96785
vn 0.25982 0.08083 0.96227
vn -0.73632 0.05069 -0.67473
vn -0.99817 0.05664 -0.02131
vn -0.99835 0.05742 -0.00000
vn 0.12137 -0.04731 0.99148
vn 0.20659 -0.21419 0.95470
vn -0.73893 -0.07550 -0.66954
vn -0.99543 -0.09317 -0.02101
vn -0.99553 -0.09446 -0.00000
vn 0.17028 -0.19828 0.96524
vn 0.23955 -0.24979 0.93820
vn -0.84554 -0.17680 -0.50380
vn -0.98458 -0.17383 -0.01968
vn -0.98410 -0.17762 -0.00000
vn 0.31056 -0.47338 0.82430
vn -0.52494 -0.61853 -0.58468
vn -0.75900 -0.49222 -0.42620
vn -0.92400 -0.38202 -0.01688
vn -0.93384 -0.35769 -0.00000
vn 0.24319 -0.65911 0.71164
vn 0.11334 -0.83535 0.53791
vn -0.00426 -0.92059 0.39051
vn -0.13898 -0.89459 -0.42472
vn -0.17494 -0.86832 -0.46412
vn -0.37490 -0.82472 -0.42343
vn -0.60642 -0.73764 -0.29689
vn -0.01590 -0.94452 0.32807
vn 0.12390 -0.95541 0.26803
vn 0.04429 -0.98777 0.14949
vn -0.04415 -0.99691 -0.06504
vn -0.07187 -0.96823 -0.23950
vn -0.18346 -0.90992 -0.37200
vn -0.24091 -0.86528 -0.43960
vn 0.24950 0.70884 0.65977
vn 0.19499 0.82850 0.52495
vn 0.05082 0.99245 0.11160
vn -0.02950 0.99916 -0.02854
vn 0.00191 0.99991 0.01299
vn 0.01959 0.99975 -0.01115
vn 0.03935 0.99906 0.01794
vn 0.04085 0.99916 0.00427
vn 0.02388 0.99971 0.00023
vn -0.14047 0.98286 -0.11938
vn -0.42066 0.88409 -0.20356
vn -0.57013 0.82151 -0.00837
vn -0.55018 0.83504 -0.00000
vn 0.12323 0.61665 0.77754
vn 0.08924 0.78111 0.61798
vn -0.58772 0.59912 -0.54374
vn -0.78911 0.61412 -0.01317
vn -0.80071 0.59905 -0.00000
vn 0.23816 0.04351 0.97025
vn 0.22561 0.18142 0.95717
vn 0.25442 0.19616 0.94699
vn 0.18601 0.13302 0.97350
vn 0.17271 -0.07723 0.98194
vn 0.33556 -0.42106 0.84268
vn 0.27716 -0.34984 0.89487
vn 0.24589 -0.39687 0.88433
vn -0.61384 -0.55798 -0.55844
vn -0.81638 -0.57735 -0.01381
vn -0.82876 -0.55961 -0.00000
vn 0.13253 -0.62609 0.76841
vn 0.07404 -0.79909 0.59663
vn 0.13243 -0.86747 0.47954
vn -0.44387 -0.85205 -0.27747
vn -0.47044 -0.85533 -0.21703
vn -0.54902 -0.80835 -0.21249
vn -0.65718 -0.75367 -0.00994
vn -0.65032 -0.75966 -0.00000
vn 0.09628 -0.95858 0.26807
vn -0.02241 -0.92820 0.37141
vn -0.03064 -0.98518 0.16878
vn -0.10519 -0.99113 -0.08124
vn -0.17617 -0.97475 -0.13720
vn -0.25063 -0.93105 -0.26522
vn -0.35398 -0.87038 -0.34224
vn -0.38458 -0.90829 -0.16461
vn 0.09514 0.89832 0.42892
vn 0.08033 0.96739 0.24021
vn -0.00415 0.99987 -0.01570
vn -0.03246 0.99889 -0.03416
vn 0.00654 0.99966 -0.02533
vn -0.00999 0.99992 0.00736
vn 0.04403 0.99901 -0.00660
vn 0.04258 0.99856 0.03252
vn 0.02172 0.99941 0.02649
vn -0.06550 0.99767 -0.01915
vn -0.18865 0.98204 -0.00217
vn -0.18989 0.98181 -0.00000
vn 0.01450 0.56434 0.82542
vn -0.02157 0.86451 0.50215
vn -0.20908 0.03757 0.97718
vn -0.17036 0.21767 0.96104
vn 0.30125 -0.26134 0.91703
vn 0.19479 -0.56602 0.80105
vn 0.45079 -0.58186 0.67693
vn 0.40855 -0.23485 0.88200
vn 0.64577 -0.35176 0.67768
vn 0.71134 -0.41292 0.56876
vn 0.50848 -0.73485 0.44883
vn -0.41269 -0.87984 -0.23572
vn -0.42107 -0.88644 -0.19213
vn -0.48538 -0.87428 -0.00635
vn -0.48181 -0.87627 -0.00000
vn 0.26396 -0.91317 0.31056
vn 0.12448 -0.94151 0.31315
vn 0.19259 -0.95048 0.24391
vn 0.13144 -0.98170 0.13777
vn -0.12157 -0.98731 -0.10218
vn -0.00450 -0.97961 -0.20084
vn -0.10886 -0.96317 -0.24588
vn -0.32679 -0.93553 -0.13412
vn -0.37531 -0.91246 -0.16297
vn -0.41350 -0.91049 -0.00491
vn -0.40981 -0.91217 -0.00000
vn 0.21809 0.93712 0.27247
vn 0.22038 0.90820 0.35582
vn 0.07026 0.99341 0.09059
vn -0.01422 0.99917 -0.03808
vn -0.02379 0.99947 -0.02228
vn 0.00082 0.99984 -0.01766
vn -0.00153 0.99986 -0.01649
vn 0.00358 0.99972 0.02329
vn 0.01565 0.99922 0.03627
vn 0.01756 0.99972 0.01568
vn 0.01265 0.99992 0.00014
vn 0.01265 0.99992 -0.00000
vn 0.49464 0.48124 0.72370
vn 0.34521 0.62999 0.69566
vn 0.58133 0.02528 0.81328
vn 0.56476 0.08783 0.82057
vn 0.53092 -0.48844 0.69249
vn 0.30318 -0.55176 0.77695
vn 0.67209 -0.30216 0.67602
vn 0.65165 -0.31414 0.69042
vn 0.33794 -0.41206 0.84617
vn 0.29617 -0.40605 0.86453
vn 0.40419 -0.47009 0.78463
vn 0.31659 -0.73688 0.59731
vn 0.36570 -0.89035 0.27118
vn 0.13138 -0.90343 0.40811
vn 0.34989 -0.79243 0.49964
vn 0.46282 -0.86895 0.17529
vn 0.29369 -0.85843 0.42053
vn 0.36430 -0.86484 0.34544
vn 0.08573 -0.99572 0.03454
vn -0.11924 -0.96069 -0.25072
vn -0.08863 -0.99121 -0.09821
vn -0.16515 -0.98627 0.00252
vn -0.26819 -0.95637 -0.11593
vn -0.32758 -0.94482 -0.00340
vn -0.32868 -0.94444 -0.00000
vn 0.28025 0.88820 0.36409
vn 0.11783 0.96227 0.24526
vn 0.16581 0.95242 0.25572
vn 0.03134 0.99886 0.03600
vn -0.00265 0.99814 -0.06096
vn -0.00606 0.99914 -0.04111
vn -0.00196 1.00000 0.00031
vn -0.01122 0.99981 0.01590
vn -0.00321 0.99957 0.02906
vn 0.00764 0.99992 0.01010
vn 0.01397 0.99990 0.00012
vn 0.01397 0.99990 -0.00000
vn 0.54414 0.33765 0.76805
vn 0.55632 0.38147 0.73823
vn 0.39432 0.54224 0.74195
vn 0.40705 0.10568 0.90727
vn 0.57716 0.19089 0.79401
vn 0.34109 -0.16801 0.92489
vn 0.50576 -0.19931 0.83933
vn 0.52005 -0.25492 0.81521
vn 0.40078 -0.26081 0.87827
vn 0.47467 -0.51714 0.71222
vn 0.47751 -0.46990 0.74241
vn 0.53447 -0.27895 0.79783
vn 0.59765 -0.28937 0.74771
vn 0.57677 -0.53932 0.61358
vn 0.49758 -0.71799 0.48673
vn 0.46843 -0.78377 0.40777
vn 0.48829 -0.83582 0.25097
vn 0.30578 -0.89459 0.32590
vn 0.36446 -0.91492 0.17347
vn 0.34904 -0.89346 0.28267
vn 0.06748 -0.91335 0.40155
vn -0.06414 -0.94886 -0.30911
vn -0.09893 -0.99245 0.07248
vn -0.12237 -0.99168 -0.04006
vn -0.14149 -0.98906 -0.04172
vn -0.17293 -0.98493 -0.00153
vn -0.17330 -0.98487 -0.00000
vn 0.16355 0.96968 0.18158
vn 0.35526 0.89559 0.26776
vn 0.25372 0.94731 0.19554
vn 0.04226 0.99895 0.01769
vn -0.00837 0.99923 -0.03834
vn -0.05623 0.99840 0.00552
vn -0.03900 0.99921 0.00798
vn -0.01925 0.99971 0.01414
vn -0.00824 0.99996 0.00244
vn 0.00000 1.00000 -0.00000
vn 0.00000 1.00000 -0.00000
vn 0.58586 0.23317 0.77615
vn 0.74049 0.12734 0.65990
vn 0.78012 0.44381 0.44097
vn 0.60603 0.28702 0.74186
vn 0.58718 0.42717 0.68756
vn 0.85192 0.07844 0.51776
vn 0.16956 0.05546 0.98396
vn 0.59287 -0.43330 0.67879
vn 0.44601 -0.33716 0.82910
vn 0.43895 -0.52822 0.72685
vn 0.38947 -0.55511 0.73496
vn 0.45326 -0.37021 0.81087
vn 0.43682 -0.38312 0.81388
vn 0.48464 -0.60312 0.63354
vn 0.47319 -0.71100 0.52017
vn 0.41430 -0.71804 0.55926
vn 0.42759 -0.79418 0.43181
vn 0.16181 -0.94946 0.26897
vn 0.48211 -0.80941 0.33531
vn 0.11682 -0.90691 0.40480
vn 0.34687 -0.78628 0.51131
vn 0.44571 -0.88693 -0.12125
vn 0.17072 -0.98398 0.05137
vn 0.11496 -0.99138 0.06286
vn 0.03303 -0.99908 -0.02735
vn 0.00000 -1.00000 0.00004
vn 0.00000 -1.00000 -0.00000
vn 0.47621 0.80112 0.36253
vn 0.44536 0.83528 0.32245
vn 0.26135 0.94280 0.20696
vn 0.02451 0.99800 0.05820
vn -0.02464 0.99960 0.01395
vn -0.04385 0.99904 -0.00211
vn -0.03415 0.99942 -0.00145
vn -0.02202 0.99970 -0.01110
vn -0.01397 0.99990 -0.00010
vn -0.01397 0.99990 -0.00000
vn 0.66732 0.39380 0.63214
vn 0.56790 0.46338 0.68027
vn 0.41985 0.77016 0.48019
vn 0.48945 0.66839 0.56009
vn 0.45317 0.52916 0.71738
vn 0.47833 -0.04086 0.87723
vn 0.66127 -0.44316 0.60525
vn 0.69348 -0.28869 0.66011
vn 0.52473 -0.48901 0.69680
vn 0.50249 -0.40449 0.76413
vn 0.57577 -0.53870 0.61506
vn 0.29352 -0.62554 0.72288
vn 0.14125 -0.80420 0.57733
vn 0.28810 -0.93692 0.19795
vn 0.36620 -0.85446 0.36851
vn 0.35000 -0.93246 0.08961
vn 0.54789 -0.79062 0.27339
vn 0.41949 -0.87225 0.25142
vn 0.40943 -0.90721 0.09659
vn 0.30943 -0.94200 0.12998
vn 0.22778 -0.97365 0.01116
vn 0.17349 -0.98484 0.00127
vn 0.17330 -0.98487 -0.00000
vn 0.31591 0.88737 0.33581
vn 0.19732 0.89047 0.41003
vn 0.33153 0.92388 0.19113
vn 0.16909 0.98042 0.10095
vn 0.08019 0.99657 0.02049
vn 0.02555 0.99967 -0.00179
vn -0.00651 0.99992 -0.01041
vn -0.01265 0.99992 -0.00008
vn -0.01265 0.99992 -0.00000
vn 0.43688 0.58544 0.68293
vn 0.43762 0.74691 0.50061
vn 0.38403 0.79708 0.46604
vn 0.56066 0.63132 0.53581
vn 0.45367 0.39635 0.79818
vn 0.49407 0.56484 0.66095
vn 0.41373 -0.16812 0.89474
vn 0.56106 -0.07490 0.82438
vn 0.45632 -0.58984 0.66623
vn 0.50169 -0.50051 0.70554
vn 0.62230 -0.29777 0.72393
vn 0.56585 -0.33852 0.75181
vn 0.58395 -0.23053 0.77837
vn 0.40854 -0.48871 0.77088
vn 0.59245 -0.38323 0.70862
vn 0.65788 -0.65754 0.36720
vn 0.43749 -0.80111 0.40844
vn 0.50739 -0.74585 0.43157
vn 0.25551 -0.93772 0.23535
vn 0.34120 -0.93733 0.07061
vn 0.36916 -0.89138 0.26300
vn 0.41546 -0.89748 0.14809
vn 0.44686 -0.88847 0.10456
vn 0.44803 -0.86942 0.20827
vn 0.40743 -0.87985 0.24469
vn 0.37222 -0.91306 0.16665
vn 0.38584 -0.91909 0.08004
vn 0.32936 -0.94420 0.00211
vn 0.32868 -0.94444 -0.00000
vn 0.25406 0.86539 0.43192
vn 0.30386 0.95236 0.02600
vn 0.44484 0.88475 0.13905
vn 0.44507 0.89110 0.08864
vn 0.34592 0.93425 0.08675
vn 0.25713 0.96557 0.03954
vn 0.19054 0.98168 0.00114
vn 0.18989 0.98181 -0.00000
vn 0.54746 0.58672 0.59669
vn 0.54885 0.71206 0.43788
vn 0.83544 0.54747 0.04818
vn 0.81743 0.50067 0.28485
vn 0.58842 0.41262 0.69534
vn 0.75215 0.37203 0.54393
vn 0.75875 0.34265 0.55398
vn 0.85909 -0.08308 0.50504
vn 0.80644 -0.03600 0.59022
vn 0.56768 -0.63628 0.52238
vn 0.64365 -0.28704 0.70945
vn 0.68944 -0.29945 0.65955
vn 0.67931 -0.28378 0.67676
vn 0.71161 -0.59895 0.36725
vn 0.77588 -0.60898 0.16479
vn 0.81430 -0.55367 0.17428
vn 0.69889 -0.54967 0.45763
vn 0.81541 -0.38042 0.43634
vn 0.96471 -0.07668 0.25189
vn 0.86532 -0.42513 0.26548
vn 0.74608 -0.62526 0.22897
vn 0.70644 -0.65954 0.25681
vn 0.40583 -0.52916 0.74518
vn 0.46525 -0.87498 0.13400
vn 0.85021 -0.52600 0.02174
vn 0.66549 -0.72428 0.18040
vn 0.63300 -0.74210 0.22047
vn 0.48731 -0.86341 0.13057
vn 0.48000 -0.87726 0.00274
vn 0.48181 -0.87627 -0.00000
vn 0.41997 -0.90254 0.09514
vn 0.40802 -0.91297 0.00245
vn 0.40981 -0.91217 -0.00000
vn 0.71877 0.65837 0.22344
vn 0.63464 0.76497 0.10982
vn 0.56845 0.81307 0.12560
vn 0.57502 0.81374 0.08472
vn 0.54533 0.83822 0.00305
vn 0.55018 0.83504 -0.00000
vn 0.78024 0.56450 0.26938
vn 0.75295 0.65689 0.03960
vn 0.85819 0.44554 0.25497
vn 0.84820 0.42284 0.31900
vn 0.89099 0.42430 0.16157
vn 0.83362 0.54501 0.08968
vn 0.80543 0.59267 0.00429
vn 0.80071 0.59905 -0.00000
vn 0.73747 0.19866 0.64550
vn 0.83142 0.27418 0.48329
vn 0.86367 0.45145 0.22423
vn 0.91934 0.35180 -0.17622
vn 0.95048 0.16382 0.26412
vn 0.95524 0.22434 0.19282
vn 0.66005 0.08250 0.74668
vn 0.87786 0.23294 0.41845
vn 0.95092 0.24872 0.18408
vn 0.99885 -0.03673 0.03068
vn 0.99911 0.04171 -0.00646
vn 0.55037 -0.34740 0.75921
vn 0.57014 -0.40554 0.71448
vn 0.84292 -0.53296 -0.07381
vn 0.94294 -0.33206 -0.02472
vn 0.86895 -0.37055 0.32805
vn 0.87200 -0.35895 0.33282
vn 0.68946 -0.55747 0.46247
vn 0.78702 -0.61669 -0.01724
vn 0.82652 -0.55530 0.09221
vn 0.94799 -0.26550 0.17556
vn 0.87685 -0.31568 0.36260
vn 0.93136 -0.25905 0.25585
vn 0.86926 -0.38135 0.31457
vn 0.88107 -0.35233 0.31556
vn 0.83708 -0.45910 0.29753
vn 0.88282 -0.42144 0.20742
vn 0.83407 -0.55165 0.00443
vn 0.82876 -0.55961 -0.00000
vn 0.67161 -0.68299 0.28716
vn 0.65181 -0.74320 0.15099
vn 0.64878 -0.76097 0.00359
vn 0.65032 -0.75966 -0.00000
vn 0.94322 0.29336 0.15580
vn 0.93452 0.34646 0.08141
vn 0.92658 0.37607 0.00476
vn 0.92418 0.38196 -0.00000
vn 0.97784 -0.00046 0.20935
vn 0.97001 0.13618 0.20131
vn 0.97959 0.18163 0.08611
vn 0.98281 0.18454 0.00494
vn 0.98307 0.18321 -0.00000
vn 0.99295 0.07852 0.08882
vn 0.99555 0.04723 0.08155
vn 0.98941 0.11748 0.08521
vn 0.96991 0.09965 0.22213
vn 0.99280 0.04450 0.11123
vn 0.99833 0.05757 0.00498
vn 0.99835 0.05742 -0.00000
vn 0.99573 0.03625 0.08492
vn 0.99729 -0.00463 0.07342
vn 0.97557 -0.08827 0.20117
vn 0.95603 -0.19134 0.22225
vn 0.98647 -0.11988 0.11184
vn 0.99549 -0.09474 0.00499
vn 0.99553 -0.09446 -0.00000
vn 0.93227 -0.25114 0.26039
vn 0.95543 -0.21389 0.20349
vn 0.98392 -0.17856 0.00500
vn 0.98410 -0.17762 -0.00000
vn 0.93317 -0.29903 0.19943
vn 0.93766 -0.34752 0.00486
vn 0.93384 -0.35769 -0.00000
usemtl CaveRock
f 89/89/89 90/90/90 93/93/93
f 98/98/98 97/97/97 101/101/101
f 99/99/99 100/100/100 105/105/105
f 103/103/103 104/104/104 111/111/111
f 108/108/108 107/107/107 112/112/112
f 139/139/139 140/140/140 145/145/145
f 143/143/143 144/144/144 149/149/149
f 147/147/147 146/146/146 151/151/151
f 148/148/148 149/149/149 154/154/154
f 153/153/153 154/154/154 159/159/159
f 154/154/154 155/155/155 160/160/160
f 157/157/157 158/158/158 167/167/167
f 164/164/164 165/165/165 174/174/174
f 186/186/186 187/187/187 192/192/192
f 200/200/200 199/199/199 204/204/204
f 201/201/201 202/202/202 210/210/210
f 202/202/202 203/203/203 211/211/211
f 207/207/207 208/208/208 219/219/219
f 238/238/238 237/237/237 239/239/239
f 243/243/243 244/244/244 255/255/255
f 275/275/275 274/274/274 276/276/276
f 279/279/279 278/278/278 280/280/280
f 282/282/282 281/281/281 284/284/284
f 283/283/283 282/282/282 285/285/285
f 313/313/313 312/312/312 314/314/314
f 317/317/317 316/316/316 318/318/318
f 320/320/320 319/319/319 321/321/321
f 324/324/324 323/323/323 325/325/325
f 349/349/349 348/348/348 350/350/350
f 353/353/353 352/352/352 354/354/354
f 356/356/356 355/355/355 357/357/357
f 359/359/359 358/358/358 360/360/360
f 363/363/363 362/362/362 364/364/364
f 389/389/389 388/388/388 390/390/390
f 397/397/397 396/396/396 398/398/398
f 421/421/421 420/420/420 422/422/422
f 424/424/424 423/423/423 425/425/425
f 426/426/426 425/425/425 427/427/427
f 429/429/429 428/428/428 430/430/430
f 434/434/434 433/433/433 437/437/437
f 436/436/436 435/435/435 439/439/439
f 459/459/459 458/458/458 460/460/460
f 462/462/462 461/461/461 463/463/463
f 464/464/464 463/463/463 467/467/467
f 465/465/465 464/464/464 468/468/468
f 466/466/466 465/465/465 469/469/469
f 469/469/469 468/468/468 473/473/473
f 471/471/471 470/470/470 475/475/475
f 472/472/472 471/471/471 476/476/476
f 479/479/479 478/478/478 481/481/481
f 486/486/486 485/485/485 493/493/493
f 493/493/493 492/492/492 501/501/501
f 499/499/499 498/498/498 504/504/504
f 500/500/500 499/499/499 505/505/505
f 501/501/501 500/500/500 506/506/506
f 505/505/505 504/504/504 509/509/509
f 507/507/507 506/506/506 511/511/511
f 508/508/508 507/507/507 512/512/512
f 511/511/511 510/510/510 515/515/515
f 512/512/512 511/511/511 516/516/516
f 514/514/514 513/513/513 518/518/518
f 518/518/518 517/517/517 521/521/521
f 520/520/520 519/519/519 523/523/523
f 524/524/524 523/523/523 527/527/527
f 525/525/525 524/524/524 528/528/528
f 526/526/526 525/525/525 529/529/529
f 538/538/538 537/537/537 544/544/544
f 539/539/539 538/538/538 545/545/545
f 543/543/543 542/542/542 549/549/549
f 551/551/551 550/550/550 554/554/554
f 556/556/556 555/555/555 558/558/558
f 557/557/557 556/556/556 559/559/559
f 2/2/2 1/1/1 37/37/37
f 9/9/9 8/8/8 44/44/44
f 22/22/22 23/23/23 59/59/59
f 24/24/24 25/25/25 61/61/61
f 31/31/31 32/32/32 68/68/68
f 32/32/32 33/33/33 69/69/69
f 33/33/33 34/34/34 70/70/70
f 34/34/34 35/35/35 71/71/71
f 38/38/38 37/37/37 73/73/73
f 42/42/42 41/41/41 77/77/77
f 43/43/43 42/42/42 78/78/78
f 45/45/45 44/44/44 80/80/80
f 49/49/49 48/48/48 85/85/85
f 67/67/67 68/68/68 114/114/114
f 68/68/68 69/69/69 115/115/115
f 69/69/69 70/70/70 116/116/116
f 70/70/70 71/71/71 117/117/117
f 74/74/74 73/73/73 119/119/119
f 77/77/77 76/76/76 122/122/122
f 78/78/78 77/77/77 123/123/123
f 79/79/79 78/78/78 124/124/124
f 82/82/82 81/81/81 127/127/127
f 84/84/84 83/83/83 130/130/130
f 87/87/87 86/86/86 132/132/132
f 106/106/106 107/107/107 162/162/162
f 114/114/114 115/115/115 170/170/170
f 115/115/115 116/116/116 171/171/171
f 116/116/116 117/117/117 172/172/172
f 120/120/120 119/119/119 175/175/175
f 123/123/123 122/122/122 178/178/178
f 124/124/124 123/123/123 179/179/179
f 126/126/126 125/125/125 181/181/181
f 129/129/129 128/128/128 184/184/184
f 134/134/134 133/133/133 190/190/190
f 142/142/142 141/141/141 194/194/194
f 159/159/159 160/160/160 203/203/203
f 162/162/162 163/163/163 206/206/206
f 169/169/169 170/170/170 214/214/214
f 170/170/170 171/171/171 215/215/215
f 171/171/171 172/172/172 216/216/216
f 172/172/172 173/173/173 217/217/217
f 177/177/177 176/176/176 220/220/220
f 180/180/180 179/179/179 223/223/223
f 181/181/181 180/180/180 224/224/224
f 186/186/186 185/185/185 229/229/229
f 187/187/187 186/186/186 230/230/230
f 189/189/189 188/188/188 232/232/232
f 213/213/213 214/214/214 249/249/249
f 214/214/214 215/215/215 250/250/250
f 215/215/215 216/216/216 251/251/251
f 216/216/216 217/217/217 252/252/252
f 217/217/217 218/218/218 253/253/253
f 221/221/221 220/220/220 258/258/258
f 249/249/249 250/250/250 287/287/287
f 250/250/250 251/251/251 288/288/288
f 251/251/251 252/252/252 289/289/289
f 252/252/252 253/253/253 290/290/290
f 253/253/253 254/254/254 291/291/291
f 259/259/259 258/258/258 295/295/295
f 264/264/264 263/263/263 300/300/300
f 266/266/266 265/265/265 302/302/302
f 271/271/271 270/270/270 307/307/307
f 287/287/287 288/288/288 327/327/327
f 288/288/288 289/289/289 328/328/328
f 289/289/289 290/290/290 329/329/329
f 290/290/290 291/291/291 330/330/330
f 291/291/291 292/292/292 331/331/331
f 292/292/292 293/293/293 332/332/332
f 293/293/293 294/294/294 333/333/333
f 297/297/297 296/296/296 334/334/334
f 302/302/302 301/301/301 339/339/339
f 303/303/303 302/302/302 340/340/340
f 304/304/304 303/303/303 341/341/341
f 305/305/305 304/304/304 342/342/342
f 309/309/309 308/308/308 345/345/345
f 327/327/327 328/328/328 366/366/366
f 328/328/328 329/329/329 367/367/367
f 329/329/329 330/330/330 368/368/368
f 330/330/330 331/331/331 369/369/369
f 331/331/331 332/332/332 370/370/370
f 332/332/332 333/333/333 371/371/371
f 336/336/336 335/335/335 372/372/372
f 341/341/341 340/340/340 377/377/377
f 342/342/342 341/341/341 378/378/378
f 343/343/343 342/342/342 379/379/379
f 347/347/347 346/346/346 382/382/382
f 366/366/366 367/367/367 400/400/400
f 367/367/367 368/368/368 401/401/401
f 368/368/368 369/369/369 402/402/402
f 369/369/369 370/370/370 403/403/403
f 370/370/370 371/371/371 404/404/404
f 374/374/374 373/373/373 405/405/405
f 384/384/384 383/383/383 414/414/414
f 386/386/386 385/385/385 417/417/417
f 395/395/395 396/396/396 432/432/432
f 402/402/402 403/403/403 441/441/441
f 403/403/403 404/404/404 442/442/442
f 407/407/407 406/406/406 443/443/443
f 408/408/408 407/407/407 444/444/444
f 416/416/416 415/415/415 451/451/451
f 419/419/419 418/418/418 455/455/455
f 432/432/432 433/433/433 475/475/475
f 446/446/446 445/445/445 484/484/484
f 448/448/448 447/447/447 486/486/486
f 449/449/449 448/448/448 487/487/487
f 450/450/450 449/449/449 488/488/488
f 453/453/453 452/452/452 490/490/490
f 454/454/454 453/453/453 491/491/491
f 457/457/457 456/456/456 498/498/498
f 495/495/495 494/494/494 531/531/531
f 503/503/503 502/502/502 535/535/535
f 506/506/506 505/505/505 540/540/540
f 525/525/525 526/526/526 560/560/560
f 12/12/12 9/9/9 45/45/45
f 14/14/14 16/16/16 52/52/52
f 17/17/17 15/15/15 51/51/51
f 20/20/20 22/22/22 58/58/58
f 25/25/25 21/21/21 57/57/57
f 23/23/23 26/26/26 62/62/62
f 29/29/29 24/24/24 60/60/60
f 50/50/50 52/52/52 91/91/91
f 55/55/55 53/53/53 92/92/92
f 57/57/57 55/55/55 95/95/95
f 56/56/56 58/58/58 101/101/101
f 61/61/61 57/57/57 99/99/99
f 59/59/59 62/62/62 106/106/106
f 65/65/65 60/60/60 103/103/103
f 63/63/63 66/66/66 112/112/112
f 93/93/93 90/90/90 138/138/138
f 94/94/94 97/97/97 151/151/151
f 98/98/98 102/102/102 156/156/156
f 105/105/105 100/100/100 153/153/153
f 111/111/111 104/104/104 157/157/157
f 108/108/108 113/113/113 168/168/168
f 118/118/118 109/109/109 164/164/164
f 119/119/119 131/131/131 188/188/188
f 131/131/131 137/137/137 193/193/193
f 147/147/147 152/152/152 198/198/198
f 156/156/156 161/161/161 204/204/204
f 167/167/167 158/158/158 201/201/201
f 174/174/174 165/165/165 207/207/207
f 193/193/193 195/195/195 235/235/235
f 195/195/195 197/197/197 236/236/236
f 198/198/198 199/199/199 239/239/239
f 200/200/200 205/205/205 241/241/241
f 219/219/219 208/208/208 243/243/243
f 220/220/220 233/233/233 271/271/271
f 234/234/234 235/235/235 273/273/273
f 236/236/236 237/237/237 276/276/276
f 238/238/238 240/240/240 278/278/278
f 240/240/240 241/241/241 280/280/280
f 242/242/242 247/247/247 284/284/284
f 272/272/272 273/273/273 312/312/312
f 273/273/273 274/274/274 314/314/314
f 275/275/275 277/277/277 316/316/316
f 277/277/277 278/278/278 318/318/318
f 279/279/279 281/281/281 321/321/321
f 283/283/283 286/286/286 325/325/325
f 311/311/311 313/313/313 350/350/350
f 313/313/313 315/315/315 352/352/352
f 315/315/315 316/316/316 354/354/354
f 317/317/317 319/319/319 357/357/357
f 320/320/320 322/322/322 360/360/360
f 324/324/324 326/326/326 364/364/364
f 349/349/349 351/351/351 387/387/387
f 351/351/351 353/353/353 388/388/388
f 353/353/353 355/355/355 390/390/390
f 356/356/356 358/358/358 392/392/392
f 359/359/359 361/361/361 394/394/394
f 363/363/363 365/365/365 398/398/398
f 387/387/387 388/388/388 422/422/422
f 389/389/389 391/391/391 425/425/425
f 391/391/391 392/392/392 427/427/427
f 393/393/393 394/394/394 430/430/430
f 397/397/397 399/399/399 437/437/437
f 421/421/421 423/423/423 460/460/460
f 424/424/424 426/426/426 463/463/463
f 426/426/426 428/428/428 467/467/467
f 429/429/429 431/431/431 473/473/473
f 436/436/436 440/440/440 481/481/481
f 459/459/459 461/461/461 509/509/509
f 462/462/462 464/464/464 515/515/515
f 466/466/466 470/470/470 521/521/521
f 472/472/472 477/477/477 527/527/527
f 505/505/505 510/510/510 547/547/547
f 508/508/508 513/513/513 549/549/549
f 514/514/514 519/519/519 554/554/554
f 520/520/520 524/524/524 558/558/558
f 92/92/92 89/89/89 93/93/93
f 102/102/102 98/98/98 101/101/101
f 104/104/104 99/99/99 105/105/105
f 110/110/110 103/103/103 111/111/111
f 113/113/113 108/108/108 112/112/112
f 144/144/144 139/139/139 145/145/145
f 148/148/148 143/143/143 149/149/149
f 152/152/152 147/147/147 151/151/151
f 153/153/153 148/148/148 154/154/154
f 158/158/158 153/153/153 159/159/159
f 159/159/159 154/154/154 160/160/160
f 166/166/166 157/157/157 167/167/167
f 173/173/173 164/164/164 174/174/174
f 191/191/191 186/186/186 192/192/192
f 205/205/205 200/200/200 204/204/204
f 209/209/209 201/201/201 210/210/210
f 210/210/210 202/202/202 211/211/211
f 218/218/218 207/207/207 219/219/219
f 240/240/240 238/238/238 239/239/239
f 254/254/254 243/243/243 255/255/255
f 277/277/277 275/275/275 276/276/276
f 281/281/281 279/279/279 280/280/280
f 285/285/285 282/282/282 284/284/284
f 286/286/286 283/283/283 285/285/285
f 315/315/315 313/313/313 314/314/314
f 319/319/319 317/317/317 318/318/318
f 322/322/322 320/320/320 321/321/321
f 326/326/326 324/324/324 325/325/325
f 351/351/351 349/349/349 350/350/350
f 355/355/355 353/353/353 354/354/354
f 358/358/358 356/356/356 357/357/357
f 361/361/361 359/359/359 360/360/360
f 365/365/365 363/363/363 364/364/364
f 391/391/391 389/389/389 390/390/390
f 399/399/399 397/397/397 398/398/398
f 423/423/423 421/421/421 422/422/422
f 426/426/426 424/424/424 425/425/425
f 428/428/428 426/426/426 427/427/427
f 431/431/431 429/429/429 430/430/430
f 438/438/438 434/434/434 437/437/437
f 440/440/440 436/436/436 439/439/439
f 461/461/461 459/459/459 460/460/460
f 464/464/464 462/462/462 463/463/463
f 468/468/468 464/464/464 467/467/467
f 469/469/469 465/465/465 468/468/468
f 470/470/470 466/466/466 469/469/469
f 474/474/474 469/469/469 473/473/473
f 476/476/476 471/471/471 475/475/475
f 477/477/477 472/472/472 476/476/476
f 482/482/482 479/479/479 481/481/481
f 494/494/494 486/486/486 493/493/493
f 502/502/502 493/493/493 501/501/501
f 505/505/505 499/499/499 504/504/504
f 506/506/506 500/500/500 505/505/505
f 507/507/507 501/501/501 506/506/506
f 510/510/510 505/505/505 509/509/509
f 512/512/512 507/507/507 511/511/511
f 513/513/513 508/508/508 512/512/512
f 516/516/516 511/511/511 515/515/515
f 517/517/517 512/512/512 516/516/516
f 519/519/519 514/514/514 518/518/518
f 522/522/522 518/518/518 521/521/521
f 524/524/524 520/520/520 523/523/523
f 528/528/528 524/524/524 527/527/527
f 529/529/529 525/525/525 528/528/528
f 530/530/530 526/526/526 529/529/529
f 545/545/545 538/538/538 544/544/544
f 546/546/546 539/539/539 545/545/545
f 550/550/550 543/543/543 549/549/549
f 555/555/555 551/551/551 554/554/554
f 559/559/559 556/556/556 558/558/558
f 560/560/560 557/557/557 559/559/559
f 38/38/38 2/2/2 37/37/37
f 45/45/45 9/9/9 44/44/44
f 58/58/58 22/22/22 59/59/59
f 60/60/60 24/24/24 61/61/61
f 67/67/67 31/31/31 68/68/68
f 68/68/68 32/32/32 69/69/69
f 69/69/69 33/33/33 70/70/70
f 70/70/70 34/34/34 71/71/71
f 74/74/74 38/38/38 73/73/73
f 78/78/78 42/42/42 77/77/77
f 79/79/79 43/43/43 78/78/78
f 81/81/81 45/45/45 80/80/80
f 86/86/86 49/49/49 85/85/85
f 113/113/113 67/67/67 114/114/114
f 114/114/114 68/68/68 115/115/115
f 115/115/115 69/69/69 116/116/116
f 116/116/116 70/70/70 117/117/117
f 120/120/120 74/74/74 119/119/119
f 123/123/123 77/77/77 122/122/122
f 124/124/124 78/78/78 123/123/123
f 125/125/125 79/79/79 124/124/124
f 128/128/128 82/82/82 127/127/127
f 131/131/131 84/84/84 130/130/130
f 133/133/133 87/87/87 132/132/132
f 161/161/161 106/106/106 162/162/162
f 169/169/169 114/114/114 170/170/170
f 170/170/170 115/115/115 171/171/171
f 171/171/171 116/116/116 172/172/172
f 176/176/176 120/120/120 175/175/175
f 179/179/179 123/123/123 178/178/178
f 180/180/180 124/124/124 179/179/179
f 182/182/182 126/126/126 181/181/181
f 185/185/185 129/129/129 184/184/184
f 191/191/191 134/134/134 190/190/190
f 195/195/195 142/142/142 194/194/194
f 202/202/202 159/159/159 203/203/203
f 205/205/205 162/162/162 206/206/206
f 213/213/213 169/169/169 214/214/214
f 214/214/214 170/170/170 215/215/215
f 215/215/215 171/171/171 216/216/216
f 216/216/216 172/172/172 217/217/217
f 221/221/221 177/177/177 220/220/220
f 224/224/224 180/180/180 223/223/223
f 225/225/225 181/181/181 224/224/224
f 230/230/230 186/186/186 229/229/229
f 231/231/231 187/187/187 230/230/230
f 233/233/233 189/189/189 232/232/232
f 248/248/248 213/213/213 249/249/249
f 249/249/249 214/214/214 250/250/250
f 250/250/250 215/215/215 251/251/251
f 251/251/251 216/216/216 252/252/252
f 252/252/252 217/217/217 253/253/253
f 259/259/259 221/221/221 258/258/258
f 286/286/286 249/249/249 287/287/287
f 287/287/287 250/250/250 288/288/288
f 288/288/288 251/251/251 289/289/289
f 289/289/289 252/252/252 290/290/290
f 290/290/290 253/253/253 291/291/291
f 296/296/296 259/259/259 295/295/295
f 301/301/301 264/264/264 300/300/300
f 303/303/303 266/266/266 302/302/302
f 308/308/308 271/271/271 307/307/307
f 326/326/326 287/287/287 327/327/327
f 327/327/327 288/288/288 328/328/328
f 328/328/328 289/289/289 329/329/329
f 329/329/329 290/290/290 330/330/330
f 330/330/330 291/291/291 331/331/331
f 331/331/331 292/292/292 332/332/332
f 332/332/332 293/293/293 333/333/333
f 335/335/335 297/297/297 334/334/334
f 340/340/340 302/302/302 339/339/339
f 341/341/341 303/303/303 340/340/340
f 342/342/342 304/304/304 341/341/341
f 343/343/343 305/305/305 342/342/342
f 346/346/346 309/309/309 345/345/345
f 365/365/365 327/327/327 366/366/366
f 366/366/366 328/328/328 367/367/367
f 367/367/367 329/329/329 368/368/368
f 368/368/368 330/330/330 369/369/369
f 369/369/369 331/331/331 370/370/370
f 370/370/370 332/332/332 371/371/371
f 373/373/373 336/336/336 372/372/372
f 378/378/378 341/341/341 377/377/377
f 379/379/379 342/342/342 378/378/378
f 380/380/380 343/343/343 379/379/379
f 383/383/383 347/347/347 382/382/382
f 399/399/399 366/366/366 400/400/400
f 400/400/400 367/367/367 401/401/401
f 401/401/401 368/368/368 402/402/402
f 402/402/402 369/369/369 403/403/403
f 403/403/403 370/370/370 404/404/404
f 406/406/406 374/374/374 405/405/405
f 415/415/415 384/384/384 414/414/414
f 418/418/418 386/386/386 417/417/417
f 431/431/431 395/395/395 432/432/432
f 440/440/440 402/402/402 441/441/441
f 441/441/441 403/403/403 442/442/442
f 444/444/444 407/407/407 443/443/443
f 445/445/445 408/408/408 444/444/444
f 452/452/452 416/416/416 451/451/451
f 456/456/456 419/419/419 455/455/455
f 474/474/474 432/432/432 475/475/475
f 485/485/485 446/446/446 484/484/484
f 487/487/487 448/448/448 486/486/486
f 488/488/488 449/449/449 487/487/487
f 489/489/489 450/450/450 488/488/488
f 491/491/491 453/453/453 490/490/490
f 492/492/492 454/454/454 491/491/491
f 499/499/499 457/457/457 498/498/498
f 532/532/532 495/495/495 531/531/531
f 536/536/536 503/503/503 535/535/535
f 541/541/541 506/506/506 540/540/540
f 559/559/559 525/525/525 560/560/560
f 48/48/48 12/12/12 45/45/45
f 50/50/50 14/14/14 52/52/52
f 53/53/53 17/17/17 51/51/51
f 56/56/56 20/20/20 58/58/58
f 61/61/61 25/25/25 57/57/57
f 59/59/59 23/23/23 62/62/62
f 65/65/65 29/29/29 60/60/60
f 88/88/88 50/50/50 91/91/91
f 95/95/95 55/55/55 92/92/92
f 99/99/99 57/57/57 95/95/95
f 97/97/97 56/56/56 101/101/101
f 104/104/104 61/61/61 99/99/99
f 102/102/102 59/59/59 106/106/106
f 110/110/110 65/65/65 103/103/103
f 107/107/107 63/63/63 112/112/112
f 143/143/143 93/93/93 138/138/138
f 146/146/146 94/94/94 151/151/151
f 152/152/152 98/98/98 156/156/156
f 158/158/158 105/105/105 153/153/153
f 166/166/166 111/111/111 157/157/157
f 163/163/163 108/108/108 168/168/168
f 173/173/173 118/118/118 164/164/164
f 175/175/175 119/119/119 188/188/188
f 188/188/188 131/131/131 193/193/193
f 197/197/197 147/147/147 198/198/198
f 199/199/199 156/156/156 204/204/204
f 209/209/209 167/167/167 201/201/201
f 218/218/218 174/174/174 207/207/207
f 234/234/234 193/193/193 235/235/235
f 235/235/235 195/195/195 236/236/236
f 237/237/237 198/198/198 239/239/239
f 240/240/240 200/200/200 241/241/241
f 254/254/254 219/219/219 243/243/243
f 258/258/258 220/220/220 271/271/271
f 272/272/272 234/234/234 273/273/273
f 274/274/274 236/236/236 276/276/276
f 277/277/277 238/238/238 278/278/278
f 278/278/278 240/240/240 280/280/280
f 281/281/281 242/242/242 284/284/284
f 310/310/310 272/272/272 312/312/312
f 312/312/312 273/273/273 314/314/314
f 315/315/315 275/275/275 316/316/316
f 316/316/316 277/277/277 318/318/318
f 319/319/319 279/279/279 321/321/321
f 323/323/323 283/283/283 325/325/325
f 348/348/348 311/311/311 350/350/350
f 350/350/350 313/313/313 352/352/352
f 352/352/352 315/315/315 354/354/354
f 355/355/355 317/317/317 357/357/357
f 358/358/358 320/320/320 360/360/360
f 362/362/362 324/324/324 364/364/364
f 385/385/385 349/349/349 387/387/387
f 387/387/387 351/351/351 388/388/388
f 388/388/388 353/353/353 390/390/390
f 391/391/391 356/356/356 392/392/392
f 393/393/393 359/359/359 394/394/394
f 396/396/396 363/363/363 398/398/398
f 420/420/420 387/387/387 422/422/422
f 423/423/423 389/389/389 425/425/425
f 425/425/425 391/391/391 427/427/427
f 428/428/428 393/393/393 430/430/430
f 433/433/433 397/397/397 437/437/437
f 458/458/458 421/421/421 460/460/460
f 461/461/461 424/424/424 463/463/463
f 463/463/463 426/426/426 467/467/467
f 468/468/468 429/429/429 473/473/473
f 478/478/478 436/436/436 481/481/481
f 504/504/504 459/459/459 509/509/509
f 510/510/510 462/462/462 515/515/515
f 517/517/517 466/466/466 521/521/521
f 523/523/523 472/472/472 527/527/527
f 540/540/540 505/505/505 547/547/547
f 542/542/542 508/508/508 549/549/549
f 550/550/550 514/514/514 554/554/554
f 555/555/555 520/520/520 558/558/558
f 85/85/85 82/82/82 86/86/86
f 89/89/89 87/87/87 90/90/90
f 95/95/95 93/93/93 96/96/96
f 99/99/99 96/96/96 100/100/100
f 132/132/132 129/129/129 133/133/133
f 137/137/137 130/130/130 136/136/136
f 138/138/138 134/134/134 139/139/139
f 139/139/139 135/135/135 140/140/140
f 142/142/142 136/136/136 141/141/141
f 143/143/143 139/139/139 144/144/144
f 149/149/149 145/145/145 150/150/150
f 154/154/154 150/150/150 155/155/155
f 189/189/189 175/175/175 188/188/188
f 190/190/190 186/186/186 191/191/191
f 197/197/197 194/194/194 196/196/196
f 255/255/255 245/245/245 256/256/256
f 256/256/256 246/246/246 257/257/257
f 309/309/309 295/295/295 308/308/308
f 311/311/311 307/307/307 310/310/310
f 313/313/313 310/310/310 312/312/312
f 347/347/347 334/334/334 346/346/346
f 349/349/349 345/345/345 348/348/348
f 353/353/353 350/350/350 352/352/352
f 384/384/384 372/372/372 383/383/383
f 386/386/386 382/382/382 385/385/385
f 416/416/416 405/405/405 415/415/415
f 419/419/419 414/414/414 418/418/418
f 421/421/421 417/417/417 420/420/420
f 439/439/439 434/434/434 438/438/438
f 453/453/453 443/443/443 452/452/452
f 454/454/454 444/444/444 453/453/453
f 457/457/457 451/451/451 456/456/456
f 459/459/459 455/455/455 458/458/458
f 475/475/475 469/469/469 474/474/474
f 483/483/483 479/479/479 482/482/482
f 493/493/493 484/484/484 492/492/492
f 495/495/495 486/486/486 494/494/494
f 496/496/496 487/487/487 495/495/495
f 497/497/497 488/488/488 496/496/496
f 500/500/500 490/490/490 499/499/499
f 501/501/501 491/491/491 500/500/500
f 503/503/503 493/493/493 502/502/502
f 508/508/508 501/501/501 507/507/507
f 518/518/518 512/512/512 517/517/517
f 523/523/523 518/518/518 522/522/522
f 537/537/537 531/531/531 536/536/536
f 538/538/538 532/532/532 537/537/537
f 539/539/539 533/533/533 538/538/538
f 543/543/543 535/535/535 542/542/542
f 544/544/544 536/536/536 543/543/543
f 548/548/548 540/540/540 547/547/547
f 551/551/551 543/543/543 550/550/550
f 552/552/552 544/544/544 551/551/551
f 553/553/553 545/545/545 552/552/552
f 556/556/556 551/551/551 555/555/555
f 557/557/557 552/552/552 556/556/556
f 39/39/39 2/2/2 38/38/38
f 40/40/40 3/3/3 39/39/39
f 41/41/41 4/4/4 40/40/40
f 42/42/42 5/5/5 41/41/41
f 43/43/43 6/6/6 42/42/42
f 44/44/44 7/7/7 43/43/43
f 47/47/47 10/10/10 46/46/46
f 49/49/49 12/12/12 48/48/48
f 62/62/62 27/27/27 63/63/63
f 64/64/64 29/29/29 65/65/65
f 66/66/66 31/31/31 67/67/67
f 71/71/71 36/36/36 72/72/72
f 75/75/75 38/38/38 74/74/74
f 76/76/76 39/39/39 75/75/75
f 77/77/77 40/40/40 76/76/76
f 80/80/80 43/43/43 79/79/79
f 84/84/84 46/46/46 83/83/83
f 101/101/101 59/59/59 102/102/102
f 103/103/103 61/61/61 104/104/104
f 106/106/106 63/63/63 107/107/107
f 109/109/109 65/65/65 110/110/110
f 112/112/112 67/67/67 113/113/113
f 117/117/117 72/72/72 118/118/118
f 121/121/121 74/74/74 120/120/120
f 122/122/122 75/75/75 121/121/121
f 126/126/126 79/79/79 125/125/125
f 127/127/127 80/80/80 126/126/126
f 151/151/151 98/98/98 152/152/152
f 157/157/157 105/105/105 158/158/158
f 162/162/162 108/108/108 163/163/163
f 164/164/164 110/110/110 165/165/165
f 165/165/165 111/111/111 166/166/166
f 168/168/168 114/114/114 169/169/169
f 172/172/172 118/118/118 173/173/173
f 177/177/177 120/120/120 176/176/176
f 178/178/178 121/121/121 177/177/177
f 181/181/181 124/124/124 180/180/180
f 183/183/183 126/126/126 182/182/182
f 184/184/184 127/127/127 183/183/183
f 192/192/192 134/134/134 191/191/191
f 196/196/196 147/147/147 197/197/197
f 201/201/201 159/159/159 202/202/202
f 204/204/204 162/162/162 205/205/205
f 207/207/207 166/166/166 208/208/208
f 208/208/208 167/167/167 209/209/209
f 212/212/212 169/169/169 213/213/213
f 217/217/217 174/174/174 218/218/218
f 222/222/222 177/177/177 221/221/221
f 223/223/223 178/178/178 222/222/222
f 226/226/226 181/181/181 225/225/225
f 227/227/227 182/182/182 226/226/226
f 228/228/228 183/183/183 227/227/227
f 229/229/229 184/184/184 228/228/228
f 239/239/239 200/200/200 240/240/240
f 241/241/241 206/206/206 242/242/242
f 243/243/243 209/209/209 244/244/244
f 244/244/244 210/210/210 245/245/245
f 245/245/245 211/211/211 246/246/246
f 247/247/247 213/213/213 248/248/248
f 253/253/253 219/219/219 254/254/254
f 260/260/260 221/221/221 259/259/259
f 261/261/261 222/222/222 260/260/260
f 262/262/262 223/223/223 261/261/261
f 263/263/263 224/224/224 262/262/262
f 264/264/264 225/225/225 263/263/263
f 265/265/265 226/226/226 264/264/264
f 266/266/266 227/227/227 265/265/265
f 267/267/267 228/228/228 266/266/266
f 268/268/268 229/229/229 267/267/267
f 269/269/269 230/230/230 268/268/268
f 271/271/271 232/232/232 270/270/270
f 276/276/276 238/238/238 277/277/277
f 280/280/280 242/242/242 281/281/281
f 284/284/284 248/248/248 285/285/285
f 285/285/285 249/249/249 286/286/286
f 291/291/291 255/255/255 292/292/292
f 292/292/292 256/256/256 293/293/293
f 293/293/293 257/257/257 294/294/294
f 297/297/297 259/259/259 296/296/296
f 298/298/298 260/260/260 297/297/297
f 299/299/299 261/261/261 298/298/298
f 300/300/300 262/262/262 299/299/299
f 302/302/302 264/264/264 301/301/301
f 304/304/304 266/266/266 303/303/303
f 305/305/305 267/267/267 304/304/304
f 306/306/306 268/268/268 305/305/305
f 314/314/314 275/275/275 315/315/315
f 318/318/318 279/279/279 319/319/319
f 321/321/321 282/282/282 322/322/322
f 322/322/322 283/283/283 323/323/323
f 325/325/325 287/287/287 326/326/326
f 336/336/336 297/297/297 335/335/335
f 337/337/337 298/298/298 336/336/336
f 338/338/338 299/299/299 337/337/337
f 339/339/339 300/300/300 338/338/338
f 344/344/344 305/305/305 343/343/343
f 354/354/354 317/317/317 355/355/355
f 357/357/357 320/320/320 358/358/358
f 360/360/360 323/323/323 361/361/361
f 361/361/361 324/324/324 362/362/362
f 364/364/364 327/327/327 365/365/365
f 374/374/374 336/336/336 373/373/373
f 375/375/375 337/337/337 374/374/374
f 376/376/376 338/338/338 375/375/375
f 377/377/377 339/339/339 376/376/376
f 381/381/381 343/343/343 380/380/380
f 390/390/390 356/356/356 391/391/391
f 392/392/392 359/359/359 393/393/393
f 394/394/394 362/362/362 395/395/395
f 395/395/395 363/363/363 396/396/396
f 398/398/398 366/366/366 399/399/399
f 407/407/407 374/374/374 406/406/406
f 408/408/408 375/375/375 407/407/407
f 409/409/409 376/376/376 408/408/408
f 410/410/410 377/377/377 409/409/409
f 411/411/411 378/378/378 410/410/410
f 412/412/412 379/379/379 411/411/411
f 413/413/413 380/380/380 412/412/412
f 422/422/422 389/389/389 423/423/423
f 427/427/427 393/393/393 428/428/428
f 430/430/430 395/395/395 431/431/431
f 432/432/432 397/397/397 433/433/433
f 437/437/437 400/400/400 438/438/438
f 438/438/438 401/401/401 439/439/439
f 439/439/439 402/402/402 440/440/440
f 446/446/446 408/408/408 445/445/445
f 447/447/447 409/409/409 446/446/446
f 448/448/448 410/410/410 447/447/447
f 449/449/449 411/411/411 448/448/448
f 450/450/450 412/412/412 449/449/449
f 460/460/460 424/424/424 461/461/461
f 467/467/467 429/429/429 468/468/468
f 473/473/473 432/432/432 474/474/474
f 475/475/475 434/434/434 476/476/476
f 476/476/476 435/435/435 477/477/477
f 477/477/477 436/436/436 478/478/478
f 481/481/481 441/441/441 482/482/482
f 482/482/482 442/442/442 483/483/483
f 486/486/486 446/446/446 485/485/485
f 509/509/509 462/462/462 510/510/510
f 515/515/515 465/465/465 516/516/516
f 516/516/516 466/466/466 517/517/517
f 521/521/521 471/471/471 522/522/522
f 522/522/522 472/472/472 523/523/523
f 527/527/527 478/478/478 528/528/528
f 528/528/528 479/479/479 529/529/529
f 529/529/529 480/480/480 530/530/530
f 533/533/533 495/495/495 532/532/532
f 534/534/534 496/496/496 533/533/533
f 547/547/547 511/511/511 548/548/548
f 549/549/549 514/514/514 550/550/550
f 554/554/554 520/520/520 555/555/555
f 558/558/558 525/525/525 559/559/559
f 37/37/37 11/11/11 47/47/47
f 46/46/46 14/14/14 50/50/50
f 51/51/51 13/13/13 49/49/49
f 52/52/52 18/18/18 54/54/54
f 55/55/55 17/17/17 53/53/53
f 54/54/54 20/20/20 56/56/56
f 57/57/57 19/19/19 55/55/55
f 63/63/63 30/30/30 66/66/66
f 72/72/72 28/28/28 64/64/64
f 73/73/73 47/47/47 84/84/84
f 85/85/85 45/45/45 81/81/81
f 83/83/83 50/50/50 88/88/88
f 89/89/89 49/49/49 86/86/86
f 92/92/92 51/51/51 89/89/89
f 91/91/91 54/54/54 94/94/94
f 94/94/94 56/56/56 97/97/97
f 118/118/118 64/64/64 109/109/109
f 119/119/119 84/84/84 131/131/131
f 132/132/132 82/82/82 128/128/128
f 130/130/130 88/88/88 136/136/136
f 138/138/138 87/87/87 133/133/133
f 136/136/136 91/91/91 141/141/141
f 141/141/141 94/94/94 146/146/146
f 148/148/148 93/93/93 143/143/143
f 153/153/153 96/96/96 148/148/148
f 156/156/156 106/106/106 161/161/161
f 190/190/190 129/129/129 185/185/185
f 193/193/193 142/142/142 195/195/195
f 194/194/194 146/146/146 196/196/196
f 198/198/198 156/156/156 199/199/199
f 206/206/206 168/168/168 212/212/212
f 220/220/220 189/189/189 233/233/233
f 232/232/232 193/193/193 234/234/234
f 236/236/236 198/198/198 237/237/237
f 242/242/242 212/212/212 247/247/247
f 270/270/270 234/234/234 272/272/272
f 273/273/273 236/236/236 274/274/274
f 295/295/295 271/271/271 308/308/308
f 307/307/307 272/272/272 310/310/310
f 334/334/334 309/309/309 346/346/346
f 345/345/345 311/311/311 348/348/348
f 372/372/372 347/347/347 383/383/383
f 382/382/382 349/349/349 385/385/385
f 405/405/405 384/384/384 415/415/415
f 414/414/414 386/386/386 418/418/418
f 417/417/417 387/387/387 420/420/420
f 443/443/443 416/416/416 452/452/452
f 451/451/451 419/419/419 456/456/456
f 455/455/455 421/421/421 458/458/458
f 484/484/484 454/454/454 492/492/492
f 490/490/490 457/457/457 499/499/499
f 498/498/498 459/459/459 504/504/504
f 531/531/531 503/503/503 536/536/536
f 535/535/535 508/508/508 542/542/542
f 548/548/548 506/506/506 541/541/541
f 85/85/85 81/81/81 82/82/82
f 89/89/89 86/86/86 87/87/87
f 95/95/95 92/92/92 93/93/93
f 99/99/99 95/95/95 96/96/96
f 132/132/132 128/128/128 129/129/129
f 137/137/137 131/131/131 130/130/130
f 138/138/138 133/133/133 134/134/134
f 139/139/139 134/134/134 135/135/135
f 142/142/142 137/137/137 136/136/136
f 143/143/143 138/138/138 139/139/139
f 149/149/149 144/144/144 145/145/145
f 154/154/154 149/149/149 150/150/150
f 189/189/189 176/176/176 175/175/175
f 190/190/190 185/185/185 186/186/186
f 197/197/197 195/195/195 194/194/194
f 255/255/255 244/244/244 245/245/245
f 256/256/256 245/245/245 246/246/246
f 309/309/309 296/296/296 295/295/295
f 311/311/311 308/308/308 307/307/307
f 313/313/313 311/311/311 310/310/310
f 347/347/347 335/335/335 334/334/334
f 349/349/349 346/346/346 345/345/345
f 353/353/353 351/351/351 350/350/350
f 384/384/384 373/373/373 372/372/372
f 386/386/386 383/383/383 382/382/382
f 416/416/416 406/406/406 405/405/405
f 419/419/419 415/415/415 414/414/414
f 421/421/421 418/418/418 417/417/417
f 439/439/439 435/435/435 434/434/434
f 453/453/453 444/444/444 443/443/443
f 454/454/454 445/445/445 444/444/444
f 457/457/457 452/452/452 451/451/451
f 459/459/459 456/456/456 455/455/455
f 475/475/475 470/470/470 469/469/469
f 483/483/483 480/480/480 479/479/479
f 493/493/493 485/485/485 484/484/484
f 495/495/495 487/487/487 486/486/486
f 496/496/496 488/488/488 487/487/487
f 497/497/497 489/489/489 488/488/488
f 500/500/500 491/491/491 490/490/490
f 501/501/501 492/492/492 491/491/491
f 503/503/503 494/494/494 493/493/493
f 508/508/508 502/502/502 501/501/501
f 518/518/518 513/513/513 512/512/512
f 523/523/523 519/519/519 518/518/518
f 537/537/537 532/532/532 531/531/531
f 538/538/538 533/533/533 532/532/532
f 539/539/539 534/534/534 533/533/533
f 543/543/543 536/536/536 535/535/535
f 544/544/544 537/537/537 536/536/536
f 548/548/548 541/541/541 540/540/540
f 551/551/551 544/544/544 543/543/543
f 552/552/552 545/545/545 544/544/544
f 553/553/553 546/546/546 545/545/545
f 556/556/556 552/552/552 551/551/551
f 557/557/557 553/553/553 552/552/552
f 39/39/39 3/3/3 2/2/2
f 40/40/40 4/4/4 3/3/3
f 41/41/41 5/5/5 4/4/4
f 42/42/42 6/6/6 5/5/5
f 43/43/43 7/7/7 6/6/6
f 44/44/44 8/8/8 7/7/7
f 47/47/47 11/11/11 10/10/10
f 49/49/49 13/13/13 12/12/12
f 62/62/62 26/26/26 27/27/27
f 64/64/64 28/28/28 29/29/29
f 66/66/66 30/30/30 31/31/31
f 71/71/71 35/35/35 36/36/36
f 75/75/75 39/39/39 38/38/38
f 76/76/76 40/40/40 39/39/39
f 77/77/77 41/41/41 40/40/40
f 80/80/80 44/44/44 43/43/43
f 84/84/84 47/47/47 46/46/46
f 101/101/101 58/58/58 59/59/59
f 103/103/103 60/60/60 61/61/61
f 106/106/106 62/62/62 63/63/63
f 109/109/109 64/64/64 65/65/65
f 112/112/112 66/66/66 67/67/67
f 117/117/117 71/71/71 72/72/72
f 121/121/121 75/75/75 74/74/74
f 122/122/122 76/76/76 75/75/75
f 126/126/126 80/80/80 79/79/79
f 127/127/127 81/81/81 80/80/80
f 151/151/151 97/97/97 98/98/98
f 157/157/157 104/104/104 105/105/105
f 162/162/162 107/107/107 108/108/108
f 164/164/164 109/109/109 110/110/110
f 165/165/165 110/110/110 111/111/111
f 168/168/168 113/113/113 114/114/114
f 172/172/172 117/117/117 118/118/118
f 177/177/177 121/121/121 120/120/120
f 178/178/178 122/122/122 121/121/121
f 181/181/181 125/125/125 124/124/124
f 183/183/183 127/127/127 126/126/126
f 184/184/184 128/128/128 127/127/127
f 192/192/192 135/135/135 134/134/134
f 196/196/196 146/146/146 147/147/147
f 201/201/201 158/158/158 159/159/159
f 204/204/204 161/161/161 162/162/162
f 207/207/207 165/165/165 166/166/166
f 208/208/208 166/166/166 167/167/167
f 212/212/212 168/168/168 169/169/169
f 217/217/217 173/173/173 174/174/174
f 222/222/222 178/178/178 177/177/177
f 223/223/223 179/179/179 178/178/178
f 226/226/226 182/182/182 181/181/181
f 227/227/227 183/183/183 182/182/182
f 228/228/228 184/184/184 183/183/183
f 229/229/229 185/185/185 184/184/184
f 239/239/239 199/199/199 200/200/200
f 241/241/241 205/205/205 206/206/206
f 243/243/243 208/208/208 209/209/209
f 244/244/244 209/209/209 210/210/210
f 245/245/245 210/210/210 211/211/211
f 247/247/247 212/212/212 213/213/213
f 253/253/253 218/218/218 219/219/219
f 260/260/260 222/222/222 221/221/221
f 261/261/261 223/223/223 222/222/222
f 262/262/262 224/224/224 223/223/223
f 263/263/263 225/225/225 224/224/224
f 264/264/264 226/226/226 225/225/225
f 265/265/265 227/227/227 226/226/226
f 266/266/266 228/228/228 227/227/227
f 267/267/267 229/229/229 228/228/228
f 268/268/268 230/230/230 229/229/229
f 269/269/269 231/231/231 230/230/230
f 271/271/271 233/233/233 232/232/232
f 276/276/276 237/237/237 238/238/238
f 280/280/280 241/241/241 242/242/242
f 284/284/284 247/247/247 248/248/248
f 285/285/285 248/248/248 249/249/249
f 291/291/291 254/254/254 255/255/255
f 292/292/292 255/255/255 256/256/256
f 293/293/293 256/256/256 257/257/257
f 297/297/297 260/260/260 259/259/259
f 298/298/298 261/261/261 260/260/260
f 299/299/299 262/262/262 261/261/261
f 300/300/300 263/263/263 262/262/262
f 302/302/302 265/265/265 264/264/264
f 304/304/304 267/267/267 266/266/266
f 305/305/305 268/268/268 267/267/267
f 306/306/306 269/269/269 268/268/268
f 314/314/314 274/274/274 275/275/275
f 318/318/318 278/278/278 279/279/279
f 321/321/321 281/281/281 282/282/282
f 322/322/322 282/282/282 283/283/283
f 325/325/325 286/286/286 287/287/287
f 336/336/336 298/298/298 297/297/297
f 337/337/337 299/299/299 298/298/298
f 338/338/338 300/300/300 299/299/299
f 339/339/339 301/301/301 300/300/300
f 344/344/344 306/306/306 305/305/305
f 354/354/354 316/316/316 317/317/317
f 357/357/357 319/319/319 320/320/320
f 360/360/360 322/322/322 323/323/323
f 361/361/361 323/323/323 324/324/324
f 364/364/364 326/326/326 327/327/327
f 374/374/374 337/337/337 336/336/336
f 375/375/375 338/338/338 337/337/337
f 376/376/376 339/339/339 338/338/338
f 377/377/377 340/340/340 339/339/339
f 381/381/381 344/344/344 343/343/343
f 390/390/390 355/355/355 356/356/356
f 392/392/392 358/358/358 359/359/359
f 394/394/394 361/361/361 362/362/362
f 395/395/395 362/362/362 363/363/363
f 398/398/398 365/365/365 366/366/366
f 407/407/407 375/375/375 374/374/374
f 408/408/408 376/376/376 375/375/375
f 409/409/409 377/377/377 376/376/376
f 410/410/410 378/378/378 377/377/377
f 411/411/411 379/379/379 378/378/378
f 412/412/412 380/380/380 379/379/379
f 413/413/413 381/381/381 380/380/380
f 422/422/422 388/388/388 389/389/389
f 427/427/427 392/392/392 393/393/393
f 430/430/430 394/394/394 395/395/395
f 432/432/432 396/396/396 397/397/397
f 437/437/437 399/399/399 400/400/400
f 438/438/438 400/400/400 401/401/401
f 439/439/439 401/401/401 402/402/402
f 446/446/446 409/409/409 408/408/408
f 447/447/447 410/410/410 409/409/409
f 448/448/448 411/411/411 410/410/410
f 449/449/449 412/412/412 411/411/411
f 450/450/450 413/413/413 412/412/412
f 460/460/460 423/423/423 424/424/424
f 467/467/467 428/428/428 429/429/429
f 473/473/473 431/431/431 432/432/432
f 475/475/475 433/433/433 434/434/434
f 476/476/476 434/434/434 435/435/435
f 477/477/477 435/435/435 436/436/436
f 481/481/481 440/440/440 441/441/441
f 482/482/482 441/441/441 442/442/442
f 486/486/486 447/447/447 446/446/446
f 509/509/509 461/461/461 462/462/462
f 515/515/515 464/464/464 465/465/465
f 516/516/516 465/465/465 466/466/466
f 521/521/521 470/470/470 471/471/471
f 522/522/522 471/471/471 472/472/472
f 527/527/527 477/477/477 478/478/478
f 528/528/528 478/478/478 479/479/479
f 529/529/529 479/479/479 480/480/480
f 533/533/533 496/496/496 495/495/495
f 534/534/534 497/497/497 496/496/496
f 547/547/547 510/510/510 511/511/511
f 549/549/549 513/513/513 514/514/514
f 554/554/554 519/519/519 520/520/520
f 558/558/558 524/524/524 525/525/525
f 37/37/37 1/1/1 11/11/11
f 46/46/46 10/10/10 14/14/14
f 51/51/51 15/15/15 13/13/13
f 52/52/52 16/16/16 18/18/18
f 55/55/55 19/19/19 17/17/17
f 54/54/54 18/18/18 20/20/20
f 57/57/57 21/21/21 19/19/19
f 63/63/63 27/27/27 30/30/30
f 72/72/72 36/36/36 28/28/28
f 73/73/73 37/37/37 47/47/47
f 85/85/85 48/48/48 45/45/45
f 83/83/83 46/46/46 50/50/50
f 89/89/89 51/51/51 49/49/49
f 92/92/92 53/53/53 51/51/51
f 91/91/91 52/52/52 54/54/54
f 94/94/94 54/54/54 56/56/56
f 118/118/118 72/72/72 64/64/64
f 119/119/119 73/73/73 84/84/84
f 132/132/132 86/86/86 82/82/82
f 130/130/130 83/83/83 88/88/88
f 138/138/138 90/90/90 87/87/87
f 136/136/136 88/88/88 91/91/91
f 141/141/141 91/91/91 94/94/94
f 148/148/148 96/96/96 93/93/93
f 153/153/153 100/100/100 96/96/96
f 156/156/156 102/102/102 106/106/106
f 190/190/190 133/133/133 129/129/129
f 193/193/193 137/137/137 142/142/142
f 194/194/194 141/141/141 146/146/146
f 198/198/198 152/152/152 156/156/156
f 206/206/206 163/163/163 168/168/168
f 220/220/220 176/176/176 189/189/189
f 232/232/232 188/188/188 193/193/193
f 236/236/236 197/197/197 198/198/198
f 242/242/242 206/206/206 212/212/212
f 270/270/270 232/232/232 234/234/234
f 273/273/273 235/235/235 236/236/236
f 295/295/295 258/258/258 271/271/271
f 307/307/307 270/270/270 272/272/272
f 334/334/334 296/296/296 309/309/309
f 345/345/345 308/308/308 311/311/311
f 372/372/372 335/335/335 347/347/347
f 382/382/382 346/346/346 349/349/349
f 405/405/405 373/373/373 384/384/384
f 414/414/414 383/383/383 386/386/386
f 417/417/417 385/385/385 387/387/387
f 443/443/443 406/406/406 416/416/416
f 451/451/451 415/415/415 419/419/419
f 455/455/455 418/418/418 421/421/421
f 484/484/484 445/445/445 454/454/454
f 490/490/490 452/452/452 457/457/457
f 498/498/498 456/456/456 459/459/459
f 531/531/531 494/494/494 503/503/503
f 535/535/535 502/502/502 508/508/508
f 548/548/548 511/511/511 506/506/506
