# Tunnel_Straight_Collision - generated by tools/gen_cave_kit.py, do not edit
o Tunnel_Straight_Collision
v 4.000000 0.101318 -1.934672
v 4.000000 -0.069438 -1.505445
v 4.000000 -0.099328 -0.999929
v 4.000000 -0.091209 -0.499980
v 4.000000 -0.087622 0.000000
v 4.000000 -0.091209 0.499980
v 4.000000 -0.099328 0.999929
v 4.000000 -0.069438 1.505445
v 4.000000 0.101318 1.934672
v 4.000000 0.607997 -2.336538
v 4.000000 0.342985 -2.192959
v 4.000000 0.342985 2.192959
v 4.000000 0.607997 2.336538
v 4.000000 0.998976 -2.451794
v 4.000000 0.998976 2.451794
v 4.000000 1.500235 -2.504796
v 4.000000 1.500235 2.504796
v 4.000000 1.999903 -2.493615
v 4.000000 1.999903 2.493615
v 4.000000 2.501784 -2.427373
v 4.000000 2.501784 2.427373
v 4.000000 2.882664 -2.326525
v 4.000000 3.140114 -2.193808
v 4.000000 3.140114 2.193808
v 4.000000 2.882664 2.326525
v 4.000000 3.421503 -1.938023
v 4.000000 3.662922 -1.582112
v 4.000000 3.662922 1.582112
v 4.000000 3.421503 1.938023
v 4.000000 3.789063 -1.327630
v 4.000000 3.918724 -1.002389
v 4.000000 4.050795 -0.501186
v 4.000000 4.094719 0.000000
v 4.000000 4.050795 0.501186
v 4.000000 3.918724 1.002389
v 4.000000 3.789063 1.327630
v 3.500000 0.101387 -1.934777
v 3.500000 -0.069443 -1.505420
v 3.500000 -0.099328 -0.999930
v 3.500000 -0.091209 -0.499981
v 3.500000 -0.087622 0.000000
v 3.500000 -0.091209 0.499981
v 3.500000 -0.099328 0.999928
v 3.500000 -0.069432 1.505478
v 3.500000 0.101350 1.934720
v 3.500000 0.607656 -2.336397
v 3.500000 0.342671 -2.192725
v 3.500000 0.343046 2.193005
v 3.500000 0.607964 2.336524
v 3.500000 0.999014 -2.451800
v 3.500000 0.998687 2.451740
v 3.500000 1.500165 -2.504792
v 3.500000 1.500060 2.504786
v 3.500000 2.000038 -2.493602
v 3.500000 2.000165 2.493590
v 3.500000 2.501924 -2.427348
v 3.500000 2.502044 2.427326
v 3.500000 2.882620 -2.326542
v 3.500000 3.139971 -2.193904
v 3.500000 3.139654 2.194119
v 3.500000 2.882473 2.326598
v 3.500000 3.421348 -1.938204
v 3.500000 3.663244 -1.581527
v 3.500000 3.662625 1.582652
v 3.500000 3.421495 1.938032
v 3.500000 3.789330 -1.327035
v 3.500000 3.918674 -1.002533
v 3.500000 4.050815 -0.501071
v 3.500000 4.094719 0.000000
v 3.500000 4.050844 0.500909
v 3.500000 3.918852 1.002021
v 3.500000 3.788790 1.328238
v 2.999602 0.099922 -1.930940
v 2.999877 -0.069521 -1.505745
v 2.999982 -0.100099 -0.999898
v 3.000004 -0.091924 -0.499978
v 3.000014 -0.089504 0.000002
v 3.000006 -0.091989 0.499983
v 2.999973 -0.098109 0.999939
v 2.999885 -0.068284 1.505581
v 2.999663 0.103721 1.933634
v 2.999398 0.611480 -2.342386
v 2.998246 0.346806 -2.192277
v 2.999601 0.346005 2.191554
v 2.999746 0.610293 2.334669
v 2.999402 0.997777 -2.449754
v 2.999751 0.999315 2.434986
v 2.999873 1.499866 -2.495449
v 3.000158 1.500041 2.475484
v 3.000007 1.999941 -2.484636
v 3.000102 1.999953 2.459353
v 3.000025 2.501972 -2.426317
v 2.998406 2.503167 2.407676
v 3.000497 2.885980 -2.328350
v 3.000544 3.143632 -2.196986
v 2.997160 3.120193 2.195248
v 2.997531 2.859148 2.316998
v 3.000547 3.422611 -1.940870
v 3.000312 3.664708 -1.577791
v 2.999936 3.665368 1.589014
v 2.998801 3.426172 1.938482
v 3.000000 3.783871 -1.322673
v 2.999815 3.913849 -1.002041
v 3.000210 4.057438 -0.501746
v 3.000476 4.111270 -0.000014
v 3.000351 4.065058 0.501350
v 3.000238 3.929211 1.001982
v 3.000034 3.793523 1.331286
v 2.499896 0.097542 -1.919975
v 2.499993 -0.067358 -1.505274
v 2.499988 -0.096402 -0.999959
v 2.499967 -0.088768 -0.499973
v 2.499979 -0.086941 -0.000009
v 2.499992 -0.090942 0.499992
v 2.500021 -0.097987 0.999920
v 2.500252 -0.067870 1.505520
v 2.499925 0.103650 1.929508
v 2.499892 0.642788 -2.309276
v 2.498002 0.379933 -2.168255
v 2.496859 0.363958 2.201673
v 2.498074 0.635739 2.319827
v 2.499996 0.999989 -2.406298
v 2.496854 0.997848 2.401829
v 2.500909 1.502975 -2.446438
v 2.502633 1.500197 2.396238
v 2.500913 2.000013 -2.498685
v 2.501906 1.998033 2.385743
v 2.500037 2.500875 -2.421631
v 2.499483 2.501191 2.349290
v 2.497860 2.873779 -2.327013
v 2.497532 3.134147 -2.195907
v 2.496961 3.059305 2.169517
v 2.499826 2.797363 2.271517
v 2.498699 3.412656 -1.932505
v 2.500140 3.669036 -1.595360
v 2.500251 3.652732 1.591703
v 2.499621 3.397159 1.898963
v 2.500182 3.797416 -1.334706
v 2.499576 3.919540 -0.998993
v 2.499958 4.053228 -0.500188
v 2.499934 4.115288 -0.000392
v 2.500237 4.084141 0.501579
v 2.500012 3.948527 1.004961
v 2.500009 3.796434 1.335130
v 2.000213 0.102059 -1.924055
v 1.999723 -0.064357 -1.504691
v 1.999998 -0.092435 -0.999999
v 2.000004 -0.086537 -0.499995
v 1.999984 -0.083022 -0.000050
v 1.999888 -0.089499 0.499983
v 1.999776 -0.094582 0.999858
v 1.998862 -0.068112 1.506859
v 1.998704 0.096847 1.919784
v 2.000320 0.622465 -2.316638
v 2.004719 0.358075 -2.175910
v 1.994228 0.423528 2.195631
v 1.999957 0.695705 2.274559
v 1.999578 1.001328 -2.387986
v 1.999475 0.999260 2.328591
v 2.000165 1.512129 -2.437180
v 2.003526 1.502233 2.291973
v 2.003250 2.000427 -2.547791
v 2.000125 2.000183 2.352835
v 1.999394 2.496780 -2.425632
v 1.785780 2.742454 2.246607
v 1.969257 2.553752 2.320042
v 2.000016 2.848093 -2.297099
v 1.999993 3.098100 -2.176196
v 1.971533 2.958434 2.159221
v 2.119843 2.757275 2.247793
v 2.007118 3.430430 -1.946119
v 2.000124 3.658013 -1.614422
v 2.000218 3.635570 1.605137
v 2.000036 3.392347 1.879191
v 1.999821 3.808971 -1.358407
v 2.000230 3.963609 -1.001132
v 2.002588 4.089801 -0.503577
v 2.002289 4.149589 -0.000210
v 2.003234 4.121107 0.505440
v 2.002337 3.982266 1.005314
v 2.000926 3.818609 1.365910
v 1.502258 0.090909 -1.951928
v 1.501226 -0.076043 -1.504855
v 1.500168 -0.104623 -0.999989
v 1.500033 -0.098233 -0.499850
v 1.500003 -0.083799 0.000002
v 1.500044 -0.075016 0.499983
v 1.500048 -0.080819 0.999927
v 1.499055 -0.042566 1.505569
v 1.497238 0.114397 1.888162
v 1.504088 0.547631 -2.389598
v 1.502096 0.282803 -2.217592
v 1.517344 0.535213 2.139795
v 1.699907 0.734481 2.258594
v 1.506320 0.999163 -2.511582
v 1.325240 0.998830 2.278890
v 1.587707 0.996840 2.316466
v 1.500491 1.499693 -2.552433
v 1.251372 1.251283 2.249673
v 1.455315 1.450238 2.262830
v 1.493207 2.007779 -2.603160
v 1.499917 2.000009 2.351371
v 1.498072 2.509653 -2.452283
v 1.499411 2.732587 2.252384
v 1.500551 2.479252 2.300896
v 1.500292 2.817149 -2.284414
v 1.498488 3.072555 -2.146736
v 1.505472 3.016066 2.196431
v 1.466579 3.430972 -1.951954
v 1.496196 3.695616 -1.649828
v 1.504161 3.675221 1.664701
v 1.502187 3.411058 1.911104
v 1.499428 3.842464 -1.373915
v 1.496058 3.991355 -1.008518
v 1.499327 4.089987 -0.501818
v 1.497916 4.134175 -0.001166
v 1.496951 4.136766 0.502813
v 1.504225 4.037211 1.011638
v 1.501753 3.859628 1.409521
v 0.999646 0.104830 -1.971501
v 1.000337 -0.084040 -1.504903
v 1.000017 -0.113250 -0.999833
v 0.999993 -0.097776 -0.499973
v 0.999999 -0.089393 -0.000005
v 0.999942 -0.077033 0.500011
v 0.999900 -0.084912 1.000025
v 0.999653 -0.033744 1.506774
v 0.999382 0.125998 1.868492
v 1.005643 0.505708 -2.433629
v 1.001533 0.259895 -2.226471
v 0.997829 0.552232 2.004547
v 0.998387 1.001617 -2.593761
v 1.052924 1.029993 2.197654
v 0.909772 1.219396 2.231503
v 0.996531 1.500731 -2.632422
v 1.245266 1.251259 2.248672
v 1.044493 1.453391 2.292313
v 0.998739 1.992273 -2.546983
v 1.009141 1.984125 2.467775
v 1.003183 2.540601 -2.386834
v 0.845106 2.713144 -2.228959
v 0.999749 2.713353 2.241110
v 1.000872 2.473298 2.357483
v 1.179995 2.774452 -2.264744
v 0.971796 3.030950 -2.053272
v 0.783632 3.237728 -1.739733
v 0.992088 3.012985 2.199053
v 1.119524 3.310299 -1.807046
v 0.974923 3.482951 -1.577272
v 0.996001 3.663310 1.655695
v 0.994043 3.421015 1.931524
v 0.997136 3.801697 -1.316352
v 0.999084 3.935567 -1.005524
v 1.004094 4.002291 -0.500963
v 0.997811 4.066321 -0.003591
v 0.998089 4.059014 0.499903
v 0.996659 4.058548 1.013374
v 0.999225 3.858453 1.397485
v 0.500509 0.098036 -1.990902
v 0.501349 -0.110583 -1.507613
v 0.500323 -0.120196 -0.999397
v 0.500047 -0.100213 -0.499998
v 0.500193 -0.107904 0.000212
v 0.499992 -0.086067 0.500041
v 0.499963 -0.077706 1.000172
v 0.499847 -0.027256 1.504848
v 0.500824 0.120051 1.872877
v 0.497462 0.495116 -2.443907
v 0.499979 0.265552 -2.231350
v 0.534981 0.478948 2.154934
v 0.382153 0.679289 2.330343
v 0.375423 1.159070 -2.856303
v 0.548650 0.974843 -2.744244
v 0.714105 0.876669 2.243912
v 0.524072 1.026887 2.341656
v 0.402009 1.535198 -2.913902
v 0.711394 1.507335 -2.771991
v 0.482574 1.507939 2.406458
v 0.318939 1.818884 -2.816587
v 0.501100 1.990751 -2.652484
v 0.493358 1.993191 2.408647
v 0.499681 2.398233 -2.331793
v 0.506336 2.649241 -2.159919
v 0.500068 2.706800 2.233340
v 0.500214 2.457133 2.340568
v 0.499569 2.974683 -1.937476
v 0.498379 3.222503 -1.723949
v 0.499954 2.999769 2.128722
v 0.506670 3.555472 -1.467257
v 0.343176 3.731076 -1.215615
v 0.497351 3.653870 1.647689
v 0.501527 3.417551 1.905047
v 0.678792 3.754109 -1.256885
v 0.508086 3.818977 -1.023516
v 0.492137 4.036152 -0.513145
v 0.499217 4.030975 0.002689
v 0.499867 3.995165 0.499109
v 0.499664 4.026535 0.998093
v 0.503326 3.875865 1.413344
v -0.221170 0.245767 -2.254654
v -0.030320 0.109023 -2.054945
v -0.000982 -0.109312 -1.506472
v -0.000058 -0.127141 -0.999657
v -0.000047 -0.105931 -0.499838
v -0.000352 -0.099489 0.000090
v 0.000014 -0.087212 0.500019
v -0.000003 -0.078601 1.000051
v 0.001741 -0.041498 1.504673
v 0.001886 0.126365 1.916157
v -0.036056 0.450319 -2.382606
v 0.115591 0.246980 -2.249851
v 0.001078 0.347093 2.154541
v 0.005767 0.587488 2.382398
v 0.162088 1.189503 -2.796136
v 0.031112 1.048435 -2.594024
v -0.000110 1.000018 2.513809
v 0.135256 1.503020 -2.798819
v -0.033860 1.501480 -2.614017
v -0.019933 1.495639 2.589418
v 0.193320 1.795996 -2.791210
v 0.023110 1.980422 -2.653906
v -0.223518 2.221453 2.239986
v -0.031538 2.030156 2.367715
v -0.001022 2.389427 -2.343094
v -0.005206 2.654743 -2.156716
v -0.047675 2.546479 2.243064
v 0.099711 2.397230 2.333693
v 0.017330 3.092407 -1.964222
v 0.178114 3.252498 -1.752408
v 0.007218 2.997319 2.068190
v -0.156750 3.260647 -1.759092
v 0.004153 3.444470 -1.577869
v -0.002655 3.738735 -1.167939
v -0.003196 3.668973 1.642541
v -0.012823 3.446674 1.932873
v -0.000548 3.813314 -0.910779
v -0.004558 3.979188 -0.511799
v -0.000406 4.018458 0.000020
v 0.005149 4.051712 0.509271
v -0.005478 4.006037 0.999233
v -0.001226 3.841901 1.389573
v -0.266467 0.248631 -2.251117
v -0.459739 0.105168 -2.052266
v -0.498740 -0.109858 -1.506423
v -0.499356 -0.138115 -0.999440
v -0.500018 -0.101992 -0.499956
v -0.499972 -0.082920 -0.000015
v -0.499949 -0.084312 0.500089
v -0.499986 -0.092853 0.999999
v -0.498968 -0.072910 1.505651
v -0.486255 0.128550 2.034415
v -0.642592 0.207989 2.298502
v -0.457472 0.475406 -2.327003
v -0.600019 0.281765 -2.230372
v -0.307361 0.260334 2.228062
v -0.479211 0.445620 2.442697
v -0.500404 0.988857 -2.554291
v -0.498153 0.994161 2.503364
v -0.491270 1.501564 -2.500754
v -0.499367 1.499129 2.463084
v -0.517476 2.005182 -2.583217
v -0.501198 2.201958 2.208095
v -0.503125 1.940169 2.300094
v -0.504254 2.416725 -2.382803
v -0.500683 2.646043 -2.195108
v -0.499774 2.498903 2.144725
v -0.489997 3.077249 -1.945641
v -0.618606 3.222964 -1.725050
v -0.500475 2.987301 1.904118
v -0.286739 3.256688 -1.756609
v -0.473088 3.415916 -1.562349
v -0.498654 3.667683 -1.103405
v -0.501492 3.615416 1.571406
v -0.505471 3.349693 1.850707
v -0.505033 3.753624 -0.843531
v -0.498056 3.871950 -0.487114
v -0.501165 3.985065 0.008657
v -0.496279 4.047141 0.505936
v -0.497248 3.889187 0.996698
v -0.497498 3.758396 1.297105
v -1.232403 0.246526 -2.253433
v -1.040717 0.114539 -2.048652
v -1.000674 -0.119244 -1.509493
v -1.000313 -0.148575 -0.998594
v -1.000140 -0.095288 -0.500560
v -1.000006 -0.088640 0.000001
v -1.000160 -0.094715 0.500304
v -0.999519 -0.129983 0.999731
v -0.998324 -0.097957 1.505463
v -0.999623 0.068575 2.002007
v -0.999166 0.184336 2.322317
v -1.036316 0.464067 -2.367822
v -0.896364 0.269099 -2.245955
v -0.998026 0.484052 2.518223
v -0.995043 0.995973 -2.551131
v -0.988594 1.016362 2.607808
v -1.002853 1.502950 -2.483589
v -0.991638 1.485154 2.391720
v -1.003942 2.014186 -2.447558
v -0.788469 2.223032 2.244152
v -0.973702 2.031334 2.312891
v -0.995372 2.312478 -2.271593
v -0.999564 2.567481 -2.165892
v -0.974604 2.510542 2.183558
v -1.126310 2.351913 2.262514
v -1.021394 3.053298 -1.916079
v -0.874171 3.228523 -1.729940
v -0.993929 3.008918 2.024172
v -1.206818 3.256962 -1.758302
v -1.021440 3.423537 -1.565321
v -1.000196 3.668132 -1.114524
v -0.997514 3.591770 1.579238
v -0.999044 3.333881 1.826136
v -0.999403 3.824910 -0.873145
v -0.999838 3.933180 -0.500411
v -1.000301 4.033256 0.002215
v -0.992172 4.138949 0.506214
v -1.007623 3.918236 0.986972
v -1.002104 3.780322 1.311074
v -1.500292 0.248026 -2.251844
v -1.499559 0.100281 -2.004628
v -1.501169 -0.098028 -1.505452
v -1.500584 -0.125961 -0.999664
v -1.499928 -0.097038 -0.500124
v -1.499939 -0.089697 -0.000012
v -1.499976 -0.102634 0.500195
v -1.500211 -0.127075 0.999870
v -1.502209 -0.097028 1.505186
v -1.534252 0.111912 2.047739
v -1.391212 0.196234 2.300631
v -1.500061 0.497259 -2.393464
v -1.721779 0.257045 2.239200
v -1.555219 0.412352 2.469976
v -1.504068 0.999246 -2.574322
v -1.500125 1.000072 2.556715
v -1.498643 1.502124 -2.551389
v -1.507875 1.493703 2.471249
v -1.509586 1.990839 -2.395147
v -1.501270 1.999123 2.387179
v -1.555719 2.459841 -2.273451
v -1.415439 2.608052 -2.190562
v -1.499516 2.700796 2.259691
v -1.500408 2.446507 2.314751
v -1.745287 2.753184 -2.251882
v -1.544290 2.956365 -2.070406
v -1.498673 3.021406 2.120214
v -1.506338 3.282551 -1.783411
v -1.539175 3.586933 -1.467998
v -1.414854 3.704906 -1.174167
v -1.497513 3.651546 1.663447
v -1.499097 3.381494 1.867465
v -1.748906 3.750351 -1.250776
v -1.548535 3.826231 -1.005128
v -1.503226 3.991596 -0.495717
v -1.500326 4.111942 0.000166
v -1.498387 4.148282 0.500772
v -1.498894 4.037572 1.009367
v -1.496537 3.867018 1.391939
v -1.867386 0.232588 -2.266232
v -2.022004 0.126133 -2.052934
v -2.000510 -0.084198 -1.504686
v -2.000028 -0.101059 -0.999979
v -2.000011 -0.092042 -0.500018
v -2.000026 -0.091154 0.000021
v -2.000003 -0.101200 0.500019
v -2.000201 -0.109240 1.000014
v -2.000331 -0.070928 1.504496
v -2.000709 0.114384 1.958665
v -2.020566 0.435267 -2.397536
v -2.201772 0.251464 -2.247603
v -2.001677 0.292790 2.208700
v -2.006281 0.541199 2.400649
v -1.999861 0.999294 -2.539302
v -1.998737 1.002564 2.493891
v -2.001854 1.501388 -2.571994
v -2.000005 1.500380 2.532934
v -1.998021 1.998611 -2.525957
v -1.997085 2.002820 2.470926
v -1.993985 2.521992 -2.417940
v -1.999561 2.730550 2.224802
v -2.003218 2.477432 2.295705
v -1.997788 2.797502 -2.288336
v -1.989223 3.070034 -2.167326
v -1.998723 3.007203 2.141652
v -1.995310 3.375330 -1.883008
v -2.002524 3.622419 -1.525661
v -1.998476 3.668744 1.651869
v -1.995702 3.411883 1.893115
v -1.999717 3.774336 -1.268670
v -2.000851 3.885540 -1.008224
v -2.000845 4.069234 -0.507043
v -2.003674 4.185801 -0.003494
v -2.003882 4.145838 0.505264
v -2.000674 4.005028 1.002498
v -2.000323 3.834049 1.388577
v -2.500317 0.109981 -1.975775
v -2.500456 -0.075368 -1.505118
v -2.499990 -0.098071 -0.999934
v -2.500013 -0.091997 -0.499982
v -2.500006 -0.091424 -0.000008
v -2.500017 -0.098059 0.499984
v -2.499988 -0.102079 0.999984
v -2.500225 -0.069339 1.505678
v -2.500051 0.107141 1.935212
v -2.504443 0.530714 -2.381976
v -2.501593 0.279570 -2.227729
v -2.500606 0.332952 2.184513
v -2.501319 0.590466 2.355723
v -2.501147 0.998503 -2.507953
v -2.500361 0.999081 2.479322
v -2.499940 1.499993 -2.535511
v -2.499087 1.501598 2.513307
v -2.499721 1.999178 -2.486037
v -2.501851 2.004426 2.511643
v -2.500133 2.500696 -2.394885
v -2.255492 2.746767 2.248902
v -2.452884 2.548814 2.345658
v -2.498749 2.840860 -2.305657
v -2.498163 3.108071 -2.171682
v -2.445644 3.008872 2.217844
v -2.584947 2.826770 2.301890
v -2.500145 3.374645 -1.898091
v -2.500120 3.609151 -1.516766
v -2.501033 3.672104 1.623663
v -2.500716 3.438777 1.936834
v -2.500147 3.751176 -1.264473
v -2.500107 3.864622 -0.999275
v -2.499883 4.028416 -0.499622
v -2.500802 4.108514 -0.000072
v -2.499623 4.065187 0.499233
v -2.499980 3.948532 0.999801
v -2.499896 3.804020 1.364357
v -3.000580 0.104496 -1.946218
v -3.000129 -0.070415 -1.505183
v -2.999989 -0.098442 -0.999931
v -2.999998 -0.090361 -0.499990
v -3.000002 -0.088116 -0.000003
v -3.000009 -0.092859 0.499985
v -3.000025 -0.100142 0.999943
v -2.999876 -0.069581 1.505549
v -2.999794 0.100944 1.935374
v -3.001052 0.585455 -2.346411
v -3.002279 0.324391 -2.200717
v -3.000251 0.336490 2.195050
v -3.000200 0.602917 2.341102
v -3.000402 0.998540 -2.471656
v -3.000007 0.999388 2.454856
v -2.999973 1.500111 -2.511794
v -3.000044 1.500449 2.507172
v -2.999990 2.000088 -2.488574
v -2.999969 2.000529 2.497318
v -2.999698 2.501275 -2.409386
v -2.999280 2.502587 2.419169
v -2.999589 2.863791 -2.315647
v -2.998757 3.125806 -2.182224
v -2.999324 3.128693 2.191744
v -2.999292 2.872255 2.319426
v -2.997807 3.398821 -1.919501
v -2.998519 3.644609 -1.551191
v -3.000273 3.665459 1.595909
v -2.999704 3.421569 1.935236
v -3.000067 3.771304 -1.295050
v -2.999576 3.895074 -1.002915
v -2.999919 4.030887 -0.500246
v -2.999957 4.084795 -0.000043
v -3.000006 4.047886 0.500445
v -3.000323 3.927558 1.001978
v -3.000199 3.797808 1.341230
v -3.500000 0.101690 -1.935236
v -3.500000 -0.069441 -1.505430
v -3.500000 -0.099328 -0.999927
v -3.500000 -0.091209 -0.499979
v -3.500000 -0.087622 0.000000
v -3.500000 -0.091209 0.499981
v -3.500000 -0.099328 0.999929
v -3.500000 -0.069442 1.505425
v -3.500000 0.101563 1.935043
v -3.500000 0.606839 -2.336059
v -3.500000 0.342197 -2.192369
v -3.500000 0.342569 2.192648
v -3.500000 0.607280 2.336241
v -3.500000 0.999396 -2.451872
v -3.500000 0.999117 2.451820
v -3.500000 1.500310 -2.504801
v -3.500000 1.500275 2.504799
v -3.500000 1.999982 -2.493607
v -3.500000 1.999853 2.493620
v -3.500000 2.502187 -2.427300
v -3.500000 2.501864 2.427359
v -3.500000 2.880469 -2.327364
v -3.500000 3.138906 -2.194623
v -3.500000 3.139614 2.194146
v -3.500000 2.882074 2.326751
v -3.500000 3.421699 -1.937794
v -3.500000 3.663988 -1.580172
v -3.500000 3.662494 1.582891
v -3.500000 3.421782 1.937697
v -3.500000 3.790064 -1.325399
v -3.500000 3.918383 -1.003369
v -3.500000 4.050731 -0.501548
v -3.500000 4.094719 0.000000
v -3.500000 4.050782 0.501263
v -3.500000 3.918782 1.002223
v -3.500000 3.788705 1.328426
v -4.000000 0.101318 -1.934672
v -4.000000 -0.069438 -1.505445
v -4.000000 -0.099328 -0.999929
v -4.000000 -0.091209 -0.499980
v -4.000000 -0.087622 0.000000
v -4.000000 -0.091209 0.499980
v -4.000000 -0.099328 0.999929
v -4.000000 -0.069438 1.505445
v -4.000000 0.101318 1.934672
v -4.000000 0.607997 -2.336538
v -4.000000 0.342985 -2.192959
v -4.000000 0.342985 2.192959
v -4.000000 0.607997 2.336538
v -4.000000 0.998976 -2.451794
v -4.000000 0.998976 2.451794
v -4.000000 1.500235 -2.504796
v -4.000000 1.500235 2.504796
v -4.000000 1.999903 -2.493615
v -4.000000 1.999903 2.493615
v -4.000000 2.501784 -2.427373
v -4.000000 2.501784 2.427373
v -4.000000 2.882664 -2.326525
v -4.000000 3.140114 -2.193808
v -4.000000 3.140114 2.193808
v -4.000000 2.882664 2.326525
v -4.000000 3.421503 -1.938023
v -4.000000 3.662922 -1.582112
v -4.000000 3.662922 1.582112
v -4.000000 3.421503 1.938023
v -4.000000 3.789063 -1.327630
v -4.000000 3.918724 -1.002389
v -4.000000 4.050795 -0.501186
v -4.000000 4.094719 0.000000
v -4.000000 4.050795 0.501186
v -4.000000 3.918724 1.002389
v -4.000000 3.789063 1.327630
vt -0.990881 -0.496839
vt -1.006249 -0.367334
vt -1.008940 -0.237069
vt -1.008209 -0.113138
vt -1.007886 0.011391
vt -1.008209 0.136852
vt -1.008940 0.262895
vt -1.006249 0.385388
vt -0.990881 0.470497
vt -0.945280 -0.663174
vt -0.969131 -0.592828
vt -0.969131 0.503652
vt -0.945280 0.505095
vt -0.910092 -0.742815
vt -0.910092 0.483081
vt -0.864979 -0.821230
vt -0.864979 0.431168
vt -0.820009 -0.883391
vt -0.820009 0.363416
vt -0.774839 -0.932075
vt -0.774839 0.281611
vt -0.740560 -0.956378
vt -0.717390 -0.956667
vt -0.717390 0.140237
vt -0.740560 0.206885
vt -0.692065 -0.929301
vt -0.670337 -0.871708
vt -0.670337 -0.080652
vt -0.692065 0.039710
vt -0.658984 -0.824486
vt -0.647315 -0.760031
vt -0.635428 -0.651900
vt -0.631475 -0.532314
vt -0.635428 -0.401307
vt -0.647315 -0.258837
vt -0.658984 -0.160671
vt -0.865875 -0.496874
vt -0.881250 -0.367328
vt -0.883940 -0.237070
vt -0.883209 -0.113138
vt -0.882886 0.011391
vt -0.883209 0.136852
vt -0.883940 0.262895
vt -0.881249 0.385396
vt -0.865878 0.470505
vt -0.820311 -0.663094
vt -0.844160 -0.592728
vt -0.844126 0.503655
vt -0.820283 0.505096
vt -0.785089 -0.742822
vt -0.785118 0.483106
vt -0.739985 -0.821220
vt -0.739995 0.431189
vt -0.694997 -0.883405
vt -0.694985 0.363376
vt -0.649827 -0.932087
vt -0.649816 0.281566
vt -0.615564 -0.956376
vt -0.592403 -0.956672
vt -0.592431 0.140375
vt -0.615577 0.206928
vt -0.567079 -0.929326
vt -0.545308 -0.871603
vt -0.545364 -0.080478
vt -0.567065 0.039714
vt -0.533960 -0.824372
vt -0.522319 -0.760061
vt -0.510427 -0.651874
vt -0.506475 -0.532314
vt -0.510424 -0.401382
vt -0.522303 -0.258946
vt -0.534009 -0.160483
vt -0.740908 -0.495725
vt -0.756226 -0.367398
vt -0.759004 -0.236962
vt -0.758274 -0.113044
vt -0.758059 0.011636
vt -0.758281 0.136954
vt -0.758823 0.262739
vt -0.756117 0.385272
vt -0.740581 0.469925
vt -0.694816 -0.665089
vt -0.718349 -0.593154
vt -0.718760 0.502908
vt -0.695010 0.504329
vt -0.660051 -0.742150
vt -0.659999 0.478835
vt -0.614980 -0.818845
vt -0.615036 0.423866
vt -0.570007 -0.881151
vt -0.570030 0.354844
vt -0.524829 -0.931836
vt -0.524316 0.276507
vt -0.490386 -0.957265
vt -0.467209 -0.957919
vt -0.468473 0.143187
vt -0.492060 0.207560
vt -0.442102 -0.930157
vt -0.420254 -0.870860
vt -0.420101 -0.079244
vt -0.441345 0.039218
vt -0.409452 -0.822572
vt -0.397707 -0.759311
vt -0.384883 -0.652903
vt -0.380105 -0.534469
vt -0.384232 -0.403120
vt -0.396430 -0.260302
vt -0.408591 -0.160337
vt -0.616195 -0.492674
vt -0.631061 -0.367562
vt -0.633673 -0.237457
vt -0.632981 -0.113453
vt -0.632819 0.011300
vt -0.633183 0.136821
vt -0.633824 0.262718
vt -0.631171 0.385203
vt -0.615653 0.468902
vt -0.567122 -0.660881
vt -0.590307 -0.591455
vt -0.591459 0.503104
vt -0.567302 0.497311
vt -0.535000 -0.731573
vt -0.534407 0.470737
vt -0.489959 -0.806996
vt -0.490640 0.404034
vt -0.445227 -0.884673
vt -0.445654 0.336691
vt -0.399930 -0.930521
vt -0.399764 0.262168
vt -0.365825 -0.955344
vt -0.342310 -0.956416
vt -0.348903 0.144670
vt -0.373194 0.204222
vt -0.317536 -0.926772
vt -0.294822 -0.875815
vt -0.296317 -0.076930
vt -0.319161 0.033110
vt -0.283278 -0.827340
vt -0.272135 -0.759288
vt -0.260199 -0.651967
vt -0.254608 -0.535086
vt -0.257486 -0.405543
vt -0.269636 -0.262068
vt -0.283323 -0.159754
vt -0.490868 -0.494282
vt -0.505723 -0.367806
vt -0.508319 -0.237983
vt -0.507789 -0.113749
vt -0.507468 0.010780
vt -0.508027 0.136631
vt -0.508456 0.262260
vt -0.505846 0.385569
vt -0.490960 0.467356
vt -0.444058 -0.660080
vt -0.468953 -0.590527
vt -0.460439 0.493849
vt -0.437376 0.478198
vt -0.409775 -0.727169
vt -0.409935 0.452244
vt -0.363950 -0.805872
vt -0.365681 0.377703
vt -0.320774 -0.897003
vt -0.320015 0.328185
vt -0.275138 -0.930989
vt -0.199624 0.205133
vt -0.262476 0.248023
vt -0.243676 -0.944527
vt -0.221169 -0.946802
vt -0.226624 0.155209
vt -0.281806 0.203502
vt -0.193041 -0.932486
vt -0.170810 -0.879147
vt -0.172853 -0.071340
vt -0.194698 0.028793
vt -0.157148 -0.834768
vt -0.143333 -0.765552
vt -0.132565 -0.657568
vt -0.127109 -0.539499
vt -0.129909 -0.409384
vt -0.142180 -0.266366
vt -0.156557 -0.154942
vt -0.367383 -0.499800
vt -0.382150 -0.366328
vt -0.384458 -0.236396
vt -0.383849 -0.112192
vt -0.382543 0.010894
vt -0.381763 0.134748
vt -0.382286 0.260488
vt -0.378595 0.381926
vt -0.364014 0.457169
vt -0.326735 -0.668592
vt -0.350072 -0.591163
vt -0.331167 0.465371
vt -0.358873 0.469166
vt -0.286655 -0.757787
vt -0.241415 0.439875
vt -0.307211 0.449527
vt -0.240150 -0.833068
vt -0.200228 0.399752
vt -0.233307 0.377177
vt -0.192602 -0.911801
vt -0.194978 0.327842
vt -0.148649 -0.939326
vt -0.128920 0.207860
vt -0.152005 0.252921
vt -0.121530 -0.937333
vt -0.098092 -0.936116
vt -0.104922 0.157019
vt -0.057857 -0.934015
vt -0.041444 -0.892887
vt -0.045270 -0.061604
vt -0.068552 0.034338
vt -0.029035 -0.842999
vt -0.014793 -0.771006
vt -0.006733 -0.657153
vt -0.002403 -0.537734
vt -0.001929 -0.412076
vt -0.012707 -0.271928
vt -0.028072 -0.149371
vt -0.240477 -0.506503
vt -0.257648 -0.365301
vt -0.260197 -0.235236
vt -0.258798 -0.112282
vt -0.258045 0.011620
vt -0.256919 0.135017
vt -0.257617 0.261045
vt -0.252950 0.381080
vt -0.238506 0.450743
vt -0.205897 -0.674149
vt -0.226993 -0.590404
vt -0.199756 0.429346
vt -0.159451 -0.778651
vt -0.170532 0.415514
vt -0.117697 0.399354
vt -0.114067 -0.853200
vt -0.198703 0.399504
vt -0.130318 0.384138
vt -0.070380 -0.895741
vt -0.073714 0.359008
vt -0.022142 -0.926987
vt 0.032906 -0.909948
vt -0.005735 0.207542
vt -0.027621 0.267842
vt -0.045298 -0.926865
vt 0.029837 -0.907342
vt 0.095488 -0.855838
vt 0.023147 0.158075
vt 0.018046 -0.882100
vt 0.069735 -0.847102
vt 0.080698 -0.062306
vt 0.059381 0.038149
vt 0.092869 -0.823309
vt 0.104430 -0.763005
vt 0.109183 -0.645538
vt 0.116516 -0.529519
vt 0.115789 -0.402696
vt 0.116105 -0.274268
vt 0.097455 -0.152228
vt -0.116304 -0.510470
vt -0.135290 -0.362527
vt -0.135898 -0.234224
vt -0.134031 -0.111972
vt -0.134760 0.014081
vt -0.132744 0.136199
vt -0.131984 0.260145
vt -0.127415 0.379755
vt -0.114401 0.452613
vt -0.079805 -0.675342
vt -0.101095 -0.592359
vt -0.090640 0.476470
vt -0.034402 0.494278
vt 0.010461 -0.864755
vt -0.049427 -0.812791
vt -0.099626 0.447011
vt -0.038598 0.451919
vt 0.037666 -0.928051
vt -0.042188 -0.888951
vt 0.015071 0.405583
vt 0.083965 -0.940602
vt 0.053892 -0.921919
vt 0.056048 0.343047
vt 0.090921 -0.894718
vt 0.111848 -0.884381
vt 0.118595 0.206451
vt 0.096089 0.265715
vt 0.142829 -0.871078
vt 0.165430 -0.849913
vt 0.144991 0.142210
vt 0.193325 -0.829026
vt 0.250003 -0.788944
vt 0.204511 -0.063081
vt 0.182198 0.031980
vt 0.168172 -0.802255
vt 0.216686 -0.752346
vt 0.240219 -0.652986
vt 0.237983 -0.523354
vt 0.234598 -0.394594
vt 0.237472 -0.273926
vt 0.222996 -0.150526
vt 0.077412 -0.595613
vt 0.017392 -0.527909
vt -0.009593 -0.362407
vt -0.011428 -0.233386
vt -0.009522 -0.111188
vt -0.008866 0.012956
vt -0.007853 0.136342
vt -0.007073 0.260231
vt -0.004170 0.381563
vt 0.010901 0.462612
vt 0.049543 -0.654193
vt -0.006670 -0.594570
vt 0.030969 0.493513
vt 0.051432 0.519226
vt 0.066533 -0.853669
vt 0.086581 -0.784803
vt 0.090029 0.498450
vt 0.101458 -0.895097
vt 0.143598 -0.848696
vt 0.139591 0.452921
vt 0.113310 -0.931282
vt 0.172460 -0.920931
vt 0.255810 0.271208
vt 0.190598 0.328008
vt 0.215304 -0.896399
vt 0.240228 -0.884295
vt 0.241102 0.229724
vt 0.190823 0.271783
vt 0.273984 -0.893068
vt 0.248196 -0.860927
vt 0.267954 0.127396
vt 0.332646 -0.863657
vt 0.308964 -0.842248
vt 0.337150 -0.778020
vt 0.331007 -0.066331
vt 0.313406 0.035151
vt 0.343335 -0.723426
vt 0.359266 -0.645244
vt 0.361763 -0.522395
vt 0.363367 -0.399405
vt 0.361913 -0.270977
vt 0.346078 -0.152054
vt 0.088993 -0.595101
vt 0.124400 -0.526738
vt 0.114798 -0.362324
vt 0.112409 -0.231905
vt 0.115825 -0.111730
vt 0.117530 0.010776
vt 0.117399 0.135983
vt 0.116640 0.262071
vt 0.118180 0.385891
vt 0.133133 0.491892
vt 0.179367 0.547587
vt 0.157155 -0.643554
vt 0.175364 -0.594222
vt 0.100270 0.523172
vt 0.159909 0.552744
vt 0.214098 -0.767124
vt 0.214013 0.496600
vt 0.257958 -0.820392
vt 0.259763 0.420884
vt 0.309835 -0.906478
vt 0.323476 0.265769
vt 0.300397 0.322802
vt 0.343569 -0.909875
vt 0.363314 -0.892763
vt 0.349845 0.211324
vt 0.399452 -0.886453
vt 0.444718 -0.850248
vt 0.393976 0.087680
vt 0.364787 -0.862522
vt 0.425704 -0.834656
vt 0.454755 -0.752650
vt 0.450760 -0.077153
vt 0.427840 0.027217
vt 0.464084 -0.698854
vt 0.472989 -0.625132
vt 0.483947 -0.515894
vt 0.488312 -0.399644
vt 0.474339 -0.256420
vt 0.462630 -0.164315
vt 0.330288 -0.595407
vt 0.270488 -0.527053
vt 0.239437 -0.361872
vt 0.236707 -0.230334
vt 0.241459 -0.112752
vt 0.242024 0.011523
vt 0.241516 0.137389
vt 0.238181 0.266831
vt 0.240765 0.389100
vt 0.256078 0.491587
vt 0.266382 0.556616
vt 0.300845 -0.652284
vt 0.248310 -0.596472
vt 0.293071 0.566629
vt 0.338398 -0.767259
vt 0.338621 0.519825
vt 0.385979 -0.816281
vt 0.381573 0.404860
vt 0.432262 -0.873734
vt 0.397190 0.272044
vt 0.426245 0.314149
vt 0.456966 -0.868520
vt 0.480964 -0.875245
vt 0.469600 0.219519
vt 0.493250 0.259880
vt 0.530145 -0.875949
vt 0.509110 -0.852193
vt 0.519285 0.114884
vt 0.594831 -0.862980
vt 0.563478 -0.836390
vt 0.580181 -0.755488
vt 0.572638 -0.072121
vt 0.549810 0.023129
vt 0.594093 -0.715525
vt 0.603946 -0.636416
vt 0.613068 -0.523769
vt 0.620548 -0.411510
vt 0.604547 -0.262628
vt 0.590755 -0.163673
vt 0.397395 -0.595204
vt 0.383915 -0.514193
vt 0.366470 -0.363619
vt 0.363810 -0.233541
vt 0.366249 -0.112416
vt 0.366912 0.011658
vt 0.365757 0.138391
vt 0.363616 0.266487
vt 0.366820 0.388910
vt 0.393635 0.497386
vt 0.365464 0.549647
vt 0.419769 -0.663010
vt 0.453579 0.526384
vt 0.425916 0.563888
vt 0.465949 -0.773483
vt 0.465038 0.509169
vt 0.509852 -0.833123
vt 0.511402 0.423631
vt 0.556572 -0.857596
vt 0.555239 0.336909
vt 0.610316 -0.888142
vt 0.588584 -0.886687
vt 0.617951 0.213819
vt 0.595288 0.260642
vt 0.684108 -0.920884
vt 0.652145 -0.901929
vt 0.646595 0.137271
vt 0.672014 -0.872584
vt 0.707618 -0.833301
vt 0.687155 -0.775180
vt 0.703018 -0.058839
vt 0.679109 0.027272
vt 0.774758 -0.800240
vt 0.731494 -0.748692
vt 0.735050 -0.642837
vt 0.745156 -0.534511
vt 0.747942 -0.414084
vt 0.738105 -0.272543
vt 0.722166 -0.154727
vt 0.487779 -0.596794
vt 0.516853 -0.529631
vt 0.492550 -0.365226
vt 0.490912 -0.236857
vt 0.491719 -0.113039
vt 0.491803 0.011855
vt 0.490893 0.138161
vt 0.490219 0.264205
vt 0.493699 0.385345
vt 0.510472 0.474796
vt 0.544315 -0.655969
vt 0.573075 -0.594591
vt 0.526770 0.514112
vt 0.550278 0.529806
vt 0.589902 -0.764734
vt 0.589915 0.493139
vt 0.635588 -0.838179
vt 0.635035 0.438184
vt 0.679380 -0.891309
vt 0.679525 0.357365
vt 0.725476 -0.932344
vt 0.745640 0.201229
vt 0.723773 0.251860
vt 0.751222 -0.935759
vt 0.773609 -0.940936
vt 0.770329 0.144477
vt 0.802607 -0.909545
vt 0.826649 -0.852330
vt 0.829806 -0.063969
vt 0.805995 0.029734
vt 0.839620 -0.807831
vt 0.849911 -0.757176
vt 0.866442 -0.655761
vt 0.877640 -0.545028
vt 0.874096 -0.412643
vt 0.860621 -0.270029
vt 0.845145 -0.151282
vt 0.634978 -0.508241
vt 0.618331 -0.366482
vt 0.616171 -0.237234
vt 0.616724 -0.113036
vt 0.616773 0.011883
vt 0.616179 0.137744
vt 0.615810 0.263266
vt 0.618816 0.385434
vt 0.634656 0.469875
vt 0.673875 -0.664487
vt 0.650560 -0.593276
vt 0.655117 0.502844
vt 0.678472 0.512170
vt 0.715152 -0.756794
vt 0.715007 0.489950
vt 0.759984 -0.828877
vt 0.759916 0.433119
vt 0.804856 -0.881402
vt 0.805861 0.367335
vt 0.850096 -0.923812
vt 0.811082 0.205146
vt 0.842614 0.255069
vt 0.880365 -0.945726
vt 0.904267 -0.946970
vt 0.882210 0.163308
vt 0.900646 0.207992
vt 0.928754 -0.913227
vt 0.949854 -0.848381
vt 0.955748 -0.071458
vt 0.934669 0.037168
vt 0.962642 -0.803771
vt 0.972843 -0.752220
vt 0.987528 -0.648600
vt 0.994967 -0.534125
vt 0.990773 -0.403666
vt 0.980363 -0.263359
vt 0.967336 -0.153433
vt 0.759550 -0.500139
vt 0.743695 -0.367142
vt 0.741138 -0.237185
vt 0.741867 -0.113250
vt 0.742070 0.011454
vt 0.741645 0.137068
vt 0.740993 0.263004
vt 0.743707 0.385433
vt 0.759033 0.470721
vt 0.802954 -0.662712
vt 0.779765 -0.592350
vt 0.780347 0.505019
vt 0.804312 0.506896
vt 0.839969 -0.747724
vt 0.839947 0.483793
vt 0.885003 -0.822963
vt 0.885051 0.431735
vt 0.930005 -0.882155
vt 0.930040 0.364261
vt 0.975039 -0.927512
vt 0.975053 0.279456
vt 1.007639 -0.951205
vt 1.031012 -0.951911
vt 1.031413 0.141206
vt 1.008326 0.206463
vt 1.055346 -0.921722
vt 1.077645 -0.861597
vt 1.079960 -0.077533
vt 1.057867 0.039005
vt 1.089434 -0.814032
vt 1.100451 -0.757088
vt 1.112760 -0.649077
vt 1.117621 -0.531034
vt 1.114311 -0.401114
vt 1.103561 -0.260088
vt 1.091852 -0.158408
vt 0.884152 -0.497029
vt 0.868750 -0.367330
vt 0.866060 -0.237069
vt 0.866791 -0.113138
vt 0.867114 0.011391
vt 0.866791 0.136852
vt 0.866060 0.262895
vt 0.868750 0.385384
vt 0.884141 0.470558
vt 0.929616 -0.662904
vt 0.905798 -0.592578
vt 0.905831 0.503628
vt 0.929655 0.505114
vt 0.964946 -0.742889
vt 0.964921 0.483070
vt 1.010028 -0.821240
vt 1.010025 0.431164
vt 1.054998 -0.883399
vt 1.054987 0.363424
vt 1.100197 -0.932109
vt 1.100168 0.281597
vt 1.134242 -0.956302
vt 1.157502 -0.956713
vt 1.157565 0.140387
vt 1.134387 0.207018
vt 1.182953 -0.929269
vt 1.204759 -0.871361
vt 1.204624 -0.080401
vt 1.182960 0.039593
vt 1.216106 -0.824058
vt 1.227654 -0.760232
vt 1.239566 -0.651982
vt 1.243525 -0.532314
vt 1.239570 -0.401286
vt 1.227690 -0.258886
vt 1.215983 -0.160425
vt 1.009119 -0.496839
vt 0.993751 -0.367334
vt 0.991060 -0.237069
vt 0.991791 -0.113138
vt 0.992114 0.011391
vt 0.991791 0.136852
vt 0.991060 0.262895
vt 0.993751 0.385388
vt 1.009119 0.470497
vt 1.054720 -0.663174
vt 1.030869 -0.592828
vt 1.030869 0.503652
vt 1.054720 0.505095
vt 1.089908 -0.742815
vt 1.089908 0.483081
vt 1.135021 -0.821230
vt 1.135021 0.431168
vt 1.179991 -0.883391
vt 1.179991 0.363416
vt 1.225161 -0.932075
vt 1.225161 0.281611
vt 1.259440 -0.956378
vt 1.282610 -0.956667
vt 1.282610 0.140237
vt 1.259440 0.206885
vt 1.307935 -0.929301
vt 1.329663 -0.871708
vt 1.329663 -0.080652
vt 1.307935 0.039710
vt 1.341016 -0.824486
vt 1.352685 -0.760031
vt 1.364572 -0.651900
vt 1.368525 -0.532314
vt 1.364572 -0.401307
vt 1.352685 -0.258837
vt 1.341016 -0.160671
vn 0.00000 0.83504 0.55018
vn 0.00000 0.98181 0.18989
vn 0.00000 0.99992 -0.01265
vn 0.00000 0.99990 -0.01397
vn 0.00000 1.00000 -0.00000
vn 0.00000 0.99990 0.01397
vn 0.00000 0.99992 0.01265
vn 0.00000 0.98181 -0.18989
vn 0.00000 0.83504 -0.55018
vn 0.00000 0.38196 0.92418
vn 0.00000 0.59905 0.80071
vn 0.00000 0.59905 -0.80071
vn 0.00000 0.38196 -0.92418
vn 0.00000 0.18321 0.98307
vn 0.00000 0.18321 -0.98307
vn 0.00000 0.05742 0.99835
vn 0.00000 0.05742 -0.99835
vn 0.00000 -0.09446 0.99553
vn 0.00000 -0.09446 -0.99553
vn 0.00000 -0.17762 0.98410
vn 0.00000 -0.17762 -0.98410
vn 0.00000 -0.35769 0.93384
vn 0.00000 -0.55961 0.82876
vn 0.00000 -0.55961 -0.82876
vn 0.00000 -0.35769 -0.93384
vn 0.00000 -0.75966 0.65032
vn 0.00000 -0.87627 0.48181
vn 0.00000 -0.87627 -0.48181
vn 0.00000 -0.75966 -0.65032
vn 0.00000 -0.91217 0.40981
vn 0.00000 -0.94444 0.32868
vn 0.00000 -0.98487 0.17330
vn 0.00000 -1.00000 -0.00000
vn 0.00000 -0.98487 -0.17330
vn 0.00000 -0.94444 -0.32868
vn 0.00000 -0.91217 -0.40981
vn -0.00000 0.83498 0.55028
vn -0.00000 0.98181 0.18987
vn -0.00000 0.99992 -0.01265
vn -0.00000 0.99990 -0.01397
vn -0.00000 1.00000 -0.00000
vn -0.00000 0.99990 0.01397
vn 0.00000 0.99992 0.01265
vn 0.00000 0.98180 -0.18991
vn 0.00000 0.83501 -0.55023
vn -0.00001 0.38213 0.92411
vn -0.00000 0.59938 0.80047
vn -0.00000 0.59899 -0.80076
vn 0.00000 0.38198 -0.92417
vn -0.00000 0.18320 0.98308
vn 0.00001 0.18335 -0.98305
vn 0.00001 0.05743 0.99835
vn 0.00001 0.05745 -0.99835
vn 0.00001 -0.09448 0.99553
vn 0.00001 -0.09450 -0.99552
vn 0.00001 -0.17766 0.98409
vn 0.00000 -0.17770 -0.98409
vn 0.00000 -0.35766 0.93385
vn 0.00000 -0.55949 0.82884
vn -0.00000 -0.55922 -0.82902
vn -0.00000 -0.35756 -0.93389
vn 0.00000 -0.75957 0.65043
vn 0.00000 -0.87638 0.48161
vn -0.00000 -0.87617 -0.48200
vn -0.00000 -0.75965 -0.65033
vn 0.00000 -0.91224 0.40967
vn 0.00000 -0.94443 0.32872
vn -0.00000 -0.98488 0.17326
vn -0.00001 -1.00000 -0.00000
vn -0.00001 -0.98489 -0.17320
vn -0.00000 -0.94447 -0.32859
vn -0.00000 -0.91210 -0.40996
vn 0.01088 0.83441 0.55104
vn 0.00414 0.98096 0.19419
vn 0.00267 0.99989 -0.01454
vn -0.00196 0.99994 -0.01059
vn -0.00592 0.99998 -0.00084
vn -0.00307 0.99996 0.00808
vn 0.00545 0.99991 0.01193
vn 0.00406 0.98115 -0.19323
vn 0.01013 0.83042 -0.55705
vn 0.02479 0.39548 0.91814
vn 0.04423 0.60448 0.79539
vn 0.01080 0.60490 -0.79623
vn 0.01558 0.37009 -0.92886
vn 0.03968 0.14978 0.98792
vn 0.05034 0.13932 -0.98897
vn 0.04826 0.05077 0.99754
vn 0.11029 0.02856 -0.99349
vn 0.00930 -0.07573 0.99708
vn 0.12951 -0.06012 -0.98975
vn -0.00314 -0.17996 0.98367
vn 0.08547 -0.17230 -0.98133
vn -0.02485 -0.33962 0.94023
vn -0.02397 -0.57051 0.82094
vn 0.07836 -0.51999 -0.85057
vn 0.10577 -0.32695 -0.93910
vn -0.02535 -0.75116 0.65963
vn -0.02839 -0.89114 0.45283
vn 0.00504 -0.87431 -0.48535
vn 0.03508 -0.74705 -0.66384
vn 0.01918 -0.91463 0.40384
vn 0.03016 -0.94119 0.33653
vn -0.02601 -0.97866 0.20381
vn -0.04096 -0.99916 0.00021
vn -0.04527 -0.98271 -0.17955
vn -0.03983 -0.94131 -0.33518
vn -0.01138 -0.90961 -0.41530
vn 0.00280 0.82278 0.56836
vn 0.00074 0.98350 0.18091
vn 0.00228 0.99997 -0.00730
vn 0.01647 0.99978 -0.01333
vn 0.01112 0.99993 0.00476
vn 0.00520 0.99997 0.00517
vn -0.00484 0.99982 0.01828
vn -0.00786 0.98029 -0.19741
vn 0.00333 0.83196 -0.55483
vn 0.07470 0.38684 0.91912
vn 0.08588 0.53077 0.84315
vn 0.06629 0.55053 -0.83218
vn 0.10630 0.30732 -0.94565
vn 0.04806 0.13860 0.98918
vn 0.14760 0.10345 -0.98362
vn 0.03255 0.12028 0.99221
vn 0.20803 0.01361 -0.97803
vn -0.08486 0.00005 0.99639
vn 0.11368 -0.11685 -0.98662
vn -0.01025 -0.25016 0.96815
vn 0.06620 -0.15036 -0.98641
vn 0.08087 -0.29834 0.95103
vn 0.07660 -0.58976 0.80394
vn 0.11196 -0.43987 -0.89106
vn 0.11044 -0.31871 -0.94140
vn 0.07723 -0.73213 0.67677
vn -0.00333 -0.85853 0.51275
vn -0.01874 -0.82926 -0.55855
vn 0.05682 -0.71750 -0.69424
vn -0.11467 -0.91913 0.37690
vn -0.12205 -0.94915 0.29020
vn 0.04340 -0.97993 0.19454
vn 0.00771 -0.99855 0.05325
vn -0.02196 -0.98793 -0.15335
vn 0.00160 -0.92588 -0.37782
vn -0.00766 -0.89860 -0.43870
vn -0.00580 0.82955 0.55841
vn 0.01010 0.98243 0.18635
vn 0.00646 0.99997 -0.00445
vn -0.02349 0.99932 -0.02841
vn 0.00778 0.99967 0.02461
vn 0.02014 0.99979 0.00344
vn 0.03343 0.99923 0.02062
vn 0.03138 0.97963 -0.19835
vn 0.02995 0.83103 -0.55542
vn -0.15660 0.33711 0.92835
vn -0.17567 0.56011 0.80958
vn 0.10140 0.40213 -0.90995
vn 0.07582 0.23854 -0.96817
vn -0.02712 0.06434 0.99756
vn 0.04555 0.06663 -0.99674
vn -0.00146 0.28078 0.95977
vn 0.06554 0.03959 -0.99706
vn -0.13397 -0.01532 0.99087
vn 0.04620 0.06732 -0.99666
vn -0.06675 -0.36011 0.93052
vn -0.05771 -0.33668 -0.93985
vn 0.08186 -0.30587 -0.94855
vn -0.00869 -0.34638 0.93805
vn 0.00405 -0.47151 0.88185
vn 0.00135 -0.34612 -0.93819
vn 0.08066 -0.40302 -0.91163
vn -0.22117 -0.73397 0.64216
vn -0.11080 -0.84904 0.51657
vn 0.02566 -0.76641 -0.64184
vn 0.04937 -0.72838 -0.68339
vn -0.01685 -0.87598 0.48205
vn -0.05847 -0.95588 0.28789
vn -0.16062 -0.96215 0.22013
vn -0.08113 -0.99665 0.01007
vn -0.12088 -0.96562 -0.23013
vn -0.13228 -0.94347 -0.30391
vn -0.10841 -0.82995 -0.54720
vn -0.05204 0.88166 0.46901
vn -0.04185 0.98282 0.17976
vn -0.03567 0.99936 -0.00228
vn -0.00654 0.99947 -0.03181
vn -0.02359 0.99955 -0.01875
vn 0.01146 0.99992 -0.00509
vn -0.01109 0.99980 0.01674
vn 0.04009 0.97676 -0.21055
vn 0.07155 0.76576 -0.63914
vn -0.10132 0.48992 0.86586
vn -0.02649 0.65554 0.75470
vn 0.22746 0.50808 -0.83073
vn 0.07308 0.33696 -0.93868
vn -0.32055 0.04760 0.94604
vn 0.30283 0.02494 -0.95272
vn 0.00739 0.07340 -0.99727
vn -0.35056 0.21960 0.91043
vn 0.16381 -0.03265 -0.98595
vn 0.13426 -0.01345 -0.99085
vn 0.18166 -0.17802 0.96711
vn -0.06400 0.00705 -0.99793
vn 0.08428 -0.41379 0.90646
vn 0.07395 -0.14279 -0.98699
vn 0.05144 -0.21810 -0.97457
vn 0.09295 -0.49447 0.86421
vn 0.17976 -0.45494 0.87219
vn -0.11082 -0.29078 -0.95035
vn 0.40935 -0.54446 0.73212
vn 0.02535 -0.84680 0.53131
vn -0.11271 -0.74629 -0.65601
vn -0.17955 -0.69936 -0.69185
vn 0.00470 -0.91044 0.41362
vn 0.14284 -0.94265 0.30169
vn 0.05056 -0.99137 0.12099
vn 0.11038 -0.99251 0.05235
vn 0.08628 -0.99408 -0.06608
vn -0.12016 -0.94189 -0.31371
vn -0.04135 -0.86000 -0.50861
vn 0.01914 0.87185 0.48940
vn -0.01451 0.98074 0.19480
vn -0.00187 0.99980 -0.01971
vn 0.00538 0.99974 -0.02233
vn -0.00680 0.99962 -0.02654
vn -0.01364 0.99990 0.00227
vn 0.00788 0.99996 -0.00335
vn 0.00861 0.97331 -0.22932
vn 0.01504 0.70392 -0.71012
vn -0.15128 0.53825 0.82909
vn -0.07343 0.79485 0.60235
vn -0.04958 0.61190 -0.78938
vn -0.10868 0.10637 0.98837
vn 0.16957 0.09230 -0.98119
vn -0.08549 0.29222 -0.95252
vn -0.10216 0.02779 0.99438
vn 0.15901 -0.02495 -0.98696
vn -0.23754 0.25073 -0.93846
vn -0.02189 -0.26402 0.96427
vn -0.17405 0.22303 -0.95915
vn 0.14648 -0.48994 0.85936
vn 0.21951 -0.55466 0.80260
vn 0.03630 -0.26204 -0.96437
vn -0.03903 -0.49696 -0.86689
vn 0.19215 -0.55607 0.80862
vn 0.22703 -0.54700 0.80576
vn 0.21557 -0.77434 0.59492
vn 0.13810 -0.18693 -0.97262
vn 0.30798 -0.72785 0.61269
vn 0.34541 -0.50785 0.78916
vn 0.15328 -0.77955 -0.60729
vn 0.16111 -0.79648 -0.58280
vn 0.15200 -0.80914 0.56762
vn 0.04408 -0.95834 0.28219
vn 0.15293 -0.98796 -0.02348
vn 0.14578 -0.95841 0.24534
vn 0.23410 -0.97207 0.01647
vn 0.03819 -0.97312 -0.22711
vn 0.05846 -0.78771 -0.61327
vn -0.02369 0.85047 0.52549
vn -0.02876 0.98251 0.18396
vn -0.03327 0.99725 -0.06617
vn -0.02566 0.99967 -0.00086
vn -0.01412 0.99977 -0.01596
vn 0.00737 0.99925 -0.03813
vn 0.00545 0.99963 -0.02665
vn 0.00694 0.97653 -0.21528
vn -0.01912 0.76831 -0.63979
vn 0.04318 0.55064 0.83363
vn 0.00628 0.80222 0.59699
vn -0.17095 0.69636 -0.69704
vn -0.24089 0.39388 -0.88703
vn 0.11592 0.46325 0.87861
vn -0.17184 0.57727 0.79827
vn -0.43685 0.12683 -0.89055
vn -0.35078 0.00585 -0.93644
vn -0.03336 -0.16680 0.98543
vn -0.70344 -0.10761 0.70256
vn -0.49785 0.21054 -0.84132
vn 0.07887 -0.51176 0.85550
vn -0.12070 -0.71789 0.68561
vn -0.18087 -0.16785 -0.96908
vn -0.00457 -0.60311 0.79764
vn 0.13127 -0.51243 0.84864
vn -0.05795 -0.46309 -0.88441
vn -0.06331 -0.26129 -0.96318
vn -0.02462 -0.62196 0.78267
vn -0.07168 -0.69840 0.71211
vn -0.04252 -0.22201 -0.97412
vn -0.04774 -0.62804 0.77671
vn 0.02254 -0.91644 0.39954
vn -0.29720 -0.68591 -0.66423
vn -0.14104 -0.69734 -0.70273
vn 0.24900 -0.83087 0.49765
vn 0.12252 -0.92654 0.35570
vn 0.14807 -0.96191 0.22981
vn 0.03814 -0.98548 -0.16547
vn -0.00298 -0.99580 -0.09151
vn -0.01810 -0.99808 0.05923
vn -0.23146 -0.70795 -0.66726
vn 0.09946 0.62515 0.77414
vn -0.06111 0.91091 0.40804
vn 0.02247 0.98348 0.17960
vn 0.00553 0.99921 -0.03930
vn 0.00897 0.99939 -0.03376
vn 0.04263 0.99904 -0.00977
vn -0.01189 0.99980 -0.01607
vn 0.00153 0.99965 -0.02653
vn -0.06337 0.98133 -0.18160
vn -0.09101 0.77743 -0.62235
vn 0.13940 0.30566 0.94188
vn -0.14052 0.75906 0.63567
vn -0.38515 0.70783 -0.59215
vn -0.26572 0.55442 -0.78868
vn 0.56151 0.36112 0.74451
vn 0.43319 0.49144 0.75553
vn -0.19042 0.03244 -0.98117
vn 0.80309 -0.05110 0.59367
vn 0.50334 0.06771 0.86143
vn 0.21665 0.01905 -0.97606
vn 0.45254 -0.35254 0.81910
vn 0.13817 -0.34784 0.92732
vn 0.24478 -0.15225 -0.95755
vn 0.39239 -0.38337 -0.83610
vn -0.02576 -0.69284 0.72063
vn -0.13953 -0.29761 0.94443
vn 0.35699 -0.28019 -0.89110
vn 0.30605 -0.16969 -0.93677
vn -0.20758 -0.64700 0.73369
vn -0.13668 -0.72151 0.67878
vn 0.50087 -0.19767 -0.84265
vn 0.03852 -0.85156 0.52285
vn 0.06488 -0.58344 0.80956
vn 0.09639 -0.94849 0.30178
vn 0.32635 -0.81195 -0.48397
vn 0.09670 -0.51289 -0.85299
vn 0.14184 -0.94143 0.30592
vn 0.12629 -0.94819 0.29153
vn 0.07656 -0.99706 -0.00286
vn -0.06214 -0.98386 -0.16783
vn 0.13160 -0.99112 0.01932
vn 0.40826 -0.69787 -0.58848
vn 0.09833 0.61278 0.78411
vn 0.00725 0.89088 0.45417
vn -0.03419 0.97656 0.21250
vn -0.05765 0.99714 -0.04879
vn 0.02640 0.99751 -0.06542
vn 0.02617 0.99955 -0.01456
vn 0.01342 0.99964 0.02329
vn -0.07653 0.99706 0.00432
vn -0.03424 0.98531 -0.16731
vn -0.12420 0.92610 -0.35624
vn -0.18080 0.82771 -0.53123
vn 0.15723 0.32103 0.93393
vn 0.04317 0.49137 0.86988
vn -0.27163 0.79144 -0.54758
vn -0.22852 0.46077 -0.85759
vn 0.01182 0.35202 0.93592
vn 0.10172 -0.12893 -0.98642
vn 0.14143 0.06728 0.98766
vn 0.07300 -0.11590 -0.99058
vn 0.21698 -0.01122 0.97611
vn -0.03836 -0.19899 -0.97925
vn -0.09061 -0.45631 -0.88520
vn 0.08485 -0.63463 0.76815
vn 0.13072 -0.54167 0.83037
vn 0.07681 -0.37539 -0.92368
vn 0.33019 -0.64227 0.69171
vn 0.11296 -0.71069 0.69438
vn -0.02934 -0.21291 -0.97663
vn 0.04726 -0.86088 0.50661
vn 0.02537 -0.63413 0.77281
vn 0.08792 -0.93897 0.33257
vn 0.07545 -0.92155 -0.38085
vn 0.21242 -0.11289 -0.97064
vn -0.11389 -0.94409 0.30938
vn 0.04361 -0.95668 0.28786
vn -0.06162 -0.96455 0.25660
vn -0.12562 -0.97121 -0.20243
vn 0.18689 -0.95561 -0.22779
vn 0.06989 -0.86318 -0.50003
vn 0.01938 0.74986 0.66131
vn 0.03810 0.89274 0.44896
vn 0.01378 0.96923 0.24577
vn 0.01726 0.99716 -0.07329
vn -0.01670 0.99785 -0.06341
vn -0.03478 0.99937 0.00644
vn -0.03969 0.99629 0.07633
vn -0.03042 0.99941 0.01599
vn -0.05368 0.98360 -0.17217
vn -0.05768 0.94753 -0.31443
vn -0.02691 0.86297 -0.50453
vn -0.17239 0.35335 0.91947
vn -0.12071 0.59753 0.79271
vn -0.02176 0.41360 -0.91020
vn -0.16879 0.15849 0.97283
vn -0.14389 -0.31011 -0.93975
vn -0.06679 0.08178 0.99441
vn 0.11923 -0.23781 -0.96397
vn 0.15260 -0.51719 0.84216
vn -0.15262 -0.25474 -0.95489
vn -0.04703 -0.20346 -0.97795
vn 0.12844 -0.36202 0.92328
vn 0.02078 -0.38910 0.92096
vn -0.14035 -0.32395 -0.93561
vn -0.25110 -0.25898 -0.93267
vn -0.12178 -0.60771 0.78477
vn -0.13815 -0.64093 0.75507
vn -0.25667 -0.33996 -0.90474
vn -0.04678 -0.70628 0.70638
vn -0.05660 -0.81304 0.57944
vn -0.07243 -0.83969 0.53822
vn -0.12805 -0.77447 -0.61951
vn -0.09211 -0.59768 -0.79643
vn -0.04053 -0.86260 0.50427
vn -0.06102 -0.98575 0.15678
vn -0.04242 -0.94567 0.32236
vn -0.14744 -0.98900 -0.01192
vn -0.22442 -0.90807 -0.35362
vn -0.16373 -0.86155 -0.48054
vn -0.04371 0.69912 0.71366
vn -0.03836 0.90321 0.42747
vn 0.04323 0.98101 0.18910
vn 0.06002 0.99762 -0.03397
vn 0.01807 0.99932 -0.03226
vn 0.01386 0.99990 -0.00191
vn 0.00807 0.99779 0.06589
vn 0.01887 0.99973 0.01337
vn 0.07007 0.98313 -0.16895
vn 0.14523 0.89053 -0.43113
vn 0.17318 0.88480 -0.43259
vn 0.01157 0.46063 0.88752
vn 0.24744 0.81903 -0.51765
vn 0.27441 0.52784 -0.80379
vn 0.13300 0.03337 0.99055
vn 0.16788 -0.09719 -0.98100
vn -0.15167 -0.23357 0.96044
vn -0.24558 -0.20074 -0.94837
vn -0.19632 -0.21421 0.95686
vn -0.10460 -0.07965 -0.99132
vn -0.32190 -0.28853 0.90174
vn -0.21599 -0.26732 0.93909
vn -0.01623 -0.29444 -0.95553
vn 0.02124 -0.19954 -0.97966
vn -0.29399 -0.30960 0.90428
vn -0.35418 -0.53870 0.76443
vn -0.01360 -0.46447 -0.88549
vn -0.24363 -0.65906 0.71154
vn -0.32705 -0.79789 0.50638
vn -0.26113 -0.84893 0.45948
vn -0.04653 -0.68642 -0.72571
vn -0.02054 -0.59569 -0.80295
vn -0.17128 -0.88986 0.42285
vn -0.22439 -0.89610 0.38296
vn -0.24152 -0.91176 0.33221
vn -0.28350 -0.94795 0.14496
vn -0.11118 -0.99252 -0.05043
vn -0.04044 -0.91838 -0.39362
vn -0.09729 -0.87637 -0.47172
vn -0.00668 0.74129 0.67115
vn 0.08192 0.90991 0.40664
vn 0.01590 0.98712 0.15919
vn 0.02970 0.99932 -0.02180
vn -0.00661 0.99991 -0.01125
vn -0.01368 0.99984 0.01115
vn -0.00371 0.99958 0.02884
vn 0.05127 0.99868 -0.00379
vn 0.01398 0.98153 -0.19077
vn 0.04055 0.83323 -0.55144
vn -0.00828 0.41195 0.91117
vn 0.12488 0.79407 0.59486
vn 0.10991 0.78250 -0.61287
vn 0.17943 0.39840 -0.89949
vn -0.02423 0.11961 0.99253
vn 0.05941 0.09290 -0.99390
vn 0.08834 -0.06927 0.99368
vn -0.00176 0.05622 -0.99842
vn -0.05960 0.02685 0.99786
vn -0.30389 -0.29205 -0.90684
vn -0.11440 -0.41370 0.90320
vn 0.01915 -0.23732 -0.97124
vn -0.11981 -0.31160 -0.94263
vn -0.10318 -0.38584 0.91678
vn -0.13694 -0.48581 0.86327
vn -0.07069 -0.36787 -0.92719
vn -0.13611 -0.79248 0.59451
vn 0.09785 -0.82551 0.55584
vn -0.06676 -0.79278 -0.60584
vn -0.21624 -0.59026 -0.77771
vn -0.01851 -0.89537 0.44495
vn 0.02582 -0.93706 0.34822
vn 0.05078 -0.94510 0.32281
vn 0.08148 -0.99321 0.08300
vn 0.16472 -0.96200 -0.21778
vn 0.08519 -0.94402 -0.31870
vn 0.09997 -0.87863 -0.46692
vn 0.01655 0.86435 0.50262
vn 0.01515 0.98387 0.17822
vn -0.00286 0.99984 -0.01776
vn 0.00827 0.99990 -0.01114
vn 0.01101 0.99986 0.01279
vn 0.01181 0.99986 0.01151
vn -0.00295 0.99999 0.00351
vn 0.00608 0.98093 -0.19428
vn -0.00051 0.81894 -0.57388
vn 0.13541 0.36996 0.91913
vn 0.09195 0.73404 0.67285
vn 0.02474 0.67215 -0.74000
vn 0.07576 0.43710 -0.89622
vn 0.13114 0.17413 0.97595
vn 0.06106 0.15567 -0.98592
vn 0.11874 -0.01301 0.99284
vn 0.05831 0.10314 -0.99296
vn 0.06048 -0.17878 0.98203
vn 0.08329 -0.19514 -0.97723
vn 0.03961 -0.20823 0.97728
vn -0.20022 -0.22757 -0.95295
vn -0.15633 -0.29048 -0.94403
vn -0.07688 -0.32779 0.94162
vn -0.04834 -0.57122 0.81937
vn -0.17226 -0.35454 -0.91904
vn -0.16887 -0.24791 -0.95395
vn 0.01143 -0.81829 0.57470
vn -0.03426 -0.85411 0.51896
vn 0.07267 -0.86206 -0.50158
vn 0.02733 -0.72317 -0.69013
vn -0.01625 -0.89695 0.44182
vn -0.05210 -0.93302 0.35604
vn 0.08101 -0.96180 0.26148
vn 0.12312 -0.99233 0.01106
vn 0.08391 -0.98252 -0.16615
vn 0.03005 -0.95600 -0.29183
vn 0.02101 -0.90814 -0.41813
vn 0.01886 0.84004 0.54220
vn 0.00395 0.98268 0.18526
vn -0.00220 0.99990 -0.01432
vn -0.00253 0.99991 -0.01290
vn 0.00268 0.99998 0.00488
vn 0.00810 0.99987 0.01421
vn 0.00500 0.99992 0.01129
vn -0.00392 0.98145 -0.19168
vn -0.00512 0.83968 -0.54306
vn 0.06961 0.38442 0.92053
vn 0.08520 0.63239 0.76995
vn 0.00657 0.60620 -0.79529
vn 0.01180 0.38509 -0.92280
vn 0.05179 0.18907 0.98060
vn 0.00185 0.16770 -0.98584
vn 0.00478 0.02151 0.99976
vn -0.00796 0.07903 -0.99684
vn -0.01411 -0.12196 0.99243
vn -0.00723 -0.12164 -0.99255
vn -0.04482 -0.19418 0.97994
vn -0.05277 -0.18992 -0.98038
vn -0.02377 -0.33767 0.94096
vn -0.03776 -0.57118 0.81996
vn -0.02543 -0.54273 -0.83952
vn -0.03352 -0.35208 -0.93537
vn -0.11179 -0.76517 0.63405
vn -0.11940 -0.87514 0.46890
vn 0.02234 -0.85923 -0.51111
vn -0.01286 -0.75016 -0.66113
vn -0.08917 -0.90397 0.41818
vn -0.05096 -0.93468 0.35183
vn -0.06175 -0.98032 0.18753
vn -0.01705 -0.99970 0.01740
vn 0.00231 -0.98737 -0.15844
vn 0.05073 -0.94856 -0.31250
vn 0.05466 -0.91052 -0.40984
vn 0.00000 0.83470 0.55071
vn 0.00000 0.98181 0.18988
vn -0.00000 0.99992 -0.01265
vn -0.00000 0.99990 -0.01397
vn -0.00000 1.00000 -0.00000
vn -0.00000 0.99990 0.01397
vn 0.00000 0.99992 0.01265
vn 0.00000 0.98181 -0.18988
vn 0.00000 0.83482 -0.55053
vn 0.00001 0.38254 0.92394
vn 0.00001 0.59987 0.80010
vn 0.00000 0.59948 -0.80039
vn 0.00001 0.38232 -0.92403
vn 0.00001 0.18302 0.98311
vn 0.00000 0.18315 -0.98308
vn 0.00001 0.05741 0.99835
vn 0.00000 0.05741 -0.99835
vn -0.00001 -0.09447 0.99553
vn 0.00000 -0.09445 -0.99553
vn -0.00001 -0.17774 0.98408
vn -0.00000 -0.17765 -0.98409
vn -0.00001 -0.35620 0.93441
vn -0.00001 -0.55860 0.82944
vn -0.00000 -0.55919 -0.82904
vn -0.00000 -0.35729 -0.93399
vn -0.00001 -0.75977 0.65019
vn -0.00001 -0.87664 0.48115
vn 0.00001 -0.87613 -0.48208
vn 0.00000 -0.75982 -0.65013
vn -0.00001 -0.91242 0.40926
vn -0.00001 -0.94435 0.32895
vn -0.00001 -0.98485 0.17342
vn -0.00000 -1.00000 -0.00000
vn 0.00000 -0.98487 -0.17332
vn 0.00000 -0.94446 -0.32864
vn 0.00000 -0.91208 -0.41001
vn 0.00000 0.83504 0.55018
vn 0.00000 0.98181 0.18989
vn 0.00000 0.99992 -0.01265
vn 0.00000 0.99990 -0.01397
vn 0.00000 1.00000 -0.00000
vn 0.00000 0.99990 0.01397
vn 0.00000 0.99992 0.01265
vn 0.00000 0.98181 -0.18989
vn 0.00000 0.83504 -0.55018
vn 0.00000 0.38196 0.92418
vn 0.00000 0.59905 0.80071
vn 0.00000 0.59905 -0.80071
vn 0.00000 0.38196 -0.92418
vn 0.00000 0.18321 0.98307
vn 0.00000 0.18321 -0.98307
vn 0.00000 0.05742 0.99835
vn 0.00000 0.05742 -0.99835
vn 0.00000 -0.09446 0.99553
vn 0.00000 -0.09446 -0.99553
vn 0.00000 -0.17762 0.98410
vn 0.00000 -0.17762 -0.98410
vn 0.00000 -0.35769 0.93384
vn 0.00000 -0.55961 0.82876
vn 0.00000 -0.55961 -0.82876
vn 0.00000 -0.35769 -0.93384
vn 0.00000 -0.75966 0.65032
vn 0.00000 -0.87627 0.48181
vn 0.00000 -0.87627 -0.48181
vn 0.00000 -0.75966 -0.65032
vn 0.00000 -0.91217 0.40981
vn 0.00000 -0.94444 0.32868
vn 0.00000 -0.98487 0.17330
vn 0.00000 -1.00000 -0.00000
vn 0.00000 -0.98487 -0.17330
vn 0.00000 -0.94444 -0.32868
vn 0.00000 -0.91217 -0.40981
usemtl CaveRock
f 194/194/194 193/193/193 196/196/196
f 197/197/197 196/196/196 199/199/199
f 234/234/234 233/233/233 236/236/236
f 241/241/241 240/240/240 244/244/244
f 246/246/246 245/245/245 248/248/248
f 272/272/272 273/273/273 277/277/277
f 290/290/290 289/289/289 293/293/293
f 300/300/300 301/301/301 311/311/311
f 318/318/318 317/317/317 320/320/320
f 368/368/368 367/367/367 370/370/370
f 381/381/381 382/382/382 393/393/393
f 400/400/400 401/401/401 405/405/405
f 430/430/430 429/429/429 432/432/432
f 516/516/516 517/517/517 521/521/521
f 3/3/3 2/2/2 38/38/38
f 6/6/6 5/5/5 41/41/41
f 8/8/8 7/7/7 43/43/43
f 9/9/9 8/8/8 44/44/44
f 11/11/11 10/10/10 46/46/46
f 13/13/13 12/12/12 48/48/48
f 22/22/22 23/23/23 59/59/59
f 31/31/31 32/32/32 68/68/68
f 33/33/33 34/34/34 70/70/70
f 34/34/34 35/35/35 71/71/71
f 38/38/38 37/37/37 73/73/73
f 42/42/42 41/41/41 77/77/77
f 43/43/43 42/42/42 78/78/78
f 44/44/44 43/43/43 79/79/79
f 45/45/45 44/44/44 80/80/80
f 49/49/49 48/48/48 84/84/84
f 67/67/67 68/68/68 104/104/104
f 69/69/69 70/70/70 106/106/106
f 70/70/70 71/71/71 107/107/107
f 71/71/71 72/72/72 108/108/108
f 74/74/74 73/73/73 109/109/109
f 76/76/76 75/75/75 111/111/111
f 85/85/85 84/84/84 120/120/120
f 94/94/94 95/95/95 131/131/131
f 98/98/98 99/99/99 135/135/135
f 100/100/100 101/101/101 137/137/137
f 102/102/102 103/103/103 139/139/139
f 105/105/105 106/106/106 142/142/142
f 106/106/106 107/107/107 143/143/143
f 107/107/107 108/108/108 144/144/144
f 112/112/112 111/111/111 147/147/147
f 116/116/116 115/115/115 151/151/151
f 119/119/119 118/118/118 154/154/154
f 121/121/121 120/120/120 156/156/156
f 130/130/130 131/131/131 168/168/168
f 132/132/132 133/133/133 170/170/170
f 134/134/134 135/135/135 172/172/172
f 138/138/138 139/139/139 176/176/176
f 141/141/141 142/142/142 179/179/179
f 142/142/142 143/143/143 180/180/180
f 147/147/147 146/146/146 183/183/183
f 149/149/149 148/148/148 185/185/185
f 150/150/150 149/149/149 186/186/186
f 152/152/152 151/151/151 188/188/188
f 155/155/155 154/154/154 191/191/191
f 165/165/165 166/166/166 205/205/205
f 167/167/167 168/168/168 207/207/207
f 171/171/171 172/172/172 210/210/210
f 176/176/176 177/177/177 215/215/215
f 178/178/178 179/179/179 217/217/217
f 179/179/179 180/180/180 218/218/218
f 184/184/184 183/183/183 221/221/221
f 185/185/185 184/184/184 222/222/222
f 188/188/188 187/187/187 225/225/225
f 189/189/189 188/188/188 226/226/226
f 192/192/192 191/191/191 229/229/229
f 200/200/200 199/199/199 236/236/236
f 214/214/214 215/215/215 254/254/254
f 215/215/215 216/216/216 255/255/255
f 216/216/216 217/217/217 256/256/256
f 217/217/217 218/218/218 257/257/257
f 218/218/218 219/219/219 258/258/258
f 222/222/222 221/221/221 260/260/260
f 223/223/223 222/222/222 261/261/261
f 224/224/224 223/223/223 262/262/262
f 226/226/226 225/225/225 264/264/264
f 228/228/228 227/227/227 266/266/266
f 234/234/234 233/233/233 274/274/274
f 250/250/250 251/251/251 292/292/292
f 253/253/253 254/254/254 295/295/295
f 254/254/254 255/255/255 296/296/296
f 256/256/256 257/257/257 298/298/298
f 257/257/257 258/258/258 299/299/299
f 261/261/261 260/260/260 302/302/302
f 263/263/263 262/262/262 304/304/304
f 267/267/267 266/266/266 308/308/308
f 271/271/271 270/270/270 312/312/312
f 273/273/273 272/272/272 314/314/314
f 279/279/279 280/280/280 321/321/321
f 282/282/282 283/283/283 325/325/325
f 284/284/284 285/285/285 327/327/327
f 286/286/286 287/287/287 329/329/329
f 291/291/291 292/292/292 335/335/335
f 295/295/295 296/296/296 338/338/338
f 298/298/298 299/299/299 341/341/341
f 301/301/301 300/300/300 342/342/342
f 302/302/302 301/301/301 343/343/343
f 303/303/303 302/302/302 344/344/344
f 304/304/304 303/303/303 345/345/345
f 305/305/305 304/304/304 346/346/346
f 307/307/307 306/306/306 348/348/348
f 309/309/309 308/308/308 350/350/350
f 313/313/313 312/312/312 355/355/355
f 322/322/322 323/323/323 363/363/363
f 324/324/324 325/325/325 365/365/365
f 334/334/334 335/335/335 374/374/374
f 338/338/338 339/339/339 378/378/378
f 340/340/340 341/341/341 380/380/380
f 346/346/346 345/345/345 384/384/384
f 348/348/348 347/347/347 386/386/386
f 349/349/349 348/348/348 387/387/387
f 352/352/352 351/351/351 390/390/390
f 364/364/364 365/365/365 403/403/403
f 367/367/367 368/368/368 407/407/407
f 371/371/371 372/372/372 411/411/411
f 375/375/375 376/376/376 415/415/415
f 378/378/378 379/379/379 418/418/418
f 379/379/379 380/380/380 419/419/419
f 383/383/383 382/382/382 421/421/421
f 385/385/385 384/384/384 423/423/423
f 386/386/386 385/385/385 424/424/424
f 387/387/387 386/386/386 425/425/425
f 389/389/389 388/388/388 427/427/427
f 390/390/390 389/389/389 428/428/428
f 402/402/402 403/403/403 441/441/441
f 410/410/410 411/411/411 449/449/449
f 414/414/414 415/415/415 454/454/454
f 416/416/416 417/417/417 456/456/456
f 417/417/417 418/418/418 457/457/457
f 421/421/421 420/420/420 459/459/459
f 424/424/424 423/423/423 462/462/462
f 425/425/425 424/424/424 463/463/463
f 428/428/428 427/427/427 466/466/466
f 442/442/442 443/443/443 481/481/481
f 444/444/444 445/445/445 483/483/483
f 450/450/450 451/451/451 488/488/488
f 452/452/452 453/453/453 490/490/490
f 453/453/453 454/454/454 491/491/491
f 455/455/455 456/456/456 493/493/493
f 461/461/461 460/460/460 496/496/496
f 463/463/463 462/462/462 498/498/498
f 464/464/464 463/463/463 499/499/499
f 467/467/467 466/466/466 502/502/502
f 470/470/470 469/469/469 505/505/505
f 472/472/472 471/471/471 507/507/507
f 485/485/485 486/486/486 523/523/523
f 487/487/487 488/488/488 525/525/525
f 489/489/489 490/490/490 527/527/527
f 490/490/490 491/491/491 528/528/528
f 491/491/491 492/492/492 529/529/529
f 497/497/497 496/496/496 533/533/533
f 499/499/499 498/498/498 535/535/535
f 500/500/500 499/499/499 536/536/536
f 503/503/503 502/502/502 539/539/539
f 508/508/508 507/507/507 544/544/544
f 522/522/522 523/523/523 559/559/559
f 524/524/524 525/525/525 561/561/561
f 526/526/526 527/527/527 563/563/563
f 528/528/528 529/529/529 565/565/565
f 531/531/531 532/532/532 568/568/568
f 534/534/534 533/533/533 569/569/569
f 537/537/537 536/536/536 572/572/572
f 545/545/545 544/544/544 580/580/580
f 556/556/556 557/557/557 593/593/593
f 558/558/558 559/559/559 595/595/595
f 560/560/560 561/561/561 597/597/597
f 562/562/562 563/563/563 599/599/599
f 565/565/565 566/566/566 602/602/602
f 567/567/567 568/568/568 604/604/604
f 570/570/570 569/569/569 605/605/605
f 576/576/576 575/575/575 611/611/611
f 581/581/581 580/580/580 616/616/616
f 592/592/592 593/593/593 629/629/629
f 594/594/594 595/595/595 631/631/631
f 596/596/596 597/597/597 633/633/633
f 598/598/598 599/599/599 635/635/635
f 601/601/601 602/602/602 638/638/638
f 603/603/603 604/604/604 640/640/640
f 1/1/1 11/11/11 47/47/47
f 12/12/12 9/9/9 45/45/45
f 10/10/10 14/14/14 50/50/50
f 14/14/14 16/16/16 52/52/52
f 19/19/19 17/17/17 53/53/53
f 21/21/21 19/19/19 55/55/55
f 25/25/25 21/21/21 57/57/57
f 23/23/23 26/26/26 62/62/62
f 48/48/48 45/45/45 81/81/81
f 50/50/50 52/52/52 88/88/88
f 52/52/52 54/54/54 90/90/90
f 55/55/55 53/53/53 89/89/89
f 57/57/57 55/55/55 91/91/91
f 59/59/59 62/62/62 98/98/98
f 84/84/84 81/81/81 117/117/117
f 87/87/87 85/85/85 121/121/121
f 86/86/86 88/88/88 124/124/124
f 91/91/91 89/89/89 125/125/125
f 90/90/90 92/92/92 128/128/128
f 93/93/93 91/91/91 127/127/127
f 92/92/92 94/94/94 130/130/130
f 95/95/95 98/98/98 134/134/134
f 99/99/99 102/102/102 138/138/138
f 109/109/109 119/119/119 155/155/155
f 120/120/120 117/117/117 153/153/153
f 118/118/118 122/122/122 158/158/158
f 123/123/123 121/121/121 157/157/157
f 125/125/125 123/123/123 159/159/159
f 127/127/127 125/125/125 161/161/161
f 126/126/126 128/128/128 164/164/164
f 129/129/129 127/127/127 163/163/163
f 128/128/128 130/130/130 167/167/167
f 131/131/131 134/134/134 171/171/171
f 135/135/135 138/138/138 175/175/175
f 145/145/145 155/155/155 192/192/192
f 156/156/156 153/153/153 190/190/190
f 154/154/154 158/158/158 195/195/195
f 159/159/159 157/157/157 194/194/194
f 161/161/161 159/159/159 197/197/197
f 162/162/162 164/164/164 203/203/203
f 164/164/164 167/167/167 206/206/206
f 172/172/172 175/175/175 213/213/213
f 196/196/196 193/193/193 231/231/231
f 198/198/198 201/201/201 238/238/238
f 202/202/202 200/200/200 237/237/237
f 203/203/203 206/206/206 244/244/244
f 207/207/207 209/209/209 248/248/248
f 210/210/210 213/213/213 252/252/252
f 219/219/219 211/211/211 250/250/250
f 229/229/229 232/232/232 273/273/273
f 232/232/232 235/235/235 277/277/277
f 239/239/239 237/237/237 278/278/278
f 238/238/238 240/240/240 282/282/282
f 243/243/243 239/239/239 281/281/281
f 241/241/241 245/245/245 286/286/286
f 247/247/247 242/242/242 284/284/284
f 246/246/246 249/249/249 289/289/289
f 251/251/251 247/247/247 288/288/288
f 249/249/249 252/252/252 293/293/293
f 259/259/259 269/269/269 311/311/311
f 268/268/268 273/273/273 315/315/315
f 272/272/272 276/276/276 317/317/317
f 278/278/278 275/275/275 316/316/316
f 276/276/276 279/279/279 320/320/320
f 292/292/292 288/288/288 330/330/330
f 290/290/290 294/294/294 336/336/336
f 310/310/310 315/315/315 357/357/357
f 319/319/319 316/316/316 358/358/358
f 318/318/318 321/321/321 361/361/361
f 323/323/323 319/319/319 360/360/360
f 325/325/325 328/328/328 367/367/367
f 330/330/330 326/326/326 366/366/366
f 328/328/328 331/331/331 370/370/370
f 341/341/341 334/334/334 373/373/373
f 343/343/343 354/354/354 393/393/393
f 358/358/358 356/356/356 394/394/394
f 360/360/360 358/358/358 396/396/396
f 363/363/363 360/360/360 398/398/398
f 366/366/366 362/362/362 400/400/400
f 365/365/365 367/367/367 406/406/406
f 381/381/381 392/392/392 431/431/431
f 394/394/394 391/391/391 430/430/430
f 395/395/395 397/397/397 436/436/436
f 397/397/397 399/399/399 438/438/438
f 405/405/405 401/401/401 439/439/439
f 408/408/408 404/404/404 442/442/442
f 432/432/432 429/429/429 468/468/468
f 431/431/431 434/434/434 473/473/473
f 435/435/435 433/433/433 472/472/472
f 434/434/434 436/436/436 475/475/475
f 437/437/437 435/435/435 474/474/474
f 436/436/436 438/438/438 477/477/477
f 443/443/443 439/439/439 478/478/478
f 446/446/446 442/442/442 480/480/480
f 445/445/445 447/447/447 485/485/485
f 458/458/458 450/450/450 487/487/487
f 474/474/474 472/472/472 508/508/508
f 473/473/473 475/475/475 511/511/511
f 478/478/478 476/476/476 512/512/512
f 477/477/477 479/479/479 515/515/515
f 481/481/481 478/478/478 514/514/514
f 484/484/484 480/480/480 516/516/516
f 488/488/488 484/484/484 520/520/520
f 486/486/486 489/489/489 526/526/526
f 495/495/495 487/487/487 524/524/524
f 496/496/496 506/506/506 543/543/543
f 507/507/507 504/504/504 541/541/541
f 509/509/509 511/511/511 548/548/548
f 513/513/513 515/515/515 552/552/552
f 521/521/521 517/517/517 553/553/553
f 525/525/525 520/520/520 556/556/556
f 523/523/523 526/526/526 562/562/562
f 532/532/532 524/524/524 560/560/560
f 533/533/533 543/543/543 579/579/579
f 544/544/544 541/541/541 577/577/577
f 547/547/547 545/545/545 581/581/581
f 546/546/546 548/548/548 584/584/584
f 550/550/550 552/552/552 588/588/588
f 557/557/557 553/553/553 589/589/589
f 561/561/561 556/556/556 592/592/592
f 559/559/559 562/562/562 598/598/598
f 568/568/568 560/560/560 596/596/596
f 580/580/580 577/577/577 613/613/613
f 583/583/583 581/581/581 617/617/617
f 582/582/582 584/584/584 620/620/620
f 584/584/584 586/586/586 622/622/622
f 587/587/587 585/585/585 621/621/621
f 586/586/586 588/588/588 624/624/624
f 593/593/593 589/589/589 625/625/625
f 597/597/597 592/592/592 628/628/628
f 595/595/595 598/598/598 634/634/634
f 604/604/604 596/596/596 632/632/632
f 197/197/197 194/194/194 196/196/196
f 200/200/200 197/197/197 199/199/199
f 237/237/237 234/234/234 236/236/236
f 245/245/245 241/241/241 244/244/244
f 249/249/249 246/246/246 248/248/248
f 276/276/276 272/272/272 277/277/277
f 294/294/294 290/290/290 293/293/293
f 310/310/310 300/300/300 311/311/311
f 321/321/321 318/318/318 320/320/320
f 371/371/371 368/368/368 370/370/370
f 392/392/392 381/381/381 393/393/393
f 404/404/404 400/400/400 405/405/405
f 433/433/433 430/430/430 432/432/432
f 520/520/520 516/516/516 521/521/521
f 39/39/39 3/3/3 38/38/38
f 42/42/42 6/6/6 41/41/41
f 44/44/44 8/8/8 43/43/43
f 45/45/45 9/9/9 44/44/44
f 47/47/47 11/11/11 46/46/46
f 49/49/49 13/13/13 48/48/48
f 58/58/58 22/22/22 59/59/59
f 67/67/67 31/31/31 68/68/68
f 69/69/69 33/33/33 70/70/70
f 70/70/70 34/34/34 71/71/71
f 74/74/74 38/38/38 73/73/73
f 78/78/78 42/42/42 77/77/77
f 79/79/79 43/43/43 78/78/78
f 80/80/80 44/44/44 79/79/79
f 81/81/81 45/45/45 80/80/80
f 85/85/85 49/49/49 84/84/84
f 103/103/103 67/67/67 104/104/104
f 105/105/105 69/69/69 106/106/106
f 106/106/106 70/70/70 107/107/107
f 107/107/107 71/71/71 108/108/108
f 110/110/110 74/74/74 109/109/109
f 112/112/112 76/76/76 111/111/111
f 121/121/121 85/85/85 120/120/120
f 130/130/130 94/94/94 131/131/131
f 134/134/134 98/98/98 135/135/135
f 136/136/136 100/100/100 137/137/137
f 138/138/138 102/102/102 139/139/139
f 141/141/141 105/105/105 142/142/142
f 142/142/142 106/106/106 143/143/143
f 143/143/143 107/107/107 144/144/144
f 148/148/148 112/112/112 147/147/147
f 152/152/152 116/116/116 151/151/151
f 155/155/155 119/119/119 154/154/154
f 157/157/157 121/121/121 156/156/156
f 167/167/167 130/130/130 168/168/168
f 169/169/169 132/132/132 170/170/170
f 171/171/171 134/134/134 172/172/172
f 175/175/175 138/138/138 176/176/176
f 178/178/178 141/141/141 179/179/179
f 179/179/179 142/142/142 180/180/180
f 184/184/184 147/147/147 183/183/183
f 186/186/186 149/149/149 185/185/185
f 187/187/187 150/150/150 186/186/186
f 189/189/189 152/152/152 188/188/188
f 192/192/192 155/155/155 191/191/191
f 204/204/204 165/165/165 205/205/205
f 206/206/206 167/167/167 207/207/207
f 209/209/209 171/171/171 210/210/210
f 214/214/214 176/176/176 215/215/215
f 216/216/216 178/178/178 217/217/217
f 217/217/217 179/179/179 218/218/218
f 222/222/222 184/184/184 221/221/221
f 223/223/223 185/185/185 222/222/222
f 226/226/226 188/188/188 225/225/225
f 227/227/227 189/189/189 226/226/226
f 230/230/230 192/192/192 229/229/229
f 237/237/237 200/200/200 236/236/236
f 253/253/253 214/214/214 254/254/254
f 254/254/254 215/215/215 255/255/255
f 255/255/255 216/216/216 256/256/256
f 256/256/256 217/217/217 257/257/257
f 257/257/257 218/218/218 258/258/258
f 261/261/261 222/222/222 260/260/260
f 262/262/262 223/223/223 261/261/261
f 263/263/263 224/224/224 262/262/262
f 265/265/265 226/226/226 264/264/264
f 267/267/267 228/228/228 266/266/266
f 275/275/275 234/234/234 274/274/274
f 291/291/291 250/250/250 292/292/292
f 294/294/294 253/253/253 295/295/295
f 295/295/295 254/254/254 296/296/296
f 297/297/297 256/256/256 298/298/298
f 298/298/298 257/257/257 299/299/299
f 303/303/303 261/261/261 302/302/302
f 305/305/305 263/263/263 304/304/304
f 309/309/309 267/267/267 308/308/308
f 313/313/313 271/271/271 312/312/312
f 315/315/315 273/273/273 314/314/314
f 320/320/320 279/279/279 321/321/321
f 324/324/324 282/282/282 325/325/325
f 326/326/326 284/284/284 327/327/327
f 328/328/328 286/286/286 329/329/329
f 334/334/334 291/291/291 335/335/335
f 337/337/337 295/295/295 338/338/338
f 340/340/340 298/298/298 341/341/341
f 343/343/343 301/301/301 342/342/342
f 344/344/344 302/302/302 343/343/343
f 345/345/345 303/303/303 344/344/344
f 346/346/346 304/304/304 345/345/345
f 347/347/347 305/305/305 346/346/346
f 349/349/349 307/307/307 348/348/348
f 351/351/351 309/309/309 350/350/350
f 356/356/356 313/313/313 355/355/355
f 362/362/362 322/322/322 363/363/363
f 364/364/364 324/324/324 365/365/365
f 373/373/373 334/334/334 374/374/374
f 377/377/377 338/338/338 378/378/378
f 379/379/379 340/340/340 380/380/380
f 385/385/385 346/346/346 384/384/384
f 387/387/387 348/348/348 386/386/386
f 388/388/388 349/349/349 387/387/387
f 391/391/391 352/352/352 390/390/390
f 402/402/402 364/364/364 403/403/403
f 406/406/406 367/367/367 407/407/407
f 410/410/410 371/371/371 411/411/411
f 414/414/414 375/375/375 415/415/415
f 417/417/417 378/378/378 418/418/418
f 418/418/418 379/379/379 419/419/419
f 422/422/422 383/383/383 421/421/421
f 424/424/424 385/385/385 423/423/423
f 425/425/425 386/386/386 424/424/424
f 426/426/426 387/387/387 425/425/425
f 428/428/428 389/389/389 427/427/427
f 429/429/429 390/390/390 428/428/428
f 440/440/440 402/402/402 441/441/441
f 448/448/448 410/410/410 449/449/449
f 453/453/453 414/414/414 454/454/454
f 455/455/455 416/416/416 456/456/456
f 456/456/456 417/417/417 457/457/457
f 460/460/460 421/421/421 459/459/459
f 463/463/463 424/424/424 462/462/462
f 464/464/464 425/425/425 463/463/463
f 467/467/467 428/428/428 466/466/466
f 480/480/480 442/442/442 481/481/481
f 482/482/482 444/444/444 483/483/483
f 487/487/487 450/450/450 488/488/488
f 489/489/489 452/452/452 490/490/490
f 490/490/490 453/453/453 491/491/491
f 492/492/492 455/455/455 493/493/493
f 497/497/497 461/461/461 496/496/496
f 499/499/499 463/463/463 498/498/498
f 500/500/500 464/464/464 499/499/499
f 503/503/503 467/467/467 502/502/502
f 506/506/506 470/470/470 505/505/505
f 508/508/508 472/472/472 507/507/507
f 522/522/522 485/485/485 523/523/523
f 524/524/524 487/487/487 525/525/525
f 526/526/526 489/489/489 527/527/527
f 527/527/527 490/490/490 528/528/528
f 528/528/528 491/491/491 529/529/529
f 534/534/534 497/497/497 533/533/533
f 536/536/536 499/499/499 535/535/535
f 537/537/537 500/500/500 536/536/536
f 540/540/540 503/503/503 539/539/539
f 545/545/545 508/508/508 544/544/544
f 558/558/558 522/522/522 559/559/559
f 560/560/560 524/524/524 561/561/561
f 562/562/562 526/526/526 563/563/563
f 564/564/564 528/528/528 565/565/565
f 567/567/567 531/531/531 568/568/568
f 570/570/570 534/534/534 569/569/569
f 573/573/573 537/537/537 572/572/572
f 581/581/581 545/545/545 580/580/580
f 592/592/592 556/556/556 593/593/593
f 594/594/594 558/558/558 595/595/595
f 596/596/596 560/560/560 597/597/597
f 598/598/598 562/562/562 599/599/599
f 601/601/601 565/565/565 602/602/602
f 603/603/603 567/567/567 604/604/604
f 606/606/606 570/570/570 605/605/605
f 612/612/612 576/576/576 611/611/611
f 617/617/617 581/581/581 616/616/616
f 628/628/628 592/592/592 629/629/629
f 630/630/630 594/594/594 631/631/631
f 632/632/632 596/596/596 633/633/633
f 634/634/634 598/598/598 635/635/635
f 637/637/637 601/601/601 638/638/638
f 639/639/639 603/603/603 640/640/640
f 37/37/37 1/1/1 47/47/47
f 48/48/48 12/12/12 45/45/45
f 46/46/46 10/10/10 50/50/50
f 50/50/50 14/14/14 52/52/52
f 55/55/55 19/19/19 53/53/53
f 57/57/57 21/21/21 55/55/55
f 61/61/61 25/25/25 57/57/57
f 59/59/59 23/23/23 62/62/62
f 84/84/84 48/48/48 81/81/81
f 86/86/86 50/50/50 88/88/88
f 88/88/88 52/52/52 90/90/90
f 91/91/91 55/55/55 89/89/89
f 93/93/93 57/57/57 91/91/91
f 95/95/95 59/59/59 98/98/98
f 120/120/120 84/84/84 117/117/117
f 123/123/123 87/87/87 121/121/121
f 122/122/122 86/86/86 124/124/124
f 127/127/127 91/91/91 125/125/125
f 126/126/126 90/90/90 128/128/128
f 129/129/129 93/93/93 127/127/127
f 128/128/128 92/92/92 130/130/130
f 131/131/131 95/95/95 134/134/134
f 135/135/135 99/99/99 138/138/138
f 145/145/145 109/109/109 155/155/155
f 156/156/156 120/120/120 153/153/153
f 154/154/154 118/118/118 158/158/158
f 159/159/159 123/123/123 157/157/157
f 161/161/161 125/125/125 159/159/159
f 163/163/163 127/127/127 161/161/161
f 162/162/162 126/126/126 164/164/164
f 166/166/166 129/129/129 163/163/163
f 164/164/164 128/128/128 167/167/167
f 168/168/168 131/131/131 171/171/171
f 172/172/172 135/135/135 175/175/175
f 182/182/182 145/145/145 192/192/192
f 193/193/193 156/156/156 190/190/190
f 191/191/191 154/154/154 195/195/195
f 197/197/197 159/159/159 194/194/194
f 200/200/200 161/161/161 197/197/197
f 201/201/201 162/162/162 203/203/203
f 203/203/203 164/164/164 206/206/206
f 210/210/210 172/172/172 213/213/213
f 233/233/233 196/196/196 231/231/231
f 235/235/235 198/198/198 238/238/238
f 239/239/239 202/202/202 237/237/237
f 240/240/240 203/203/203 244/244/244
f 245/245/245 207/207/207 248/248/248
f 249/249/249 210/210/210 252/252/252
f 258/258/258 219/219/219 250/250/250
f 268/268/268 229/229/229 273/273/273
f 273/273/273 232/232/232 277/277/277
f 281/281/281 239/239/239 278/278/278
f 280/280/280 238/238/238 282/282/282
f 285/285/285 243/243/243 281/281/281
f 283/283/283 241/241/241 286/286/286
f 288/288/288 247/247/247 284/284/284
f 287/287/287 246/246/246 289/289/289
f 292/292/292 251/251/251 288/288/288
f 289/289/289 249/249/249 293/293/293
f 301/301/301 259/259/259 311/311/311
f 310/310/310 268/268/268 315/315/315
f 314/314/314 272/272/272 317/317/317
f 319/319/319 278/278/278 316/316/316
f 317/317/317 276/276/276 320/320/320
f 335/335/335 292/292/292 330/330/330
f 333/333/333 290/290/290 336/336/336
f 353/353/353 310/310/310 357/357/357
f 360/360/360 319/319/319 358/358/358
f 359/359/359 318/318/318 361/361/361
f 363/363/363 323/323/323 360/360/360
f 365/365/365 325/325/325 367/367/367
f 369/369/369 330/330/330 366/366/366
f 367/367/367 328/328/328 370/370/370
f 380/380/380 341/341/341 373/373/373
f 382/382/382 343/343/343 393/393/393
f 396/396/396 358/358/358 394/394/394
f 398/398/398 360/360/360 396/396/396
f 401/401/401 363/363/363 398/398/398
f 404/404/404 366/366/366 400/400/400
f 403/403/403 365/365/365 406/406/406
f 420/420/420 381/381/381 431/431/431
f 433/433/433 394/394/394 430/430/430
f 434/434/434 395/395/395 436/436/436
f 436/436/436 397/397/397 438/438/438
f 443/443/443 405/405/405 439/439/439
f 446/446/446 408/408/408 442/442/442
f 471/471/471 432/432/432 468/468/468
f 469/469/469 431/431/431 473/473/473
f 474/474/474 435/435/435 472/472/472
f 473/473/473 434/434/434 475/475/475
f 476/476/476 437/437/437 474/474/474
f 475/475/475 436/436/436 477/477/477
f 481/481/481 443/443/443 478/478/478
f 484/484/484 446/446/446 480/480/480
f 483/483/483 445/445/445 485/485/485
f 495/495/495 458/458/458 487/487/487
f 510/510/510 474/474/474 508/508/508
f 509/509/509 473/473/473 511/511/511
f 514/514/514 478/478/478 512/512/512
f 513/513/513 477/477/477 515/515/515
f 517/517/517 481/481/481 514/514/514
f 520/520/520 484/484/484 516/516/516
f 525/525/525 488/488/488 520/520/520
f 523/523/523 486/486/486 526/526/526
f 532/532/532 495/495/495 524/524/524
f 533/533/533 496/496/496 543/543/543
f 544/544/544 507/507/507 541/541/541
f 546/546/546 509/509/509 548/548/548
f 550/550/550 513/513/513 552/552/552
f 557/557/557 521/521/521 553/553/553
f 561/561/561 525/525/525 556/556/556
f 559/559/559 523/523/523 562/562/562
f 568/568/568 532/532/532 560/560/560
f 569/569/569 533/533/533 579/579/579
f 580/580/580 544/544/544 577/577/577
f 583/583/583 547/547/547 581/581/581
f 582/582/582 546/546/546 584/584/584
f 586/586/586 550/550/550 588/588/588
f 593/593/593 557/557/557 589/589/589
f 597/597/597 561/561/561 592/592/592
f 595/595/595 559/559/559 598/598/598
f 604/604/604 568/568/568 596/596/596
f 616/616/616 580/580/580 613/613/613
f 619/619/619 583/583/583 617/617/617
f 618/618/618 582/582/582 620/620/620
f 620/620/620 584/584/584 622/622/622
f 623/623/623 587/587/587 621/621/621
f 622/622/622 586/586/586 624/624/624
f 629/629/629 593/593/593 625/625/625
f 633/633/633 597/597/597 628/628/628
f 631/631/631 595/595/595 634/634/634
f 640/640/640 604/604/604 632/632/632
f 170/170/170 165/165/165 169/169/169
f 274/274/274 271/271/271 275/275/275
f 279/279/279 277/277/277 280/280/280
f 318/318/318 314/314/314 317/317/317
f 327/327/327 322/322/322 326/326/326
f 331/331/331 329/329/329 332/332/332
f 354/354/354 342/342/342 353/353/353
f 355/355/355 352/352/352 356/356/356
f 409/409/409 407/407/407 410/410/410
f 444/444/444 441/441/441 445/445/445
f 452/452/452 449/449/449 453/453/453
f 470/470/470 459/459/459 469/469/469
f 38/38/38 1/1/1 37/37/37
f 40/40/40 3/3/3 39/39/39
f 41/41/41 4/4/4 40/40/40
f 43/43/43 6/6/6 42/42/42
f 60/60/60 25/25/25 61/61/61
f 62/62/62 27/27/27 63/63/63
f 64/64/64 29/29/29 65/65/65
f 66/66/66 31/31/31 67/67/67
f 68/68/68 33/33/33 69/69/69
f 71/71/71 36/36/36 72/72/72
f 75/75/75 38/38/38 74/74/74
f 76/76/76 39/39/39 75/75/75
f 77/77/77 40/40/40 76/76/76
f 83/83/83 46/46/46 82/82/82
f 94/94/94 59/59/59 95/95/95
f 96/96/96 61/61/61 97/97/97
f 98/98/98 63/63/63 99/99/99
f 100/100/100 65/65/65 101/101/101
f 102/102/102 67/67/67 103/103/103
f 104/104/104 69/69/69 105/105/105
f 111/111/111 74/74/74 110/110/110
f 113/113/113 76/76/76 112/112/112
f 114/114/114 77/77/77 113/113/113
f 115/115/115 78/78/78 114/114/114
f 116/116/116 79/79/79 115/115/115
f 117/117/117 80/80/80 116/116/116
f 119/119/119 82/82/82 118/118/118
f 132/132/132 97/97/97 133/133/133
f 139/139/139 104/104/104 140/140/140
f 140/140/140 105/105/105 141/141/141
f 146/146/146 109/109/109 145/145/145
f 147/147/147 110/110/110 146/146/146
f 149/149/149 112/112/112 148/148/148
f 150/150/150 113/113/113 149/149/149
f 151/151/151 114/114/114 150/150/150
f 153/153/153 116/116/116 152/152/152
f 173/173/173 137/137/137 174/174/174
f 176/176/176 140/140/140 177/177/177
f 177/177/177 141/141/141 178/178/178
f 180/180/180 144/144/144 181/181/181
f 183/183/183 145/145/145 182/182/182
f 185/185/185 147/147/147 184/184/184
f 188/188/188 150/150/150 187/187/187
f 190/190/190 152/152/152 189/189/189
f 194/194/194 156/156/156 193/193/193
f 211/211/211 174/174/174 212/212/212
f 213/213/213 176/176/176 214/214/214
f 215/215/215 178/178/178 216/216/216
f 218/218/218 181/181/181 219/219/219
f 221/221/221 182/182/182 220/220/220
f 224/224/224 185/185/185 223/223/223
f 225/225/225 186/186/186 224/224/224
f 228/228/228 189/189/189 227/227/227
f 242/242/242 205/205/205 243/243/243
f 244/244/244 207/207/207 245/245/245
f 248/248/248 210/210/210 249/249/249
f 250/250/250 212/212/212 251/251/251
f 252/252/252 214/214/214 253/253/253
f 260/260/260 220/220/220 259/259/259
f 264/264/264 224/224/224 263/263/263
f 266/266/266 226/226/226 265/265/265
f 269/269/269 229/229/229 268/268/268
f 282/282/282 241/241/241 283/283/283
f 284/284/284 243/243/243 285/285/285
f 286/286/286 246/246/246 287/287/287
f 293/293/293 253/253/253 294/294/294
f 296/296/296 256/256/256 297/297/297
f 302/302/302 259/259/259 301/301/301
f 304/304/304 261/261/261 303/303/303
f 306/306/306 263/263/263 305/305/305
f 307/307/307 264/264/264 306/306/306
f 308/308/308 265/265/265 307/307/307
f 311/311/311 268/268/268 310/310/310
f 332/332/332 290/290/290 333/333/333
f 336/336/336 295/295/295 337/337/337
f 338/338/338 297/297/297 339/339/339
f 339/339/339 298/298/298 340/340/340
f 348/348/348 305/305/305 347/347/347
f 350/350/350 307/307/307 349/349/349
f 370/370/370 332/332/332 371/371/371
f 371/371/371 333/333/333 372/372/372
f 375/375/375 337/337/337 376/376/376
f 376/376/376 338/338/338 377/377/377
f 378/378/378 340/340/340 379/379/379
f 383/383/383 343/343/343 382/382/382
f 384/384/384 344/344/344 383/383/383
f 386/386/386 346/346/346 385/385/385
f 389/389/389 349/349/349 388/388/388
f 390/390/390 350/350/350 389/389/389
f 393/393/393 353/353/353 392/392/392
f 400/400/400 363/363/363 401/401/401
f 412/412/412 374/374/374 413/413/413
f 415/415/415 377/377/377 416/416/416
f 416/416/416 378/378/378 417/417/417
f 421/421/421 381/381/381 420/420/420
f 423/423/423 383/383/383 422/422/422
f 427/427/427 387/387/387 426/426/426
f 430/430/430 390/390/390 429/429/429
f 442/442/442 405/405/405 443/443/443
f 447/447/447 410/410/410 448/448/448
f 450/450/450 413/413/413 451/451/451
f 454/454/454 416/416/416 455/455/455
f 457/457/457 419/419/419 458/458/458
f 461/461/461 421/421/421 460/460/460
f 462/462/462 422/422/422 461/461/461
f 465/465/465 425/425/425 464/464/464
f 466/466/466 426/426/426 465/465/465
f 468/468/468 428/428/428 467/467/467
f 472/472/472 432/432/432 471/471/471
f 485/485/485 448/448/448 486/486/486
f 491/491/491 455/455/455 492/492/492
f 493/493/493 457/457/457 494/494/494
f 494/494/494 458/458/458 495/495/495
f 498/498/498 461/461/461 497/497/497
f 501/501/501 464/464/464 500/500/500
f 502/502/502 465/465/465 501/501/501
f 504/504/504 467/467/467 503/503/503
f 516/516/516 481/481/481 517/517/517
f 518/518/518 483/483/483 519/519/519
f 529/529/529 493/493/493 530/530/530
f 530/530/530 494/494/494 531/531/531
f 531/531/531 495/495/495 532/532/532
f 535/535/535 497/497/497 534/534/534
f 538/538/538 500/500/500 537/537/537
f 539/539/539 501/501/501 538/538/538
f 541/541/541 503/503/503 540/540/540
f 543/543/543 505/505/505 542/542/542
f 554/554/554 519/519/519 555/555/555
f 556/556/556 521/521/521 557/557/557
f 563/563/563 528/528/528 564/564/564
f 565/565/565 530/530/530 566/566/566
f 566/566/566 531/531/531 567/567/567
f 571/571/571 534/534/534 570/570/570
f 572/572/572 535/535/535 571/571/571
f 574/574/574 537/537/537 573/573/573
f 575/575/575 538/538/538 574/574/574
f 576/576/576 539/539/539 575/575/575
f 577/577/577 540/540/540 576/576/576
f 579/579/579 542/542/542 578/578/578
f 590/590/590 555/555/555 591/591/591
f 599/599/599 564/564/564 600/600/600
f 600/600/600 565/565/565 601/601/601
f 602/602/602 567/567/567 603/603/603
f 607/607/607 570/570/570 606/606/606
f 608/608/608 571/571/571 607/607/607
f 609/609/609 572/572/572 608/608/608
f 610/610/610 573/573/573 609/609/609
f 611/611/611 574/574/574 610/610/610
f 613/613/613 576/576/576 612/612/612
f 615/615/615 578/578/578 614/614/614
f 626/626/626 591/591/591 627/627/627
f 635/635/635 600/600/600 636/636/636
f 636/636/636 601/601/601 637/637/637
f 638/638/638 603/603/603 639/639/639
f 51/51/51 13/13/13 49/49/49
f 53/53/53 15/15/15 51/51/51
f 52/52/52 18/18/18 54/54/54
f 54/54/54 20/20/20 56/56/56
f 56/56/56 22/22/22 58/58/58
f 65/65/65 24/24/24 60/60/60
f 63/63/63 30/30/30 66/66/66
f 72/72/72 28/28/28 64/64/64
f 73/73/73 47/47/47 83/83/83
f 82/82/82 50/50/50 86/86/86
f 87/87/87 49/49/49 85/85/85
f 89/89/89 51/51/51 87/87/87
f 90/90/90 56/56/56 92/92/92
f 92/92/92 58/58/58 94/94/94
f 97/97/97 57/57/57 93/93/93
f 101/101/101 60/60/60 96/96/96
f 99/99/99 66/66/66 102/102/102
f 108/108/108 64/64/64 100/100/100
f 109/109/109 83/83/83 119/119/119
f 118/118/118 86/86/86 122/122/122
f 125/125/125 87/87/87 123/123/123
f 124/124/124 90/90/90 126/126/126
f 133/133/133 93/93/93 129/129/129
f 137/137/137 96/96/96 132/132/132
f 144/144/144 100/100/100 136/136/136
f 158/158/158 124/124/124 160/160/160
f 160/160/160 126/126/126 162/162/162
f 170/170/170 129/129/129 166/166/166
f 174/174/174 132/132/132 169/169/169
f 181/181/181 136/136/136 173/173/173
f 195/195/195 160/160/160 198/198/198
f 198/198/198 162/162/162 201/201/201
f 202/202/202 161/161/161 200/200/200
f 205/205/205 163/163/163 202/202/202
f 208/208/208 165/165/165 204/204/204
f 207/207/207 171/171/171 209/209/209
f 212/212/212 169/169/169 208/208/208
f 219/219/219 173/173/173 211/211/211
f 220/220/220 192/192/192 230/230/230
f 231/231/231 190/190/190 228/228/228
f 229/229/229 195/195/195 232/232/232
f 232/232/232 198/198/198 235/235/235
f 236/236/236 196/196/196 233/233/233
f 238/238/238 203/203/203 240/240/240
f 243/243/243 202/202/202 239/239/239
f 247/247/247 204/204/204 242/242/242
f 251/251/251 208/208/208 247/247/247
f 259/259/259 230/230/230 269/269/269
f 270/270/270 228/228/228 267/267/267
f 274/274/274 231/231/231 270/270/270
f 278/278/278 234/234/234 275/275/275
f 277/277/277 238/238/238 280/280/280
f 299/299/299 250/250/250 291/291/291
f 312/312/312 267/267/267 309/309/309
f 316/316/316 271/271/271 313/313/313
f 323/323/323 278/278/278 319/319/319
f 321/321/321 282/282/282 324/324/324
f 327/327/327 281/281/281 323/323/323
f 325/325/325 286/286/286 328/328/328
f 330/330/330 284/284/284 326/326/326
f 329/329/329 289/289/289 332/332/332
f 341/341/341 291/291/291 334/334/334
f 342/342/342 310/310/310 353/353/353
f 355/355/355 309/309/309 351/351/351
f 358/358/358 313/313/313 356/356/356
f 357/357/357 318/318/318 359/359/359
f 361/361/361 324/324/324 364/364/364
f 366/366/366 322/322/322 362/362/362
f 374/374/374 330/330/330 369/369/369
f 372/372/372 336/336/336 375/375/375
f 394/394/394 352/352/352 391/391/391
f 392/392/392 357/357/357 395/395/395
f 395/395/395 359/359/359 397/397/397
f 397/397/397 361/361/361 399/399/399
f 399/399/399 364/364/364 402/402/402
f 408/408/408 366/366/366 404/404/404
f 407/407/407 371/371/371 410/410/410
f 413/413/413 369/369/369 408/408/408
f 411/411/411 375/375/375 414/414/414
f 419/419/419 373/373/373 412/412/412
f 431/431/431 395/395/395 434/434/434
f 435/435/435 394/394/394 433/433/433
f 437/437/437 396/396/396 435/435/435
f 439/439/439 398/398/398 437/437/437
f 438/438/438 402/402/402 440/440/440
f 441/441/441 406/406/406 445/445/445
f 445/445/445 409/409/409 447/447/447
f 451/451/451 408/408/408 446/446/446
f 449/449/449 414/414/414 453/453/453
f 458/458/458 412/412/412 450/450/450
f 459/459/459 431/431/431 469/469/469
f 478/478/478 437/437/437 476/476/476
f 477/477/477 440/440/440 479/479/479
f 479/479/479 444/444/444 482/482/482
f 488/488/488 446/446/446 484/484/484
f 486/486/486 452/452/452 489/489/489
f 496/496/496 470/470/470 506/506/506
f 507/507/507 468/468/468 504/504/504
f 505/505/505 473/473/473 509/509/509
f 512/512/512 474/474/474 510/510/510
f 511/511/511 477/477/477 513/513/513
f 515/515/515 482/482/482 518/518/518
f 519/519/519 485/485/485 522/522/522
f 542/542/542 509/509/509 546/546/546
f 547/547/547 508/508/508 545/545/545
f 549/549/549 510/510/510 547/547/547
f 548/548/548 513/513/513 550/550/550
f 551/551/551 512/512/512 549/549/549
f 553/553/553 514/514/514 551/551/551
f 552/552/552 518/518/518 554/554/554
f 555/555/555 522/522/522 558/558/558
f 578/578/578 546/546/546 582/582/582
f 585/585/585 547/547/547 583/583/583
f 584/584/584 550/550/550 586/586/586
f 587/587/587 549/549/549 585/585/585
f 589/589/589 551/551/551 587/587/587
f 588/588/588 554/554/554 590/590/590
f 591/591/591 558/558/558 594/594/594
f 605/605/605 579/579/579 615/615/615
f 614/614/614 582/582/582 618/618/618
f 621/621/621 583/583/583 619/619/619
f 625/625/625 587/587/587 623/623/623
f 624/624/624 590/590/590 626/626/626
f 627/627/627 594/594/594 630/630/630
f 170/170/170 166/166/166 165/165/165
f 274/274/274 270/270/270 271/271/271
f 279/279/279 276/276/276 277/277/277
f 318/318/318 315/315/315 314/314/314
f 327/327/327 323/323/323 322/322/322
f 331/331/331 328/328/328 329/329/329
f 354/354/354 343/343/343 342/342/342
f 355/355/355 351/351/351 352/352/352
f 409/409/409 406/406/406 407/407/407
f 444/444/444 440/440/440 441/441/441
f 452/452/452 448/448/448 449/449/449
f 470/470/470 460/460/460 459/459/459
f 38/38/38 2/2/2 1/1/1
f 40/40/40 4/4/4 3/3/3
f 41/41/41 5/5/5 4/4/4
f 43/43/43 7/7/7 6/6/6
f 60/60/60 24/24/24 25/25/25
f 62/62/62 26/26/26 27/27/27
f 64/64/64 28/28/28 29/29/29
f 66/66/66 30/30/30 31/31/31
f 68/68/68 32/32/32 33/33/33
f 71/71/71 35/35/35 36/36/36
f 75/75/75 39/39/39 38/38/38
f 76/76/76 40/40/40 39/39/39
f 77/77/77 41/41/41 40/40/40
f 83/83/83 47/47/47 46/46/46
f 94/94/94 58/58/58 59/59/59
f 96/96/96 60/60/60 61/61/61
f 98/98/98 62/62/62 63/63/63
f 100/100/100 64/64/64 65/65/65
f 102/102/102 66/66/66 67/67/67
f 104/104/104 68/68/68 69/69/69
f 111/111/111 75/75/75 74/74/74
f 113/113/113 77/77/77 76/76/76
f 114/114/114 78/78/78 77/77/77
f 115/115/115 79/79/79 78/78/78
f 116/116/116 80/80/80 79/79/79
f 117/117/117 81/81/81 80/80/80
f 119/119/119 83/83/83 82/82/82
f 132/132/132 96/96/96 97/97/97
f 139/139/139 103/103/103 104/104/104
f 140/140/140 104/104/104 105/105/105
f 146/146/146 110/110/110 109/109/109
f 147/147/147 111/111/111 110/110/110
f 149/149/149 113/113/113 112/112/112
f 150/150/150 114/114/114 113/113/113
f 151/151/151 115/115/115 114/114/114
f 153/153/153 117/117/117 116/116/116
f 173/173/173 136/136/136 137/137/137
f 176/176/176 139/139/139 140/140/140
f 177/177/177 140/140/140 141/141/141
f 180/180/180 143/143/143 144/144/144
f 183/183/183 146/146/146 145/145/145
f 185/185/185 148/148/148 147/147/147
f 188/188/188 151/151/151 150/150/150
f 190/190/190 153/153/153 152/152/152
f 194/194/194 157/157/157 156/156/156
f 211/211/211 173/173/173 174/174/174
f 213/213/213 175/175/175 176/176/176
f 215/215/215 177/177/177 178/178/178
f 218/218/218 180/180/180 181/181/181
f 221/221/221 183/183/183 182/182/182
f 224/224/224 186/186/186 185/185/185
f 225/225/225 187/187/187 186/186/186
f 228/228/228 190/190/190 189/189/189
f 242/242/242 204/204/204 205/205/205
f 244/244/244 206/206/206 207/207/207
f 248/248/248 209/209/209 210/210/210
f 250/250/250 211/211/211 212/212/212
f 252/252/252 213/213/213 214/214/214
f 260/260/260 221/221/221 220/220/220
f 264/264/264 225/225/225 224/224/224
f 266/266/266 227/227/227 226/226/226
f 269/269/269 230/230/230 229/229/229
f 282/282/282 240/240/240 241/241/241
f 284/284/284 242/242/242 243/243/243
f 286/286/286 245/245/245 246/246/246
f 293/293/293 252/252/252 253/253/253
f 296/296/296 255/255/255 256/256/256
f 302/302/302 260/260/260 259/259/259
f 304/304/304 262/262/262 261/261/261
f 306/306/306 264/264/264 263/263/263
f 307/307/307 265/265/265 264/264/264
f 308/308/308 266/266/266 265/265/265
f 311/311/311 269/269/269 268/268/268
f 332/332/332 289/289/289 290/290/290
f 336/336/336 294/294/294 295/295/295
f 338/338/338 296/296/296 297/297/297
f 339/339/339 297/297/297 298/298/298
f 348/348/348 306/306/306 305/305/305
f 350/350/350 308/308/308 307/307/307
f 370/370/370 331/331/331 332/332/332
f 371/371/371 332/332/332 333/333/333
f 375/375/375 336/336/336 337/337/337
f 376/376/376 337/337/337 338/338/338
f 378/378/378 339/339/339 340/340/340
f 383/383/383 344/344/344 343/343/343
f 384/384/384 345/345/345 344/344/344
f 386/386/386 347/347/347 346/346/346
f 389/389/389 350/350/350 349/349/349
f 390/390/390 351/351/351 350/350/350
f 393/393/393 354/354/354 353/353/353
f 400/400/400 362/362/362 363/363/363
f 412/412/412 373/373/373 374/374/374
f 415/415/415 376/376/376 377/377/377
f 416/416/416 377/377/377 378/378/378
f 421/421/421 382/382/382 381/381/381
f 423/423/423 384/384/384 383/383/383
f 427/427/427 388/388/388 387/387/387
f 430/430/430 391/391/391 390/390/390
f 442/442/442 404/404/404 405/405/405
f 447/447/447 409/409/409 410/410/410
f 450/450/450 412/412/412 413/413/413
f 454/454/454 415/415/415 416/416/416
f 457/457/457 418/418/418 419/419/419
f 461/461/461 422/422/422 421/421/421
f 462/462/462 423/423/423 422/422/422
f 465/465/465 426/426/426 425/425/425
f 466/466/466 427/427/427 426/426/426
f 468/468/468 429/429/429 428/428/428
f 472/472/472 433/433/433 432/432/432
f 485/485/485 447/447/447 448/448/448
f 491/491/491 454/454/454 455/455/455
f 493/493/493 456/456/456 457/457/457
f 494/494/494 457/457/457 458/458/458
f 498/498/498 462/462/462 461/461/461
f 501/501/501 465/465/465 464/464/464
f 502/502/502 466/466/466 465/465/465
f 504/504/504 468/468/468 467/467/467
f 516/516/516 480/480/480 481/481/481
f 518/518/518 482/482/482 483/483/483
f 529/529/529 492/492/492 493/493/493
f 530/530/530 493/493/493 494/494/494
f 531/531/531 494/494/494 495/495/495
f 535/535/535 498/498/498 497/497/497
f 538/538/538 501/501/501 500/500/500
f 539/539/539 502/502/502 501/501/501
f 541/541/541 504/504/504 503/503/503
f 543/543/543 506/506/506 505/505/505
f 554/554/554 518/518/518 519/519/519
f 556/556/556 520/520/520 521/521/521
f 563/563/563 527/527/527 528/528/528
f 565/565/565 529/529/529 530/530/530
f 566/566/566 530/530/530 531/531/531
f 571/571/571 535/535/535 534/534/534
f 572/572/572 536/536/536 535/535/535
f 574/574/574 538/538/538 537/537/537
f 575/575/575 539/539/539 538/538/538
f 576/576/576 540/540/540 539/539/539
f 577/577/577 541/541/541 540/540/540
f 579/579/579 543/543/543 542/542/542
f 590/590/590 554/554/554 555/555/555
f 599/599/599 563/563/563 564/564/564
f 600/600/600 564/564/564 565/565/565
f 602/602/602 566/566/566 567/567/567
f 607/607/607 571/571/571 570/570/570
f 608/608/608 572/572/572 571/571/571
f 609/609/609 573/573/573 572/572/572
f 610/610/610 574/574/574 573/573/573
f 611/611/611 575/575/575 574/574/574
f 613/613/613 577/577/577 576/576/576
f 615/615/615 579/579/579 578/578/578
f 626/626/626 590/590/590 591/591/591
f 635/635/635 599/599/599 600/600/600
f 636/636/636 600/600/600 601/601/601
f 638/638/638 602/602/602 603/603/603
f 51/51/51 15/15/15 13/13/13
f 53/53/53 17/17/17 15/15/15
f 52/52/52 16/16/16 18/18/18
f 54/54/54 18/18/18 20/20/20
f 56/56/56 20/20/20 22/22/22
f 65/65/65 29/29/29 24/24/24
f 63/63/63 27/27/27 30/30/30
f 72/72/72 36/36/36 28/28/28
f 73/73/73 37/37/37 47/47/47
f 82/82/82 46/46/46 50/50/50
f 87/87/87 51/51/51 49/49/49
f 89/89/89 53/53/53 51/51/51
f 90/90/90 54/54/54 56/56/56
f 92/92/92 56/56/56 58/58/58
f 97/97/97 61/61/61 57/57/57
f 101/101/101 65/65/65 60/60/60
f 99/99/99 63/63/63 66/66/66
f 108/108/108 72/72/72 64/64/64
f 109/109/109 73/73/73 83/83/83
f 118/118/118 82/82/82 86/86/86
f 125/125/125 89/89/89 87/87/87
f 124/124/124 88/88/88 90/90/90
f 133/133/133 97/97/97 93/93/93
f 137/137/137 101/101/101 96/96/96
f 144/144/144 108/108/108 100/100/100
f 158/158/158 122/122/122 124/124/124
f 160/160/160 124/124/124 126/126/126
f 170/170/170 133/133/133 129/129/129
f 174/174/174 137/137/137 132/132/132
f 181/181/181 144/144/144 136/136/136
f 195/195/195 158/158/158 160/160/160
f 198/198/198 160/160/160 162/162/162
f 202/202/202 163/163/163 161/161/161
f 205/205/205 166/166/166 163/163/163
f 208/208/208 169/169/169 165/165/165
f 207/207/207 168/168/168 171/171/171
f 212/212/212 174/174/174 169/169/169
f 219/219/219 181/181/181 173/173/173
f 220/220/220 182/182/182 192/192/192
f 231/231/231 193/193/193 190/190/190
f 229/229/229 191/191/191 195/195/195
f 232/232/232 195/195/195 198/198/198
f 236/236/236 199/199/199 196/196/196
f 238/238/238 201/201/201 203/203/203
f 243/243/243 205/205/205 202/202/202
f 247/247/247 208/208/208 204/204/204
f 251/251/251 212/212/212 208/208/208
f 259/259/259 220/220/220 230/230/230
f 270/270/270 231/231/231 228/228/228
f 274/274/274 233/233/233 231/231/231
f 278/278/278 237/237/237 234/234/234
f 277/277/277 235/235/235 238/238/238
f 299/299/299 258/258/258 250/250/250
f 312/312/312 270/270/270 267/267/267
f 316/316/316 275/275/275 271/271/271
f 323/323/323 281/281/281 278/278/278
f 321/321/321 280/280/280 282/282/282
f 327/327/327 285/285/285 281/281/281
f 325/325/325 283/283/283 286/286/286
f 330/330/330 288/288/288 284/284/284
f 329/329/329 287/287/287 289/289/289
f 341/341/341 299/299/299 291/291/291
f 342/342/342 300/300/300 310/310/310
f 355/355/355 312/312/312 309/309/309
f 358/358/358 316/316/316 313/313/313
f 357/357/357 315/315/315 318/318/318
f 361/361/361 321/321/321 324/324/324
f 366/366/366 326/326/326 322/322/322
f 374/374/374 335/335/335 330/330/330
f 372/372/372 333/333/333 336/336/336
f 394/394/394 356/356/356 352/352/352
f 392/392/392 353/353/353 357/357/357
f 395/395/395 357/357/357 359/359/359
f 397/397/397 359/359/359 361/361/361
f 399/399/399 361/361/361 364/364/364
f 408/408/408 369/369/369 366/366/366
f 407/407/407 368/368/368 371/371/371
f 413/413/413 374/374/374 369/369/369
f 411/411/411 372/372/372 375/375/375
f 419/419/419 380/380/380 373/373/373
f 431/431/431 392/392/392 395/395/395
f 435/435/435 396/396/396 394/394/394
f 437/437/437 398/398/398 396/396/396
f 439/439/439 401/401/401 398/398/398
f 438/438/438 399/399/399 402/402/402
f 441/441/441 403/403/403 406/406/406
f 445/445/445 406/406/406 409/409/409
f 451/451/451 413/413/413 408/408/408
f 449/449/449 411/411/411 414/414/414
f 458/458/458 419/419/419 412/412/412
f 459/459/459 420/420/420 431/431/431
f 478/478/478 439/439/439 437/437/437
f 477/477/477 438/438/438 440/440/440
f 479/479/479 440/440/440 444/444/444
f 488/488/488 451/451/451 446/446/446
f 486/486/486 448/448/448 452/452/452
f 496/496/496 460/460/460 470/470/470
f 507/507/507 471/471/471 468/468/468
f 505/505/505 469/469/469 473/473/473
f 512/512/512 476/476/476 474/474/474
f 511/511/511 475/475/475 477/477/477
f 515/515/515 479/479/479 482/482/482
f 519/519/519 483/483/483 485/485/485
f 542/542/542 505/505/505 509/509/509
f 547/547/547 510/510/510 508/508/508
f 549/549/549 512/512/512 510/510/510
f 548/548/548 511/511/511 513/513/513
f 551/551/551 514/514/514 512/512/512
f 553/553/553 517/517/517 514/514/514
f 552/552/552 515/515/515 518/518/518
f 555/555/555 519/519/519 522/522/522
f 578/578/578 542/542/542 546/546/546
f 585/585/585 549/549/549 547/547/547
f 584/584/584 548/548/548 550/550/550
f 587/587/587 551/551/551 549/549/549
f 589/589/589 553/553/553 551/551/551
f 588/588/588 552/552/552 554/554/554
f 591/591/591 555/555/555 558/558/558
f 605/605/605 569/569/569 579/579/579
f 614/614/614 578/578/578 582/582/582
f 621/621/621 585/585/585 583/583/583
f 625/625/625 589/589/589 587/587/587
f 624/624/624 588/588/588 590/590/590
f 627/627/627 591/591/591 594/594/594
