{
  "accessors": [
    {
      "bufferView": 0,
      "componentType": 5126,
      "type": "VEC3",
      "count": 448,
      "min": [-2.15700006, 0.0599999987, -0.061999999],
      "max": [0.0170000009, 2.70000005, 0.061999999]
    },
    {
      "bufferView": 1,
      "componentType": 5126,
      "type": "VEC3",
      "count": 448
    },
    {
      "bufferView": 2,
      "componentType": 5125,
      "type": "SCALAR",
      "count": 630
    }
  ],
  "asset": {
    "generator": "Traktor",
    "version": "2.0"
  },
  "bufferViews": [
    {
      "buffer": 0,
      "byteLength": 5376
    },
    {
      "buffer": 0,
      "byteLength": 5376,
      "byteOffset": 5376
    },
    {
      "buffer": 0,
      "byteLength": 2520,
      "byteOffset": 10752
    }
  ],
  "buffers": [
    {
      "uri": "data:application/octet-stream;base64,",
      "byteLength": 13272
    }
  ],
  "meshes": [
    {
      "primitives": [
        {
          "indices": 2,
          "material": 0,
          "attributes": {
            "POSITION": 0,
            "NORMAL": 1
          }
        }
      ]
    }
  ],
  "materials": [
    {
      "name": "GateMat",
      "pbrMetallicRoughness": {
        "metallicFactor": 0,
        "roughnessFactor": 0.800000012
      }
    }
  ],
  "nodes": [
    {
      "mesh": 0
    }
  ],
  "scene": 0,
  "scenes": [
    {
      "nodes": [ 0 ]
    }
  ]
}
