{
 "accessors": [
  {
   "bufferView": 0,
   "componentType": 5126,
   "type": "VEC3",
   "count": 620,
   "min": [
    -2.02999997,
    0,
    -2.02999997
   ],
   "max": [
    2.02999997,
    10.4720001,
    2.02999997
   ]
  },
  {
   "bufferView": 1,
   "componentType": 5126,
   "type": "VEC3",
   "count": 620
  },
  {
   "bufferView": 2,
   "componentType": 5126,
   "type": "VEC2",
   "count": 620
  },
  {
   "bufferView": 3,
   "componentType": 5125,
   "type": "SCALAR",
   "count": 930
  }
 ],
 "asset": {
  "generator": "Traktor",
  "version": "2.0"
 },
 "bufferViews": [
  {
   "buffer": 0,
   "byteLength": 7440
  },
  {
   "buffer": 0,
   "byteLength": 7440,
   "byteOffset": 7440
  },
  {
   "buffer": 0,
   "byteLength": 4960,
   "byteOffset": 14880
  },
  {
   "buffer": 0,
   "byteLength": 3720,
   "byteOffset": 19840
  }
 ],
 "buffers": [
  {
   "uri": "data:application/octet-stream;base64,",
   "byteLength": 23560
  }
 ],
 "meshes": [
  {
   "primitives": [
    {
     "indices": 3,
     "material": 0,
     "attributes": {
      "POSITION": 0,
      "NORMAL": 1,
      "TEXCOORD_0": 2
     }
    }
   ]
  }
 ],
 "materials": [
  {
   "name": "Chapel_TowerMat",
   "pbrMetallicRoughness": {
    "metallicFactor": 0,
    "roughnessFactor": 0.800000012,
    "baseColorTexture": {
     "index": 0,
     "texCoord": 0
    }
   },
   "normalTexture": {
    "index": 1,
    "texCoord": 0
   }
  }
 ],
 "nodes": [
  {
   "mesh": 0
  }
 ],
 "scene": 0,
 "scenes": [
  {
   "nodes": [
    0
   ]
  }
 ],
 "textures": [
  {
   "name": "diffuse"
  },
  {
   "name": "normal"
  }
 ]
}