{
  "accessors": [
    {
      "bufferView": 0,
      "componentType": 5126,
      "type": "VEC3",
      "count": 216,
      "min": [-0.319999993, 0.0299999993, -0.109999999],
      "max": [0.319999993, 1.80999994, 0.109999999]
    },
    {
      "bufferView": 1,
      "componentType": 5126,
      "type": "VEC3",
      "count": 216
    },
    {
      "bufferView": 2,
      "componentType": 5123,
      "type": "VEC4",
      "count": 216
    },
    {
      "bufferView": 3,
      "componentType": 5126,
      "type": "VEC4",
      "count": 216
    },
    {
      "bufferView": 4,
      "componentType": 5125,
      "type": "SCALAR",
      "count": 324
    },
    {
      "bufferView": 5,
      "componentType": 5126,
      "type": "MAT4",
      "count": 9
    },
    {
      "bufferView": 6,
      "componentType": 5126,
      "type": "SCALAR",
      "count": 3,
      "min": [0],
      "max": [1.5]
    },
    {
      "bufferView": 7,
      "componentType": 5126,
      "type": "VEC3",
      "count": 3
    },
    {
      "bufferView": 8,
      "componentType": 5126,
      "type": "VEC3",
      "count": 3
    },
    {
      "bufferView": 9,
      "componentType": 5126,
      "type": "VEC3",
      "count": 3
    },
    {
      "bufferView": 10,
      "componentType": 5126,
      "type": "VEC3",
      "count": 3
    },
    {
      "bufferView": 11,
      "componentType": 5126,
      "type": "VEC3",
      "count": 3
    },
    {
      "bufferView": 12,
      "componentType": 5126,
      "type": "VEC3",
      "count": 3
    },
    {
      "bufferView": 13,
      "componentType": 5126,
      "type": "VEC3",
      "count": 3
    },
    {
      "bufferView": 14,
      "componentType": 5126,
      "type": "VEC3",
      "count": 3
    },
    {
      "bufferView": 15,
      "componentType": 5126,
      "type": "VEC3",
      "count": 3
    },
    {
      "bufferView": 16,
      "componentType": 5126,
      "type": "VEC4",
      "count": 3
    },
    {
      "bufferView": 17,
      "componentType": 5126,
      "type": "VEC4",
      "count": 3
    },
    {
      "bufferView": 18,
      "componentType": 5126,
      "type": "VEC4",
      "count": 3
    },
    {
      "bufferView": 19,
      "componentType": 5126,
      "type": "VEC4",
      "count": 3
    },
    {
      "bufferView": 20,
      "componentType": 5126,
      "type": "VEC4",
      "count": 3
    },
    {
      "bufferView": 21,
      "componentType": 5126,
      "type": "VEC4",
      "count": 3
    },
    {
      "bufferView": 22,
      "componentType": 5126,
      "type": "VEC4",
      "count": 3
    },
    {
      "bufferView": 23,
      "componentType": 5126,
      "type": "VEC4",
      "count": 3
    },
    {
      "bufferView": 24,
      "componentType": 5126,
      "type": "VEC4",
      "count": 3
    }
  ],
  "asset": {
    "generator": "Traktor",
    "version": "2.0"
  },
  "bufferViews": [
    {
      "buffer": 0,
      "byteLength": 2592
    },
    {
      "buffer": 0,
      "byteLength": 2592,
      "byteOffset": 2592
    },
    {
      "buffer": 0,
      "byteLength": 1728,
      "byteOffset": 5184
    },
    {
      "buffer": 0,
      "byteLength": 3456,
      "byteOffset": 6912
    },
    {
      "buffer": 0,
      "byteLength": 1296,
      "byteOffset": 10368
    },
    {
      "buffer": 0,
      "byteLength": 576,
      "byteOffset": 11664
    },
    {
      "buffer": 0,
      "byteLength": 12,
      "byteOffset": 12240
    },
    {
      "buffer": 0,
      "byteLength": 36,
      "byteOffset": 12252
    },
    {
      "buffer": 0,
      "byteLength": 36,
      "byteOffset": 12288
    },
    {
      "buffer": 0,
      "byteLength": 36,
      "byteOffset": 12324
    },
    {
      "buffer": 0,
      "byteLength": 36,
      "byteOffset": 12360
    },
    {
      "buffer": 0,
      "byteLength": 36,
      "byteOffset": 12396
    },
    {
      "buffer": 0,
      "byteLength": 36,
      "byteOffset": 12432
    },
    {
      "buffer": 0,
      "byteLength": 36,
      "byteOffset": 12468
    },
    {
      "buffer": 0,
      "byteLength": 36,
      "byteOffset": 12504
    },
    {
      "buffer": 0,
      "byteLength": 36,
      "byteOffset": 12540
    },
    {
      "buffer": 0,
      "byteLength": 48,
      "byteOffset": 12576
    },
    {
      "buffer": 0,
      "byteLength": 48,
      "byteOffset": 12624
    },
    {
      "buffer": 0,
      "byteLength": 48,
      "byteOffset": 12672
    },
    {
      "buffer": 0,
      "byteLength": 48,
      "byteOffset": 12720
    },
    {
      "buffer": 0,
      "byteLength": 48,
      "byteOffset": 12768
    },
    {
      "buffer": 0,
      "byteLength": 48,
      "byteOffset": 12816
    },
    {
      "buffer": 0,
      "byteLength": 48,
      "byteOffset": 12864
    },
    {
      "buffer": 0,
      "byteLength": 48,
      "byteOffset": 12912
    },
    {
      "buffer": 0,
      "byteLength": 48,
      "byteOffset": 12960
    }
  ],
  "buffers": [
    {
      "uri": "data:application/octet-stream;base64,",
      "byteLength": 13008
    }
  ],
  "meshes": [
    {
      "primitives": [
        {
          "indices": 4,
          "material": 0,
          "attributes": {
            "POSITION": 0,
            "NORMAL": 1,
            "JOINTS_0": 2,
            "WEIGHTS_0": 3
          }
        }
      ]
    }
  ],
  "materials": [
    {
      "name": "HumanoidMat",
      "pbrMetallicRoughness": {
        "metallicFactor": 0,
        "roughnessFactor": 0.800000012
      }
    }
  ],
  "nodes": [
    {
      "children": [ 1, 5, 6 ],
      "name": "Hips",
      "translation": [0, 0.949999988, 0],
      "rotation": [0, 0, 0, 1]
    },
    {
      "children": [ 2, 3, 4 ],
      "name": "Spine",
      "translation": [0, 0.349999994, 0],
      "rotation": [0, 0, 0, 1]
    },
    {
      "name": "Head",
      "translation": [0, 0.319999993, 0],
      "rotation": [0, 0, 0, 1]
    },
    {
      "name": "LArm",
      "translation": [-0.219999999, 0.150000006, 0],
      "rotation": [0, 0, 0, 1]
    },
    {
      "name": "RArm",
      "translation": [0.219999999, 0.150000006, 0],
      "rotation": [0, 0, 0, 1]
    },
    {
      "children": [ 7 ],
      "name": "LUpLeg",
      "translation": [-0.100000001, -0.0500000007, 0],
      "rotation": [0, 0, 0, 1]
    },
    {
      "children": [ 8 ],
      "name": "RUpLeg",
      "translation": [0.100000001, -0.0500000007, 0],
      "rotation": [0, 0, 0, 1]
    },
    {
      "name": "LLoLeg",
      "translation": [0, -0.419999987, 0],
      "rotation": [0, 0, 0, 1]
    },
    {
      "name": "RLoLeg",
      "translation": [0, -0.419999987, 0],
      "rotation": [0, 0, 0, 1]
    },
    {
      "mesh": 0,
      "skin": 0
    }
  ],
  "scene": 0,
  "scenes": [
    {
      "nodes": [ 9, 0 ]
    }
  ],
  "skins": [
    {
      "skeleton": 0,
      "inverseBindMatrices": 5,
      "joints": [ 0, 1, 2, 3, 4, 5, 6, 7, 8 ]
    }
  ],
  "animations": [
    {
      "name": "ZombieWalk",
      "samplers": [
        {
          "interpolation": "LINEAR",
          "input": 6,
          "output": 7
        },
        {
          "interpolation": "LINEAR",
          "input": 6,
          "output": 16
        },
        {
          "interpolation": "LINEAR",
          "input": 6,
          "output": 8
        },
        {
          "interpolation": "LINEAR",
          "input": 6,
          "output": 17
        },
        {
          "interpolation": "LINEAR",
          "input": 6,
          "output": 9
        },
        {
          "interpolation": "LINEAR",
          "input": 6,
          "output": 18
        },
        {
          "interpolation": "LINEAR",
          "input": 6,
          "output": 10
        },
        {
          "interpolation": "LINEAR",
          "input": 6,
          "output": 19
        },
        {
          "interpolation": "LINEAR",
          "input": 6,
          "output": 11
        },
        {
          "interpolation": "LINEAR",
          "input": 6,
          "output": 20
        },
        {
          "interpolation": "LINEAR",
          "input": 6,
          "output": 12
        },
        {
          "interpolation": "LINEAR",
          "input": 6,
          "output": 21
        },
        {
          "interpolation": "LINEAR",
          "input": 6,
          "output": 13
        },
        {
          "interpolation": "LINEAR",
          "input": 6,
          "output": 22
        },
        {
          "interpolation": "LINEAR",
          "input": 6,
          "output": 14
        },
        {
          "interpolation": "LINEAR",
          "input": 6,
          "output": 23
        },
        {
          "interpolation": "LINEAR",
          "input": 6,
          "output": 15
        },
        {
          "interpolation": "LINEAR",
          "input": 6,
          "output": 24
        }
      ],
      "channels": [
        {
          "sampler": 0,
          "target": {
            "node": 0,
            "path": "translation"
          }
        },
        {
          "sampler": 1,
          "target": {
            "node": 0,
            "path": "rotation"
          }
        },
        {
          "sampler": 2,
          "target": {
            "node": 1,
            "path": "translation"
          }
        },
        {
          "sampler": 3,
          "target": {
            "node": 1,
            "path": "rotation"
          }
        },
        {
          "sampler": 4,
          "target": {
            "node": 2,
            "path": "translation"
          }
        },
        {
          "sampler": 5,
          "target": {
            "node": 2,
            "path": "rotation"
          }
        },
        {
          "sampler": 6,
          "target": {
            "node": 3,
            "path": "translation"
          }
        },
        {
          "sampler": 7,
          "target": {
            "node": 3,
            "path": "rotation"
          }
        },
        {
          "sampler": 8,
          "target": {
            "node": 4,
            "path": "translation"
          }
        },
        {
          "sampler": 9,
          "target": {
            "node": 4,
            "path": "rotation"
          }
        },
        {
          "sampler": 10,
          "target": {
            "node": 5,
            "path": "translation"
          }
        },
        {
          "sampler": 11,
          "target": {
            "node": 5,
            "path": "rotation"
          }
        },
        {
          "sampler": 12,
          "target": {
            "node": 6,
            "path": "translation"
          }
        },
        {
          "sampler": 13,
          "target": {
            "node": 6,
            "path": "rotation"
          }
        },
        {
          "sampler": 14,
          "target": {
            "node": 7,
            "path": "translation"
          }
        },
        {
          "sampler": 15,
          "target": {
            "node": 7,
            "path": "rotation"
          }
        },
        {
          "sampler": 16,
          "target": {
            "node": 8,
            "path": "translation"
          }
        },
        {
          "sampler": 17,
          "target": {
            "node": 8,
            "path": "rotation"
          }
        }
      ]
    }
  ]
}
