{
	"asset":{
		"generator":"Khronos glTF Blender I/O v5.2.39",
		"version":"2.0"
	},
	"scene":0,
	"scenes":[
		{
			"name":"Scene",
			"nodes":[
				0
			]
		}
	],
	"nodes":[
		{
			"mesh":0,
			"name":"Mesh_0",
			"translation":[
				0,
				0,
				-0.18806402385234833
			]
		}
	],
	"materials":[
		{
			"name":"Gun",
			"pbrMetallicRoughness":{
				"baseColorFactor":[
					0.1599999964237213,
					0.17000000178813934,
					0.1899999976158142,
					1
				],
				"metallicFactor":0.8500000238418579,
				"roughnessFactor":0.4000000059604645
			}
		}
	],
	"meshes":[
		{
			"name":"Mesh_0",
			"primitives":[
				{
					"attributes":{
						"POSITION":0,
						"NORMAL":1
					},
					"indices":2,
					"material":0
				}
			]
		}
	],
	"accessors":[
		{
			"bufferView":0,
			"componentType":5126,
			"count":124,
			"max":[
				0.029999999329447746,
				0.06199999898672104,
				0.5600000619888306
			],
			"min":[
				-0.029999999329447746,
				-0.17000000178813934,
				-0.009999999776482582
			],
			"type":"VEC3"
		},
		{
			"bufferView":1,
			"componentType":5126,
			"count":124,
			"type":"VEC3"
		},
		{
			"bufferView":2,
			"componentType":5123,
			"count":648,
			"type":"SCALAR"
		}
	],
	"bufferViews":[
		{
			"buffer":0,
			"byteLength":1488,
			"byteOffset":0,
			"target":34962
		},
		{
			"buffer":0,
			"byteLength":1488,
			"byteOffset":1488,
			"target":34962
		},
		{
			"buffer":0,
			"byteLength":1296,
			"byteOffset":2976,
			"target":34963
		}
	],
	"buffers":[
		{
			"byteLength":4272,
			"uri":"Gun.bin"
		}
	]
}
