{"accessors": [{"bufferView": 0, "componentType": 5126, "type": "VEC3", "count": 316, "min": [-3.4000001, 0, -3.4000001], "max": [3.4000001, 4.5999999, 3.4000001]}, {"bufferView": 1, "componentType": 5126, "type": "VEC3", "count": 316}, {"bufferView": 2, "componentType": 5126, "type": "VEC2", "count": 316}, {"bufferView": 3, "componentType": 5125, "type": "SCALAR", "count": 468}], "asset": {"generator": "Traktor", "version": "2.0"}, "bufferViews": [{"buffer": 0, "byteLength": 3792}, {"buffer": 0, "byteLength": 3792, "byteOffset": 3792}, {"buffer": 0, "byteLength": 2528, "byteOffset": 7584}, {"buffer": 0, "byteLength": 1872, "byteOffset": 10112}], "buffers": [{"uri": "data:application/octet-stream;base64,", "byteLength": 11984}], "meshes": [{"primitives": [{"indices": 3, "material": 0, "attributes": {"POSITION": 0, "NORMAL": 1, "TEXCOORD_0": 2}}]}], "materials": [{"name": "HouseMat", "pbrMetallicRoughness": {"metallicFactor": 0, "roughnessFactor": 0.800000012, "baseColorTexture": {"index": 0}}, "normalTexture": {"index": 1}}], "nodes": [{"mesh": 0}], "scene": 0, "scenes": [{"nodes": [0]}], "images": [{"uri": "../Textures/Bricks.tga"}, {"uri": "../Textures/Bricks_N.tga"}], "samplers": [{"wrapS": 10497, "wrapT": 10497}], "textures": [{"source": 0, "sampler": 0}, {"source": 1, "sampler": 0}]}