{
  "accessors": [
    {
      "bufferView": 0,
      "componentType": 5126,
      "type": "VEC3",
      "count": 408,
      "min": [-0.324999988, 0.0199999996, -0.109999999],
      "max": [0.324999988, 1.80999994, 0.219999999]
    },
    {
      "bufferView": 1,
      "componentType": 5126,
      "type": "VEC3",
      "count": 408
    },
    {
      "bufferView": 2,
      "componentType": 5123,
      "type": "VEC4",
      "count": 408
    },
    {
      "bufferView": 3,
      "componentType": 5126,
      "type": "VEC4",
      "count": 408
    },
    {
      "bufferView": 4,
      "componentType": 5125,
      "type": "SCALAR",
      "count": 540
    },
    {
      "bufferView": 5,
      "componentType": 5126,
      "type": "MAT4",
      "count": 15
    },
    {
      "bufferView": 6,
      "componentType": 5126,
      "type": "SCALAR",
      "count": 3,
      "min": [0],
      "max": [2]
    },
    {
      "bufferView": 7,
      "componentType": 5126,
      "type": "VEC3",
      "count": 3
    },
    {
      "bufferView": 8,
      "componentType": 5126,
      "type": "VEC3",
      "count": 3
    },
    {
      "bufferView": 9,
      "componentType": 5126,
      "type": "VEC3",
      "count": 3
    },
    {
      "bufferView": 10,
      "componentType": 5126,
      "type": "VEC3",
      "count": 3
    },
    {
      "bufferView": 11,
      "componentType": 5126,
      "type": "VEC3",
      "count": 3
    },
    {
      "bufferView": 12,
      "componentType": 5126,
      "type": "VEC3",
      "count": 3
    },
    {
      "bufferView": 13,
      "componentType": 5126,
      "type": "VEC3",
      "count": 3
    },
    {
      "bufferView": 14,
      "componentType": 5126,
      "type": "VEC3",
      "count": 3
    },
    {
      "bufferView": 15,
      "componentType": 5126,
      "type": "VEC3",
      "count": 3
    },
    {
      "bufferView": 16,
      "componentType": 5126,
      "type": "VEC3",
      "count": 3
    },
    {
      "bufferView": 17,
      "componentType": 5126,
      "type": "VEC3",
      "count": 3
    },
    {
      "bufferView": 18,
      "componentType": 5126,
      "type": "VEC3",
      "count": 3
    },
    {
      "bufferView": 19,
      "componentType": 5126,
      "type": "VEC3",
      "count": 3
    },
    {
      "bufferView": 20,
      "componentType": 5126,
      "type": "VEC3",
      "count": 3
    },
    {
      "bufferView": 21,
      "componentType": 5126,
      "type": "VEC3",
      "count": 3
    },
    {
      "bufferView": 22,
      "componentType": 5126,
      "type": "VEC4",
      "count": 3
    },
    {
      "bufferView": 23,
      "componentType": 5126,
      "type": "VEC4",
      "count": 3
    },
    {
      "bufferView": 24,
      "componentType": 5126,
      "type": "VEC4",
      "count": 3
    },
    {
      "bufferView": 25,
      "componentType": 5126,
      "type": "VEC4",
      "count": 3
    },
    {
      "bufferView": 26,
      "componentType": 5126,
      "type": "VEC4",
      "count": 3
    },
    {
      "bufferView": 27,
      "componentType": 5126,
      "type": "VEC4",
      "count": 3
    },
    {
      "bufferView": 28,
      "componentType": 5126,
      "type": "VEC4",
      "count": 3
    },
    {
      "bufferView": 29,
      "componentType": 5126,
      "type": "VEC4",
      "count": 3
    },
    {
      "bufferView": 30,
      "componentType": 5126,
      "type": "VEC4",
      "count": 3
    },
    {
      "bufferView": 31,
      "componentType": 5126,
      "type": "VEC4",
      "count": 3
    },
    {
      "bufferView": 32,
      "componentType": 5126,
      "type": "VEC4",
      "count": 3
    },
    {
      "bufferView": 33,
      "componentType": 5126,
      "type": "VEC4",
      "count": 3
    },
    {
      "bufferView": 34,
      "componentType": 5126,
      "type": "VEC4",
      "count": 3
    },
    {
      "bufferView": 35,
      "componentType": 5126,
      "type": "VEC4",
      "count": 3
    },
    {
      "bufferView": 36,
      "componentType": 5126,
      "type": "VEC4",
      "count": 3
    },
    {
      "bufferView": 37,
      "componentType": 5126,
      "type": "SCALAR",
      "count": 3,
      "min": [0],
      "max": [1]
    },
    {
      "bufferView": 38,
      "componentType": 5126,
      "type": "VEC3",
      "count": 3
    },
    {
      "bufferView": 39,
      "componentType": 5126,
      "type": "VEC3",
      "count": 3
    },
    {
      "bufferView": 40,
      "componentType": 5126,
      "type": "VEC3",
      "count": 3
    },
    {
      "bufferView": 41,
      "componentType": 5126,
      "type": "VEC3",
      "count": 3
    },
    {
      "bufferView": 42,
      "componentType": 5126,
      "type": "VEC3",
      "count": 3
    },
    {
      "bufferView": 43,
      "componentType": 5126,
      "type": "VEC3",
      "count": 3
    },
    {
      "bufferView": 44,
      "componentType": 5126,
      "type": "VEC3",
      "count": 3
    },
    {
      "bufferView": 45,
      "componentType": 5126,
      "type": "VEC3",
      "count": 3
    },
    {
      "bufferView": 46,
      "componentType": 5126,
      "type": "VEC3",
      "count": 3
    },
    {
      "bufferView": 47,
      "componentType": 5126,
      "type": "VEC3",
      "count": 3
    },
    {
      "bufferView": 48,
      "componentType": 5126,
      "type": "VEC3",
      "count": 3
    },
    {
      "bufferView": 49,
      "componentType": 5126,
      "type": "VEC3",
      "count": 3
    },
    {
      "bufferView": 50,
      "componentType": 5126,
      "type": "VEC3",
      "count": 3
    },
    {
      "bufferView": 51,
      "componentType": 5126,
      "type": "VEC3",
      "count": 3
    },
    {
      "bufferView": 52,
      "componentType": 5126,
      "type": "VEC3",
      "count": 3
    },
    {
      "bufferView": 53,
      "componentType": 5126,
      "type": "VEC4",
      "count": 3
    },
    {
      "bufferView": 54,
      "componentType": 5126,
      "type": "VEC4",
      "count": 3
    },
    {
      "bufferView": 55,
      "componentType": 5126,
      "type": "VEC4",
      "count": 3
    },
    {
      "bufferView": 56,
      "componentType": 5126,
      "type": "VEC4",
      "count": 3
    },
    {
      "bufferView": 57,
      "componentType": 5126,
      "type": "VEC4",
      "count": 3
    },
    {
      "bufferView": 58,
      "componentType": 5126,
      "type": "VEC4",
      "count": 3
    },
    {
      "bufferView": 59,
      "componentType": 5126,
      "type": "VEC4",
      "count": 3
    },
    {
      "bufferView": 60,
      "componentType": 5126,
      "type": "VEC4",
      "count": 3
    },
    {
      "bufferView": 61,
      "componentType": 5126,
      "type": "VEC4",
      "count": 3
    },
    {
      "bufferView": 62,
      "componentType": 5126,
      "type": "VEC4",
      "count": 3
    },
    {
      "bufferView": 63,
      "componentType": 5126,
      "type": "VEC4",
      "count": 3
    },
    {
      "bufferView": 64,
      "componentType": 5126,
      "type": "VEC4",
      "count": 3
    },
    {
      "bufferView": 65,
      "componentType": 5126,
      "type": "VEC4",
      "count": 3
    },
    {
      "bufferView": 66,
      "componentType": 5126,
      "type": "VEC4",
      "count": 3
    },
    {
      "bufferView": 67,
      "componentType": 5126,
      "type": "VEC4",
      "count": 3
    },
    {
      "bufferView": 68,
      "componentType": 5126,
      "type": "SCALAR",
      "count": 6,
      "min": [0],
      "max": [1.20000005]
    },
    {
      "bufferView": 69,
      "componentType": 5126,
      "type": "VEC3",
      "count": 6
    },
    {
      "bufferView": 70,
      "componentType": 5126,
      "type": "VEC3",
      "count": 6
    },
    {
      "bufferView": 71,
      "componentType": 5126,
      "type": "VEC3",
      "count": 6
    },
    {
      "bufferView": 72,
      "componentType": 5126,
      "type": "VEC3",
      "count": 6
    },
    {
      "bufferView": 73,
      "componentType": 5126,
      "type": "VEC3",
      "count": 6
    },
    {
      "bufferView": 74,
      "componentType": 5126,
      "type": "VEC3",
      "count": 6
    },
    {
      "bufferView": 75,
      "componentType": 5126,
      "type": "VEC3",
      "count": 6
    },
    {
      "bufferView": 76,
      "componentType": 5126,
      "type": "VEC3",
      "count": 6
    },
    {
      "bufferView": 77,
      "componentType": 5126,
      "type": "VEC3",
      "count": 6
    },
    {
      "bufferView": 78,
      "componentType": 5126,
      "type": "VEC3",
      "count": 6
    },
    {
      "bufferView": 79,
      "componentType": 5126,
      "type": "VEC3",
      "count": 6
    },
    {
      "bufferView": 80,
      "componentType": 5126,
      "type": "VEC3",
      "count": 6
    },
    {
      "bufferView": 81,
      "componentType": 5126,
      "type": "VEC3",
      "count": 6
    },
    {
      "bufferView": 82,
      "componentType": 5126,
      "type": "VEC3",
      "count": 6
    },
    {
      "bufferView": 83,
      "componentType": 5126,
      "type": "VEC3",
      "count": 6
    },
    {
      "bufferView": 84,
      "componentType": 5126,
      "type": "VEC4",
      "count": 6
    },
    {
      "bufferView": 85,
      "componentType": 5126,
      "type": "VEC4",
      "count": 6
    },
    {
      "bufferView": 86,
      "componentType": 5126,
      "type": "VEC4",
      "count": 6
    },
    {
      "bufferView": 87,
      "componentType": 5126,
      "type": "VEC4",
      "count": 6
    },
    {
      "bufferView": 88,
      "componentType": 5126,
      "type": "VEC4",
      "count": 6
    },
    {
      "bufferView": 89,
      "componentType": 5126,
      "type": "VEC4",
      "count": 6
    },
    {
      "bufferView": 90,
      "componentType": 5126,
      "type": "VEC4",
      "count": 6
    },
    {
      "bufferView": 91,
      "componentType": 5126,
      "type": "VEC4",
      "count": 6
    },
    {
      "bufferView": 92,
      "componentType": 5126,
      "type": "VEC4",
      "count": 6
    },
    {
      "bufferView": 93,
      "componentType": 5126,
      "type": "VEC4",
      "count": 6
    },
    {
      "bufferView": 94,
      "componentType": 5126,
      "type": "VEC4",
      "count": 6
    },
    {
      "bufferView": 95,
      "componentType": 5126,
      "type": "VEC4",
      "count": 6
    },
    {
      "bufferView": 96,
      "componentType": 5126,
      "type": "VEC4",
      "count": 6
    },
    {
      "bufferView": 97,
      "componentType": 5126,
      "type": "VEC4",
      "count": 6
    },
    {
      "bufferView": 98,
      "componentType": 5126,
      "type": "VEC4",
      "count": 6
    }
  ],
  "asset": {
    "generator": "Traktor",
    "version": "2.0"
  },
  "bufferViews": [
    {
      "buffer": 0,
      "byteLength": 4896
    },
    {
      "buffer": 0,
      "byteLength": 4896,
      "byteOffset": 4896
    },
    {
      "buffer": 0,
      "byteLength": 3264,
      "byteOffset": 9792
    },
    {
      "buffer": 0,
      "byteLength": 6528,
      "byteOffset": 13056
    },
    {
      "buffer": 0,
      "byteLength": 2160,
      "byteOffset": 19584
    },
    {
      "buffer": 0,
      "byteLength": 960,
      "byteOffset": 21744
    },
    {
      "buffer": 0,
      "byteLength": 12,
      "byteOffset": 22704
    },
    {
      "buffer": 0,
      "byteLength": 36,
      "byteOffset": 22716
    },
    {
      "buffer": 0,
      "byteLength": 36,
      "byteOffset": 22752
    },
    {
      "buffer": 0,
      "byteLength": 36,
      "byteOffset": 22788
    },
    {
      "buffer": 0,
      "byteLength": 36,
      "byteOffset": 22824
    },
    {
      "buffer": 0,
      "byteLength": 36,
      "byteOffset": 22860
    },
    {
      "buffer": 0,
      "byteLength": 36,
      "byteOffset": 22896
    },
    {
      "buffer": 0,
      "byteLength": 36,
      "byteOffset": 22932
    },
    {
      "buffer": 0,
      "byteLength": 36,
      "byteOffset": 22968
    },
    {
      "buffer": 0,
      "byteLength": 36,
      "byteOffset": 23004
    },
    {
      "buffer": 0,
      "byteLength": 36,
      "byteOffset": 23040
    },
    {
      "buffer": 0,
      "byteLength": 36,
      "byteOffset": 23076
    },
    {
      "buffer": 0,
      "byteLength": 36,
      "byteOffset": 23112
    },
    {
      "buffer": 0,
      "byteLength": 36,
      "byteOffset": 23148
    },
    {
      "buffer": 0,
      "byteLength": 36,
      "byteOffset": 23184
    },
    {
      "buffer": 0,
      "byteLength": 36,
      "byteOffset": 23220
    },
    {
      "buffer": 0,
      "byteLength": 48,
      "byteOffset": 23256
    },
    {
      "buffer": 0,
      "byteLength": 48,
      "byteOffset": 23304
    },
    {
      "buffer": 0,
      "byteLength": 48,
      "byteOffset": 23352
    },
    {
      "buffer": 0,
      "byteLength": 48,
      "byteOffset": 23400
    },
    {
      "buffer": 0,
      "byteLength": 48,
      "byteOffset": 23448
    },
    {
      "buffer": 0,
      "byteLength": 48,
      "byteOffset": 23496
    },
    {
      "buffer": 0,
      "byteLength": 48,
      "byteOffset": 23544
    },
    {
      "buffer": 0,
      "byteLength": 48,
      "byteOffset": 23592
    },
    {
      "buffer": 0,
      "byteLength": 48,
      "byteOffset": 23640
    },
    {
      "buffer": 0,
      "byteLength": 48,
      "byteOffset": 23688
    },
    {
      "buffer": 0,
      "byteLength": 48,
      "byteOffset": 23736
    },
    {
      "buffer": 0,
      "byteLength": 48,
      "byteOffset": 23784
    },
    {
      "buffer": 0,
      "byteLength": 48,
      "byteOffset": 23832
    },
    {
      "buffer": 0,
      "byteLength": 48,
      "byteOffset": 23880
    },
    {
      "buffer": 0,
      "byteLength": 48,
      "byteOffset": 23928
    },
    {
      "buffer": 0,
      "byteLength": 12,
      "byteOffset": 23976
    },
    {
      "buffer": 0,
      "byteLength": 36,
      "byteOffset": 23988
    },
    {
      "buffer": 0,
      "byteLength": 36,
      "byteOffset": 24024
    },
    {
      "buffer": 0,
      "byteLength": 36,
      "byteOffset": 24060
    },
    {
      "buffer": 0,
      "byteLength": 36,
      "byteOffset": 24096
    },
    {
      "buffer": 0,
      "byteLength": 36,
      "byteOffset": 24132
    },
    {
      "buffer": 0,
      "byteLength": 36,
      "byteOffset": 24168
    },
    {
      "buffer": 0,
      "byteLength": 36,
      "byteOffset": 24204
    },
    {
      "buffer": 0,
      "byteLength": 36,
      "byteOffset": 24240
    },
    {
      "buffer": 0,
      "byteLength": 36,
      "byteOffset": 24276
    },
    {
      "buffer": 0,
      "byteLength": 36,
      "byteOffset": 24312
    },
    {
      "buffer": 0,
      "byteLength": 36,
      "byteOffset": 24348
    },
    {
      "buffer": 0,
      "byteLength": 36,
      "byteOffset": 24384
    },
    {
      "buffer": 0,
      "byteLength": 36,
      "byteOffset": 24420
    },
    {
      "buffer": 0,
      "byteLength": 36,
      "byteOffset": 24456
    },
    {
      "buffer": 0,
      "byteLength": 36,
      "byteOffset": 24492
    },
    {
      "buffer": 0,
      "byteLength": 48,
      "byteOffset": 24528
    },
    {
      "buffer": 0,
      "byteLength": 48,
      "byteOffset": 24576
    },
    {
      "buffer": 0,
      "byteLength": 48,
      "byteOffset": 24624
    },
    {
      "buffer": 0,
      "byteLength": 48,
      "byteOffset": 24672
    },
    {
      "buffer": 0,
      "byteLength": 48,
      "byteOffset": 24720
    },
    {
      "buffer": 0,
      "byteLength": 48,
      "byteOffset": 24768
    },
    {
      "buffer": 0,
      "byteLength": 48,
      "byteOffset": 24816
    },
    {
      "buffer": 0,
      "byteLength": 48,
      "byteOffset": 24864
    },
    {
      "buffer": 0,
      "byteLength": 48,
      "byteOffset": 24912
    },
    {
      "buffer": 0,
      "byteLength": 48,
      "byteOffset": 24960
    },
    {
      "buffer": 0,
      "byteLength": 48,
      "byteOffset": 25008
    },
    {
      "buffer": 0,
      "byteLength": 48,
      "byteOffset": 25056
    },
    {
      "buffer": 0,
      "byteLength": 48,
      "byteOffset": 25104
    },
    {
      "buffer": 0,
      "byteLength": 48,
      "byteOffset": 25152
    },
    {
      "buffer": 0,
      "byteLength": 48,
      "byteOffset": 25200
    },
    {
      "buffer": 0,
      "byteLength": 24,
      "byteOffset": 25248
    },
    {
      "buffer": 0,
      "byteLength": 72,
      "byteOffset": 25272
    },
    {
      "buffer": 0,
      "byteLength": 72,
      "byteOffset": 25344
    },
    {
      "buffer": 0,
      "byteLength": 72,
      "byteOffset": 25416
    },
    {
      "buffer": 0,
      "byteLength": 72,
      "byteOffset": 25488
    },
    {
      "buffer": 0,
      "byteLength": 72,
      "byteOffset": 25560
    },
    {
      "buffer": 0,
      "byteLength": 72,
      "byteOffset": 25632
    },
    {
      "buffer": 0,
      "byteLength": 72,
      "byteOffset": 25704
    },
    {
      "buffer": 0,
      "byteLength": 72,
      "byteOffset": 25776
    },
    {
      "buffer": 0,
      "byteLength": 72,
      "byteOffset": 25848
    },
    {
      "buffer": 0,
      "byteLength": 72,
      "byteOffset": 25920
    },
    {
      "buffer": 0,
      "byteLength": 72,
      "byteOffset": 25992
    },
    {
      "buffer": 0,
      "byteLength": 72,
      "byteOffset": 26064
    },
    {
      "buffer": 0,
      "byteLength": 72,
      "byteOffset": 26136
    },
    {
      "buffer": 0,
      "byteLength": 72,
      "byteOffset": 26208
    },
    {
      "buffer": 0,
      "byteLength": 72,
      "byteOffset": 26280
    },
    {
      "buffer": 0,
      "byteLength": 96,
      "byteOffset": 26352
    },
    {
      "buffer": 0,
      "byteLength": 96,
      "byteOffset": 26448
    },
    {
      "buffer": 0,
      "byteLength": 96,
      "byteOffset": 26544
    },
    {
      "buffer": 0,
      "byteLength": 96,
      "byteOffset": 26640
    },
    {
      "buffer": 0,
      "byteLength": 96,
      "byteOffset": 26736
    },
    {
      "buffer": 0,
      "byteLength": 96,
      "byteOffset": 26832
    },
    {
      "buffer": 0,
      "byteLength": 96,
      "byteOffset": 26928
    },
    {
      "buffer": 0,
      "byteLength": 96,
      "byteOffset": 27024
    },
    {
      "buffer": 0,
      "byteLength": 96,
      "byteOffset": 27120
    },
    {
      "buffer": 0,
      "byteLength": 96,
      "byteOffset": 27216
    },
    {
      "buffer": 0,
      "byteLength": 96,
      "byteOffset": 27312
    },
    {
      "buffer": 0,
      "byteLength": 96,
      "byteOffset": 27408
    },
    {
      "buffer": 0,
      "byteLength": 96,
      "byteOffset": 27504
    },
    {
      "buffer": 0,
      "byteLength": 96,
      "byteOffset": 27600
    },
    {
      "buffer": 0,
      "byteLength": 96,
      "byteOffset": 27696
    }
  ],
  "buffers": [
    {
      "uri": "data:application/octet-stream;base64,",
      "byteLength": 27792
    }
  ],
  "meshes": [
    {
      "primitives": [
        {
          "indices": 4,
          "material": 0,
          "attributes": {
            "POSITION": 0,
            "NORMAL": 1,
            "JOINTS_0": 2,
            "WEIGHTS_0": 3
          }
        }
      ]
    }
  ],
  "materials": [
    {
      "name": "HumanoidMat",
      "pbrMetallicRoughness": {
        "metallicFactor": 0,
        "roughnessFactor": 0.800000012
      }
    }
  ],
  "nodes": [
    {
      "children": [ 1, 5, 6 ],
      "name": "Hips",
      "translation": [0, 0.949999988, 0],
      "rotation": [0, 0, 0, 1]
    },
    {
      "children": [ 2, 3, 4 ],
      "name": "Spine",
      "translation": [0, 0.349999994, 0],
      "rotation": [0, 0, 0, 1]
    },
    {
      "name": "Head",
      "translation": [0, 0.319999993, 0],
      "rotation": [0, 0, 0, 1]
    },
    {
      "children": [ 9 ],
      "name": "LArm",
      "translation": [-0.219999999, 0.150000006, 0],
      "rotation": [0, 0, 0, 1]
    },
    {
      "children": [ 10 ],
      "name": "RArm",
      "translation": [0.219999999, 0.150000006, 0],
      "rotation": [0, 0, 0, 1]
    },
    {
      "children": [ 7 ],
      "name": "LUpLeg",
      "translation": [-0.100000001, -0.0500000007, 0],
      "rotation": [0, 0, 0, 1]
    },
    {
      "children": [ 8 ],
      "name": "RUpLeg",
      "translation": [0.100000001, -0.0500000007, 0],
      "rotation": [0, 0, 0, 1]
    },
    {
      "children": [ 13 ],
      "name": "LLoLeg",
      "translation": [0, -0.419999987, 0],
      "rotation": [0, 0, 0, 1]
    },
    {
      "children": [ 14 ],
      "name": "RLoLeg",
      "translation": [0, -0.419999987, 0],
      "rotation": [0, 0, 0, 1]
    },
    {
      "children": [ 11 ],
      "name": "LLoArm",
      "translation": [0, -0.209999993, 0],
      "rotation": [0, 0, 0, 1]
    },
    {
      "children": [ 12 ],
      "name": "RLoArm",
      "translation": [0, -0.209999993, 0],
      "rotation": [0, 0, 0, 1]
    },
    {
      "name": "LHand",
      "translation": [0, -0.209999993, 0],
      "rotation": [0, 0, 0, 1]
    },
    {
      "name": "RHand",
      "translation": [0, -0.209999993, 0],
      "rotation": [0, 0, 0, 1]
    },
    {
      "name": "LFoot",
      "translation": [0, -0.360000014, 0],
      "rotation": [0, 0, 0, 1]
    },
    {
      "name": "RFoot",
      "translation": [0, -0.360000014, 0],
      "rotation": [0, 0, 0, 1]
    },
    {
      "mesh": 0,
      "skin": 0
    }
  ],
  "scene": 0,
  "scenes": [
    {
      "nodes": [ 15, 0 ]
    }
  ],
  "skins": [
    {
      "skeleton": 0,
      "inverseBindMatrices": 5,
      "joints": [ 0, 1, 2, 3, 4, 5, 6, 7, 8, 9, 10, 11, 12, 13, 14 ]
    }
  ],
  "animations": [
    {
      "name": "Idle",
      "samplers": [
        {
          "interpolation": "LINEAR",
          "input": 6,
          "output": 7
        },
        {
          "interpolation": "LINEAR",
          "input": 6,
          "output": 22
        },
        {
          "interpolation": "LINEAR",
          "input": 6,
          "output": 8
        },
        {
          "interpolation": "LINEAR",
          "input": 6,
          "output": 23
        },
        {
          "interpolation": "LINEAR",
          "input": 6,
          "output": 9
        },
        {
          "interpolation": "LINEAR",
          "input": 6,
          "output": 24
        },
        {
          "interpolation": "LINEAR",
          "input": 6,
          "output": 10
        },
        {
          "interpolation": "LINEAR",
          "input": 6,
          "output": 25
        },
        {
          "interpolation": "LINEAR",
          "input": 6,
          "output": 11
        },
        {
          "interpolation": "LINEAR",
          "input": 6,
          "output": 26
        },
        {
          "interpolation": "LINEAR",
          "input": 6,
          "output": 12
        },
        {
          "interpolation": "LINEAR",
          "input": 6,
          "output": 27
        },
        {
          "interpolation": "LINEAR",
          "input": 6,
          "output": 13
        },
        {
          "interpolation": "LINEAR",
          "input": 6,
          "output": 28
        },
        {
          "interpolation": "LINEAR",
          "input": 6,
          "output": 14
        },
        {
          "interpolation": "LINEAR",
          "input": 6,
          "output": 29
        },
        {
          "interpolation": "LINEAR",
          "input": 6,
          "output": 15
        },
        {
          "interpolation": "LINEAR",
          "input": 6,
          "output": 30
        },
        {
          "interpolation": "LINEAR",
          "input": 6,
          "output": 16
        },
        {
          "interpolation": "LINEAR",
          "input": 6,
          "output": 31
        },
        {
          "interpolation": "LINEAR",
          "input": 6,
          "output": 17
        },
        {
          "interpolation": "LINEAR",
          "input": 6,
          "output": 32
        },
        {
          "interpolation": "LINEAR",
          "input": 6,
          "output": 18
        },
        {
          "interpolation": "LINEAR",
          "input": 6,
          "output": 33
        },
        {
          "interpolation": "LINEAR",
          "input": 6,
          "output": 19
        },
        {
          "interpolation": "LINEAR",
          "input": 6,
          "output": 34
        },
        {
          "interpolation": "LINEAR",
          "input": 6,
          "output": 20
        },
        {
          "interpolation": "LINEAR",
          "input": 6,
          "output": 35
        },
        {
          "interpolation": "LINEAR",
          "input": 6,
          "output": 21
        },
        {
          "interpolation": "LINEAR",
          "input": 6,
          "output": 36
        }
      ],
      "channels": [
        {
          "sampler": 0,
          "target": {
            "node": 0,
            "path": "translation"
          }
        },
        {
          "sampler": 1,
          "target": {
            "node": 0,
            "path": "rotation"
          }
        },
        {
          "sampler": 2,
          "target": {
            "node": 1,
            "path": "translation"
          }
        },
        {
          "sampler": 3,
          "target": {
            "node": 1,
            "path": "rotation"
          }
        },
        {
          "sampler": 4,
          "target": {
            "node": 2,
            "path": "translation"
          }
        },
        {
          "sampler": 5,
          "target": {
            "node": 2,
            "path": "rotation"
          }
        },
        {
          "sampler": 6,
          "target": {
            "node": 3,
            "path": "translation"
          }
        },
        {
          "sampler": 7,
          "target": {
            "node": 3,
            "path": "rotation"
          }
        },
        {
          "sampler": 8,
          "target": {
            "node": 4,
            "path": "translation"
          }
        },
        {
          "sampler": 9,
          "target": {
            "node": 4,
            "path": "rotation"
          }
        },
        {
          "sampler": 10,
          "target": {
            "node": 5,
            "path": "translation"
          }
        },
        {
          "sampler": 11,
          "target": {
            "node": 5,
            "path": "rotation"
          }
        },
        {
          "sampler": 12,
          "target": {
            "node": 6,
            "path": "translation"
          }
        },
        {
          "sampler": 13,
          "target": {
            "node": 6,
            "path": "rotation"
          }
        },
        {
          "sampler": 14,
          "target": {
            "node": 7,
            "path": "translation"
          }
        },
        {
          "sampler": 15,
          "target": {
            "node": 7,
            "path": "rotation"
          }
        },
        {
          "sampler": 16,
          "target": {
            "node": 8,
            "path": "translation"
          }
        },
        {
          "sampler": 17,
          "target": {
            "node": 8,
            "path": "rotation"
          }
        },
        {
          "sampler": 18,
          "target": {
            "node": 9,
            "path": "translation"
          }
        },
        {
          "sampler": 19,
          "target": {
            "node": 9,
            "path": "rotation"
          }
        },
        {
          "sampler": 20,
          "target": {
            "node": 10,
            "path": "translation"
          }
        },
        {
          "sampler": 21,
          "target": {
            "node": 10,
            "path": "rotation"
          }
        },
        {
          "sampler": 22,
          "target": {
            "node": 11,
            "path": "translation"
          }
        },
        {
          "sampler": 23,
          "target": {
            "node": 11,
            "path": "rotation"
          }
        },
        {
          "sampler": 24,
          "target": {
            "node": 12,
            "path": "translation"
          }
        },
        {
          "sampler": 25,
          "target": {
            "node": 12,
            "path": "rotation"
          }
        },
        {
          "sampler": 26,
          "target": {
            "node": 13,
            "path": "translation"
          }
        },
        {
          "sampler": 27,
          "target": {
            "node": 13,
            "path": "rotation"
          }
        },
        {
          "sampler": 28,
          "target": {
            "node": 14,
            "path": "translation"
          }
        },
        {
          "sampler": 29,
          "target": {
            "node": 14,
            "path": "rotation"
          }
        }
      ]
    },
    {
      "name": "Walk",
      "samplers": [
        {
          "interpolation": "LINEAR",
          "input": 37,
          "output": 38
        },
        {
          "interpolation": "LINEAR",
          "input": 37,
          "output": 53
        },
        {
          "interpolation": "LINEAR",
          "input": 37,
          "output": 39
        },
        {
          "interpolation": "LINEAR",
          "input": 37,
          "output": 54
        },
        {
          "interpolation": "LINEAR",
          "input": 37,
          "output": 40
        },
        {
          "interpolation": "LINEAR",
          "input": 37,
          "output": 55
        },
        {
          "interpolation": "LINEAR",
          "input": 37,
          "output": 41
        },
        {
          "interpolation": "LINEAR",
          "input": 37,
          "output": 56
        },
        {
          "interpolation": "LINEAR",
          "input": 37,
          "output": 42
        },
        {
          "interpolation": "LINEAR",
          "input": 37,
          "output": 57
        },
        {
          "interpolation": "LINEAR",
          "input": 37,
          "output": 43
        },
        {
          "interpolation": "LINEAR",
          "input": 37,
          "output": 58
        },
        {
          "interpolation": "LINEAR",
          "input": 37,
          "output": 44
        },
        {
          "interpolation": "LINEAR",
          "input": 37,
          "output": 59
        },
        {
          "interpolation": "LINEAR",
          "input": 37,
          "output": 45
        },
        {
          "interpolation": "LINEAR",
          "input": 37,
          "output": 60
        },
        {
          "interpolation": "LINEAR",
          "input": 37,
          "output": 46
        },
        {
          "interpolation": "LINEAR",
          "input": 37,
          "output": 61
        },
        {
          "interpolation": "LINEAR",
          "input": 37,
          "output": 47
        },
        {
          "interpolation": "LINEAR",
          "input": 37,
          "output": 62
        },
        {
          "interpolation": "LINEAR",
          "input": 37,
          "output": 48
        },
        {
          "interpolation": "LINEAR",
          "input": 37,
          "output": 63
        },
        {
          "interpolation": "LINEAR",
          "input": 37,
          "output": 49
        },
        {
          "interpolation": "LINEAR",
          "input": 37,
          "output": 64
        },
        {
          "interpolation": "LINEAR",
          "input": 37,
          "output": 50
        },
        {
          "interpolation": "LINEAR",
          "input": 37,
          "output": 65
        },
        {
          "interpolation": "LINEAR",
          "input": 37,
          "output": 51
        },
        {
          "interpolation": "LINEAR",
          "input": 37,
          "output": 66
        },
        {
          "interpolation": "LINEAR",
          "input": 37,
          "output": 52
        },
        {
          "interpolation": "LINEAR",
          "input": 37,
          "output": 67
        }
      ],
      "channels": [
        {
          "sampler": 0,
          "target": {
            "node": 0,
            "path": "translation"
          }
        },
        {
          "sampler": 1,
          "target": {
            "node": 0,
            "path": "rotation"
          }
        },
        {
          "sampler": 2,
          "target": {
            "node": 1,
            "path": "translation"
          }
        },
        {
          "sampler": 3,
          "target": {
            "node": 1,
            "path": "rotation"
          }
        },
        {
          "sampler": 4,
          "target": {
            "node": 2,
            "path": "translation"
          }
        },
        {
          "sampler": 5,
          "target": {
            "node": 2,
            "path": "rotation"
          }
        },
        {
          "sampler": 6,
          "target": {
            "node": 3,
            "path": "translation"
          }
        },
        {
          "sampler": 7,
          "target": {
            "node": 3,
            "path": "rotation"
          }
        },
        {
          "sampler": 8,
          "target": {
            "node": 4,
            "path": "translation"
          }
        },
        {
          "sampler": 9,
          "target": {
            "node": 4,
            "path": "rotation"
          }
        },
        {
          "sampler": 10,
          "target": {
            "node": 5,
            "path": "translation"
          }
        },
        {
          "sampler": 11,
          "target": {
            "node": 5,
            "path": "rotation"
          }
        },
        {
          "sampler": 12,
          "target": {
            "node": 6,
            "path": "translation"
          }
        },
        {
          "sampler": 13,
          "target": {
            "node": 6,
            "path": "rotation"
          }
        },
        {
          "sampler": 14,
          "target": {
            "node": 7,
            "path": "translation"
          }
        },
        {
          "sampler": 15,
          "target": {
            "node": 7,
            "path": "rotation"
          }
        },
        {
          "sampler": 16,
          "target": {
            "node": 8,
            "path": "translation"
          }
        },
        {
          "sampler": 17,
          "target": {
            "node": 8,
            "path": "rotation"
          }
        },
        {
          "sampler": 18,
          "target": {
            "node": 9,
            "path": "translation"
          }
        },
        {
          "sampler": 19,
          "target": {
            "node": 9,
            "path": "rotation"
          }
        },
        {
          "sampler": 20,
          "target": {
            "node": 10,
            "path": "translation"
          }
        },
        {
          "sampler": 21,
          "target": {
            "node": 10,
            "path": "rotation"
          }
        },
        {
          "sampler": 22,
          "target": {
            "node": 11,
            "path": "translation"
          }
        },
        {
          "sampler": 23,
          "target": {
            "node": 11,
            "path": "rotation"
          }
        },
        {
          "sampler": 24,
          "target": {
            "node": 12,
            "path": "translation"
          }
        },
        {
          "sampler": 25,
          "target": {
            "node": 12,
            "path": "rotation"
          }
        },
        {
          "sampler": 26,
          "target": {
            "node": 13,
            "path": "translation"
          }
        },
        {
          "sampler": 27,
          "target": {
            "node": 13,
            "path": "rotation"
          }
        },
        {
          "sampler": 28,
          "target": {
            "node": 14,
            "path": "translation"
          }
        },
        {
          "sampler": 29,
          "target": {
            "node": 14,
            "path": "rotation"
          }
        }
      ]
    },
    {
      "name": "Jump",
      "samplers": [
        {
          "interpolation": "LINEAR",
          "input": 68,
          "output": 69
        },
        {
          "interpolation": "LINEAR",
          "input": 68,
          "output": 84
        },
        {
          "interpolation": "LINEAR",
          "input": 68,
          "output": 70
        },
        {
          "interpolation": "LINEAR",
          "input": 68,
          "output": 85
        },
        {
          "interpolation": "LINEAR",
          "input": 68,
          "output": 71
        },
        {
          "interpolation": "LINEAR",
          "input": 68,
          "output": 86
        },
        {
          "interpolation": "LINEAR",
          "input": 68,
          "output": 72
        },
        {
          "interpolation": "LINEAR",
          "input": 68,
          "output": 87
        },
        {
          "interpolation": "LINEAR",
          "input": 68,
          "output": 73
        },
        {
          "interpolation": "LINEAR",
          "input": 68,
          "output": 88
        },
        {
          "interpolation": "LINEAR",
          "input": 68,
          "output": 74
        },
        {
          "interpolation": "LINEAR",
          "input": 68,
          "output": 89
        },
        {
          "interpolation": "LINEAR",
          "input": 68,
          "output": 75
        },
        {
          "interpolation": "LINEAR",
          "input": 68,
          "output": 90
        },
        {
          "interpolation": "LINEAR",
          "input": 68,
          "output": 76
        },
        {
          "interpolation": "LINEAR",
          "input": 68,
          "output": 91
        },
        {
          "interpolation": "LINEAR",
          "input": 68,
          "output": 77
        },
        {
          "interpolation": "LINEAR",
          "input": 68,
          "output": 92
        },
        {
          "interpolation": "LINEAR",
          "input": 68,
          "output": 78
        },
        {
          "interpolation": "LINEAR",
          "input": 68,
          "output": 93
        },
        {
          "interpolation": "LINEAR",
          "input": 68,
          "output": 79
        },
        {
          "interpolation": "LINEAR",
          "input": 68,
          "output": 94
        },
        {
          "interpolation": "LINEAR",
          "input": 68,
          "output": 80
        },
        {
          "interpolation": "LINEAR",
          "input": 68,
          "output": 95
        },
        {
          "interpolation": "LINEAR",
          "input": 68,
          "output": 81
        },
        {
          "interpolation": "LINEAR",
          "input": 68,
          "output": 96
        },
        {
          "interpolation": "LINEAR",
          "input": 68,
          "output": 82
        },
        {
          "interpolation": "LINEAR",
          "input": 68,
          "output": 97
        },
        {
          "interpolation": "LINEAR",
          "input": 68,
          "output": 83
        },
        {
          "interpolation": "LINEAR",
          "input": 68,
          "output": 98
        }
      ],
      "channels": [
        {
          "sampler": 0,
          "target": {
            "node": 0,
            "path": "translation"
          }
        },
        {
          "sampler": 1,
          "target": {
            "node": 0,
            "path": "rotation"
          }
        },
        {
          "sampler": 2,
          "target": {
            "node": 1,
            "path": "translation"
          }
        },
        {
          "sampler": 3,
          "target": {
            "node": 1,
            "path": "rotation"
          }
        },
        {
          "sampler": 4,
          "target": {
            "node": 2,
            "path": "translation"
          }
        },
        {
          "sampler": 5,
          "target": {
            "node": 2,
            "path": "rotation"
          }
        },
        {
          "sampler": 6,
          "target": {
            "node": 3,
            "path": "translation"
          }
        },
        {
          "sampler": 7,
          "target": {
            "node": 3,
            "path": "rotation"
          }
        },
        {
          "sampler": 8,
          "target": {
            "node": 4,
            "path": "translation"
          }
        },
        {
          "sampler": 9,
          "target": {
            "node": 4,
            "path": "rotation"
          }
        },
        {
          "sampler": 10,
          "target": {
            "node": 5,
            "path": "translation"
          }
        },
        {
          "sampler": 11,
          "target": {
            "node": 5,
            "path": "rotation"
          }
        },
        {
          "sampler": 12,
          "target": {
            "node": 6,
            "path": "translation"
          }
        },
        {
          "sampler": 13,
          "target": {
            "node": 6,
            "path": "rotation"
          }
        },
        {
          "sampler": 14,
          "target": {
            "node": 7,
            "path": "translation"
          }
        },
        {
          "sampler": 15,
          "target": {
            "node": 7,
            "path": "rotation"
          }
        },
        {
          "sampler": 16,
          "target": {
            "node": 8,
            "path": "translation"
          }
        },
        {
          "sampler": 17,
          "target": {
            "node": 8,
            "path": "rotation"
          }
        },
        {
          "sampler": 18,
          "target": {
            "node": 9,
            "path": "translation"
          }
        },
        {
          "sampler": 19,
          "target": {
            "node": 9,
            "path": "rotation"
          }
        },
        {
          "sampler": 20,
          "target": {
            "node": 10,
            "path": "translation"
          }
        },
        {
          "sampler": 21,
          "target": {
            "node": 10,
            "path": "rotation"
          }
        },
        {
          "sampler": 22,
          "target": {
            "node": 11,
            "path": "translation"
          }
        },
        {
          "sampler": 23,
          "target": {
            "node": 11,
            "path": "rotation"
          }
        },
        {
          "sampler": 24,
          "target": {
            "node": 12,
            "path": "translation"
          }
        },
        {
          "sampler": 25,
          "target": {
            "node": 12,
            "path": "rotation"
          }
        },
        {
          "sampler": 26,
          "target": {
            "node": 13,
            "path": "translation"
          }
        },
        {
          "sampler": 27,
          "target": {
            "node": 13,
            "path": "rotation"
          }
        },
        {
          "sampler": 28,
          "target": {
            "node": 14,
            "path": "translation"
          }
        },
        {
          "sampler": 29,
          "target": {
            "node": 14,
            "path": "rotation"
          }
        }
      ]
    }
  ]
}
