{
  "accessors": [
    {
      "bufferView": 0,
      "componentType": 5126,
      "type": "VEC3",
      "count": 192,
      "min": [-0.0209999997, 0, -0.0930000022],
      "max": [0.0209999997, 0.157000005, 0.300000012]
    },
    {
      "bufferView": 1,
      "componentType": 5126,
      "type": "VEC3",
      "count": 192
    },
    {
      "bufferView": 2,
      "componentType": 5125,
      "type": "SCALAR",
      "count": 288
    }
  ],
  "asset": {
    "generator": "Traktor",
    "version": "2.0"
  },
  "bufferViews": [
    {
      "buffer": 0,
      "byteLength": 2304
    },
    {
      "buffer": 0,
      "byteLength": 2304,
      "byteOffset": 2304
    },
    {
      "buffer": 0,
      "byteLength": 1152,
      "byteOffset": 4608
    }
  ],
  "buffers": [
    {
      "uri": "data:application/octet-stream;base64,",
      "byteLength": 5760
    }
  ],
  "meshes": [
    {
      "primitives": [
        {
          "indices": 2,
          "material": 0,
          "attributes": {
            "POSITION": 0,
            "NORMAL": 1
          }
        }
      ]
    }
  ],
  "materials": [
    {
      "name": "KeyMat",
      "pbrMetallicRoughness": {
        "metallicFactor": 0,
        "roughnessFactor": 0.800000012
      }
    }
  ],
  "nodes": [
    {
      "mesh": 0
    }
  ],
  "scene": 0,
  "scenes": [
    {
      "nodes": [ 0 ]
    }
  ]
}
