{
  "accessors": [
    {
      "bufferView": 0,
      "componentType": 5126,
      "type": "VEC3",
      "count": 3792,
      "min": [-16.2000008, -0.300000012, -16.2000008],
      "max": [16.2000008, 8.39999962, 16.2000008]
    },
    {
      "bufferView": 1,
      "componentType": 5126,
      "type": "VEC3",
      "count": 3792
    },
    {
      "bufferView": 2,
      "componentType": 5126,
      "type": "VEC2",
      "count": 3792
    },
    {
      "bufferView": 3,
      "componentType": 5125,
      "type": "SCALAR",
      "count": 5688
    }
  ],
  "asset": {
    "generator": "Traktor",
    "version": "2.0"
  },
  "bufferViews": [
    {
      "buffer": 0,
      "byteLength": 45504
    },
    {
      "buffer": 0,
      "byteLength": 45504,
      "byteOffset": 45504
    },
    {
      "buffer": 0,
      "byteLength": 30336,
      "byteOffset": 91008
    },
    {
      "buffer": 0,
      "byteLength": 22752,
      "byteOffset": 121344
    }
  ],
  "buffers": [
    {
      "uri": "data:application/octet-stream;base64,",
      "byteLength": 144096
    }
  ],
  "meshes": [
    {
      "primitives": [
        {
          "indices": 3,
          "material": 0,
          "attributes": {
            "POSITION": 0,
            "NORMAL": 1,
            "TEXCOORD_0": 2
          }
        }
      ]
    }
  ],
  "materials": [
    {
      "name": "MazeMat",
      "pbrMetallicRoughness": {
        "metallicFactor": 0,
        "roughnessFactor": 0.800000012
      }
    }
  ],
  "nodes": [
    {
      "mesh": 0
    }
  ],
  "scene": 0,
  "scenes": [
    {
      "nodes": [ 0 ]
    }
  ]
}
