{
  "accessors": [
    {
      "bufferView": 0,
      "componentType": 5126,
      "type": "VEC3",
      "count": 576,
      "min": [-0.0759999976, 0, -0.0759999976],
      "max": [0.0759999976, 0.317999989, 0.0759999976]
    },
    {
      "bufferView": 1,
      "componentType": 5126,
      "type": "VEC3",
      "count": 576
    },
    {
      "bufferView": 2,
      "componentType": 5125,
      "type": "SCALAR",
      "count": 576
    },
    {
      "bufferView": 3,
      "componentType": 5125,
      "type": "SCALAR",
      "count": 216
    }
  ],
  "asset": {
    "generator": "Traktor",
    "version": "2.0"
  },
  "bufferViews": [
    {
      "buffer": 0,
      "byteLength": 6912
    },
    {
      "buffer": 0,
      "byteLength": 6912,
      "byteOffset": 6912
    },
    {
      "buffer": 0,
      "byteLength": 2304,
      "byteOffset": 13824
    },
    {
      "buffer": 0,
      "byteLength": 864,
      "byteOffset": 16128
    }
  ],
  "buffers": [
    {
      "uri": "data:application/octet-stream;base64,",
      "byteLength": 16992
    }
  ],
  "meshes": [
    {
      "primitives": [
        {
          "indices": 2,
          "material": 0,
          "attributes": {
            "POSITION": 0,
            "NORMAL": 1
          }
        },
        {
          "indices": 3,
          "material": 1,
          "attributes": {
            "POSITION": 0,
            "NORMAL": 1
          }
        }
      ]
    }
  ],
  "materials": [
    {
      "name": "Glass",
      "pbrMetallicRoughness": {
        "metallicFactor": 0,
        "roughnessFactor": 0.180000007,
        "baseColorFactor": [0.600000024, 0.0450000018, 0.0599999987, 1]
      }
    },
    {
      "name": "Cork",
      "pbrMetallicRoughness": {
        "metallicFactor": 0,
        "roughnessFactor": 0.949999988,
        "baseColorFactor": [0.419999987, 0.25999999, 0.129999995, 1]
      }
    }
  ],
  "nodes": [
    {
      "mesh": 0
    }
  ],
  "scene": 0,
  "scenes": [
    {
      "nodes": [ 0 ]
    }
  ]
}
