{
  "accessors": [
    {
      "bufferView": 0,
      "componentType": 5126,
      "type": "VEC3",
      "count": 1352,
      "min": [-0.150000006, 0, -0.109999999],
      "max": [0.150000006, 0.185000002, 0.109999999]
    },
    {
      "bufferView": 1,
      "componentType": 5126,
      "type": "VEC3",
      "count": 1352
    },
    {
      "bufferView": 2,
      "componentType": 5125,
      "type": "SCALAR",
      "count": 180
    },
    {
      "bufferView": 3,
      "componentType": 5125,
      "type": "SCALAR",
      "count": 1680
    }
  ],
  "asset": {
    "generator": "Traktor",
    "version": "2.0"
  },
  "bufferViews": [
    {
      "buffer": 0,
      "byteLength": 16224
    },
    {
      "buffer": 0,
      "byteLength": 16224,
      "byteOffset": 16224
    },
    {
      "buffer": 0,
      "byteLength": 720,
      "byteOffset": 32448
    },
    {
      "buffer": 0,
      "byteLength": 6720,
      "byteOffset": 33168
    }
  ],
  "buffers": [
    {
      "uri": "data:application/octet-stream;base64,",
      "byteLength": 39888
    }
  ],
  "meshes": [
    {
      "primitives": [
        {
          "indices": 2,
          "material": 0,
          "attributes": {
            "POSITION": 0,
            "NORMAL": 1
          }
        },
        {
          "indices": 3,
          "material": 1,
          "attributes": {
            "POSITION": 0,
            "NORMAL": 1
          }
        }
      ]
    }
  ],
  "materials": [
    {
      "name": "Wood",
      "pbrMetallicRoughness": {
        "metallicFactor": 0,
        "roughnessFactor": 0.899999976,
        "baseColorFactor": [0.300000012, 0.170000002, 0.0799999982, 1]
      }
    },
    {
      "name": "Brass",
      "pbrMetallicRoughness": {
        "metallicFactor": 0.5,
        "roughnessFactor": 0.280000001,
        "baseColorFactor": [0.850000024, 0.620000005, 0.219999999, 1]
      }
    }
  ],
  "nodes": [
    {
      "mesh": 0
    }
  ],
  "scene": 0,
  "scenes": [
    {
      "nodes": [ 0 ]
    }
  ]
}
