{
 "accessors": [
  {
   "bufferView": 0,
   "componentType": 5126,
   "type": "VEC3",
   "count": 39,
   "min": [
    -0.215000004,
    0,
    -0.184
   ],
   "max": [
    0.181999996,
    0.492000014,
    0.202999994
   ]
  },
  {
   "bufferView": 1,
   "componentType": 5126,
   "type": "VEC3",
   "count": 39
  },
  {
   "bufferView": 2,
   "componentType": 5126,
   "type": "VEC2",
   "count": 39
  },
  {
   "bufferView": 3,
   "componentType": 5125,
   "type": "SCALAR",
   "count": 39
  }
 ],
 "asset": {
  "generator": "Traktor",
  "version": "2.0"
 },
 "bufferViews": [
  {
   "buffer": 0,
   "byteLength": 468
  },
  {
   "buffer": 0,
   "byteLength": 468,
   "byteOffset": 468
  },
  {
   "buffer": 0,
   "byteLength": 312,
   "byteOffset": 936
  },
  {
   "buffer": 0,
   "byteLength": 156,
   "byteOffset": 1248
  }
 ],
 "buffers": [
  {
   "uri": "data:application/octet-stream;base64,",
   "byteLength": 1404
  }
 ],
 "meshes": [
  {
   "primitives": [
    {
     "indices": 3,
     "material": 0,
     "attributes": {
      "POSITION": 0,
      "NORMAL": 1,
      "TEXCOORD_0": 2
     }
    }
   ]
  }
 ],
 "materials": [
  {
   "name": "GrassTuft",
   "pbrMetallicRoughness": {
    "metallicFactor": 0,
    "roughnessFactor": 0.800000012,
    "baseColorTexture": {
     "index": 0,
     "texCoord": 0
    }
   }
  }
 ],
 "nodes": [
  {
   "mesh": 0
  }
 ],
 "scene": 0,
 "scenes": [
  {
   "nodes": [
    0
   ]
  }
 ],
 "textures": [
  {
   "name": "diffuse"
  }
 ]
}