{
 "accessors": [
  {
   "bufferView": 0,
   "componentType": 5126,
   "type": "VEC3",
   "count": 99,
   "min": [
    -0.606000006,
    -0.0599999987,
    -0.513999999
   ],
   "max": [
    0.442000002,
    0.560000002,
    0.497999996
   ]
  },
  {
   "bufferView": 1,
   "componentType": 5126,
   "type": "VEC3",
   "count": 99
  },
  {
   "bufferView": 2,
   "componentType": 5126,
   "type": "VEC2",
   "count": 99
  },
  {
   "bufferView": 3,
   "componentType": 5125,
   "type": "SCALAR",
   "count": 135
  }
 ],
 "asset": {
  "generator": "Traktor",
  "version": "2.0"
 },
 "bufferViews": [
  {
   "buffer": 0,
   "byteLength": 1188
  },
  {
   "buffer": 0,
   "byteLength": 1188,
   "byteOffset": 1188
  },
  {
   "buffer": 0,
   "byteLength": 792,
   "byteOffset": 2376
  },
  {
   "buffer": 0,
   "byteLength": 540,
   "byteOffset": 3168
  }
 ],
 "buffers": [
  {
   "uri": "data:application/octet-stream;base64,",
   "byteLength": 3708
  }
 ],
 "meshes": [
  {
   "primitives": [
    {
     "indices": 3,
     "material": 0,
     "attributes": {
      "POSITION": 0,
      "NORMAL": 1,
      "TEXCOORD_0": 2
     }
    }
   ]
  }
 ],
 "materials": [
  {
   "name": "Stump",
   "pbrMetallicRoughness": {
    "metallicFactor": 0,
    "roughnessFactor": 0.800000012,
    "baseColorTexture": {
     "index": 0,
     "texCoord": 0
    }
   }
  }
 ],
 "nodes": [
  {
   "mesh": 0
  }
 ],
 "scene": 0,
 "scenes": [
  {
   "nodes": [
    0
   ]
  }
 ],
 "textures": [
  {
   "name": "diffuse"
  }
 ]
}