{
  "accessors": [
    {
      "bufferView": 0,
      "componentType": 5126,
      "type": "VEC3",
      "count": 416,
      "min": [-0.119999997, 0, -0.119999997],
      "max": [0.119999997, 0.108000003, 0.119999997]
    },
    {
      "bufferView": 1,
      "componentType": 5126,
      "type": "VEC3",
      "count": 416
    },
    {
      "bufferView": 2,
      "componentType": 5125,
      "type": "SCALAR",
      "count": 576
    }
  ],
  "asset": {
    "generator": "Traktor",
    "version": "2.0"
  },
  "bufferViews": [
    {
      "buffer": 0,
      "byteLength": 4992
    },
    {
      "buffer": 0,
      "byteLength": 4992,
      "byteOffset": 4992
    },
    {
      "buffer": 0,
      "byteLength": 2304,
      "byteOffset": 9984
    }
  ],
  "buffers": [
    {
      "uri": "data:application/octet-stream;base64,",
      "byteLength": 12288
    }
  ],
  "meshes": [
    {
      "primitives": [
        {
          "indices": 2,
          "material": 0,
          "attributes": {
            "POSITION": 0,
            "NORMAL": 1
          }
        }
      ]
    }
  ],
  "materials": [
    {
      "name": "Crust",
      "pbrMetallicRoughness": {
        "metallicFactor": 0,
        "roughnessFactor": 0.899999976,
        "baseColorFactor": [0.550000012, 0.319999993, 0.119999997, 1]
      }
    }
  ],
  "nodes": [
    {
      "mesh": 0
    }
  ],
  "scene": 0,
  "scenes": [
    {
      "nodes": [ 0 ]
    }
  ]
}
