{
 "accessors": [
  {
   "bufferView": 0,
   "componentType": 5126,
   "type": "VEC3",
   "count": 179,
   "min": [
    -0.760999978,
    0,
    -0.69599998
   ],
   "max": [
    0.586000025,
    0.759000003,
    0.657999992
   ]
  },
  {
   "bufferView": 1,
   "componentType": 5126,
   "type": "VEC3",
   "count": 179
  },
  {
   "bufferView": 2,
   "componentType": 5126,
   "type": "VEC2",
   "count": 179
  },
  {
   "bufferView": 3,
   "componentType": 5125,
   "type": "SCALAR",
   "count": 207
  }
 ],
 "asset": {
  "generator": "Traktor",
  "version": "2.0"
 },
 "bufferViews": [
  {
   "buffer": 0,
   "byteLength": 2148
  },
  {
   "buffer": 0,
   "byteLength": 2148,
   "byteOffset": 2148
  },
  {
   "buffer": 0,
   "byteLength": 1432,
   "byteOffset": 4296
  },
  {
   "buffer": 0,
   "byteLength": 828,
   "byteOffset": 5728
  }
 ],
 "buffers": [
  {
   "uri": "data:application/octet-stream;base64,",
   "byteLength": 6556
  }
 ],
 "meshes": [
  {
   "primitives": [
    {
     "indices": 3,
     "material": 0,
     "attributes": {
      "POSITION": 0,
      "NORMAL": 1,
      "TEXCOORD_0": 2
     }
    }
   ]
  }
 ],
 "materials": [
  {
   "name": "Bush",
   "pbrMetallicRoughness": {
    "metallicFactor": 0,
    "roughnessFactor": 0.800000012,
    "baseColorTexture": {
     "index": 0,
     "texCoord": 0
    }
   }
  }
 ],
 "nodes": [
  {
   "mesh": 0
  }
 ],
 "scene": 0,
 "scenes": [
  {
   "nodes": [
    0
   ]
  }
 ],
 "textures": [
  {
   "name": "diffuse"
  }
 ]
}