{
  "accessors": [
    {
      "bufferView": 0,
      "componentType": 5126,
      "type": "VEC3",
      "count": 840,
      "min": [-0.170000002, 0, -0.170000002],
      "max": [0.170000002, 0.136000007, 0.170000002]
    },
    {
      "bufferView": 1,
      "componentType": 5126,
      "type": "VEC3",
      "count": 840
    },
    {
      "bufferView": 2,
      "componentType": 5125,
      "type": "SCALAR",
      "count": 1200
    }
  ],
  "asset": {
    "generator": "Traktor",
    "version": "2.0"
  },
  "bufferViews": [
    {
      "buffer": 0,
      "byteLength": 10080
    },
    {
      "buffer": 0,
      "byteLength": 10080,
      "byteOffset": 10080
    },
    {
      "buffer": 0,
      "byteLength": 4800,
      "byteOffset": 20160
    }
  ],
  "buffers": [
    {
      "uri": "data:application/octet-stream;base64,",
      "byteLength": 24960
    }
  ],
  "meshes": [
    {
      "primitives": [
        {
          "indices": 2,
          "material": 0,
          "attributes": {
            "POSITION": 0,
            "NORMAL": 1
          }
        }
      ]
    }
  ],
  "materials": [
    {
      "name": "Iron",
      "pbrMetallicRoughness": {
        "metallicFactor": 0.899999976,
        "roughnessFactor": 0.449999988,
        "baseColorFactor": [0.0700000003, 0.0719999969, 0.0799999982, 1]
      }
    }
  ],
  "nodes": [
    {
      "mesh": 0
    }
  ],
  "scene": 0,
  "scenes": [
    {
      "nodes": [ 0 ]
    }
  ]
}
