{
  "accessors": [
    {
      "bufferView": 0,
      "componentType": 5126,
      "type": "VEC3",
      "count": 1440,
      "min": [-0.124339998, 0, -0.119499996],
      "max": [0.104630001, 0.0450000018, 0.0896300003]
    },
    {
      "bufferView": 1,
      "componentType": 5126,
      "type": "VEC3",
      "count": 1440
    },
    {
      "bufferView": 2,
      "componentType": 5125,
      "type": "SCALAR",
      "count": 1728
    }
  ],
  "asset": {
    "generator": "Traktor",
    "version": "2.0"
  },
  "bufferViews": [
    {
      "buffer": 0,
      "byteLength": 17280
    },
    {
      "buffer": 0,
      "byteLength": 17280,
      "byteOffset": 17280
    },
    {
      "buffer": 0,
      "byteLength": 6912,
      "byteOffset": 34560
    }
  ],
  "buffers": [
    {
      "uri": "data:application/octet-stream;base64,",
      "byteLength": 41472
    }
  ],
  "meshes": [
    {
      "primitives": [
        {
          "indices": 2,
          "material": 0,
          "attributes": {
            "POSITION": 0,
            "NORMAL": 1
          }
        }
      ]
    }
  ],
  "materials": [
    {
      "name": "Silver",
      "pbrMetallicRoughness": {
        "metallicFactor": 0.800000012,
        "roughnessFactor": 0.349999994,
        "baseColorFactor": [0.620000005, 0.629999995, 0.660000026, 1]
      }
    }
  ],
  "nodes": [
    {
      "mesh": 0
    }
  ],
  "scene": 0,
  "scenes": [
    {
      "nodes": [ 0 ]
    }
  ]
}
